<svg height='100px' width='100px'  fill="#000000" xmlns:dc="http://purl.org/dc/elements/1.1/" xmlns:cc="http://creativecommons.org/ns#" xmlns:rdf="http://www.w3.org/1999/02/22-rdf-syntax-ns#" xmlns:svg="http://www.w3.org/2000/svg" xmlns="http://www.w3.org/2000/svg" viewBox="0 0 89.999999 100" version="1.1" x="0px" y="0px"><path d="m 47.667969,42.503906 0.464843,0.03125 c 0.251266,0.18174 0.436066,0.546263 0.761719,0.523438 M 38.628178,41.588983 c 0.06593,0.225699 0.148684,0.455603 -0.03178,0.619703 0.44619,0.321622 0.507757,0.687624 0.405191,1.072564 0.276397,0.06513 0.512655,0.218557 0.683263,0.516419 1.161444,-0.47542 1.566909,0.279825 1.82733,1.271187 0.534933,0.04777 1.186414,-0.03991 0.96928,0.881885 0.303792,-0.121982 0.618671,-0.273312 0.572034,0.53231 0.222342,-0.165692 0.46415,-0.302187 0.770657,-0.341632 -0.01978,-0.580736 0.181355,-0.769848 0.627648,-0.524364 -0.07599,-0.664117 0.212061,-0.923746 0.707097,-0.95339 0.244533,-0.42751 0.521303,-0.805718 1.120234,-0.691208 0.226376,-0.535587 0.668286,-0.590368 1.167903,-0.516419 0.02126,-0.267034 0.07015,-0.51039 0.238347,-0.651483 0.0054,-0.34532 -0.17288,-0.766288 0.158898,-0.977225 -0.107421,-0.504841 -0.231062,-0.912356 -0.48464,-0.540254 -0.346895,0.179454 -0.52157,0.02677 -0.572034,-0.365466 -0.262155,-0.177392 -0.475653,-0.273688 -0.548199,-0.135064 -0.886282,0.548696 -0.639861,-0.941471 -0.865996,-1.581038 -0.285587,-0.491419 -0.236433,-0.958928 -0.238347,-1.430085 -0.553793,-0.315691 -0.689041,-0.724368 -0.595869,-1.183792 -0.379479,-0.183455 -0.232486,-0.476592 -0.119174,-0.762712 -0.106185,-0.426105 -0.239571,-0.253805 -0.365466,-0.246292 -0.280044,0.250374 -0.584048,0.318647 -0.969279,-0.230403 -0.322896,-0.189878 -0.476553,-0.392775 -0.524365,-0.603813 -0.156418,-0.07218 -0.291144,-0.05759 -0.40519,0.03972 -0.348034,0.214349 -0.794775,0.600707 -0.460806,-0.373411 -0.04558,-0.197496 -0.09786,-0.389743 -0.619703,-0.214512 -0.08446,0.08768 -0.265993,0.07828 -0.476695,0.03972 m 13.131112,18.232609 c -0.43495,-0.119849 -0.456453,-0.239697 -0.61797,-0.359546 -0.137087,-0.826726 -0.437961,-0.441433 -0.719091,-0.202245 -0.15169,0.06989 -0.290141,0.183908 -0.528083,-0.03371 -0.293364,-0.469461 -0.556671,-1.048224 -1.168524,-0.359546 -0.07695,0.14887 -0.196681,0.180091 -0.393253,0 -0.08492,-0.406384 -0.338304,-0.552399 -0.752799,-0.449432 -0.329623,0.04125 -0.472307,-0.184548 -0.595498,-0.438197 0.299532,-0.682508 -0.549799,-0.503369 -0.887629,-0.707856 -0.277606,-0.525855 -0.612603,-0.256867 -1.04493,-0.404489 -0.13068,-0.323625 -0.01981,-0.810951 -0.337074,-0.921336 -0.02541,-0.13707 -0.130887,-0.284147 0.06741,-0.393253 0.434944,-0.04517 0.901089,-0.03685 1.134816,-0.426961 0.553158,0.337874 1.436905,0.364525 0.550555,-0.438196 0.05708,-0.526378 -0.472128,-0.70098 -0.83145,-0.977515 0.257384,-0.403942 0.202321,-0.72688 -0.34831,-0.921337 -0.114825,-0.126086 0.01689,-0.216952 0.101122,-0.314602 0.355209,-0.106737 0.636631,-0.220615 0.07865,-0.415725 -0.03005,-0.158534 0.0078,-0.328392 0.157301,-0.516847 0.934489,-0.145996 1.510851,-0.466464 1.280882,-1.17976 0.335545,-0.296144 1.035492,-0.379721 0.719092,-1.056166 0.12479,-0.313621 0.420351,-0.334493 0.752799,-0.29213 0.840352,0.38577 0.559425,-0.304889 0.730327,-0.561791 0.285389,-0.214016 0.574477,-0.426711 1.269647,-0.494376 M 39.764301,32.722457 c 0.205779,0.0085 0.371408,0.07325 0.675318,-0.05561 1.182953,-0.01781 0.665908,0.944738 0.198623,0.985169 l -0.04767,0.754767 c -0.238183,0.22295 -0.506159,0.356523 -0.786546,0.452861 -0.01907,0.221929 0.05581,0.5378 -0.09534,0.627648 -0.708864,0.183593 -0.07161,0.643312 -0.04767,0.977224 1.689226,0.595364 0.560904,1.28916 -0.135063,1.42214 0.02081,0.475274 -0.132425,0.823544 -0.889831,0.730932 l -0.02383,0.9375 c 0.95806,0.757755 0.440777,1.383389 0.02383,2.018009 -0.518362,0.125439 -0.991441,0.286873 -0.699153,1.056674 0.597193,0.639227 -6.27e-4,0.778215 -0.246292,1.064618 0.159512,1.037987 -0.573682,0.848502 -1.040784,1.024894 -0.07625,0.129767 -0.06402,0.259534 0.0079,0.389301 1.0687,0.492325 -0.239987,0.747039 -0.349576,0.715043 l -0.43697,0.40519 m 17.43119,8.079975 0,-0.635593 c 0.16036,-0.01472 0.249105,-0.118969 0.325741,-0.238348 0.112673,-0.372834 0.07938,-0.804054 0.09534,-1.215572 0.127405,-0.490177 0.684957,-0.03868 0.818326,-0.325741 l 0.135064,-0.579979 c 0.228921,0.01271 0.5582,0.216421 0.317797,-0.357521 -0.07742,-0.546463 0.143727,-0.879121 0.636722,-0.770657 0.259198,-0.05293 0.4155,-0.18155 0.634464,0.08739 0.310212,1.383755 1.456045,0.891395 1.493644,-0.182733 0.330065,-0.103861 0.521084,-0.369404 0.397246,-1.001059 0.393785,-0.365213 0.617744,-0.99129 1.048729,-1.215572 m -7.341103,8.810915 c 0.314994,-0.207969 0.484239,-0.488813 0.95339,-0.619704 0.0069,-0.398172 0.05014,-0.856869 0,-1.159957 0.162579,-0.135199 0.319313,-0.299619 0.460805,-0.540254 0.07417,-0.207307 0.339167,-0.07732 0.548199,-0.111229 0.377477,0.707084 0.807786,0.328742 0.794492,-0.333687 0.192125,-0.147424 0.367255,-0.347958 0.722987,0.01589 0.08662,0.08621 0.382705,0.08265 0.603813,0.111229 -0.04477,0.364957 0.193168,1.141737 0.444916,0.556144 l 0.540254,0.09534 c 0.193283,0.03259 0.419376,0.119864 0.492585,-0.04767 0.21928,-0.137695 0.442965,-0.187297 0.683262,0.09534 0.47302,0.410269 0.535684,0.07799 0.572034,-0.301907 0.383906,-0.296137 0.737752,-0.649888 1.366526,-0.476695 0.298606,-0.152987 0.596115,-0.300491 0.87394,-0.349576 M 23.218795,27.360508 c 0.404818,-0.08139 0.679424,-0.2547 0.72471,-0.58988 0.193692,-0.181108 0.322765,-0.567823 0.735945,-0.05056 0.250299,-0.146638 0.470551,-0.143047 0.657295,0.02809 0.215093,0.41757 0.02208,1.002754 1.342679,0.966279 0.03494,0.192265 0.227885,0.305527 0.382017,0.438196 0.355337,0.808563 0.294879,0.08189 0.404489,-0.01685 0.11973,-0.0091 0.266839,-0.07301 0.286513,0.117976 0.113066,0.121485 0.0404,0.30488 0.438197,0.331456 0.592318,0.273557 0.718222,1.372308 1.808965,0.764035 0.304176,-0.06235 0.599522,-0.09821 0.820213,0.08989 0.477832,0.601903 0.800861,0.395391 1.089874,0.01124 l 0.269659,0.02247 c 0.37842,0.219175 1.652721,0.905276 1.764022,-0.191009 0.1094,-0.52529 0.516137,-0.509966 0.842685,-0.640441 0.596171,-0.498092 0.528388,0.07488 0.674149,0.303367 0.296668,0.0054 0.582911,0.03797 0.77527,0.314602 0.172876,0.235232 0.25523,0.75596 0.685385,0.179773 0.206082,0.09896 0.409518,0.198492 0.325838,0.359546 -0.860461,0.603751 0.05126,2.951885 1.089873,2.460642 0.185726,-0.02273 0.317495,-0.0054 0.359546,0.07865 0.03812,0.482931 1.600602,1.235921 1.404476,-1.202232 0.09527,-0.147504 0.222954,-0.100457 0.337074,-0.134829 0.120295,0.15498 0.222749,0.702452 0.382018,0 0.154531,-0.06877 0.358927,-0.07937 0.640441,0 0.543492,0.673959 0.611413,0.219396 0.797742,0.112358 0.178647,0.214736 0.37348,0.251432 0.573168,0.234719 0.252423,1.615989 1.265113,0.203507 1.247352,-0.715042 m 22.04714,36.427427 c 0.337183,-0.332659 0.839241,-0.544833 0.659428,-1.255296 0.552813,-0.322056 1.631379,-1.716602 0.0079,-1.517479 0.0057,-0.69716 -0.263535,-1.070816 -0.977225,-0.92161 -0.258737,-0.129716 -0.296909,-0.259527 -0.42108,-0.389301 0.242284,-0.284979 0.03843,-0.601826 0.01589,-0.905721 -0.216254,-0.214788 -1.123102,-0.118809 -0.579979,-0.675317 0.272964,-0.161509 0.03105,-0.425993 -0.09534,-0.667373 -0.97944,-0.608371 -1.259156,-1.791305 -0.143009,-1.42214 0.635443,-0.18423 0.950318,-0.735777 0.572034,-2.081568 m 9.924749,5.40513 c -0.205627,-0.449002 -0.44485,-0.739623 -0.797742,-0.494375 -0.230597,-0.279568 -0.592896,-0.554258 -0.280896,-0.853922 -0.207653,-0.327324 -0.302055,-0.662738 -0.21348,-1.011222 -0.008,-0.333753 0.07694,-0.77855 -0.56179,-0.359546 -0.194754,0.06775 -0.389508,0.09454 -0.584262,-0.213481 -0.234733,-0.08261 -0.35041,-0.02915 -0.438197,0.05618 -0.178172,1.235253 -0.688434,0.04349 -0.999987,-0.112359 -0.737765,-0.243744 -1.375332,-0.551901 -1.235938,-1.359532 -0.16552,-0.07123 -0.323787,-0.16664 -0.550555,-0.03371 -0.158838,0.368465 -0.350417,0.04939 -0.528083,0.02247 -1.028751,-0.362134 -0.527462,-0.565988 -0.404489,-0.808978 0.07688,-0.714961 -1.007155,-1.801226 -1.775257,-0.584262 -0.159518,0.117248 -0.297153,0.161551 -0.393254,0.06741 -0.116889,-0.08547 -0.319146,-0.09776 -0.584262,-0.05618 -0.11147,0.170964 -0.281211,0.30551 -0.56179,0.370781 -0.404165,-0.09397 -0.648521,-0.279251 -0.90977,-0.454884 -0.857577,0.320013 -1.392102,0.360157 -1.536095,-1.168513 -0.05659,-0.284555 -0.232151,-0.390651 -0.50053,-0.357521 -0.447324,-0.184332 -0.947985,-0.349615 -0.532309,-0.842161 0.124707,-0.729628 -0.425531,-0.649321 -0.794491,-0.786547 -0.720285,-0.623862 -1.228984,-2.102888 -0.08739,-1.581038 0.152682,-0.380479 1.231253,-0.618513 0.3893,-1.152013 0.05504,-0.443557 0.0667,-0.904462 0.01589,-1.39036 0.189535,-0.143775 0.332159,-0.346189 0.436971,-0.595868 M 30.04767,13.185911 c 0.300731,-0.05239 0.586357,-0.02925 0.865995,0.02383 -0.224811,0.704203 -0.225972,1.504737 0.619704,0.715043 1.164785,0.684147 1.511599,-0.110347 1.581038,-1.40625 0.213301,-0.233514 0.434102,-0.458696 0.834216,-0.48464 0.525004,-0.04909 0.298961,-0.205475 0.103284,-0.357521 -0.0077,-0.778737 0.393817,-0.755964 0.88983,-0.548199 0.337235,0.210793 0.831419,1.402434 1.295022,-0.913666 0.813218,-0.02392 2.577111,-1.0987135 0.46875,-2.2007412 -0.144084,-0.2356992 -0.05924,-0.4713983 -0.07151,-0.7070975 0.638106,-0.3734523 0.632148,-0.6963898 0.190678,-0.9851695 -0.01698,-0.4018383 0.09909,-0.5171081 0.357522,-0.3257415 0.323889,-0.010238 0.665511,0.026814 0.929555,-0.1430085 0.0415,-0.2563479 0.148353,-0.4734885 0.09534,-0.7865466 0.230834,-0.072917 0.341584,-0.7102314 0.762711,0.1112288 0.337111,0.049559 0.685353,0.114531 0.754767,-0.2065678 0.42009,0.1241601 0.709299,0.032366 0.707098,-0.5402542 0.02648,-0.1483022 0.10593,-0.201274 0.238347,-0.1588983 M 33.505176,21.147107 c -0.454111,-0.21629 -0.640824,-0.521713 -0.780888,-0.842686 -0.294505,-0.49372 -0.683342,-0.746366 -1.168524,-0.752799 -0.219855,-0.452946 -0.554549,-0.814022 -0.876393,-1.185377 -1.059458,-0.08851 -0.970811,-0.733595 -1.095491,-1.275264 -0.90234,-1.240604 -0.607237,-2.178557 0.415725,-2.932546 0.46477,-0.978374 -0.484719,-1.966959 -0.943808,-0.730328 -0.626321,0.07022 -0.853659,-0.450653 -0.910101,-1.224702 -0.761011,-0.736481 -0.309489,-1.106915 0.01124,-1.516834 C 28.711054,9.981327 28.562208,9.0946718 28.482771,8.2259288 27.797598,8.0504686 28.19983,7.5892842 29.055797,7.6753743 28.869779,7.1879862 29.028042,6.3377074 28.123225,6.6079726 L 27.831094,5.9225884 M 20.148305,24.578919 c 0.214001,-0.359314 0.394085,-0.762235 0.460805,-1.310911 0.597829,-0.214113 0.264554,-0.618247 -0.158898,-1.040784 0.03253,-0.30178 0.03641,-0.641769 0.127114,-0.865995 0.342736,-0.122649 0.145246,-0.814874 0.738878,-0.889831 0.362359,0.0759 0.4981,-0.09225 0.587923,-0.309852 0.155493,-0.08702 0.351232,-0.0533 0.5482,-0.01589 0.458843,0.821047 0.955824,1.057297 1.541313,-0.06356 0.422396,-0.0047 0.83276,-0.06349 1.295021,0.111229 0.196931,0.322875 -0.07514,1.686339 0.722988,0.675318 l 0.45286,-0.04767 c 0.241379,0.411741 0.625927,0.632591 1.310911,0.45286 0.880154,0.801181 1.489718,0.604566 2.033898,0.166844 l 0.818326,0.06356 c 0.249076,0.128088 0.209292,0.611059 1.144068,-0.103284 0.630384,-0.01774 1.326868,0.126107 1.779661,-0.325741 l 0.993115,-0.0079 c 0.734553,0.438678 1.550111,1.375847 2.025953,0.222457 0.195456,-0.09699 0.390913,-0.340777 0.586369,-0.06397 0.428672,0.262803 0.742482,0.265252 0.853921,-0.191008 0.515218,-0.208431 0.961963,-0.125848 1.39324,0.02247 0.450465,0.439553 0.932542,0.8633 1.17976,1.404476 M 19.898614,25.15829 20.157038,24.5965 c -0.393808,-0.43177 -0.460561,-0.972558 -0.61797,-1.483127 -0.90055,0.121151 -0.984437,-0.388756 -0.966279,-0.977515 -0.313731,-0.02882 -0.371768,-0.27071 -0.438197,-0.505611 -0.546816,0.09551 -0.758162,-0.200357 -0.797742,-0.69662 -0.08136,-0.244952 -0.289205,-0.152622 -0.494375,-0.06742 -0.758781,0.700181 -0.999577,-0.20539 -1.359533,-0.741564 -0.260434,-0.06563 0.08084,-0.987195 -0.168537,-1.190995 -0.203461,-0.256576 0.301999,-1.097925 0.943808,-0.370782 0.120028,0.02373 0.282689,0.345886 0.325838,-0.168537 0.05513,-0.73 0.290357,-0.439509 0.460668,-0.516847 0.324676,-0.433987 0.08898,-0.643823 0.02247,-0.921336 -0.677266,-0.498121 -0.574726,-0.996241 -0.752799,-1.494362 -0.793628,-0.891131 -1.537885,-1.806483 -0.13483,-3.775232 0.239408,-0.522436 -0.03516,-1.310125 0.168537,-1.617956 m -6.782419,20.00026 c 0.3286388,0.106679 0.496733,-0.268277 0.730932,-0.444916 0.568057,0.172277 1.166922,0.533255 1.573093,-0.286017 0.713648,-0.206629 0.413898,-0.833448 0.301907,-1.382415 0.736088,-0.378007 0.800157,-1.02002 0.96928,-1.620763 0.01634,-0.222165 0.511198,-0.518296 0.492585,-0.07945 0.580358,0.761959 0.775578,0.197332 0.985169,-0.317796 l 0.96928,-0.03178 c 0.490336,-0.504771 0.96499,-0.843304 1.350635,-0.238347 0.575158,0.160474 1.03125,0.059 1.080509,-0.9375 0.290825,-0.110381 0.575676,-0.236295 0.96928,-0.07945 0.1583,0.184282 0.199858,0.412342 0.508474,0.540255 0.34959,0.02644 0.764405,-0.142789 1.048729,0.07945 0.134037,0.05992 0.21048,0.311817 0.460805,-0.01589 l 0.540254,0.01589 c 0.09543,0.449251 0.56188,0.589323 0.206568,1.414195 -0.135368,0.649898 0.22567,0.352109 0.540254,0.143008 0.17603,-0.0032 0.31519,-0.0679 0.5482,0.02383 0.139769,0.17189 0.165378,0.441631 0.43697,0.50053 0.522115,0.362346 0.833313,0.750002 0.826271,1.175847 0.166911,0.427558 1.452899,0.83095 1.549258,1.183792 l 0.03178,0.746822 M 6.467161,16.689618 c 0.3212027,0.149844 0.6210053,-0.192514 0.9216102,-0.516419 0.4620547,0.06102 0.7211064,-0.247064 0.9533899,-0.603814 0.7493991,-0.08615 1.9433139,0.346296 2.1292369,-0.397246 0.383511,-0.0055 0.686871,-0.05116 0.48464,-0.349576 -0.09544,-0.104323 -0.06909,-0.233004 -0.06356,-0.357521 0.254513,-0.128629 0.377307,-0.291546 -0.317797,-0.667373 -0.0462,-0.160737 -0.02924,-0.275287 0.0079,-0.540255 0.502356,-0.197093 -0.110223,-0.519397 -0.111224,-0.667372 -0.104873,-0.322034 0.03084,-0.55385 0.07945,-0.818326 m 32.100316,-6.9277651 -0.01124,0.5730262 c 0.10805,0.2848607 -0.205677,0.2246318 -0.404489,0.2584236 l -0.02247,0.5842619 c -0.237568,0.2699066 -0.395412,0.5859691 -1.17976,0.5393188 l -0.04494,1.0336942 c -0.578005,-0.1179101 -1.161585,0.8656151 -0.202245,1.5505414 0.378152,0.1461427 0.641334,0.3661945 0.191009,1.04493 -0.353111,0.383666 -0.908071,0.730068 0.617969,1.460655 -0.05395,0.283611 -0.103881,0.564 -0.01123,0.730327 0.239993,0.07461 0.553478,0.07573 0.539318,0.40449 0.0806,0.10461 0.275071,0.303401 0.449647,0.01061 1.651218,-1.300069 2.258163,0.388968 2.100881,1.034318 0.146066,0.07465 0.292131,0.111401 0.438197,0.415725 m 22.133993,53.926745 c 0.05637,-0.190234 0.135537,-0.353879 0.317797,-0.397246 0.290204,-0.0488 0.125709,-0.177841 0.07945,-0.286017 0.03379,-0.348259 0.321472,-0.429933 0.778601,-0.333686 l 0.238348,0.06356 c 0.435765,-0.482764 0.6642,-0.327589 0.826271,0.03178 -0.182886,0.252948 0.265449,1.05388 0.683263,0.460805 0.36821,-0.101937 0.531571,-0.471753 1.144068,-0.254238 0.283428,0.623765 0.701733,0.05154 0.524364,-0.286016 -0.185772,-0.37741 0.0595,-0.563247 0.238347,-0.778602 0.04436,-0.421741 0.297781,-0.634422 0.476695,-0.92161 0.216829,-0.08226 0.640538,-0.06109 1.01695,-0.06356 M 54.785795,86.921521 c 3.225017,-0.0273 5.676888,-0.337735 5.910034,-1.460655 l 0.943808,-0.02247 c 0.248565,-0.08468 0.44024,-0.539142 0.764035,-0.134829 l 0.719091,-0.02247 c 0.302429,0.594876 1.303841,0.159301 1.101109,-1.078638 0.02436,-0.151893 0.04922,-0.303111 0.40449,0 0.09804,0.514607 0.696454,0.80604 1.162557,0.297756 0.774675,-0.844781 1.10065,-0.129627 0.695029,0.465228 -0.224641,0.329443 -0.01709,0.389834 -0.07145,0.738751 -0.809253,0.981205 -1.088046,2.106003 -1.696252,3.127418 -0.0098,0.591752 -0.289909,1.183505 -0.02247,1.775257 -0.302888,0.42462 -1.084141,0.872018 -0.584262,1.258411 0.169967,0.119849 0.148518,0.239697 0.02247,0.359546 -0.119673,0.865979 0.08824,1.359705 0.898865,1.168524 0.313057,0.302925 0.505185,0.586757 0.02247,0.764034 -0.550772,0.19444 0.17062,0.661486 0.764035,1.101109 0.168775,0.361757 0.456818,0.775693 -0.02247,0.853922 -1.7278,1.237379 -1.013437,2.094865 -0.966279,3.056139 0.02256,0.228919 -0.158092,0.367517 -0.516847,0.426961 -0.234393,-0.260968 -0.402017,-0.711116 -0.876393,-0.292131 -0.427825,-0.546229 -0.902239,-0.253869 -1.370768,-0.06742 -0.387195,0.102693 -0.609775,-0.08269 -0.83145,-0.269659 -0.221685,-0.243739 -0.471541,-0.449917 -0.943808,-0.359546 -0.647293,-0.04456 -0.55599,-0.316387 -0.69662,-0.516847 -1.665415,-3.216674 -3.222422,-2.097053 -4.808925,-2.157275 -0.435748,-0.700149 -0.767535,-0.516639 -1.123581,-0.539319 -0.03985,-0.150349 -0.268459,-0.225196 -0.516847,-0.292131 -0.349596,-0.327054 -0.513582,-0.816516 -1.168524,-0.876393 -1.158541,-0.09238 -1.541393,-0.960446 -2.247161,-1.505598 -0.497888,-0.546602 -0.959662,-0.479257 -1.415712,-0.314602 -0.895136,-0.98516 -1.654454,-0.747953 -2.426934,-0.629206 -0.19519,0.196104 -0.416958,0.246025 -0.69662,-0.02247 -0.04452,-0.753181 -0.434542,-0.853751 -0.853922,-0.898865 -0.313357,-0.331496 -0.723143,-0.592276 -0.42696,-1.370768 l 0.02247,-1.887616 c 0.285662,-0.0391 0.370965,-0.245162 0.404489,-0.494375 0.520741,-0.0688 0.850821,-0.161434 0.69662,-0.314603 0.120144,-0.179181 0.362297,-0.114344 0.606734,-0.04494 l -0.02247,-0.629205 c -0.02146,-0.434262 0.22511,-0.153758 0.449432,0.06741 0.864984,2.351482 2.271634,0.194844 2.179747,-0.337074 -0.02195,-0.245895 0.703434,-0.171503 1.235939,-0.179773 0.582984,-0.89002 0.669847,-0.0082 0.988751,0.04494 0.09539,0.664081 0.47067,0.740409 0.988751,0.516847 0.290895,-0.08579 0.290554,0.03644 0.292131,0.157301 0.536363,0.738583 1.579001,1.943275 3.033667,0.539324 z M 13.363348,68.220339 c 0.467128,-0.05279 1.078048,-0.01408 0.651483,-0.635593 l 0.01589,-0.842161 c 0.384072,-0.788368 -0.08607,-1.012344 -0.572034,-1.096399 l 0,-0.492584 c 0.07355,-0.13172 0.163318,-0.253704 0.03178,-0.508475 0.0027,-0.309671 0.07298,-0.658744 -0.413135,-0.683263 -0.0086,-0.362979 0.165168,-0.897601 -0.524365,-0.619703 l -0.286017,0.06356 c -0.09534,-0.212488 -0.190678,-0.262665 -0.286017,0.03178 l -0.158898,-0.03178 0,-0.715042 c 0.493504,-0.203114 0.405574,-0.459085 -0.03178,-0.746822 0.205803,-0.28072 0.225403,-0.561441 0.222458,-0.842161 0.09749,-0.307954 0.459978,-0.451145 0.143009,-0.98517 -0.146889,-0.137712 -0.106664,-0.275424 -0.07945,-0.413136 0.142644,-0.0307 0.25416,-0.337069 0.609596,-0.05152 -0.0066,0.299601 0.09294,0.6295 0.296124,0.989025 0.567609,-0.137525 0.677226,0.03028 1.003785,0.05345 0.498151,0.510761 1.178396,-0.01299 1.665706,-0.498368 0.892031,0.08414 1.287479,-0.371477 1.493644,-1.032839 0.441808,-0.295516 0.770521,-0.647578 1.032839,-1.032839 0.429196,-0.176304 1.280602,0.266634 0.889831,-1.112288 0.492461,-0.114151 0.783293,-0.107324 0.976991,-0.04222 l -9.92e-4,0.568702 0.454086,0.02966 c 0.402992,0.0042 0.500741,0.226469 0.715043,0.365466 0.08893,0.134138 0.04114,0.531222 0.492585,-0.03178 0.386607,0.09982 0.516237,0.294307 0.333686,0.603813 -0.175025,0.709766 0.243526,0.669752 0.619703,0.683263 0.157016,0.138281 0.09109,0.239404 0.07945,0.349576 -0.219027,0.187142 -0.701937,0.36109 -0.127119,0.587924 0.131802,0.156557 0.19982,0.345005 0.572034,0.381356 0.486392,-0.0262 0.371857,0.135384 0.190678,0.317797 -0.306437,0.504935 -0.148085,0.648368 -0.09534,0.87394 -0.07099,0.216108 0.02389,0.376925 0.206568,0.508475 -0.114704,0.496888 0.07765,1.081506 0.556144,1.747881 -0.144701,0.425127 -0.313685,0.85511 -0.254238,1.239407 -0.935568,0.465396 -2.063105,1.470281 -0.476695,2.685381 l -0.09534,0.873941 c -0.643857,0.108531 0.113619,0.821956 -0.158898,0.95339 -0.256231,-0.04144 0.05612,0.602264 -0.04767,0.90572 -0.346143,0.12946 0.06072,0.766845 -0.174788,1.144068 -0.186492,0.483958 0.01406,1.461676 -0.222458,1.461864 -0.141205,0.33265 0.171199,0.861194 -0.01589,1.128178 -0.357176,0.4103 -0.255186,0.791903 0.06356,1.159958 -0.366932,0.32382 -0.635754,0.727912 -0.540254,1.430085 -0.36979,0.429135 -0.799411,0.200121 -1.207627,0.206568 -0.543719,-0.436555 -1.052602,-1.116955 -1.716102,-0.715043 -1.176793,0.113536 -1.296544,0.608781 -0.95339,1.271187 -0.0374,0.698499 -0.337925,0.870759 -0.667372,0.985169 -0.415626,0.266392 -0.466435,1.080009 -1.493644,0.429026 -0.583428,-0.451814 -0.640148,0.14979 -0.826272,0.492584 -0.216635,-0.206743 -0.399801,-0.424642 -0.365466,-0.715042 0.02119,-0.211864 -0.08474,-0.317798 -0.317796,-0.317797 -0.0049,-0.38295 0.08202,-0.723796 -0.905721,-1.557203 0.03846,-0.289805 -0.121616,-0.519823 -0.397245,-0.715042 -0.277009,-0.08598 -0.06131,-0.336202 0.01589,-0.540255 0.594206,-0.299192 0.461585,-0.569311 0,-0.826271 -0.184096,-0.153602 -0.09076,-0.307203 0.01589,-0.460805 0.290507,-0.352944 0.04176,-0.301445 0.03178,-0.429025 -0.114667,-0.148305 -0.06375,-0.296611 0.03178,-0.444916 0.805863,-0.406708 0.336952,-1.752722 0.429025,-2.685381 l 0.349576,0.07945 c 0.328269,0.0889 0.380554,-0.01539 0.286017,-0.222457 0.03824,-0.450834 0.527133,-1.402167 -0.476695,-0.810382 -0.126025,-0.06483 -0.277342,0.0221 -0.365466,-0.270127 -0.22029,-0.19896 -0.09476,-0.53625 -0.127119,-0.810381 0.281341,-0.127119 0.07432,-0.254237 -0.09534,-0.381356 z M 18.909863,12.641601 C 18.791566,12.244267 18.63183,11.395669 18.792945,10.928313 19.262249,9.5669682 20.603406,8.6654957 20.550291,8.2371648 19.66535,7.1157909 21.566914,4.5991662 22.112068,8.3270512 l 1.157289,0.033707 c 0.688305,-0.2267532 1.438894,-1.2198769 1.853907,-0.1348293 0.390728,0.2840306 0.657942,0.6298177 0.808978,1.0336943 0.153078,-0.205728 0.764216,-0.1497073 0.359546,-0.6741484 -0.220684,-0.2607273 -0.494429,-0.4911345 -0.516846,-0.8651572 0.827815,-0.033816 0.651604,-0.4829664 0.05548,-0.4228834 -0.540047,-1.0859452 0.131512,-2.6797954 1.135519,-1.3186666 0.202878,0.2472679 2.627815,-0.4058404 0.629205,-0.7640349 -0.0081,-2.6840301 1.95921,-2.3879485 2.381991,-1.4831265 0.957712,0.1788583 2.061845,0.8213859 2.292105,-1.3033536 1.760374,-1.0256743 3.100094,-0.7426502 4.494322,-0.6292052 0.379698,-0.3824278 4.085486,-2.22961486 2.067389,-0.089886 -0.08221,0.3498371 0.105354,0.5840533 0.314602,0.8089781 0.445973,0.1213483 0.958449,0.1994695 0.584262,0.8539213 0.420773,0.2406382 0.889937,0.4543924 0.943808,0.8988646 0.554294,0.2996243 1.406479,0.4503032 2.202218,0.6292052 1.510326,0.6204163 1.824364,0.2154437 2.516821,0.1348297 1.283393,0.8930189 1.442699,0.4664575 1.797729,0.2696593 0.514044,0.6216687 3.791985,-0.3898742 0.13483,2.6965937 l 0.04175,0.6292052 c 1.187271,0.088474 2.407682,0.3667657 0.883443,1.4617845 l -0.02905,0.851663 c 1.025433,-0.218734 0.68825,0.472544 0.542044,1.102238 0.618468,0.55118 1.259247,1.046583 1.797729,1.797729 0.08268,0.168392 0.548348,0.145296 0.179773,0.539319 l -0.404489,0.4122 c -0.114329,0.06945 -0.167773,0.174423 -0.771745,-0.04175 l 0.01589,-0.851663 c -0.10696,-0.450955 -0.55222,-0.775047 -0.989219,-1.102238 -0.192837,0.838578 -0.475178,1.074206 -1.176235,0.684586 -1.272835,-0.432105 -1.747131,-0.271747 -1.707842,0.269659 0.173396,0.461862 -0.375212,0.634923 -0.808978,0.853921 -3.740992,1.598306 -4.713281,3.112712 -4.269607,4.58421 2.025343,2.355674 2.039843,3.467527 -0.04494,3.280855 -0.114273,2.798982 -0.04391,5.585082 3.415685,8.134724 1.902597,1.1086 2.526175,2.26836 5.70779,3.325799 2.345329,4.344837 1.727116,9.109509 8.6291,12.80882 1.722597,2.887682 4.100604,2.094989 6.344705,2.054225 1.137155,-0.393229 6.687807,-0.689726 3.011197,2.696593 -2.174458,2.14436 3.683641,3.306287 7.857354,4.68726 1.014432,0.287802 4.803385,3.04253 6.179694,3.213441 1.790921,0.969 3.360916,2.269389 4.853868,3.685344 0.0728,0.441794 0.205739,0.861038 0.516847,1.213468 -0.476282,1.053198 -0.81025,2.141975 -0.808978,3.314562 -0.568138,-0.176446 -0.995996,-0.319453 -1.415711,-0.258423 -0.588213,-0.354608 -1.104537,-0.799075 -1.573013,-1.303354 -0.07688,-1.962427 -1.053605,-3.124998 -3.820175,-2.696593 -0.695535,-0.312712 -1.383688,-0.643142 -2.224689,-0.606734 0.107884,-0.69833 -0.07242,-0.756249 -0.224717,-0.876393 -1.643609,-1.705202 -4.181335,5.1437 -3.685344,5.280829 -0.865771,1.826125 -0.765202,3.169081 1.887615,3.235912 0.276483,0.592419 0.817252,0.920553 1.573013,1.033694 0.320982,0.369342 0.697953,0.660299 1.168525,0.820214 -0.324283,0.697217 -0.189082,1.131227 0.134829,1.651664 -0.151026,0.721296 -0.47214,1.518187 0.674148,1.662899 -0.176465,0.501866 -0.214153,1.003733 -0.786506,1.505599 -4.410463,-0.491794 -4.586751,1.817481 -3.528044,4.943754 -1.663208,0.67659 -2.972886,1.989533 -3.370742,4.943755 -1.540379,0.04937 -3.500679,1.115385 -3.520737,-2.516026 1.197682,-0.710344 2.471377,-3.017158 1.00106,-4.067797 0.291058,-0.46623 0.742185,-0.852424 1.287076,-1.191737 2.777991,0.218465 1.090996,-2.641746 0.476695,-2.76483 C 70.193584,75.186664 70.029353,73.97198 69.62925,72.796609 67.753646,71.483281 67.769754,69.907215 67.325224,68.395126 66.423621,67.320771 65.49648,65.773968 64.757443,67.707091 l -1.261668,-0.344804 c -0.292237,-0.467559 0.153157,-1.180996 -1.652542,-1.144068 -0.241133,-0.483391 -0.660277,-0.492089 -1.01695,-0.667373 0.38562,-1.156573 0.984598,-5.40704 -4.020127,-2.76483 -0.257981,0.0088 -0.4957,-0.0127 -0.420961,-0.502924 2.204894,-1.767184 -1.146465,-2.692175 -2.26442,-1.0225 0.6026,-1.371843 -1.994788,-6.013545 -3.336865,-4.322034 C 48.284574,55.539339 48.05499,56.584467 47.06569,56.81144 46.371239,55.581944 45.205544,55.045453 43.792385,54.87288 42.86729,53.20189 41.87792,52.462981 40.868644,52.012712 40.570843,49.976146 39.489813,49.170367 38.008475,48.993644 37.069691,47.518512 36.506179,45.793197 33.75,45.529661 c -0.528434,1.204597 -1.496532,0.07292 -0.392065,-0.421261 -0.139201,-1.171453 -0.688484,-2.206212 -2.595223,-2.788485 -0.258897,-0.137712 -0.325372,-0.275424 -0.444915,-0.413136 0.517714,-0.869477 -0.01896,-1.86001 -1.271187,-1.048728 -0.222859,-0.0096 -0.405174,-0.120539 -0.508474,-0.429026 1.035599,-1.61712 -0.125468,-3.490992 -1.347483,-5.371989 0.134917,-0.424099 0.316971,-0.843708 -0.157301,-1.325825 -0.119726,-1.393328 0.0931,-2.916784 -2.006869,-3.535237 -0.232052,-0.168102 -0.464524,-0.341233 -0.667373,-0.158898 -0.260074,0.02871 -0.304035,0.0142 -0.429025,0.01589 -0.391053,-0.395453 -0.858937,-0.94457 -0.9375,-0.715043 -1.1202,-0.53792 -2.978837,-3.052204 -2.907839,-1.525423 -1.695174,-0.774262 -3.327042,-2.352501 -5.307204,0.492584 0.114895,0.565545 -0.317301,0.457749 -0.556144,0.587924 -0.8914,0.257964 -1.186347,1.112382 -1.366525,2.081568 -1.152653,0.786242 -2.309393,1.569171 -4.5444916,1.477754 -0.067327,-0.313756 -0.015627,-0.587836 0,-0.87394 C 10.98374,28.928506 9.4523375,28.203436 7.2934322,29.179025 6.5504419,28.695684 5.7994701,28.060694 5.0847458,28.114407 4.9188355,27.628834 4.6747376,27.221449 4.2108051,27.033898 l 0.074795,-0.886774 c 0.1664185,-0.19665 0.4029645,-0.401716 -0.1542443,-0.511531 l 0.047669,-0.746822 c 0.3827109,-0.246259 0.6868038,-0.577184 0.6832628,-1.239407 0.6289242,0.07681 0.9206393,-0.03777 0.4449152,-0.587924 0.00251,-0.510425 0.2990511,-1.249544 -0.7150424,-0.969279 -0.5505936,-0.05994 -0.8858187,-0.25833 -1.0169491,-0.587924 0.1258666,-0.807492 -0.082957,-1.196621 -0.5561441,-1.255297 0.084472,-0.232099 -0.021343,-0.328278 -0.1430085,-0.413135 0.0053,-0.633557 0.6370933,-0.664708 1.414195,-0.556144 0.3205075,-0.169825 0.7299206,-0.276146 0.651483,-0.730932 1.3870474,0.0999 1.3506867,-0.562738 1.0805085,-1.350636 0.4841593,-0.0042 0.4364821,-0.274344 0.4608051,-0.508475 -0.5164825,-0.25863 -0.7072838,-0.62582 -0.9692797,-0.969279 -0.126211,-0.54323 0.061764,-1.505375 -0.6355932,-1.287077 L 4.3458687,13.956567 c 0.3108205,-0.280174 0.1047089,-0.466361 -0.2383475,-0.627648 0.1917498,-0.351017 0.085529,-0.6169 0.087394,-0.913665 0.3963642,-0.06679 1.0356627,0.18224 1.1638131,-0.233225 0.5438547,-1.034154 0.6580075,-0.101539 0.8051627,0.05345 0.54592,-0.0511 0.9498081,-0.161538 1.3472458,-0.509598 0.7727969,0.473182 0.83315,0.0089 1.0730196,-0.219099 0.4658283,-0.476661 1.019458,-0.280178 1.5730126,-0.08427 0.837839,0.830767 1.153821,0.725789 1.123581,0 0.495387,-0.11432 1.049186,-0.104027 1.112345,-1.140434 0.807676,-0.3584681 1.179995,-0.8119232 0.34831,-1.5280702 0.683366,-0.4266092 1.360473,-0.8560003 1.516834,-1.516834 0.393992,-0.044902 0.824786,-0.6236833 0.977515,0.2696594 l -0.146065,1.1235807 c 0.411979,0.3538628 0.857666,0.9135648 1.269646,1.4606551 0.433959,0.09664 0.805874,0.100211 1.348297,0.359546 0.04687,0.229517 -0.03975,0.497171 -0.202243,0.786506 0.241765,0.503674 0.713937,0.900583 0.786506,1.460655 0.39309,0.168375 0.441132,-0.0083 0.617968,-0.05617 z" style="" fill="none" stroke="#000000" stroke-width="0.8" stroke-linecap="round" stroke-linejoin="round" stroke-miterlimit="4" stroke-dasharray="none" stroke-opacity="1"></path></svg>