<svg height='100px' width='100px'  fill="#6d0000" xmlns="http://www.w3.org/2000/svg" xmlns:xlink="http://www.w3.org/1999/xlink" version="1.1" x="0px" y="0px" viewBox="0 0 100 100" enable-background="new 0 0 100 100" xml:space="preserve"><path fill="#6d0000" d="M34.152,45.445c-0.033,4.435-0.066,25.724-0.083,37.392c-1.854,0.696-4.61,1.139-7.694,1.139  c-5.583,0-10.109-1.448-10.109-3.232v-0.262c0,0,0.037-30.353,0.071-35.204c0.038-4.851,2.004-7.44,3.897-9.275  c1.894-1.835,1.968-4.588,1.968-4.588l-0.002-11.745c-0.303-0.097-0.524-0.352-0.524-0.656v-2.131c0-0.305,0.222-0.559,0.523-0.656  v-1.229c-0.001-0.737,1.868-1.334,4.174-1.334c2.306,0,4.174,0.597,4.174,1.333v1.229c0.304,0.097,0.527,0.352,0.527,0.657v2.131  c0,0.305-0.223,0.56-0.527,0.656v11.743c0,0,0.073,2.754,1.967,4.588c0.902,0.873,1.813,1.927,2.53,3.303  C34.509,41.043,34.17,43.065,34.152,45.445z M83.66,45.275c-0.037-4.851-2.001-7.44-3.897-9.276  c-1.894-1.835-1.967-4.588-1.967-4.588V19.669c0.304-0.096,0.527-0.351,0.527-0.656v-2.131c0-0.305-0.224-0.56-0.527-0.657v-1.229  c0-0.737-1.868-1.333-4.174-1.333c-2.307,0-4.175,0.597-4.174,1.334v1.229c-0.302,0.097-0.523,0.352-0.523,0.656v2.131  c0,0.304,0.222,0.559,0.524,0.656l0.002,11.745c0,0-0.074,2.753-1.968,4.588c-0.901,0.873-1.811,1.926-2.529,3.301  c0.537,1.739,0.875,3.76,0.893,6.139c0.033,4.435,0.067,25.726,0.084,37.394c1.854,0.696,4.61,1.138,7.692,1.138  c5.583,0,10.108-1.448,10.11-3.233V80.48C83.733,80.48,83.697,50.127,83.66,45.275z M57.859,33.592  c-2.424-2.349-2.518-5.873-2.518-5.873l-0.001-15.03c0.39-0.123,0.675-0.45,0.675-0.841V9.12c0-0.391-0.285-0.716-0.675-0.841V6.706  C55.34,5.764,52.948,5,49.998,5c-2.952,0-5.344,0.764-5.343,1.707v1.573c-0.387,0.124-0.671,0.45-0.671,0.84v2.728  c0,0.39,0.283,0.715,0.671,0.84l0.002,15.034c0,0-0.094,3.524-2.518,5.873c-2.424,2.349-4.941,5.664-4.988,11.873  c-0.046,6.209-0.093,45.061-0.093,45.061v0.335c0,2.283,5.794,4.136,12.94,4.136c7.146,0,12.94-1.853,12.941-4.138v-0.336  c0,0-0.047-38.853-0.094-45.062C62.799,39.256,60.284,35.941,57.859,33.592z"></path></svg>