<svg height='100px' width='100px'  fill="#000000" xmlns="http://www.w3.org/2000/svg" xmlns:xlink="http://www.w3.org/1999/xlink" version="1.0" x="0px" y="0px" viewBox="0 0 100 100" enable-background="new 0 0 100 100" xml:space="preserve"><polygon points="8.1595469,59.0784073 10.1880198,60.0626183 11.6280947,60.360054 12.7049303,60.9874992 13.8282175,61.8530502   14.2707977,62.0910912 14.819231,62.2298317 15.1166611,62.2098122 15.3805351,62.1304665 15.559248,62.0117416   15.7372999,61.8333626 16.0018406,61.3971825 16.1341019,61.2781944 16.3715496,61.1858978 16.6561012,61.5756226   17.1709671,62.0314331 17.4684029,62.0910912 17.9445515,61.9323883 18.5058613,61.4765968 18.7568588,61.1065445   18.8161812,60.8091164 18.4329224,60.2410011 18.3535767,60.0032883 18.3671207,59.6661453 18.4594154,59.3955345   18.7103405,59.0583916 19.1665382,58.8206062 20.7388859,58.9790421 21.3266163,58.9593468 21.5647297,58.860321   21.9214954,58.5696907 22.0402126,58.3516006 22.0273304,58.0541649 21.9086056,57.8560944 21.683382,57.7370377   21.1350212,57.5982971 20.5737171,57.657692 19.9265785,57.585083 19.6555691,57.5257568 19.2129822,57.3076591   19.0542889,56.8318481 18.9613323,56.3034325 18.803297,55.8276215 18.6381283,55.6559677 18.1955414,55.4378891   17.3231926,55.2795219 16.907093,55.0217209 16.5967064,54.6714363 15.8831768,53.1916466 15.5457039,52.841629   15.1759958,52.5839005 14.4953613,51.9561272 14.2579145,51.5003166 14.0198135,50.8131561 13.8746567,49.9476738   13.8611126,49.432476 13.3856249,48.6066322 12.4804392,47.8601341 11.2977571,47.3710938 11.0597153,47.2520485   10.8816032,47.0736656 10.6506252,46.6971474 10.5577345,46.4594345 10.5183582,46.2084465 10.5448513,45.8713036   10.7364473,45.4022789 11.357152,44.6357727 11.5951929,44.2196121 12.0507298,43.3541298 12.0377855,43.0570221   11.7732458,42.6869774 11.548748,42.5679245 10.5183582,42.2311783 9.9370956,41.8014755 9.6396589,41.444973 9.5273447,41.2069321   9.1112509,40.0839806 9.1570358,39.4365196 9.3886681,38.9674377 9.5402937,38.7690392 10.6900072,38.0226059 11.152607,37.4873848   11.357152,37.0183067 11.2977571,36.4634781 11.1390629,35.9944 11.2119408,35.4195442 11.1983919,35.1289139   11.1197052,34.8908043 10.8422871,34.5143433 9.8641624,33.82724 9.5538378,33.470417 9.4808989,33.2391167 9.4680157,32.942009   9.9106026,32.3935738 10.4125834,32.2745972 11.2977571,32.294548 11.7274609,32.0765266 11.8333006,31.838747   11.8333006,31.5280895 11.7274609,30.9928856 11.740344,30.3851204 11.7997389,30.1273994 11.9191227,29.8699341   12.0706816,29.7179794 12.5133343,29.519577 13.3856249,29.678339 14.0927458,29.988657 14.6540623,30.1273994   15.3082571,30.1870594 16.1799526,30.1077118 16.9199753,30.3851204 17.1115723,30.5438232 17.6006756,30.6957779   17.9245338,30.6957779 18.6839142,30.5238628 18.9748821,30.5041828 19.5697479,30.6164322 20.1575508,30.6032181   20.6465836,30.4048176 21.0363159,30.1670399 21.9479218,29.8102741 22.0472813,29.6980171 22.2189255,29.4005909   22.3776207,28.9050827 22.6021843,27.7489014 22.7802353,27.1939983 22.9854412,26.7646179 23.20994,25.978487   23.137001,25.7407112 22.8266811,25.3839455 22.1860237,25.0139008 21.551775,24.9345455 21.1085281,24.716465   20.5007725,24.0096741 20.2633247,23.6131935 20.2168789,23.3357849 20.2039967,23.0450878 20.3820496,22.5031357   20.7653122,22.2721634 21.30019,22.1796017 22.2318096,22.2589493 23.137001,22.2192421 24.2732315,22.1002464   25.0396805,21.9418259 25.2183933,21.7831211 25.3106899,21.5253353 25.4164696,20.2701168 25.6081257,19.7946281   25.7532768,19.6162472 26.1236515,19.325285 26.3610325,19.2462025 26.9230022,19.1471672 27.5307579,19.1668453   28.0327473,19.0281792 28.2508297,18.8894367 28.3895111,18.7307434 28.5940495,18.2616634 28.7527447,17.0393467   29.0237598,16.6099739 29.6114902,15.8963776 29.9418278,15.1498804 30.2528744,14.1456528 30.5431767,13.7956266   30.992897,13.5972261 31.3032169,13.5776043 31.7458038,13.8550129 32.0432396,14.1853504 32.4529266,14.4230709   33.0607452,14.3637333 33.5826797,14.244688 34.4543114,13.7956266 34.9233894,13.656951 35.2208252,13.7162704   35.663414,13.9475822 36.5557213,14.0663061 37.3944511,13.9475822 38.1209297,13.7162704 38.8874435,13.1811228   39.3635941,12.6723461 39.4952011,12.4146166 39.5287628,11.5097551 39.7662086,10.6045628 40.4862137,10.0164299   40.9888573,9.9370823 42.8585701,10.0758238 43.1224403,10.0164299 43.961895,9.5409412 44.3186607,9.2832117 44.6618843,8.9528732   45.0451469,8.6950779 46.4194107,8.1666698 48.4478836,7.651144 49.5247192,7.4530644 50.9053993,7.3075929 50.9976959,7.4859753   51.1363716,7.8295927 51.4996109,10.6177769 52.6228943,14.3769464 53.0461884,15.4473162 53.6010246,16.6432056   53.8584213,17.1980324 54.1423149,17.5812988 54.182354,18.003933 54.2287979,18.4468498 53.9642715,18.6910362   53.5016594,19.1272049 53.1319427,19.4775047 53.0726166,19.8804512 53.4487381,19.8275223 53.6932526,19.5698013   53.9842834,19.2658901 54.1359062,18.942358 54.1623344,18.8826313 54.2817192,18.8036156 54.492672,18.9291439   55.8804855,22.4505463 56.270153,23.0980072 57.294075,24.0890217 57.3469887,24.2738686 57.2805252,24.4325733   57.6509018,24.6571369 58.1199226,25.7471771 58.7147865,27.1278648 58.9587059,27.5443554 59.3418999,27.8349876   59.7580605,28.746645 60.2671165,29.2818661 61.7007828,31.2835827 62.9563255,32.585247 63.1873055,33.0146103   63.3989105,33.424305 63.6234093,33.5497589 63.8744087,33.5233307 64.7131271,34.804985 65.506073,35.743145   65.7505875,36.0337753 66.7151718,37.0247879 67.6403809,37.7912941 68.6249237,38.821949 68.8623657,39.0332413   70.4347153,40.4339981 72.6019363,42.178257 73.6987152,42.6273193 75.2910767,43.8628502 76.4008179,44.3651619   76.8833694,45.0654755 76.9027252,45.0786896 76.9098663,45.0851555 76.9098663,45.0916405 77.3918304,45.5542374   77.4446869,45.7393646 77.3524475,46.1222916 77.3853531,46.1952324 77.6492233,46.7500572 77.9995804,47.0078621   78.3434601,47.8204269 79.0570602,48.8708267 79.3080521,48.699192 79.539032,49.1482544 80.0873871,49.7760277   80.8403549,50.2451096 81.5803757,50.892498 82.3469009,51.7712708 82.2874985,52.385498 82.5585098,52.9603539   83.1198196,53.6542625 84.4876175,54.1958733 85.3592453,54.9491844 88.1213303,56.5940704 89.2574997,57.1954155   90.1891785,57.5653954 91.1601791,57.8625031 91.8801804,58.2854576 92.2705765,58.3051529 92.4750595,58.5564079   93.763504,58.985775 94.0273743,60.0891037 93.9615784,60.3929558 94.1131973,60.7565269 94.000946,61.436882   94.1596451,62.1568947 94.1267471,62.4411087 93.9815903,63.6301994 94.0473938,63.8153877 94.0802994,63.8947372   94.1861343,64.1918411 94.4635544,64.5554123 94.4635544,64.5618744 95.8442383,65.4670792 96.2210922,65.6586761   96.2274933,65.6586761 96.2274933,65.6651459 96.3333359,66.6958618 96.2475204,66.9467926 95.804924,67.5020218   95.54039,68.2485199 95.4809952,68.5456314 95.4481049,69.1336975 95.5539322,69.9398499 95.3294373,70.4153442   95.1835556,70.6070023 93.4067383,72.0474091 92.7854385,72.7345123 92.3098907,73.5603561 91.7221451,74.2671432   91.1272812,74.6636124 90.2421036,74.62397 90.0368958,74.7033234 89.9181747,74.9610519 89.9181747,75.2581635   90.1691589,76.2359619 90.209198,76.8108063 90.149147,77.0686111 89.8588409,77.3989487 87.936142,79.0702591   87.401329,79.8367767 86.8986816,80.6890488 86.1850891,81.6733246 85.3263397,83.1466293 84.8837585,83.6949921   84.5004959,83.9527817 83.9985886,84.4282761 83.7340469,84.8579788 83.6417542,85.1153793 83.6288681,85.7431412   83.5688782,86.0206299 83.4501572,86.2187042 83.2456131,86.3509674 82.1223297,86.8067703 81.7061691,87.044548   81.3494034,87.34198 80.8603821,87.5865021 80.4906616,87.7119598 79.724144,87.8703918 79.426712,87.8703918   79.3080521,87.6723175 79.4002838,87.4145279 79.6312485,86.9851532 79.7835388,86.4500046 79.7370911,86.2187042   79.6312485,85.9809265 79.0699463,85.2541199 78.6866837,84.6595764 78.6402359,84.0914536 78.8518524,83.2456665   78.7331314,82.7304611 78.4621887,82.3604279 77.8015137,81.7526627 76.1433487,80.6890488 75.9910583,80.5106659   75.9188461,80.3122635 75.6278305,79.9358063 75.3303833,79.8828888 75.1523361,80.0151596 75.0000458,80.1935425   74.7690735,80.9994354 74.5903625,81.1381073 74.3393707,81.1581268 74.068428,81.0590897 73.493576,80.6293869   73.1968002,80.2726212 72.6677322,79.2290192 72.2980194,78.938324 71.5250931,78.6408768 71.1547165,78.3831558   70.8179703,78.0860519 70.5805206,77.5837402 70.4347153,77.7621765 70.0185547,77.9934921 69.899826,78.2047729   69.4243393,78.7202988 69.0146561,78.938324 68.6578217,79.2290192 68.5056076,79.4270859 67.7655182,79.9755173   67.5610352,80.0945053 67.2371063,81.1381073 66.6164703,81.8252792 66.0087128,82.1623535 65.9222336,82.7701035   65.4002991,82.5588226 64.1718369,82.3804398 63.9073029,82.4198227 63.729248,82.5388107 63.2866631,83.1269379   63.1078835,83.2656097 62.9627342,83.4636841 62.9034042,83.7346878 62.9427147,84.0121155 63.2866631,84.3292389   63.8479805,85.0560379 63.920845,85.2938232 64.0395737,85.4854202 64.1582947,86.000946 64.5021744,86.6087036   64.6473236,86.7870865 65.2815704,87.1635361 65.611908,87.4742508 65.6518784,87.7516708 65.5918961,88.0093994   65.2351303,88.3397369 65.0305862,88.4387741 64.7660446,88.4784775 64.1582947,88.3991318 63.8944168,88.4387741   63.4518318,88.5972061 62.1497726,89.2843094 61.4962311,89.5617218 61.1129723,89.8394699 61.0071983,90.7840424   60.8619843,90.9624252 60.5645447,90.9756927 60.3000107,90.8830719 59.6793747,90.2091827 59.3819351,90.1498489   59.1109352,90.1698074 58.9064484,90.2885361 58.7606354,90.4669189 58.238636,91.27314 57.532177,92.2176437   57.1882935,92.5150681 56.9573212,92.5944901 56.3888779,92.6538086 56.2173004,92.7925568 55.9791908,93.24189   55.6817551,93.5987167 55.4443092,93.6777344 54.3475227,93.1032104 53.8455391,92.9312363 52.9861336,92.9841461   52.8145561,93.1428528 52.7551613,93.3080215 51.7776909,92.5347672 50.7731323,91.27314 50.4299126,90.9624252   50.059536,90.6453552 49.4389,90.2885361 49.1414642,90.2292023 48.6130524,90.2885361 48.1633339,90.4869308   47.8730316,90.5066147 47.5620499,90.4075851 47.1458931,90.2091827 46.4058685,89.6410675 45.8445663,89.1852646   45.4019127,88.6765442 45.1774063,88.5574951 44.85355,88.5574951 44.6418648,88.6368408 44.3186607,88.9739838   43.9218597,89.2116928 43.6844139,89.2843094 43.0631218,89.2116928 42.5411873,89.0333099 42.1450386,88.775589   41.9991608,88.5972061 41.570118,87.7516708 41.2133522,86.5490417 41.0081482,86.1196671 40.7507553,85.7431412   40.3410645,85.4722061 40.0771904,85.5251236 39.8655739,85.6441116 39.5681458,86.000946 39.3036041,86.0405884   39.0526123,85.9216003 37.9428825,85.0560379 37.3551407,84.6595764 37.0970116,84.5869598 36.8067131,84.5869598   36.2118416,84.957016 35.161438,86.2187042 34.2891426,86.9654694 33.225914,87.533577 32.2148819,87.7516708   31.3032169,87.7516708 31.0186634,87.692276 30.3515797,87.34198 30.0147743,86.9851532 29.8231773,86.5886841   29.5721798,85.5844574 29.3011723,85.2147446 28.8321648,84.9766998 28.2107925,84.9766998 27.5901527,84.8973541   27.1410923,84.6595764 26.4804153,84.032135 26.2552586,83.9130707 24.4983883,83.2853012 23.6989708,83.067543   23.137001,83.1269379 22.8996201,83.2062912 22.2782612,83.5630493 22.0073109,83.5959473 21.7169437,83.5430908   21.3730621,83.2259674 21.30019,82.9881973 21.1950111,82.1623535 21.2672882,81.2374725 21.2543392,80.940033   21.3601799,79.9951401 21.7299004,79.3873825 22.0537567,78.6805954 22.1260338,78.0463409 22.1130905,77.7753906   22.0402126,77.557312 21.8027668,77.1411438 21.4653587,76.8305054 21.2407951,76.7117767 20.6465836,76.7314682   20.3227196,76.672142 20.1440067,76.5530853 19.9859066,76.3946533 19.4968758,75.5688095 19.1865559,75.2185211   18.4858437,74.9410324 17.5277309,74.9013977 17.3032341,74.9807358 16.9928551,75.0004272 16.7419243,74.9214172   16.2992706,74.6636124 15.3212061,73.6990967 14.4624662,73.2300186 13.3856249,72.3248215 12.3216724,72.0273895   11.8461895,71.7896118 11.0203457,71.3205872 10.2803164,70.7456818 9.8377352,70.4750671 8.3118334,69.688858   7.8356838,69.4904633 7.4988713,69.4708405 7.2608299,69.5498581 6.9769378,69.9595413 6.6530085,70.2569733 6.0917039,70.3560028   5.5433431,70.2172623 4.5393744,69.5894928 4.0038967,69.1336975 3.8587463,68.9156036 3.6535404,68.5259323 3.3232026,67.5810394   3.2838321,67.3236389 3.2244976,65.8503342 3.1186631,65.3348083 3.0593288,64.4692612 3,64.2118607 3.0128832,63.603775   3.1251321,63.517952 3.4883716,63.4253922 4.169066,63.1346931 5.1471963,62.5005112 6.2568731,61.3178368 6.7723923,60.4722939   6.8911219,59.2567902 6.9769378,58.9990616 7.1556506,58.8006592 7.4195242,58.8006592 "></polygon></svg>