<svg height='100px' width='100px'  fill="#000000" xmlns="http://www.w3.org/2000/svg" xmlns:xlink="http://www.w3.org/1999/xlink" version="1.0" x="0px" y="0px" viewBox="0 0 100 100" enable-background="new 0 0 100 100" xml:space="preserve"><polygon points="9.3288155,23.1588993 9.239254,22.6105747 9.8216791,22.5697575 10.1091948,22.6312523 10.7731714,22.9943619   11.7935553,22.8913784 12.2729893,22.9736137 12.8206396,23.1588993 13.8959198,23.7887764 14.4502039,23.9325008   14.7243671,23.8910751 14.9704561,23.8088398 15.3061075,23.4871559 15.3402071,23.1381531 15.2927551,22.8713169   15.3402071,22.549017 15.6143703,22.1177101 15.6210804,21.9606342 16.7918892,21.5493889 18.3258743,20.405901   18.4830189,20.2213688 18.6474895,19.8375816 18.8053169,18.9201202 18.989851,18.7556496 19.4144478,18.529623   19.5374928,18.3035965 19.4625835,17.7559547 19.5515289,17.4891853 19.7086735,17.3039684 20.0784245,17.0163841   20.2296104,16.8178139 20.4415321,16.3457661 20.9002285,15.7773781 21.24259,15.4483681 21.3315353,15.1815939   21.0714092,14.4694195 20.7357578,13.8395357 20.5786133,13.6550093 20.4007912,13.1822014 20.2429619,13.004385   20.0925293,12.5109053 20.2296104,11.5527029 20.154026,11.3059292 19.9213486,10.8813324 19.7708454,10.6967993   19.435194,10.0461693 19.318861,9.5326262 19.3114643,9.5326262 19.2773666,9.2725067 19.3114643,8.9849911 19.5515289,8.5536842   20.0784245,8.0675306 20.3252068,7.6155443 20.4141426,7.3554182 20.749794,7.0056615 21.24259,6.861938 22.0577526,6.738893   23.5709229,6.6980839 23.8791866,6.7596402 24.0911865,6.8826165 24.3994389,7.2524357 24.6114292,7.3687701 24.8922329,7.3895173   25.1390076,7.3346643 25.5636044,7.1086435 25.8237305,7.1293907 26.3165359,7.3554182 26.9464035,7.4302583 27.5421906,7.4302583   29.185791,7.2116261 29.7334328,6.7596402 30.1988392,6.5543604 30.5345592,6.5951014 30.7464809,6.7181458 31.5475388,7.553988   31.8076649,7.6362228 32.0544395,7.5740504 32.2322617,7.4102645 33.1089134,7.3687701 33.2941322,7.2316885 33.5817146,6.8211222   33.6158142,6.4720564 33.5676079,6.2119985 33.6291656,5.9037361 34.1634674,5.4175825 34.5673065,5.1501298 34.7933311,5.088573   35.4098587,5.088573 35.4232101,4.8832932 35.3483009,4.3972015 35.5329132,4.2534099 35.7929611,4.2741632 35.9782448,4.4379492   36.2517242,4.4586964 36.4502945,4.1096177 36.9912262,4 37.169117,4.2942257 37.3543358,4.7803106 37.5870819,5.2123027   37.9976311,5.7599444 38.3399925,6.1090097 39.1209908,6.6158485 39.381115,6.7181458 40.0110016,6.8211222 40.5586357,6.738893   41.202549,6.7803187 41.4212494,6.9033637 41.6198196,7.3554182 42.3252907,7.6977797 42.6950378,8.0060425 42.9210777,8.4299545   42.5719948,9.1494617 42.646904,9.4296503 43.9481621,10.4707718 45.1330643,11.0458031 45.6532478,11.5319567   46.2831955,12.305625 46.3854942,12.5315838 46.4336281,12.7783585 46.050457,13.8395357 45.8652382,14.6954403   45.5710144,15.4898624 45.0233727,16.3042717 44.5920639,16.5717258 44.3794594,16.6332817 43.7769814,16.5102367   43.53759,16.6125355 43.3797646,16.7769985 43.2908287,17.0371323 43.5509453,17.4276295 43.7361603,17.5921688   44.6669731,18.0983162 46.1868553,18.6940937 49.4392891,20.2829247 50.6924019,21.0973358 51.0006638,21.1595078   51.2607918,21.1388302 51.5830917,20.7549744 51.8291817,20.3036041 52.1989288,20.0154037 53.4386902,19.6730423   54.0819206,19.7352829 54.5887604,19.8923588 55.3691292,20.2621784 55.8967094,20.714159 56.3687592,21.5493889   56.6288834,22.2407551 56.7385788,22.7750435 57.122364,23.9940567 57.2246628,24.5075989 57.4099503,24.9730053   57.6085167,25.2538109 59.2380905,27.4658089 59.5122528,27.9104691 60.5253143,29.1361237 61.333004,29.7252598   61.9977303,30.3825932 63.4835129,32.2789345 63.9555626,32.7857666 64.3253784,33.1147766 65.4279861,33.7446556   65.7703552,34.072979 66.5373077,35.3127403 67.0094299,35.8055344 67.2695541,35.9085159 67.6052017,35.9492531   68.283226,35.640995 68.6804276,35.3534813 69.200676,34.9081345 69.6934738,34.3745308 69.9676514,33.9706802   70.9191284,32.8887482 71.9809952,31.929863 72.5627518,31.4778767 72.8368988,31.4437733 73.0489044,31.6015377   73.3912659,32.4982452 73.4460983,33.0732841 73.8914413,33.6416702 74.3086472,33.9085083 74.5962296,33.9907417   74.8429337,33.9085083 75.0274658,33.7647171 75.0622559,33.4156456 74.2130585,32.2789345 74.1374664,32.0736542   74.1374664,31.7653923 74.2952957,31.5808601 74.5346756,31.4985504 74.8288956,31.5808601 75.2261047,31.889122   75.870018,32.5390625 76.3494644,32.7650185 76.5273514,32.5804863 76.5273514,32.2789345 76.2879715,31.5393658   76.3494644,31.2792397 76.5614548,31.156189 76.8830719,31.1970043 77.404007,31.3955746 78.6637573,31.6015377   79.1705933,31.7653923 79.3959351,31.929863 79.7657547,32.4982452 80.0880508,32.8473244 80.3481827,32.9709854   80.855011,32.9088135 81.4982376,32.9503059 82.6009216,33.2785645 83.1552734,33.7446556 83.6006165,34.2581978   83.8740921,34.6621132 84.1482697,34.9288826 84.3194504,35.2371407 84.3675766,35.4972725 84.2304916,35.7232933   83.9837189,35.8262825 83.3538437,35.7232933 83.0803604,35.7847862 82.9566345,35.9900665 83.0803604,36.4968987   83.4775696,36.8259087 84.1348343,37.1957283 84.4290619,37.5995789 84.5046539,37.8256035 84.5387573,38.1338654   84.5046539,38.4347343 84.306015,38.9482765 84.0593109,40.1672897 83.7510452,40.9068604 83.7851486,41.2284698   83.997757,41.6597824 84.1482697,42.1051254 84.2097473,43.3100281 83.9088745,44.8232651 83.8332977,45.8022194   83.8332977,46.4320984 84.0111771,47.5140305 84.7025375,49.3495674 84.812233,49.8972092 84.8877716,50.4107513   84.8877716,51.0198822 84.7373276,51.9787674 85.257576,52.7931786 85.3330994,52.9991417 85.5177155,53.1629944   85.8052216,53.2244835 86.0653458,53.1837387 86.9901352,52.7931786 87.5103149,52.6494522 88.0787048,52.6494522   88.5233612,52.8961525 88.845665,53.2452316 89.1057892,53.6490822 89.1807022,53.8550453 89.2080841,54.7310104   89.5029984,55.4297714 89.9616928,56.0182228 90.7012634,56.6073532 90.9887772,56.9771042 91.2074127,57.4084167   91.3103943,57.935997 91.4682236,58.1205292 91.7557373,58.1820869 91.9677277,58.3258095 92.2344971,58.5658722   92.24189,58.5725822 91.8995285,59.1616516 91.2696533,60.3666267 89.8727493,62.4682503 89.660141,62.6534615   88.4618759,64.2008057 87.270256,66.3853455 85.4836044,69.206543 85.1545944,69.9253616 84.9907379,69.9460449   84.9834137,69.9460449 84.928566,70.1239319 85.3806229,70.4114532 85.3946609,70.4321976 85.5584412,70.7264252   85.5518036,71.0961761 85.4561462,71.322197 84.9152145,71.6919479 84.9834137,71.9454346 84.4016724,72.5271683   83.9014816,73.2666702 82.6624146,75.3616562 82.4504852,75.9989319 82.4364624,76.2656937 82.4705505,76.2590561   82.5394287,76.2315979 82.621666,76.6762543 82.4638443,76.868187 81.7924652,77.0534058 81.046257,77.6077576   80.4504776,77.8885574 79.8138885,78.6963272 78.9853745,78.4569473 76.390274,78.1279373 75.4862366,78.1279373   74.4591446,78.3539658 73.7403259,78.5799942 73.4802017,78.6007385 73.171936,78.5799942 72.8984604,78.4776917   71.3919296,78.1694336 70.2618637,78.2309189 69.4814911,78.395462 69.0361404,78.1694336 68.7901154,77.7381287   68.7145233,77.4980621 68.5573807,77.31353 68.2691803,77.2312927 67.7763824,77.7581863 67.6533432,77.9842148   67.2835922,78.9838409 67.1806107,80.3332977 67.2354507,81.4900665 67.2080002,82.1273422 66.9478683,82.9417496   66.503212,83.7976532 66.2424698,84.3111954 66.0578766,84.8387756 65.9482422,85.4272232 66.133461,86.796669   66.0438309,87.4265518 65.7222137,88.1868668 65.2635193,88.7345047 65.0789871,88.8782349 64.8048325,89.2821503   64.620224,89.8164368 64.5580521,90.4463196 64.2979202,91.2614136 63.9896584,91.6312332 63.8051376,91.7749557   63.6546936,91.9802322 63.5583534,92.2196121 63.6339569,92.4663849 63.8532639,92.5894318 64.1541977,92.5894318   64.3394165,92.7538986 64.5580521,94.0959549 64.483139,94.7324753 64.3868713,95 64.0926437,95 63.7295341,94.6917343   63.3323936,94.0959549 63.175251,93.6305542 62.9284744,93.2400513 62.1207199,92.671669 61.8740005,92.2811661   61.6894684,92.1173172 61.0595245,92.0210419 60.4912033,91.8571854 59.956913,91.9388046 59.4025612,91.7749557   59.1899567,91.6312332 58.9298286,91.5489273 58.3955383,91.5897369 58.1494484,91.6927185 56.4924889,92.6509171   56.1568375,93.000679 56.1227379,93.6305542 55.9375191,93.7742767 55.3416748,93.794342 54.3901939,93.6712952   53.8217926,93.5068207 52.9317894,93.486763 52.2263184,93.7742767 51.8432159,94.0411148 50.6790504,94.0752106   49.3918381,94.2811737 49.1450653,94.3834763 48.6108437,94.4657059 48.3166161,94.4042206 48.07724,94.301239   47.5222015,93.8358307 46.7552414,92.6509171 45.9889679,91.7542038 45.4680328,91.2614136 45.2220116,90.8575592   45.1738167,90.6107864 45.2079048,90.2410355 46.0156746,88.5699692 45.9749413,88.3031998 45.8378525,88.1253128   45.5917625,88.1868668 44.9885902,88.5699692 44.3038635,89.199913 43.7013779,89.145752 43.3042374,88.8989792   43.119648,88.7137604 42.4623718,87.7140656 42.2296333,87.2828293 42.0925598,87.1049271 41.8666039,86.9818878   41.3122406,86.9818878 40.757206,87.1049271 40.4971581,87.1049271 39.7783241,87.3242493 39.5930367,87.4881058   39.5656471,88.4262466 39.4700699,88.6936951 39.2306824,88.7959976 38.8608627,88.5084839 38.4570122,87.9608383   38.1212921,87.5910873 37.4299278,87.2487259 36.6355133,86.6943741 36.3272514,86.6943741 35.9300499,86.9611359   34.7177391,88.1253128 33.9374275,88.6322098 33.1089134,89.4258728 31.9587841,90.2817764 31.8076649,90.4670639   31.5890331,90.9598618 31.6364841,91.5489273 31.6023846,91.8365097 31.4653034,92.1032791 31.1777878,92.4663849   31.0140018,92.6034698 30.999897,92.6034698 30.6642456,92.5212326 30.3974876,92.3085556 30.1854877,91.234024   29.9935589,90.6723404 29.9454231,90.5285492 29.8979721,90.3981781 28.8842487,88.6663132 28.6923103,88.4610291   27.8230553,87.5362396 27.2680187,87.4472885 26.0356541,84.5780334 26.0356541,84.5713196 25.2620621,84.3111954   25.0774517,84.4482803 24.8855915,84.3727493 24.8788815,84.3660355 24.8855915,84.3526917 24.9811802,84.1266632   25.3168411,83.7569122 26.227581,83.0447311 26.3165359,82.7772751 26.1934814,82.5512543 25.980875,82.4349136   25.4265232,82.2911224 25.2138481,82.1680756 25.0567722,81.9627991 25.1390076,81.6338577 25.2413063,81.4559631   25.4606323,81.3329239 25.9333553,81.1892014 26.5151062,80.7779541 26.6381416,80.5519257 26.9738712,79.4773941   27.8163452,77.9019775 27.8979645,77.6010437 27.9601364,76.9644547 27.617775,75.7180557 27.6792622,75.3964386   27.9875259,75.0059433 28.5552292,74.6428375 28.8909492,73.9240036 29.2266102,73.5816422 29.8290882,73.1710892   30.2744331,73.027298 30.8835621,72.6435089 31.0687809,72.4589767 31.376358,71.7467957 31.5475388,71.6030731   31.8217125,71.5207672 32.1299629,71.5615768 32.3900909,71.5207672 32.3286018,71.2332535 32.2048721,71.0272903   32.1707726,70.7879105 32.2322617,70.4796448 32.9243813,69.8497696 33.0199776,69.5830002 33.1089134,68.9871521   33.03339,68.1312485 32.8146896,67.7066574 32.513134,67.3369064 31.9587841,66.8714981 31.7461777,66.7477722   31.5890331,66.5632324 31.328907,66.1727371 31.1163006,65.7481384 30.965807,65.5635376 30.7805805,65.3990707   29.6719456,64.7899399 29.2747364,64.4609299 29.0146103,64.0985031 28.7538681,63.3997459 28.5552292,62.2970657   28.5552292,61.4211006 28.6174717,60.4415359 28.4596424,59.9553833 27.8638649,59.2232094 27.4666557,58.9356918   27.2065296,58.8533897 26.3298798,58.8941994 25.645155,58.5244484 24.7077007,57.4906464 24.4468899,57.0800934   23.8651485,56.3472328 23.3723526,56.1212006 23.0507393,56.1004601 22.5438385,56.2034416 22.2081966,56.1826935   21.8384457,55.8744316 21.6056995,55.4498329 21.5642738,54.8547401 21.6056995,54.5257339 21.5642738,54.224865   21.455265,53.9988365 20.9002285,53.5742416 20.2296104,53.204422 19.6745739,52.7109413 19.2299137,52.1840401   19.0038872,51.7319908 18.955761,51.1843452 19.0654449,50.5544739 19.2773666,50.0616798 19.3737068,49.472538   19.2914028,49.1850281 18.6201,48.5551491 18.2502804,47.9045219 18.1754398,47.657753 18.161335,47.0827217 18.2369289,46.4528427   18.0383587,45.9807281 17.9012871,45.7821579 17.5589256,45.473896 17.2713413,45.0626488 16.8882294,44.7617836   16.5659294,44.4127121 16.1486588,44.1452599 15.6277218,43.9673615 14.662879,43.8851318 14.4161043,43.8028984   14.1900864,43.6798515 14.0804529,43.4538193 14.0323172,42.885437 14.0944901,42.5771751 14.3131218,42.063633   14.5598965,41.6597824 15.1416368,40.8653641 16.1961117,40.2903366 16.3813286,40.1465416 16.5043736,39.927227   16.5659294,39.619648 16.5659294,39.3113861 16.4087868,38.8252335 16.2302094,38.6815071 15.9634418,38.5785255   14.9978456,38.4554825 14.71033,38.3525009 13.4505854,37.5788307 13.3000736,37.4351006 12.9644318,36.8051567   12.5464678,36.2093849 12.1767168,35.9085159 11.0881433,35.2578926 10.3559008,34.3404312 10.1225471,33.6009293   10.061059,32.7242775 10.1981497,31.0739594 10.1573305,30.8071918 9.602294,30.3210373 9.7253389,30.0535851 9.8831768,29.9097919   9.9995022,29.6837654 9.8490686,29.4992332 9.5889416,29.4036446 9.4037247,29.2591686 9.561553,29.0538883 9.9587612,28.7871208   9.9587612,28.4655056 9.5408154,28.2187252 8.9724169,28.0542603 8.7945948,27.9104691 8.5003691,27.5473595 8.4247751,27.3013401   8.4588747,27.1916409 8.51373,26.9930706 8.6982536,26.8084755 9.2940321,26.466114 9.6363935,26.137167 9.6638508,25.7881012   9.6363935,25.1782856 9.3288155,24.5483398 9.0205536,24.1785908 8.9931641,23.8910751 9.1710644,23.3848591 "></polygon></svg>