<svg height='100px' width='100px'  fill="#000000" xmlns="http://www.w3.org/2000/svg" xmlns:xlink="http://www.w3.org/1999/xlink" version="1.0" x="0px" y="0px" viewBox="0 0 100 100" enable-background="new 0 0 100 100" xml:space="preserve"><polygon points="28.7802105,97.1254654 28.1423244,96.7341003 27.8526344,96.671402 27.5476437,96.3935699 27.1287708,96.1783981   26.8076897,95.7870331 26.3383636,95.5130005 26.0800247,95.1957626 25.6691685,94.6832275 25.5200977,94.4994049   24.8352089,93.0746002 24.9215832,92.7734451 25.2464542,92.4604263 25.461628,92.002533 25.2189426,91.3058243   25.3557625,90.8907394 25.2659454,90.7107086 24.9254169,90.491745 24.8394356,90.4095535 24.7687149,90.3392258   24.7805786,89.9241867 24.7805786,89.877182 24.7373676,89.7911606 24.6395264,89.5916824 24.6200352,89.419281   25.16008,88.7814407 25.281599,88.5268936 25.3481312,88.2727432 25.3519287,88.2375565 25.4027653,87.1414185   25.1130772,86.6250916 24.8940754,85.8932037 24.7610836,85.6153336 24.6983929,85.1024475 24.8275757,84.1083374   24.8275757,84.0968704 25.0702629,83.8033447 25.2854404,83.709343 25.8881435,83.6038666 26.6747036,83.1299286   26.7805672,83.0676575 27.4692936,83.0244522 27.8136597,82.9422684 27.8682899,82.9304504 28.4358482,82.7699051   28.717514,82.5898819 29.4964485,82.0536728 30.5061703,81.122261 30.510006,81.1184616 30.5142326,81.1146317   30.5375195,80.9464569 30.5921917,80.8287354 30.8780518,80.1832199 31.0580788,79.098938 31.0305614,78.7312927   31.112709,78.5237503 31.3516026,78.324234 31.8132915,77.6863861 32.008976,76.8680801 32.3181534,76.0112228   32.9759216,74.9582596 33.5079422,73.4593277 33.7349358,72.5749207 33.9344521,71.7099991 33.9971504,71.0213165   33.9619675,70.7629395 33.2575874,70.1170273 32.9716949,69.5613251 32.5689011,69.158493 32.5689011,69.1543045   32.177536,68.9314651 31.6802673,68.3482513 31.4532738,68.0780563 31.1910591,67.9843979 30.9327202,67.7963486   30.9640675,67.5303802 31.2613888,66.7082748 31.4494457,66.2779312 31.6764698,65.9924316 32.333847,65.4875259   32.7252121,65.4053802 33.0581055,65.1626968 33.4376144,65.1428146 34.3258171,64.7204895 34.6705704,64.614624   34.8425369,64.501091 35.3160896,63.9377594 35.4884453,63.7378502 35.9149971,63.3464851 36.9518814,63.213501   37.136097,63.0373077 37.4685974,63.0373077 38.0124397,63.2058678 38.3648262,63.3702011 39.7697868,63.6205215   40.1496849,63.2956467 40.2983665,63.2566681 40.3881454,63.2799911 40.4546776,63.4286728 40.6308746,63.4366951   40.8498383,63.2880173 41.3665581,62.7009697 41.8439484,62.3837662 42.1217766,62.0237083 42.1806374,61.8750687   42.419529,61.2880211 43.0417213,59.9495506 43.1670761,59.4760399 43.3272209,57.8715973 43.2958717,56.4819374   43.2763824,55.8478851 43.2022591,55.5077133 42.822361,54.6191177 42.6071854,54.5017853 42.3449707,54.5449905   41.9887924,54.1299095 41.6837997,53.957943 41.2687187,53.9147377 41.0848923,53.6915436 40.9675636,53.2611961   40.7405319,52.8736649 40.6740379,52.6271439 40.5681725,52.2514343 40.4076347,51.9697685 40.3059998,51.617382   39.8324471,51.2573662 39.4177933,50.7249527 39.3199539,50.4666138 39.2022285,49.2967033 38.9793854,48.4474792   38.8383789,47.7193832 38.5215302,46.826992 38.3415413,45.8642349 38.2474937,44.0992546 38.0361557,43.2890129   38.1026573,42.3732948 38.0009727,41.665081 37.9146004,39.6883736 37.7464294,39.1525536 37.4842529,38.6163445   37.3122864,37.4537163 37.0497208,36.5264931 36.6036835,34.9568443 36.2241745,33.7984009 35.9031372,33.282074   35.8209496,33.1528854 35.6409683,32.4794617 35.0539207,31.8924141 34.5528488,30.9610023 33.8094902,29.8063965   33.4884567,29.7127819 33.2419319,29.4387474 32.8662224,29.2744141 32.6235428,29.1257343 32.3024979,28.6208344   31.9619713,27.5717392 31.8408108,26.9418755 31.695961,26.1748009 31.4261131,25.8342724 31.2537613,25.4899101   31.0305614,23.9714909 30.8467426,23.7482548 30.4748611,23.5250607 30.4591675,22.7190437 30.2910042,22.1514835   30.2164822,21.9011288 30.2948322,21.7012596 30.1304989,21.1730709 30.1385212,20.6838646 29.8056259,19.3886032   29.7704868,18.4059639 29.6726456,18.0302906 29.6099434,17.8074875 29.5942898,17.7409554 29.5748043,17.6664371   29.3244419,17.443243 29.3125896,17.1263943 29.1050816,16.8955669 29.2147484,16.6410236 29.6844597,15.9717884   29.7158089,15.7252645 29.5315933,15.2949219 29.4261189,14.711709 29.289299,14.3123207 28.8428669,13.6744337   28.6433887,13.1733694 28.4553375,12.7900248 28.4515018,12.7900248 28.4515018,12.7862301 28.4595642,12.7862301   28.5531788,12.7078791 28.717514,12.5003386 28.7958641,12.3478622 28.8153553,12.1834888 28.7882328,11.846797   28.9131966,11.5651312 28.9995708,11.4592276 29.6569462,10.9700212 30.1304989,10.5163898 30.576498,10.2266617   31.2694168,9.5612602 31.4964428,9.4087868 31.6726341,9.4087868 32.1266975,9.7256336 32.5218582,9.9213161 32.7137451,10.1326532   32.9445724,10.4456701 33.1559486,10.6100044 33.2927742,10.5515347 33.3474045,10.3986673 33.36306,9.8624573   33.4689636,9.7688036 33.8798256,9.6434469 34.0284576,9.6434469 34.3456993,9.5731211 34.6625557,9.5731211 34.7917061,9.6434469   34.8700523,9.7451258 35.0030746,9.9916077 35.3787537,10.5630016 35.4842606,10.6688652 35.7112503,10.8099136   36.0556145,10.8408709 36.4469795,10.4808149 36.7917328,10.2618456 36.9323883,10.2266617 37.010746,10.3283358   37.0340271,10.4808149 36.5723343,11.4359417 36.5528488,11.6472788 36.5803947,11.7883272 36.7210121,12.0191545   37.0187645,12.3008175 37.4567413,12.8133526 37.8951073,13.4906101 38.2123489,13.7566214 38.3491707,13.8154821   38.5173416,13.8506241 38.8226852,13.8036242 38.9637337,13.7451534 39.6994591,13.6274309 40.3648605,13.6079416   40.583828,13.4554262 40.9870529,13.2910919 41.4957504,13.3025589 41.8206253,13.3965645 42.3644638,13.4668932   42.7050285,13.4554262 42.810894,13.3732786 42.8303833,13.0132618 43.0222282,12.8133526 43.9692955,12.2656755   44.109951,12.2068138 44.4153328,12.1834888 44.5640144,12.2305307 44.6855316,12.3126783 45.0023842,12.406332   45.307766,12.3596811 45.6325989,12.4533348 45.9926529,12.5083609 46.0981255,12.6020145 46.2391434,12.8252106   46.7008286,13.1500807 46.841877,13.3732786 46.9316978,13.639287 47.1586876,13.9798164 47.36623,14.1560097   47.5343971,14.1560097 47.5894241,14.0031033 47.6322403,13.639287 47.5072784,12.8722115 47.401413,12.7782078   47.2294083,12.7782078 47.1040611,12.7078791 47.0608482,12.5668306 47.1159134,12.4300098 47.2019005,12.3126783   47.3073692,12.2305307 47.4835587,12.0191545 47.6322403,11.5532732 47.6677742,11.1932535 47.7732925,10.8878736   47.9299927,10.6570072 48.0354652,10.5748596 48.2976379,10.2618456 48.4814644,9.8272734 48.532692,9.4672565   48.4268303,8.6845255 48.4894943,8.3481865 48.5949974,8.0466394 48.74403,7.7531157 48.9981842,7.2639089 49.146862,6.798419   49.1625557,6.434175 49.1312103,5.7730026 49.1900711,5.0016994 49.4014053,4.4303455 49.4717369,4.3011556 49.7534027,4   49.9181252,4.0470028 50.007946,4.1524758 50.0511513,4.2896886 50.1917686,4.5362096 50.4463196,4.6653996 50.8923531,4.5713515   51.5382614,4.5362096 52.3993454,4.7124023 52.5556564,4.7708721 52.7318497,4.7827306 52.8805275,4.7708721 53.2913818,4.6416826   53.8784294,4.5124931 54.3951492,4.5124931 55.8784256,4.7005439 56.3519783,4.8373652 56.7158318,4.375669 56.3600006,4.8373652   55.8864479,5.4324365 55.3422165,6.250351 55.2287216,6.6730647 55.2172546,7.2677441 55.0880623,8.0661297 55.291378,8.6260557   55.7297516,9.8391294 55.7530708,10.034812 55.976265,10.7586842 56.277813,11.3732452 56.2935066,11.6159286   55.7140961,12.5397091 55.3422165,13.0051994 53.8983116,14.7155418 53.2955704,15.5922813 52.7242165,16.5940189   52.3756256,17.1107388 52.0664482,17.7761383 51.8160973,18.0772953 51.6555939,19.1264267 51.8749542,20.253521   52.125309,20.7503586 52.681015,21.2357311 52.9000168,21.4314137 52.9821663,21.6152363 52.9393883,22.546648   52.829689,23.1574116 52.9236946,23.6504135 53.1702232,24.1006413 53.6750832,24.6170101 53.6750832,24.6208057   54.5594864,25.1650772 55.1037178,25.3764153 56.1719513,25.7911053 56.4459839,25.8147831 56.7865105,25.8461323   57.8627663,25.759758 58.3011742,25.7796383 58.8255234,25.9046021 59.412571,25.9634628 59.6823807,25.9126244   60.0894394,25.7050819 60.2812843,25.6229362 60.5121536,25.6267319 60.7666969,25.7402668 61.1893692,26.1981258   61.7569275,26.6754742 62.1441078,27.2002563 62.5981293,28.0452518 62.9894943,28.5738316 63.2673645,28.7068539   63.5337677,28.9808903 63.8781281,29.3019276 64.1674271,29.4425449 64.8916855,29.7911339 66.3398209,30.8161583   67.3847198,31.2388725 68.1361084,31.3095913 68.4648132,31.3955746 68.7193604,31.6458912 68.8875275,31.8495979   69.0950317,32.5344887 69.3178711,32.9923859 69.525383,33.2664185 70.3356552,33.9275894 70.4292755,34.0097771   72.0459595,34.8475342 72.652504,34.9254951 72.797348,34.9919891 72.8244705,35.1410599 72.6796265,35.5244026   72.1281128,36.5264931 71.9125443,37.2698517 71.7092361,38.150425 71.4741821,38.6358337 71.5097504,39.8997498   71.270874,40.6240082 71.2433548,40.8899803 71.6033707,41.6845703 72.4254684,42.6434937 72.5860062,42.9446487   72.5860062,43.0895309 72.6016617,43.2890129 71.8345871,44.8739624 71.6660614,45.3436813 71.5643921,45.9349556   71.4703827,46.5529594 71.4860382,47.2183571 71.5957336,47.6685867 71.689743,47.7977371 71.8109055,47.9621086   71.9282379,48.0091133 72.0497589,47.8718987 72.1984406,47.9502525 72.2726059,48.2907753 72.2416458,48.4589462   72.1319427,48.6156502 72.1281128,48.9718323 72.3119736,49.4572411 73.3920288,50.2319489 74.1396103,50.4000816   74.3899307,50.4551468 74.5152893,50.5292702 74.5466309,50.7249527 74.3899307,50.8816566 74.3822937,50.8935127   74.3585815,50.9130058 73.9985657,50.9091682 73.6309128,51.1828117 72.9498291,52.3374176 72.9303284,52.4822998   73.1142044,53.0888405 73.3216934,53.3158302 73.3687363,53.4725342 73.2315292,53.7152596 72.6287842,54.04776   72.4216385,54.247242 72.1200867,54.6309738 71.5720215,55.3234978 71.1378784,55.7657013 70.9616928,56.2159233   70.8130035,56.2159233 70.7189636,56.1142502 70.7308197,55.7385788 70.5664825,55.4293594 70.1476059,55.3353539   69.9049225,55.221859 69.0166779,55.2413483 68.9108124,55.2726593 68.6172867,55.7148628 68.4178162,55.625042   68.2339478,55.4488487 67.8777618,54.75214 67.6350861,54.5331345 67.4080505,54.4314575 66.8091431,54.3645744   66.2885895,54.4547806 65.3571777,54.67379 64.4258041,54.8148003 63.7294502,55.0104828 63.2360153,55.2375107   62.4024467,55.4526863 59.7725906,56.7678299 58.8411789,57.4290009 57.6632881,58.3095741 56.8449821,58.8732948   56.1092911,59.1825142 56.1054611,59.1825142 55.7297516,59.6208839 54.4654808,61.4798698 54.4891586,61.8398857   54.5010147,62.0080566 54.4188271,62.1491051 54.3167992,62.1918793 54.2189598,62.2312508 54.1291389,62.6772919   53.4988861,63.2838287 53.3697357,63.5658836 53.3853874,64.0080872 53.4950905,64.3054123 53.7221184,64.5794449   53.7767563,64.6184235 53.7805901,64.6184235 53.8237572,64.6497726 53.8983116,64.6967773 54.0431557,65.3465195   54.0194397,65.5498352 54.0431557,66.8806305 54.1799774,68.0822449 54.3832932,68.7552719 54.4345207,69.2876816   54.5281372,70.266098 54.4578133,71.3224716 54.5946312,72.1013641 54.7043304,72.7197647 54.7043304,73.8273697   54.7865143,74.5630951 54.8101921,74.9624863 54.7238197,75.3301315 54.6729813,75.447464 54.4383202,75.9760437   54.0546227,76.4847412 52.861042,77.7685318 52.4734688,78.3005524 52.0664482,78.6880875 51.3425789,79.3691788   51.0566864,79.5530014 50.7555313,79.7448502 49.393383,80.3082199 48.8457069,80.6017456 48.2391701,80.7859573   47.8279228,81.1108322 47.2878761,81.0951385 47.186245,81.1498108 46.6538277,81.5021973 46.3801842,81.7720032   46.0316353,82.4920425 45.2255783,83.372612 44.5678101,84.38237 43.8282852,85.3688126 43.4564095,85.8267059   42.9320221,86.4488983 42.9320221,86.4527359 42.353035,87.3218384 41.7579231,87.8733139 41.6405983,88.0888748   41.5309334,88.3705826 41.4724617,88.8403015 41.4724617,89.5721893 41.390274,90.0965424 41.1590576,90.6209335   41.0417252,91.3371277 40.9675636,92.249054 40.8616982,92.7226028 40.4898224,93.5756607 40.1573257,94.5383835   39.621109,95.5871277 38.3453369,96.9962769 37.5156097,96.9962769 36.6782379,97.3367996 36.3766518,97.3681488   35.8209496,97.3054504 35.3317451,97.2389603 34.1614838,96.7887344 32.9289169,96.8082199 32.5218582,96.8552246   31.7975979,96.941246 30.9953766,97.1763 29.8094616,97.1800995 29.2930946,97.2779388 "></polygon></svg>