<svg height='100px' width='100px'  fill="#000000" xmlns="http://www.w3.org/2000/svg" xmlns:xlink="http://www.w3.org/1999/xlink" version="1.0" x="0px" y="0px" viewBox="0 0 100 100" enable-background="new 0 0 100 100" xml:space="preserve"><polygon points="26.4565353,60.4187317 26.2889099,60.7329102 25.9366608,60.7165031 25.7197971,60.8788681 25.6060619,60.7974167   25.3135986,60.8407974 25.1025372,60.5646896 25.2490387,59.9094048 25.1353569,59.8226471 25.1728897,59.6925545   25.2543468,59.4164467 25.4923248,59.3296814 25.8498898,59.4650803 26.0667458,59.3513985 26.2291241,59.4545212   26.727335,59.4328575 26.954752,59.6279945 27.545042,59.6549644 27.8972988,59.3080177 28.021595,59.4598274 28.2061729,59.849617   27.870327,60.1045494 27.8972988,60.3156052 27.761898,60.5266151 27.5884247,60.5864067 27.3228779,60.2558174   26.7220821,60.2991982 "></polygon><polygon points="5.6700072,20.1129513 6.3851295,19.7876663 7.0293078,19.6792374 7.701005,19.6575203 8.1072044,19.5279694   8.5890598,19.5004559 8.4700766,19.3380852 8.4700766,19.0942574 8.3997173,18.8885021 8.3240557,18.4823036 8.5187063,18.1305885   8.6652088,18.0004959 9.2718544,17.6699047 9.4718132,17.5778866 9.9647226,17.6429329 9.9864407,17.4694576 10.4359684,17.1611252   10.6798019,16.8522453 10.8585787,16.4999943 10.9072742,16.2567081 10.7612534,15.384511 10.6417227,14.9836245   11.0807428,14.7397966 11.0807428,14.7344894 11.1241245,14.2632437 11.0913038,14.0521765 10.8855505,13.6677008   10.8258123,13.4672489 11.0643377,12.8661337 11.2595243,12.2216845 11.3081608,11.9833803 11.2970581,11.7395468   11.0807428,10.9488707 10.7771225,10.4723177 10.7179251,10.2771254 10.5280409,10.1689682 10.3117256,10.1581364   10.3978939,10.0280437 10.3873386,9.7897396 10.6041899,9.4485807 11.1510963,9.2373085 11.7847137,9.080245 12.1475372,8.9178734   12.7647381,8.4791174 13.675004,7.4987741 14.2219114,7.0275283 14.5847349,6.8704648 14.9692707,6.8759832 15.5648069,6.9788871   15.8953457,7.1901708 16.1339207,7.4826884 16.2311974,7.6450548 16.2962914,7.8346744 16.4047203,8.2733698 16.501997,8.9178734   16.7564354,9.7246943 16.9463196,10.0280437 17.3466702,10.4342432 17.4604053,10.5968857 18.1590691,11.2249241   18.5494003,11.3875666 19.9954166,11.6419563 20.5042496,11.6583662 20.7427692,11.6094599 21.2029114,11.6094599   21.5440655,11.4362507 21.3816948,11.0625477 21.2896767,10.6616611 21.3383121,10.1255798 21.3277512,9.8873358   21.1437149,9.5461826 20.5153522,9.0966005 20.2715302,8.8202772 20.1144657,8.4521513 20.1144657,8.2083178 20.2498646,7.8021183   20.4667168,7.4662781 21.1325588,6.8056893 21.2791157,6.3830791 21.5440655,6.1286898 21.6419334,5.9334974 21.6794662,5.4677763   21.9449577,5.1917229 22.0915146,5.4625225 22.248579,5.5762043 22.7843285,5.868722 23.2286625,5.9824038 23.6670818,5.9173522   24.3821545,5.5762043 24.9671364,5.3865848 25.4272804,5.3379545 26.164072,5.3974767 26.7601566,5.6573844 27.0631866,5.9012179   28.108305,5.9660478 28.3140583,6.0310879 28.6768761,6.2207079 29.510994,6.9627533 30.4101028,7.4501386 31.428257,7.8182635   31.7805176,8.013402 32.8039169,8.3220539 33.2482529,8.4629841 33.4158707,8.6092157 33.7845383,8.8041372 35.5664024,9.5136871   36.0377007,9.6109581 36.2809868,9.5948725 37.0664139,9.676053 37.2885246,9.7411041 37.5757332,9.9793482 37.6513405,10.4181032   37.6243782,10.672493 37.7216949,11.0951033 37.8195648,11.2574749 37.9655228,11.3875666 38.1120262,11.4957237   38.3013763,11.5555162 39.3629112,11.690917 40.0996971,11.7070503 40.8739738,11.4470835 41.0850296,11.5121346   41.2045593,11.6419563 41.6049118,12.3353662 41.8704567,12.5953331 42.054493,12.6926594 42.2819099,12.7415657   42.5474548,12.7741156 42.7695732,12.7415657 43.2514267,12.4652414 43.7988205,11.918334 44.1124611,11.7070503   44.2859344,11.6094599 44.9143066,11.479579 45.1364632,11.1601486 45.1797905,10.9163151 45.2935295,10.8025799   45.4992828,10.7050428 45.7161369,10.672493 46.7718239,10.7700834 47.7630043,10.7700834 48.4077263,10.672493   48.8678665,10.6616611 49.6210175,10.3694134 49.9135323,10.0930843 50.1081314,9.7411041 50.3138847,8.8691835 50.39534,8.6414948   50.628067,8.3384161 50.7962875,8.256959 51.0395737,8.2408733 51.2241516,8.3384161 52.0365486,9.1399832 52.518364,9.4485807   52.7241096,9.5136871 53.2492981,9.5623169 53.4391823,9.5136871 53.9480171,9.2537193 54.2674522,9.0476942 54.9719658,8.4140768   55.3078117,8.2408733 55.7246323,8.1107273 56.6560135,8.0620861 57.3330116,7.9644957 57.5064926,7.8833098 57.8206711,7.6720319   58.5246391,7.0600786 59.1529579,6.6430469 60.1007576,6.2207079 60.3118095,6.361361 60.5503311,6.5293112 61.2654037,6.9138465   61.6499405,7.0925746 62.305275,7.2552171 62.5109749,7.3525424 62.6082993,7.5313187 62.635273,7.7209382 62.7654266,8.1107273   62.9980888,8.4140768 63.44767,8.7877264 64.4065704,9.2211685 64.6721191,9.4811363 64.6826859,10.2067719 64.7800064,10.8512745   64.7911072,11.5446844 64.6932449,11.7556915 64.5525894,11.8857784 64.1357727,11.9669695 63.995121,12.0971165   63.9189186,12.3028698 63.9570465,12.5141478 63.8808441,12.7251549 63.5672035,12.9039373 63.4207001,13.0340834   63.1827202,13.3860683 63.1334877,13.6134806 63.1552086,13.8355961 63.4101372,14.577425 63.5672035,15.2110424   63.8322067,15.449563 64.4552612,15.6933908 65.8743057,15.9800596 66.0800629,16.3217545 66.1990509,16.711544   66.3672714,18.0327206 66.4534378,18.211504 66.5677185,18.2712955 66.6380692,18.3035221 66.8813553,18.2929592   67.45047,18.1464577 67.6291962,18.0169067 67.9217148,17.4805603 68.067688,17.3721333 68.3220673,17.404953   68.5061569,17.4805603 68.6473541,17.6107063 69.1561813,18.1792774 69.6708221,18.4823036 69.9579697,18.7261314   70.1637192,18.8075886 70.797348,18.677496 71.3067093,18.9863701 71.5716629,19.2243481 71.6965027,19.4031315   71.8641815,19.7442837 71.994278,20.1288204 72.0212479,20.3403683 71.9508896,20.5513706 71.8265915,20.6920834   71.6584244,20.7899494 71.0141983,20.8872757 70.8946609,21.0332375 70.9544601,21.2283707 71.3659134,21.6129055   71.4632339,21.7916927 71.4632339,22.0355206 71.1220779,22.5337372 70.7106323,22.9182739 70.2774582,23.2430172   70.0336304,23.5683022 69.9093323,23.6603184 69.6708221,24.0178299 69.1561813,24.5811462 68.9885025,24.9709358   69.0477524,25.1602783 69.1455688,25.3226509 69.4163666,25.5993004 70.1309509,25.9351444 70.8354645,26.3413448   71.5933838,26.9204769 71.8372192,27.2129402 72.2867432,28.0851326 72.5522842,28.3559322 72.8822784,28.5505829   73.1478271,28.5997601 73.3699417,28.5669403 73.6460419,28.3231125 74.0088577,28.1824589 75.2222137,28.6483955   75.9478378,28.7785435 76.7279587,28.827179 76.9554367,28.8107624 77.2965393,28.6320343 77.4425507,28.5182991   77.8059082,28.0687218 77.9735413,27.9872665 78.2173615,28.0364971 78.3633728,28.1501789 78.7156296,28.5833492   79.1651611,28.9514751 80.1616516,29.6179142 80.7138062,29.8887138 81.721405,30.2784977 82.4253693,30.4244633   83.7142715,30.5815811 83.9200211,30.6630325 83.9258728,30.6630325 84.0178909,31.0692329 84.2833786,31.5838661   84.4024277,31.729826 84.5864716,32.0656738 84.6462555,32.2608643 84.5378265,33.0187798 84.6568146,33.409111   84.7816544,33.5497589 84.9223099,33.9237366 85.046608,34.0696945 85.3120956,34.5679169 85.5178528,35.1312294   85.4474945,35.3422394 85.1766968,35.602478 84.8138809,36.0520592 84.6462555,36.4254379 84.5266724,36.5825043   84.2342072,36.8099747 84.1099091,36.9564781 84.0395508,37.1674843 84.0988083,37.6006546 84.0014801,37.779438   83.6656342,37.9582214 83.5196762,38.0883141 83.3948364,38.814003 83.26474,39.117569 83.1404419,39.2635307   81.9271011,40.1679993 81.0010223,40.4932861 80.9957123,40.617527 80.7788544,40.958683 80.7413254,41.2136116   80.7788544,41.424675 80.7518845,41.7007256 80.4863892,41.9551697 80.2917404,42.0202179 80.0748825,42.0529823   79.6364594,41.9393005 78.7859421,41.4410858 78.3527603,41.294529 77.9735413,41.2294807 77.1664429,41.310936   76.6412506,41.0237274 76.4138336,40.9750862 75.9531479,41.00737 76.0239868,41.4410858 75.8992157,41.619812   75.7584991,42.0202179 75.780159,42.2476349 76.0239868,42.5400963 76.2672729,43.0383682 76.2889938,43.5207176   76.2672729,43.7968216 75.9964752,44.0570107 75.5252304,44.3278084 75.3792801,44.4738197 75.3358917,44.6308823   75.3089142,44.7176514 75.3687057,44.9122505 75.6014328,45.1994591 75.7420883,45.3131943 76.1916733,45.4432831   76.5222626,45.6384811 76.5222626,45.892868 76.2080765,46.103878 76.0832443,46.2662468 76.229744,46.3805237   76.4355011,46.456131 76.5544891,46.6020927 76.4624786,46.7808762 76.3376312,46.8946114 76.240303,47.1061592   76.6793289,47.490696 76.7116089,47.7017021 76.6031799,49.0070648 76.6518097,49.7004776 76.8363876,50.2854042   77.4155731,51.0110931 78.2766113,51.5257187 78.5690765,51.7636986 78.8996735,52.2349396 79.1651611,52.7332115   79.2842102,52.8468971 80.2806396,53.4588509 80.5080566,53.5403099 81.2718201,53.6376343 81.4828262,53.7190895   81.6240768,53.8327713 81.7483749,54.217308 81.7483749,54.4611359 81.6996841,54.704422 81.602356,54.8778954   81.4558563,54.9916306 80.621788,55.4464684 80.1616516,56.0748329 79.9664536,56.394268 79.7935257,56.8004646   79.7443466,57.0442924 79.7824173,57.4938736 79.8691406,57.672657 80.0479126,57.7699852 80.243103,57.8350296   81.0062714,57.9000702 81.4183197,58.0407829 81.7483749,58.2523308 82.0033035,58.5284386 82.3063354,58.7664185   82.5338058,59.0917015 82.8046036,59.3355293 82.9130249,59.4925957 83.0700912,59.8660278 83.0102997,60.3642464   83.0214539,60.8190804 83.0806503,61.014267 83.3731689,61.5289001 83.9041519,62.0271187 83.9692535,62.2545319   83.8930511,62.7205276 83.7254257,63.1103172 83.6386719,63.6085281 83.6767349,64.0417023 83.8555222,64.3992615   84.2072296,64.8160324 84.6462555,65.2063599 85.1766968,65.4988785 85.615715,65.8347244 85.7019424,66.013504   85.7347031,66.2514877 85.7019424,66.5117264 85.7347031,66.9824295 85.9188004,67.3182755 86.2112656,67.5621033   86.4767532,67.5785141 86.8777008,67.4970551 87.1320877,67.5134659 87.5218735,67.6922455 87.9820175,68.2719193   88.1883163,68.5966644 88.9298172,69.4143753 89.4714203,69.7068329 90.1648254,69.6745529 90.3705826,69.7396545   90.684761,69.9670715 91.1560059,70.5462036 91.2808456,70.9307404 91.2316132,71.7055511 91.2316132,72.3984222   91.3887329,73.2706146 91.5949783,73.8233185 91.8007278,74.1099854 92.1149139,74.370224 92.9918137,74.8520279   93.1383286,74.9821167 93.2573624,75.1281357 93.4255295,75.4639816 93.631279,75.7728577 93.7555771,75.9188232   93.9237442,76.0166855 94.3622208,76.3848114 94.6007462,76.6772766 94.7737274,77.0131149 94.8334656,77.6901169   94.7631226,78.1614227 94.6875076,78.3724289 94.1400604,78.8706436 94.091423,79.1144714 94.1183929,79.3038177   94.2162628,79.4667282 94.2649002,79.6941452 94.0591431,79.7264252 93.8153229,79.6941452 93.5984573,79.7592468   93.4630585,79.8729324 93.2197723,80.4362488 93.0732727,80.5822067 92.5914612,80.8857727 92.2392044,80.9995117   91.7626648,81.3242493 91.4971619,81.595047 91.2316132,82.1636276 90.7825775,82.4508362 90.5387497,82.7597046   90.4901123,83.0140991 90.76091,83.9999695 90.7117386,84.5034943 90.6471786,84.7415314 89.9807968,85.9876404   89.7152481,86.8375702 89.6179276,87.0163574 89.1577759,87.3416367 88.7838669,87.4553223 88.6103821,87.5526428   88.5294647,87.6933517 88.4644241,87.953537 88.5886612,88.1159058 88.7568893,88.2132339 89.1953659,88.326973   89.363533,88.4189911 89.4608612,88.5977707 89.3905029,88.8093185 88.6701279,89.3726349 88.4046326,89.6651001   88.3290253,89.8438873 88.1121674,89.5132904 87.8360672,89.3562241 87.7926788,88.9934082 87.6408691,88.8362885   87.6033325,88.5977707 87.6736832,88.3052521 87.5546951,88.099556 86.9046707,88.0778351 86.5904846,87.9265671   86.102829,87.8668289 85.9457703,87.845108 85.4856262,87.6610718 84.0882416,87.8070374 83.5788727,88.0725784   83.005043,88.104805 82.5554733,88.2782822 82.3930893,88.1645966 82.2307205,88.3000031 82.1169815,88.7061996   81.8837738,88.9172058 81.721405,89.3509216 81.2770691,89.8327789 79.6956558,92.2916412 79.1810303,92.5730057   79.1757736,92.5730057 79.0567398,92.7681961 78.8293152,92.8385468 78.5315399,92.8115768 78.3257904,92.562439   77.2150726,92.4434509 77.0146332,92.4593201 76.6682205,92.4704208 76.4138336,92.4270401 74.8160172,92.2916412   73.050499,90.3743744 72.4977951,89.7729874 72.2164383,88.5760498 72.0376587,88.2677231 71.9673004,88.1540375   71.4960556,87.4876022 70.8894196,87.0978088 70.4779053,86.5562134 70.0230713,86.2906647 68.9832001,85.2127762   68.7552414,85.1101379 68.0407028,85.0615082 67.8455124,84.8769302 67.677887,84.5357742 67.2822495,84.1406784   66.9575043,83.5556946 66.4751587,83.1442413 66.2969208,82.732193 65.836235,82.2990265 65.3702393,82.0065613   64.8397522,81.9959412 64.5038986,82.1419601 63.3884735,82.3588181 63.0414734,82.7813721 62.4893112,82.4074478   61.6716042,82.3804779 61.0485535,81.817215 60.8809242,81.2644577 60.3985214,80.6795349 60.3118095,80.316658   59.8463593,79.7480927 59.683445,79.634407 59.1312943,79.5857162 58.9578133,79.5693588 58.3511658,78.9193344   57.6418953,78.7733154 57.3277054,79.0118942 57.16008,79.0277634 56.0117798,78.004303 55.9139671,77.7874451   56.1038513,77.3976517 57.0786324,76.5418777 57.6038132,75.9135666 57.6471939,75.3666534 57.7339058,74.261795   57.4091606,73.6334305 57.6254768,73.2166748 57.5715332,72.9347687 57.6741676,72.6856308 58.4378777,72.3010941   58.8985596,72.214386 59.0932121,71.9330292 59.3317337,71.8896408 59.6242485,71.5051117 59.9056091,71.3480453   60.0843925,71.0936584 60.1388779,70.2812576 60.0468063,69.7068329 59.7866287,68.3094559 58.9636078,66.35466   57.6688576,64.193512 58.0644989,64.1554413 58.2590942,64.0850906 58.1401062,63.9607887 58.1348495,63.9607887   57.6254768,64.0036316 57.360527,63.7873154 56.9379158,62.227562 56.7157593,61.8806152 56.5100517,61.0359306   55.6976547,59.3730621 55.432106,59.1456451 55.1396446,58.349659 54.7768326,58.0249138 54.3758812,57.3261986   53.6666565,56.5355148 53.1138992,55.6956024 52.670166,55.0672379 52.442749,54.9482498 52.0582123,54.4664421   51.2241516,53.7460632 51.213047,53.7407532 50.3356018,53.1610756 49.7833862,52.9225616 49.4422874,52.8797188   49.3227043,52.9066925 48.1692047,53.1933594 47.9417343,53.3832436 47.789978,53.8000069 47.4869041,54.1088753   47.3948784,54.2062035 47.3895721,54.2062035 47.1780243,54.5965347 47.0642853,55.0730896 46.9130173,55.2354622   46.5174408,55.3380394 46.0895157,55.2518692 45.6452408,54.8456726 44.8873291,54.6018448 44.3832626,54.4283142   44.0315475,54.4283142 43.8094444,54.6018448 43.641758,54.8996086 43.1107178,55.3544502 42.6611366,55.4681854   42.477108,55.738987 42.3850861,55.8040314 42.1682281,55.9394302 41.946064,56.5407677 41.7895432,56.6000214   41.0633125,56.4646187 40.11026,56.632843 39.6283989,56.9036407 39.3734665,56.7354202 39.3248291,56.3075562   39.1571503,56.1075974 39.1243858,56.0695229 38.6536255,55.7987251 38.6102982,55.7823143 38.1389999,55.6146889   37.8735123,55.6199379 36.8067169,56.1721573 36.2703781,56.1451836 34.8026924,56.8004646 34.3747787,57.2881241   33.5512733,57.6832199 33.112854,57.7541161 32.1486359,58.3062706 31.9212208,58.436367 31.6773911,58.6257095   31.4557686,59.053627 31.2711926,58.6908073 30.7571068,58.7880821 30.697319,58.6638374 30.7729206,58.349659   30.697319,57.9704285 30.9247303,57.1744423 31.2172546,56.7195511 31.3420334,56.3133507 31.2928562,55.7770615   31.3848743,55.4359055 31.7101593,55.5443344 31.937582,55.1815186 32.1052551,55.1597977 32.3977203,55.4142418   32.6960335,55.5279236 32.7663841,55.5279236 32.8584023,55.5168228 33.0589027,55.5062599 33.6163177,55.0783386   34.0008545,54.9593544 34.163765,54.780571 34.3208313,53.8703575 34.4451294,53.6646042 35.0354156,53.648735   35.2141457,53.4535408 35.6854515,52.5327148 36.0101891,52.2027206 36.6929817,51.8557167 37.0558014,51.8123894   37.1642265,51.7965202 37.1695366,51.7965202 37.2885246,51.3844719 37.3154984,51.2924538 37.4075127,50.9841194   36.6115265,49.1424675 36.5845528,49.0885239 36.5359192,49.0504494 36.3894157,48.9472733 36.346035,48.9203033   36.3407249,48.9150505 36.2487144,48.6875763 36.2217369,48.633091 36.081028,48.6114273 35.8694801,48.5791435   35.6315002,48.3681412 35.5664024,48.3840103 35.0195465,48.5410728 34.6239166,48.5627937 34.2393799,48.4167786   33.8115158,47.9725037 33.5242996,47.9074554 33.2159691,47.4144936 33.0096741,47.3552971 32.6527023,46.9379921   32.468071,46.7158279 32.2083817,46.4995155 32.0513191,46.3694191 31.0712337,45.2211227 30.9083214,45.0317802   30.7189827,44.9016838 29.9986553,44.4087257 29.7817936,44.0025253 29.5385075,43.8184853 29.2243252,43.7534447   29.034441,43.5582504 28.6282406,43.5799675 28.1897621,43.2985497 27.9078598,43.5260201 27.9406796,43.699501   28.3791046,43.8888435 28.3199081,44.0787277 28.097744,44.0512161 27.6862373,43.8237953 27.5233231,43.9374771   27.3228779,44.3278084 27.1663551,44.3331184 26.96591,44.0459061 26.7601566,44.0136833 26.4025917,44.1056976   26.3211346,44.1813049 26.0667458,44.4304428 25.8282261,44.6689644 25.368082,45.3512688 25.4331284,45.7410583   25.2707577,45.8817673 24.5662441,46.0499344 24.2901382,46.001297 24.0521584,45.7791328 23.6945953,45.7896957   23.6184464,46.0663452 23.4724846,46.1958961 23.2450123,45.9468117 23.2826004,45.6707039 23.4291019,45.5030785   23.7702618,45.5570183 23.8950405,45.4538498 23.5645027,45.1344147 23.1254826,44.853054 22.4215107,44.7446213   22.1618137,44.6308823 21.9830856,44.5494308 21.8259678,44.4849281 21.4684639,44.5875053 21.333065,44.4521065   21.4145145,44.2786331 21.2843685,44.1490822 21.2627048,44.1273651 20.558733,44.0078316 20.0546665,44.186615   19.9033985,44.3278084 19.7193623,44.722908 20.006031,45.1185455 20.1630955,45.8008499 20.1741982,46.2556839   20.406929,46.6782951 20.2984943,46.7919769 20.1414318,46.7867241 19.7622032,46.4127464 18.711771,46.3207321   17.9046803,46.2503777 17.8559952,46.0335236 17.991396,45.7087784 18.1918907,45.4866714 18.2299633,45.2105637   18.5329952,44.9016838 18.6197529,44.6255798 18.5869331,43.6397057 18.4028969,42.2259712 18.0998173,41.4844131   17.7423077,40.1410255 17.3741837,39.1011543 16.9134979,37.9798851 15.8086357,36.0953903 15.1210203,35.1095161   14.3789749,34.1781273 13.1276093,33.3329048 12.9980049,32.943119 12.8895769,32.1576881 12.3532848,29.7966957   11.7736111,28.6483955 10.5497046,27.0886974 9.7701263,25.9187355 9.4448414,25.0793648 7.977107,23.1023045 6.8288622,21.9323463   6.0164628,21.3040371 5.1717844,20.6111679 5.1665306,20.6111679 5.3775434,20.3562374 "></polygon><polygon points="16.1661453,48.6172791 16.4152813,48.5574799 16.7294693,48.2110786 16.7945099,47.9725037 16.7077446,47.7720566   16.7347164,47.7070122 17.0653095,47.6800385 17.1086903,47.5774078 17.0219326,47.3605461 17.0922794,47.2685318   17.5312462,47.5123596 17.6016006,47.5065651 17.9263439,47.484848 18.0781536,47.6636276 17.9644184,47.8588181   17.9966965,48.0481644 17.8396339,48.0539589 17.6121616,47.7937202 17.3794899,48.145977 17.3032875,48.1893578   17.1520195,48.2866821 17.4604053,48.3570404 17.2493439,48.7796478 17.2657547,49.0937767 16.8701172,49.0287285   16.6591091,48.7145424 16.5342712,48.8986397 16.3772068,48.9038925 16.1444817,49.1588783 16.0360527,48.9420166 "></polygon><polygon points="10.4196119,51.0163422 10.1704769,50.9132271 10.0731516,50.7619553 10.3439512,50.5181274 10.3926411,50.1875916   10.1435051,49.3429108 10.2032976,49.1746902 10.4957609,49.1154938 10.6634407,48.763237 10.5121717,48.2110786   10.6364746,48.0428581 10.6745434,48.0375443 11.096612,47.9672508 11.3028526,48.0645218 11.3674116,48.0645218   11.5519886,48.0481644 11.8169394,48.405674 12.6568518,48.4760284 13.2090721,48.4437447 13.3984098,48.6495018   13.6046505,48.6712151 13.9511118,48.5194092 14.0484371,48.6823235 14.1029224,48.7684937 14.3842831,48.9256096   14.6011391,49.1964111 14.6714935,49.2942772 15.0232077,49.440239 15.055975,49.6084061 15.0665359,49.6676559   14.8502207,49.8194656 14.8174543,50.0146027 15.0232077,50.5181274 14.936985,50.7402916 14.6931572,50.8862534   14.6281109,51.1840248 14.6170082,51.2168465 14.4709988,51.2818909 14.3789749,51.2654762 14.2488832,51.2438126   14.0595398,51.0920067 13.4634552,51.4442635 13.4311762,51.4659271 13.0085659,51.5685616 12.5373201,51.4712372   12.2665205,51.4114418 12.1311207,51.4442635 11.9904728,51.7636986 11.8767376,51.7314758 11.7143602,51.4331627   11.5461397,51.4114418 11.1563501,51.584919 10.8040934,51.5468445 "></polygon></svg>