<svg height='100px' width='100px'  fill="#000000" xmlns="http://www.w3.org/2000/svg" xmlns:xlink="http://www.w3.org/1999/xlink" version="1.0" x="0px" y="0px" viewBox="0 0 100 100" enable-background="new 0 0 100 100" xml:space="preserve"><path d="M80.6880646,71.873497l0.2722702,0.086525l1.1408691-0.5928879l-0.2178268-0.8588867h-0.6506119l-0.5736694-0.2370911  l-0.2306366,0.0256805l-0.0801239,0.3908691L80.6880646,71.873497z M4.1891575,42.5859032l-0.2596109,0.0833855  l-0.0993452,0.0480347l-0.0641575,0.0704422H3.7596345l-0.0511787-0.259449l-0.0417891-0.4102936v-1.2145767l0.0546076-0.4614716  l0.1441145-0.0513077l0.1442747,0.0097084l0.2787108,0.2274971l0.1026459,0.0480423l0.1505241-0.0095482l0.1154966-0.0480385  l0.1217136-0.1987228l0.076848-0.4134026v-0.1506844l-0.02881-0.1441154l-0.1057544-0.3525467l0.0577164-0.105793  l0.0993772-0.0577431l0.1505237,0.0192604l0.0801172,0.0769768l0.2148414,0.5736389l0.1441145,0.1890373l0.2147136,0.0960808  H5.996469l0.3877659-0.1056252l0.3013682-0.1891708l0.1441145-0.1923141l0.0352197-0.1056252l-0.0064096-0.3045158  l-0.1633744-0.6088524l-0.2660208-0.6986809l-0.0577159-0.4293633l-0.0062814-0.2852821l0.0352197-0.1250153l0.2947984-0.3716469  l0.5287399-0.4390793l0.2243919-0.2596054l0.1923127-0.2755356l0.0575881-0.2883911l0.0289383-0.4390717l0.0416288-0.2852821  l0.0095496-0.304348l-0.0159593-0.1635094l-0.0416288-0.1153297l-0.1314235-0.1699448l-0.1923132-0.1345634l-0.5960383-0.2275314  l-0.2146816-0.1345711l-0.1571255-0.1634979l-0.115304-0.189045l-0.04493-0.1345711l-0.0415964-0.2660141l0.0223684-0.1345711  l0.0705671-0.2596016l0.1954536-0.4486313l0.2659883-0.3813171l0.2788711-0.5256062l0.1633425-0.4838371l0.4455147-0.8717422  l0.0415969-0.1314507l0.0672979-0.21138l0.0577483-0.1057873l0.0704069-0.2564697l0.0513391-0.1248875l0.1281548-0.208271  l0.0353479-0.1154652l0.2786789-0.5254707l0.1442747-0.1827641l0.0513391-0.112196l0.192152-0.2947979l0.5384512-0.737011  l-0.0577488-0.2564716l1.0287018-0.1153355l0.7884798-0.1923141l0.2883892-0.0383282l0.1633749,0.0095444l0.2018623,0.1345711  l0.2724295,0.3620968l0.0929365,0.0672989l0.250061,0.086525l0.1217451-0.0383282l0.1505241-0.1730843l0.0513067-0.4102955  l-0.0577164-0.2467594l-0.208272-0.429369l0.0064096-0.1633682l0.1730528-0.150692l0.1378651-0.0320721l0.1281557,0.0384827  l0.0993767,0.067297l0.131424,0.1923199l0.0865259,0.3140583l0.1281557,0.1923141l0.0865583,0.086525l0.2659883,0.0639973  l0.1505556-0.0095501l0.2146816-0.1026459l0.3301783-0.3172054l0.2498693-0.4102554l0.1153364-0.0383606l0.1378651,0.0383606  l0.0993452,0.0577164l0.0801163,0.0865517l0.0416288,0.2659874l-0.1505232,0.3461437l-0.0577488,0.2660217l0.0159597,0.1441135  l0.1057863,0.1987171l0.1153364,0.0577545l0.4167042,0.086525l0.3781843,0.1217461l0.4966621,0.3268776l0.3749466,0.28512  l0.112196,0.0481987h0.1666431l0.1345654-0.0289707l0.1088943-0.0575867l0.1730843-0.1506844l0.2210922-0.2595787  l0.2885494-0.5254726l0.0352192-0.1219063l-0.0064106-0.3076172l0.019228-0.1312943l0.0865269-0.0769844h0.1377048  l0.0770092,0.0865269l0.0672665,0.0929356l0.0577488,0.2499084l0.0480366,0.1154957l0.0801182,0.0832253l0.2499008,0.0865517  l0.5448589,0.1250229l0.1666431,0.1602325l0.330019,0.4678841l0.0993443,0.0672588h0.1507168l0.0511456-0.1057796  l0.0128517-0.3140335l-0.0704384-0.2403507l-0.0289383-0.2852745l0.0353794-0.1056252l0.0736752-0.0929356l0.1345959-0.0320797  l0.1666431,0.0095501l0.1987228,0.1345654l0.1602345,0.1635342l0.4069939,0.2467613l0.1377048,0.0384865l0.2852497-0.0097084  l0.0865574-0.0768166l0.0351887-0.1250534l0.0225277-0.1890049l-0.0577164-0.2500629l-0.1281548-0.1987209l-0.2372417-0.2563171  l-0.1281567-0.1923065l-0.0448971-0.1153431l-0.0128498-0.144268l0.0192604-0.1312637l0.0320778-0.0608883l0.0256691-0.0546074  l0.1890125-0.1345654l0.2852802-0.0384884l0.2659893,0.0769711l0.1569653,0.1633797l0.1154633,0.1699448l0.0704403,0.2434597  l0.0032673,0.1219063L22.3243771,25.65555l-0.0865269,0.0769691l-0.0577488,0.105793v0.1248875l0.0770092,0.0833778  l0.1538239-0.0095425l0.2082729-0.1218739l0.2724285-0.2114124l0.2082729-0.1250153l0.3301468-0.3140583l0.1985931-0.1153374  l0.2883892-0.0384884l0.1154652,0.0480328l0.3076496,0.217989l0.0064087,0.0064087l0.3236084,0.304348l0.1923122,0.1345654  l0.1954212,0.2852745l0.3012409,0.791626l0.157093,0.6216755l0.0929356,0.2306404l0.1314564,0.1892052l0.0416279,0.1152973  l0.0639973,0.0960827l0.1602345,0.1666756l0.1763535,0.1378269l0.3813248,0.1250534l0.1730843,0.0095425l0.1281567-0.0288029  l0.6249752-0.0289383l0.1345654-0.0288105l0.4101353-0.2306404l0.086525-0.0737076l0.2210922-0.1057549l0.1378651-0.0289707  l0.3140583,0.0289707l0.2660198,0.0672665l0.2306404,0.1024857l0.2660217,0.0770092l0.5800457,0.0960693l0.5256329,0.1442814  l0.2146816,0.1217461l0.3396969,0.4807014l0.2980976,0.2179508l0.3428383,0.1056252l0.3045082,0.0962372l0.2275314,0.092968  l0.4453239,0.2306404l0.682724,0.458334l0.1505241,0.0287781l0.134594-0.0287781l0.2243919-0.2596188l0.2082748-0.1217384  l0.2500267-0.0672665l0.3236122,0.0095177l0.1153336,0.0577488l0.1442757,0.1697826l0.0832253,0.2308025L35.4411926,31.5105  l0.0639992,0.0962353l0.208271,0.1248875l0.301239,0.0384884l0.2659912,0.0769749l0.2275314,0.1024857l0.8204308,0.3428707  l0.3589554,0.144268l0.5448608,0.1345711l0.4871101,0.0289383l0.4517632-0.0289383l0.3877335-0.096077l0.4102974-0.2275314  l0.2596092-0.0769768l0.2722702-0.20187l0.5672264-0.7531261l0.3365898-0.3140583l0.1633415-0.3268776l0.1314583-0.3525467  l0.1153336-0.2178211l0.2436218-0.2372112l0.1057854,0.016119l0.2434921,0.1921539l0.2179489,0.1219063l0.1410065,0.019228  l0.1217461-0.0384884l0.208271-0.1217461l0.1378365-0.019228l0.2275314,0.0865269l0.2883873,0.2178211l0.2436523,0.2403507  l0.086525,0.2275009l0.0064125,0.144268l-0.0192604,0.1217518l-0.0865288,0.0865269l-0.0577469,0.1153355l-0.0223694,0.1347256  l0.179493,0.1505241l0.8107224,0.1923065l0.461441,0.0480442l0.8589172,0.189043l0.4966621,0.1827641l0.4647408,0.3525467  l0.1345673,0.0575867l0.2980995,0.0192299l0.1345634-0.0192299l0.2210922-0.0865555l0.5672569-0.4198151l0.2242317-0.0960827  l0.2724304-0.0544415l0.3140259,0.0287781l0.2532043-0.067297l0.086525-0.0672741l0.140976-0.1923065l0.1892014-0.304348  l0.0865288-0.0770073l0.2049713-0.1153049h0.6185684l0.8748779-0.0865269l0.6121559-0.1987534l0.1281548-0.0095177  l0.1378326,0.0575562l0.3844643,0.2660198l0.8684692,0.3076496l0.1794968,0.1314163l0.2819443,0.3813572l0.092968,0.0480442  l0.1730537,0.0289383l0.4134369-0.0674267l0.3461075-0.1410046l0.6376648-0.124855l0.769249-0.3045139l0.0480385-0.0192547  l0.1377068,0.0384827l0.4005852,0.2563152l0.1378326-0.0287838l0.0705986-0.0865269l0.0447388-0.1217384l0.0064087-0.1635361  l0.0353775-0.1248531l0.0737076-0.1057873l0.0832291-0.0544472l0.1378632-0.0384884l0.3012085-0.0192661l0.788353-0.0095444  l0.4550323,0.0480385l0.1410027,0.0383606l0.4518967-0.0191002l0.1378632,0.0191002l0.7978668,0.3045025l-0.0095177,0.3140335  l0.0287819,0.1250458l0.0641556,0.096077l0.1312943,0.0384808l0.3140259-0.0095425l0.3589897-0.1250153l0.5256004-0.1250458  l1.3203583,0.0577469l0.2786827,0.0575886l0.1154938,0.0577412l0.0768127,0.0769844l0.2018661,0.2755699l0.1794968,0.1538239  l0.1090546,0.0577164l0.3140564,0.0288086l0.1377029,0.0351906l0.0929413,0.0672951l0.1442719,0.182766l0.0575867,0.4005852  l0.0417862,0.1056252l0.0801239,0.086525l0.1024857,0.0641518l0.1826019,0.0480461l0.0577469,0.0513382l0.1633759,0.0095482  l0.2756958-0.051178l0.3076477-0.1699448l0.2947998-0.1923103l0.1570969-0.1730537l0.3749466-0.2755699l0.6504517-0.3140602  l0.2948303-0.1923122l0.2372131-0.0768166l0.4229507-0.0577469l0.1153336-0.0351887l0.0801239-0.0962353l0.0192261-0.1345978  l-0.0287781-0.1345634l0.0159607-0.1505241l0.0353775-0.1250153l0.0801163-0.0962353l0.1858749-0.1345978l0.1217422-0.0351925  l0.4358063-0.0384827l0.1378632-0.0288162l0.0993423-0.0577412l0.1793365-0.1441154l0.1090546-0.2179565l0.1633759-0.1633682  l0.1378632-0.0192604l0.4293671,0.0865593l0.3173218,0.0287704l1.5414886-0.2467594l0.2722702,0.0287838l0.1154938,0.0546074  l0.4165497,0.1056271l0.6249695-0.1730518l0.3299866-0.1505241l0.2883911-0.0385208l0.2788696,0.0672989l0.602417,0.2372093  l0.4647446,0.0575886l0.6088562-0.0319195l0.1538239,0.1857433l0.1281509,0.0384884l0.2885513-0.0287781l0.1153412,0.019228  l0.1121902,0.0544796l0.150528,0.019228l0.1250153-0.0384941l0.1410065,0.0192661l0.1442719,0.1826038l0.2242279,0.1154633  l0.1794662,0.1505508l0.1281509,0.3364334l0.0641632,0.2372036l0.0641556,0.0960827l0.0801163,0.0865269l0.2434921,0.0962353  l0.4293594,0.0159607l0.2020264-0.2467613l0.1345673-0.0287781l0.1153336,0.0577164l0.1794968,0.2563038l0.115303,0.0577545  l0.2660217,0.0191002l0.2852478-0.0383282l0.3620987,0.1537914l0.2339401-0.0480347l0.1666412-0.1730537l0.1153336-0.0353813  l0.1506882-0.0095177l0.1057892-0.0577469l0.0351868-0.0865269l0.1217422-0.0383606l0.1153336,0.0480385l0.4103012-0.0672665  l0.243454,0.0960693l0.0737076,0.0769844l0.1219101,0.1985607l-0.0097122,0.1250401l-0.2563095,0.3910408l-0.044899,0.124855  l-0.0064392,0.1602364l0.0993805,0.5063705l0.0223618,0.3653984l0.0801163,0.3813171l0.0865326,0.2275314l0.301239,0.192318  l0.1283112,0.0384903l0.3364334,0.0192261l0.131424,0.0352211l0.1923065,0.1441154l0.0704422,0.0769691l0.1088943,0.2115784  l0.0225296,0.1312981l-0.0161209,0.4582939l0.0482025,0.0608902h-0.0064163l-0.0672913-0.0095444l-0.3173294-0.3974533  l-0.2210922-0.1314468l-0.1923141-0.3813248l-0.1505585,0.0929337l-0.3750687,0.0097122l-0.2113876,0.3844643l-0.3749466,0.0737076  l-0.1347198,0.0993462l-0.0064087,0.2660141h0.0032959l0.0736771,0.0320854l0.1153336-0.0769768l0.0225296,0.2308006  l0.2018661-0.1314583l0.0064087,0.1410065l-0.2467575,0.3109207l-0.1378708,0.2883797l-0.4742889,1.6632042l-0.169754,0.9262161  l0.0064087,0.1409683l0.0351944,0.8268471l-0.0513153,0.1954193l0.1859055,0.3397217l0.1186066,0.807579l0.1923141,0.3941765  l-0.0705643,0.1474152l0.2179489,0.4134026l-0.1250153,0.0705757l0.2434921,0.2530403l-0.0223999-0.1633797l0.1281509-0.249897  l0.0865555,0.0319214l0.0192337,0.0546074l-0.0768204,0.2658577l0.0704117,0.2372437l0.0737076,0.0192299v-0.0032692  l0.0289383-0.3204689l0.2018585,0.371769l0.0672989,0.3654022l-0.3620987,2.5028572l0.0480423,0.6857033l0.0192261,0.2756996  l0.2434921,1.2241173l0.5384521,1.4005165l0.2146835,0.4134026l0.1153336,0.5767708l0.044899,0.3621025l-0.0384903,0.6537552  l-0.2146759,0.1602364l0.0480347,0.0480385l0.131424-0.0351944l0.0993729,0.0801163l0.5544128,1.2978363l0.115303,0.3653679  l0.1859055,1.23069l0.0095444,0.1697807l0.0833893,0.1761971l0.5767746,1.2466812l0.5800858,0.6473427l0.3301773,0.4999313  l0.5863266,0.6697502l-0.051178,0.0705681l0.2915268,0.179493l0.1699142,0.1761894l0.6121597,0.6569023l0.1826019,0.2531662  l1.6344147,1.6441307l0.1602402,0.0960693l0.1794891,0.0256767l0.4260941,0.086525l0.0289383,0.1987228l0.2627182,0.4069939  l0.0770111,0.1184464l0.5285797,0.5608177l0.1827621,0.2885513l0.1377029,0.0639954l0.39431,0.3620987l0.4359589,0.445507  l0.4068375,0.4102707l0.2628784,0.2691574l0.8105621,0.400589l0.3495941,0.1505203l0.4838104,0.0672989H95.5l-0.1154938,0.4262238  l-0.1151505,0.230835l-0.166832,0.4966583l-0.0478745,0.2757034l-0.0225296,0.2979355l0.0225296,0.1314545l0.0641556,0.2403488  l0.0638351,0.0929413l0.0353851,0.1153259l-0.0641632,0.2691345l-0.1952896,0.4295273l-0.1283188,0.2178192L94.6509552,68.19767  l-0.6444016,0.2852478l-0.0863647,0.0962372l-0.1154938,0.1890488l-0.0929413,0.2499008l-0.1151733,0.2019882l-0.2212448,0.1025162  l-0.5895996-0.0737076l-0.5736771,0.0544434l-0.1283112-0.0480347l-0.096077-0.0641556l-0.0544434-0.096077l-0.0738754-0.2403488  l-0.0287781-0.2660294l-0.0863647-0.2274933l-0.0194168-0.1153336l-0.115181-0.2115784l-0.2148361-0.2852478l-0.1602325-0.3076477  l-0.0768204-0.0832214l-0.1089249-0.0482025h-0.1506805l-0.1153107,0.2179794l-0.1057816,0.3846283l-0.1153412,0.2082748  l-0.086525,0.0768127l-0.1154938,0.0384903L90.2315063,68.19767l-0.0801163-0.0768127l-0.0577164-0.1057892l-0.019104-0.1217422  l0.019104-0.1442795l0.086525-0.2499008l0.0064087-0.1506805l-0.0992126-0.2018661l-0.2788391-0.2179794l-0.9870758-0.4293671  l0.0192566-0.0352173l0.0384903-0.0962372l-0.0192261-0.0639954l0.2242279-0.5512695l0.0256424-0.0639954l0.0097046-0.1475449  l0.009552-0.0672989l-0.2018585-0.3043442l-0.0416336-0.1090622l-0.0064087-0.11203l0.0255127-0.1538239l0.0737076-0.2051697  l0.0801163-0.131424l0.2212524-0.3780518l0.0544434-0.0577545l-0.1090546-0.1088905l-0.0352173-0.0320778l-0.1250153,0.0384865  l-0.1890106,0.0639992l-0.1186371,0.0801163l-0.1473846,0.0769806l-0.2691574,0.1057816l-0.1635056,0.1153412l-0.1857452,0.1057816  l-0.0641556,0.0672684l-0.2339401,0.2883835l-0.2724304,0.2082748l-0.2051315,0.0993729l-0.0288162,0.0159683l-0.3140182,0.0610123  l-0.0608902,0.0126953l-0.0929337,0.0801163l-0.0737076,0.0641479l-0.1538315,0.0769806l-0.096077,0.1666489l0.1538239,0.4678802  l0.0031433,0.1345673v0.0575867l-0.1121979,0.3237305l0.0769806,0.2948303l0.0672989,0.1314316l0.0672684,0.032074  l0.0929642,0.0383301l-0.0962372,0.3045044c0.089798,0.1633835,0.2019882,0.3172073,0.2821045,0.4871521  c0.1248856,0.1730499-0.0289383,0.1666412-0.1699066,0.1537857c-0.1761932-0.0064087-0.3300171-0.1409683-0.5031052-0.147377  c-0.1217117,0.1121902-0.1761932,0.0223694-0.2146835-0.1122055c-0.032074-0.3045044-0.3012085-0.0801163-0.4806976-0.0513306  c-0.2115402,0.1154938-0.4038544,0.2757263-0.6024475,0.4102936c-0.2115402,0.1217422-0.1635056,0.4390717-0.1539536,0.6473465  c0.032074,0.1923141-0.0992203,0.3716431-0.1410065,0.5575485c-0.0768204,0.1699142-0.0801163,0.3877335-0.2403488,0.50634  c-0.1985626,0.1666718-0.3972855,0.3397217-0.4453278,0.6088562c-0.1923141,0.1507187-0.5032272,0.1794968-0.7435837,0.2693253  c-0.1217422,0.1409683,0.003273,0.3332825,0.0384903,0.4871063c0.0416336,0.1730576-0.041626,0.3459778-0.0832596,0.5159225  l-0.1219025-0.0256729l-0.1505203,0.009552l-0.09935,0.0577164l-0.2179794,0.2755737l-0.1121979,0.0384903l-0.1505203,0.0097046  l-0.5480042-0.1314621l-0.1506805,0.0064468l-0.1121979,0.0384903l-0.1793365,0.1538239l-0.3237305,0.4774017l-0.0865631,0.0769806  l-0.1281509,0.028801l-0.2819519-0.0672989l-0.5096741-0.4678421l-0.0929337-0.0672989l-0.2563095-0.1153412l-0.4262543-0.0577164  l-0.2627182,0.0480347l-0.2018661,0.1153107l-0.1250153,0.0320816L78.5184631,72.23246l-0.0929337,0.051178l-0.387764,0.086525  l-0.2724304-0.0383224l-0.7243195-0.2885513l-0.5799179-0.0960846l-0.7692566-0.083252l-0.2722702-0.0769806l-0.2212524-0.1057816  l-0.3813553-0.2755356l-0.3813248-0.4198532l-0.4229507-0.3846207l-0.5384521-0.2850876l-0.5159149-0.1507187l-1.2915573-0.086525  l-0.2787094-0.0480423l-0.1090546-0.0480347l-0.2883911-0.2210922l-0.2146759-0.2467575l-0.1923141-0.2948303l-0.2532043-0.2403488  l-0.105751-0.0674286l-0.3588333-0.1248856l-0.1090546-0.0736771l-0.4517593-0.1923141l-0.2019958-0.1250458l-0.3652344-0.2852478  l-0.2403488-0.2722702l-0.044899-0.0705719l0.0128174-0.3140564l0.0449295-0.1250458l0.0064087-0.4581375l0.0287781-0.1538239  l-0.0223694-0.2852859l-0.0705643-0.086525l-0.1153412-0.0480347l-0.1506805-0.0289383l-0.1441116,0.0097122l-0.1283188-0.0385208  l-0.0639954-0.096077l-0.0097122-0.1602325l0.0513382-0.2595825l0.1217499-0.3718033l-0.0288086-0.1345749l-0.3237381-0.3140564  l-0.4581757-0.3525391l-0.2372437-0.2499008l-0.0223694-0.1218796l0.0672989-0.2691574l0.0064087-0.1602325l-0.044899-0.4101372  l0.0289383-0.1345634l0.086525-0.0769844l0.6119995-0.0192528l0.1859055-0.1441154l0.1057587-0.1987228l0.301239-0.3620949  l0.0287781-0.1538239L68.292305,62.134449l0.0448914-0.1217499l0.2434921-0.2596054l0.3941803-0.5736389l0.1090546-0.3716469  l0.0064087-0.1602325l-0.0289383-0.1250153l0.0128174-0.1635361l0.2467575-0.2370491l0.2082748-0.2596169l0.0417862-0.1217079  l0.0064087-0.1538239l-0.1154633-0.1923141l-0.1121902-0.0544472l-0.1313019-0.0385246l-0.3684998,0.0449333l-0.4616089,0.0865288  l-0.4614716-0.0481987l-0.2210922,0.1057854l-0.2596054,0.2210922l-0.2082748,0.1314507l-0.3525467,0.086525l-0.2434616-0.086525  l-0.0929642-0.0641518l-0.1570969-0.172924l-0.2210922-0.1057549l-0.1441116-0.0192604l-0.5032654,0.1345596l-0.115303-0.0577431  l-0.0768509-0.0960846l0.0768509-0.2467575l0.5094833-0.4678459l0.0929642-0.2115746l0.0064087-0.1602325l-0.0192566-0.1250153  l-0.1569366-0.1633797l-0.2307968-0.1121902l-0.3877716-0.1153412H65.055542l-0.1121979,0.0385246l-0.1954498,0.1312637  l-0.0929337,0.230793l-0.0993805,0.0577545l-1.0094414-0.0097084l-0.4134026-0.0287781l-0.1281548-0.0384941l-0.092968-0.0672989  l-0.1794624-0.2947922l-0.0352173-0.2692909l-0.044899-0.1120338l-0.0768509-0.0962372l-0.25317-0.20187l-0.3718071-0.1410027  l-0.2498665-0.2403526l-0.0289726-0.1250076l0.0192604-0.3140602l-0.1441116-0.1794624l-0.3140602-0.1923103l-0.4519234-0.2114143  L60.665226,55.757164l-0.1635323-0.0095444l-0.208271,0.1345634l-0.1217461,0.1826057l-0.2082748,0.4486198l-0.1378326,0.1794968  l-0.1089249,0.0577469l-0.2788391-0.0097084l-0.1057854-0.0544472l-0.2660217-0.0801201l-0.2947998,0.0225296l-0.0577469,0.1217461  l-0.0064125,0.1633415l-0.2722664,0.3718033l-0.1506844,0.1730537l-0.2660217,0.2179871l-0.3076172,0.3331566l-0.2948303,0.1923141  l-0.25317,0.0672646l-0.1506844,0.0097122l-0.163372-0.0289383l-1.1922073,0.0769691l-0.2306404,0.0769844l-0.0834198,0.0737076  l-0.0737076,0.1056252l-0.0415955,0.1154976l0.0128212,0.1441116l0.1024818,0.2082748l0.1571274,0.1634979l0.2210922,0.1024895  l0.7338715,0.2693214l0.3364258,0.1921539l0.0993767,0.1891708l-0.0352173,0.1248856l-0.0705681,0.0962372l-0.1024857,0.0577164  l-0.5287399,0.1025162l-0.4550323,0.0095177l-1.2338333-0.2850876l-0.4583359-0.0481987l-0.4742928,0.1635361l-0.2370491,0.1217155  l-0.1121941,0.0192528l-0.4390717,0.20187l-0.2532043,0.0672646l-0.2788391,0.0385132l-0.4645844,0.0096855l-0.499958,0.0737076  l-0.3396988,0.0095444l-0.1314545-0.0384827l-0.3204689-0.179493l-0.1730537-0.1345673l-0.0639954-0.1057854l-0.0288124-0.1217461  l0.0062828-0.1537971l0.0417557-0.125042l0.0575905-0.1120338l0.2885475-0.2212524l0.1441154-0.172924l-0.0159607-0.131424  l-0.1730537-0.1538239l-0.1281548-0.0384941l-0.5512657-0.0288048l0.0351868,0.2691536l-0.0223694,0.1409798l-0.0577507,0.1057816  l-0.1345634,0.1826096l-0.1859016,0.1314507l-0.0737076,0.0960808l-0.2210922,0.4295235l-0.1377068,0.1826019l-0.086525,0.0770073  l-0.2852478,0.3620987l-0.3237686,0.3140221l-0.0929375,0.2403488l-0.0704346,0.0832634l-0.8781509-0.4389114l-0.1985588-0.2757301  l-0.1026459-0.0865288l-0.208271-0.1056252l-0.2948303-0.035347l-0.2051353-0.1248856l-0.0801163-0.0769844l-0.2434921-0.4101295  l-0.0929337-0.0672989l-0.1314583-0.0384865l-0.3428345-0.0097084l-0.2660217-0.0575562l-0.115303-0.0672989l-0.4935532-0.3045158  l-0.461441-0.3525391l-0.6730156-0.756279l-0.0993767-0.0641518l-0.2755394-0.0575562l-1.0607796,0.0480385l-0.86203,0.0929337  l-0.1121941,0.0384903l-0.1026459,0.0672989l-0.1217461,0.0383263l-0.1730843,0.1538239l-0.1794624,0.4583282l-0.2146835,0.2755432  l-0.0960732,0.0865288l-0.2755699,0.1827927l-0.1314583,0.0287743l-0.1635017-0.0095444l-0.2658615-0.0674286l-0.3013687-0.1921501  l-0.4101334-0.4102974l-0.5800781-0.3813553l-0.1569328-0.1826019l-0.4519234-0.6280861l-0.0929375-0.0865593l-0.2883911-0.1827621  l-0.1571236-0.1602325l-0.1088943-0.2113838l-0.0577507-0.2467918l0.0161209-0.6313858l-0.0289383-0.115303l-0.1441154-0.0993843  l-0.3076477-0.1185989l-0.9614029-0.0095482l-0.1442757-0.019268l-0.2434616-0.1057549l-0.2596092-0.2115669l-0.157093-0.1985626  l-0.5382919-0.8493652l-0.1571236-0.1633835l-0.2179489-0.1217384l-0.5799217,0.0544777l-0.3301773-0.0097084l-0.2595787-0.0832634  l-0.3076477-0.1730537l-0.2947998-0.0095444l-0.1859035,0.1538277l-0.3716469,0.2370491l-0.2372093,0.086525l-0.1890125-0.0159569  l-0.2211227-0.0801201l-0.0929356-0.0672646l-0.2436523-0.2564697l-0.1666431-0.2948036l-0.140974-0.1730804l-0.067297-0.115303  l-0.0929356-0.5063782l-0.1442757-0.1794891l-0.2434921-0.086525l-0.6088581-0.0672989l-0.336586-0.1537971l-0.1024857-0.0672989  l-0.3140583-0.3140602l-0.3525486-0.2755318l-0.1569328-0.0577545l-0.8396893,0.105793l-0.2436199-0.105793l-0.1954536-0.1345596  l-0.237051-0.2275314l-0.2211227-0.2596169l-0.1090546-0.2082672l-0.140974-0.1827621l-0.1794949-0.1602325l-0.1730518-0.1345673  l-0.8043098-0.4486275l-0.2146816-0.1633682l-0.1666431-0.1602364l-0.0353794-0.2692871l0.0513382-0.1250153l0.365366-0.1761971  l0.0575886-0.032074l0.0705662-0.1057854l0.0384884-0.1153374l-0.0097103-0.1409798l-0.0480385-0.1057816l-0.1088943-0.1186066  l-0.2564697-0.1666412l-0.3459778-0.1538239l-0.8108807-0.4966698l-0.4583015-0.1987152l-0.6536255-0.20187l-0.8396587-0.1633682  H20.66432l-0.2499008,0.0865288l-0.2211227,0.0960693l-0.1891727,0.1345978l-0.3076496,0.3332863l-0.1345634,0.1826057  l-0.1217461,0.2179794l-0.3525467,0.4486275l-0.4807014,0.4871101l-0.416544,0.554409l-0.1090565,0.2179832l-0.0768166,0.4005852  l-0.067297,0.096077l-0.2051315,0.1154633l-0.3813572,0.105629l-0.2243919,0.1121941l-0.557518,0.0770073l-0.2082729,0.124855  l-0.1219063,0.1987228v0.1538239l0.0898285,0.1858978l-0.2564716-0.1858978l-0.1633739-0.1602325l-0.0577478-0.096077  l-0.0801172-0.2596169l0.016119-0.2947922l-0.0641575-0.2564697l-0.1088953-0.2018623l-0.1730518-0.153801l-0.1987543-0.1314507  l-0.3589563-0.1441116l-0.8908367-0.5641212l-0.1153049-0.0383263l-0.1506844,0.0095444l-0.3364267,0.1538239l-0.1442747,0.0095558  l-0.2788715-0.0575905l-0.2370501-0.1602325l-0.2243919,0.1024857l-0.4454823,0.0289383l-0.1505556-0.0192299l-0.3589563-0.1347237  l-0.1217461,0.4198151l-0.2275,0.0770073l-0.3941755,0.2595787l-0.1153364,0.0384865l-0.1506844-0.0192261l-0.1088943-0.0481987  l-0.2084332-0.0159645l-0.2275314,0.054451L9.8517952,49.793293l-0.0865269-0.0769768L9.7203712,49.600975l0.0223684-0.1538239  l0.0929356-0.3910294l0.1314564-0.3908768l0.0769758-0.3620949l0.0352192-0.2756996l0.1666441-0.4871445l0.0865259-0.0768166  l0.4005852-0.0769768l0.1153364-0.0672951l0.157093-0.1538277l0.1217461-0.198719l0.096076-0.3908768l0.0641584-0.4198494  l0.0287771-0.4678459l-0.0672655-0.554409l-0.0608892-0.3301811l-0.0897951-0.1474152l-0.1761932-0.1633415L10.563138,44.371006  l-0.6183758-0.0577545l-0.3076487-0.1825943l-0.0641584-0.0929375l-0.2179823-0.5736694l-0.1697836-0.1538239l-0.1730528,0.0095482  l-0.1024857,0.0672989l-0.2564707,0.371769l-0.1569653,0.1633797l-0.131424,0.0289383l-0.4647422,0.0192604l-0.1505237-0.0192604  l-0.2308335-0.0962334l-0.416544-0.4101028l-0.2788391-0.2115746l-0.4229536-0.2467613l-0.3461375-0.1153412L5.903533,42.8519173  l-0.1153364,0.0384941l-0.2724295,0.2274971l-0.0993452,0.0480423L5.2658982,43.175663l-0.1153364-0.044899l-0.1794944-0.1442757  l-0.1570935-0.3268776l-0.0801167-0.0737076l-0.1153364-0.0480423L4.455018,42.5283165L4.1891575,42.5859032z"></path></svg>