<svg height='100px' width='100px'  fill="#000000" xmlns="http://www.w3.org/2000/svg" xmlns:xlink="http://www.w3.org/1999/xlink" version="1.0" x="0px" y="0px" viewBox="0 0 100 100" enable-background="new 0 0 100 100" xml:space="preserve"><polygon points="28.1727943,81.189209 27.8621922,81.3117523 27.4773521,81.3117523 27.1419773,81.2135773 26.9136238,80.9436874   26.7827282,80.7477112 26.6517563,80.093399 26.3986244,79.5292587 24.7139797,78.2865219 24.3626614,78.1396027   24.0105247,78.2130814 23.6999226,78.3112946 23.0053043,78.8753281 22.6619911,78.9244843 22.2779694,78.8753281   21.1985054,78.2865219 20.2255726,77.9024963 19.7349434,77.5591965 19.5305462,77.3384399 19.277092,76.0465698   19.0563431,75.490448 18.3940067,74.4848099 17.9936333,73.3238907 17.682621,72.8580475 17.1839733,72.4656067   17.077774,72.1709442 17.4458466,71.2719269 17.4211617,70.9118576 17.2985992,70.2986679 16.930521,69.8818359   16.6362762,69.7429504 15.4262419,69.5956192 15.0992813,69.4483719 14.1264315,68.3038254 13.7255669,67.9113846   13.1371469,67.6007614 11.9842625,67.4043961 11.8205814,67.2083206 11.6736603,66.9141693 11.7143822,65.0418015   11.6736603,64.3060532 11.3299456,62.3108063 11.1666727,61.7059364 10.7414503,60.871994 10.3733644,60.4141426   10.1526155,59.8500061 10.1035604,59.5147324 10.1689672,59.1549911 10.2999516,59.0487671 10.5941963,58.5090942   10.9786272,58.0021057 11.2727957,57.4627419 11.6408749,56.5632935 12.0249786,56.0974503 12.5156212,55.7620544   14.1671534,55.3449402 14.7148504,55.0506897 15.1727896,54.6910133 15.3528166,54.4459152 15.6469917,53.9061241   15.8350372,53.2274628 15.8841686,52.4262238 15.810667,50.9875107 15.483304,50.112442 15.1727896,49.6218071   14.9683914,49.4013863 13.668499,48.5754356 13.234931,48.1829948 12.86726,47.7250786 12.7934322,45.5585289   12.7363701,45.2152405 12.4828291,45.0436287 10.9051256,45.1170311 10.708746,44.8962784 10.5777626,44.2667351   10.4716454,43.9725037 10.2999516,43.7517548 9.915514,43.6535416 8.3948784,43.7269821 7.7573214,43.4411507 6.3836937,42.3209724   5.1408691,41.004734 4.6993704,40.2195206 4.6666665,39.4921112 4.7404952,39.1488037 5.0674496,38.6418152 5.9257555,38.2493706   6.1628566,38.0529861 6.4982324,37.1048279 6.7844706,36.614193 7.0052199,36.4261475 7.5529237,36.1315689 9.1306276,35.592205   11.1095228,34.6436348 11.3462973,34.4963875 11.9842625,33.8671684 12.3359089,33.3518448 13.2677164,32.6244316   14.0034657,30.8419037 14.9192486,29.6319714 15.3443956,28.7488728 15.8841686,26.8274727 16.4155273,25.633791   16.8163033,24.8082695 17.208746,24.2928619 17.682621,23.9251919 19.5141945,23.270874 20.5361805,23.0501251   22.7841396,22.8297024 24.8041592,22.903204 25.5315704,23.0747967 26.0633297,23.3938389 26.7986717,23.5654507   26.9950562,23.3199291 26.9950562,22.2001572 26.9216366,21.881216 26.5614891,21.4232635 25.9730682,21.1291142   25.5890465,21.079977 25.0413418,20.81007 24.8369446,20.5402031 24.7307396,20.2539654 24.7873993,19.9106598   25.0572853,19.3302326 26.4146557,18.1609344 26.9048767,17.8176289 27.4613285,17.5477409 28.4426003,17.278265   32.4730759,16.7712765 32.7836838,16.6239471 32.9880829,16.4031982 32.9721298,16.0355263 32.7996216,15.773653   32.309391,15.4302645 32.2934494,15.0625944 32.8570976,13.9424143 32.9305992,13.5743351 32.8570976,13.2637129   32.2686768,12.2661085 32.251915,11.8493834 32.3828926,10.7782383 32.342186,9.6089411 32.1297684,8.2684193 32.0890541,7.5897379   31.8519516,7.0499649 32.4483032,6.5266252 33.1924782,6.5266252 34.974575,6.9354205 35.9151306,7.9166722 37.1742172,8.1618061   37.5255356,8.4316921 37.5830116,9.5355015 37.7466965,10.1407013 38.9403763,10.4021473 40.8286018,10.1159286   41.9895782,9.9199524 44.0910301,10.0013838 44.630722,10.1813974 45.2439156,10.3857946 46.3968811,10.3938274   47.2632065,10.7291212 49.4955482,10.900815 50.468071,11.2197371 51.4325829,11.1790409 53.1659546,10.9171667   54.0250816,10.7127695 55.1444435,11.1463375 59.1102448,11.6692677 61.2108803,13.206665 63.0504608,14.0079031   64.0812759,14.7188797 64.4326019,14.702528 65.4217987,14.3100843 67.6949463,14.4246912 69.2567062,14.760004   69.7876511,14.5556068 71.0387344,13.6234522 71.0387344,13.5416317 72.6085052,13.5579834 72.6571426,13.4845638   72.9845047,12.7895107 73.6224747,12.8058624 75.0452423,13.3783588 75.5275421,13.9915514 76.222168,14.1875277   78.2174149,14.604744 79.3456039,14.3348579 79.6889114,14.4003468 81.5205612,13.7708015 81.798378,13.9994822   82.1249237,14.7927895 83.0327835,15.1768122 84.63517,14.9560623 85.6244507,15.3648577 86.1889191,16.0845833   86.8021088,16.1006069 87.471962,15.4957342 89.0010223,15.6837797 90.4812622,16.2642689 90.8325958,16.4031982   91.4784851,16.6323681 91.6501846,16.7138004 92.4429932,17.1637192 93.9144897,17.5397091 95.6399307,17.6295834   95.6566925,17.915802 96,18.7497444 95.5257187,19.0767174 95.026741,19.6000366 95.1736603,20.164175 95.2559128,20.5159206   95.4195938,20.9981174 95.2151947,21.8975677 94.2993317,23.0747967 94.3887787,24.2928619 94.3321152,24.620224   93.9065628,24.9878941 93.0322266,25.0617237 92.0430298,24.6692791 90.7423248,24.4728756 89.7291641,24.726429   87.758606,24.9962349 87.0224533,25.5519505 86.4995193,27.4817905 85.8863297,28.1927662 85.3793411,28.3400764   83.3353653,29.1413155 82.5752487,29.5664635 81.3815689,30.9154243 79.5827026,31.47155 78.0537338,31.528616   77.4326096,31.8555717 77.3750534,32.3952637 77.8414001,33.4093208 77.9148254,33.9733734 77.637001,34.4883575   76.4185486,35.1015472 76.1000137,35.7147408 75.3558426,36.458931 74.9798355,36.5978394 73.9905548,36.9655113   73.720665,37.2600899 73.7534485,37.6441917 74.5295105,38.6006889 75.0939789,40.8490639 76.1814499,42.3616867   76.2716293,42.9013596 75.5602417,44.1684799 75.6991501,44.593708 76.3610764,44.8719368 77.1538925,44.6511841   77.7759171,44.2423897 78.3068542,43.2367554 79.3129044,43.7189484 80.8825912,43.5473557 81.7001801,44.3485947   82.1576233,44.4383659 82.9513397,44.1030731 84.4148254,44.5038376 85.0280228,44.8799286 85.5669785,46.4823418   85.8208389,46.5885468 86.6959076,46.4089241 87.1286545,46.4168549 88.1099243,46.4332886 89.0257187,46.8747864   89.9902191,46.5478134 91.0210419,46.4496384 91.8705139,46.899559 92.4350662,47.6189575 92.0341949,48.5674438   91.9200592,49.9327354 91.1511154,50.9875107 90.4397354,51.5352135 89.3363113,52.7616005 86.9897461,54.126873   86.0004654,55.4024162 83.9078369,56.269062 83.2539291,57.2746964 82.8036041,57.6016312 81.6506348,57.7326279   81.1932068,58.0759354 81.2586136,58.7461967 82.1089783,59.7518311 82.0842056,60.6348915 81.7328873,61.5015373   80.0154572,63.1858749 81.4790268,64.8865433 81.4790268,64.8944778 82.346077,65.37677 82.4363403,65.3360367   83.1796112,66.2191315 83.3513031,66.4235306 83.8671265,66.5787735 84.2670898,66.2518387 85.7960663,65.7284775   87.0879364,64.6657944 88.1427231,64.7962799 89.4265747,64.7312012 89.6796188,64.7148514 90.4972076,64.6410217   90.848526,65.3116913 90.7343903,65.7531891 90.8980713,65.8266907 91.0449905,65.9001083 91.0857086,66.0474396   91.1599503,66.3416748 91.127243,66.5133057 91.0776978,66.7668228 90.7751083,68.4020004 91.0289688,68.7700958   91.1839066,68.9908447 91.0042877,69.2195892 90.9140167,69.3258133 90.7751083,69.4323425 90.5299911,69.6203918   89.7203369,70.2335815 89.1726303,70.9038239 88.86203,71.8931122 88.7638321,71.9586182 87.562233,72.6863556   87.586998,72.7677841 87.3330536,73.2177048 87.3171082,73.2747726 86.8428268,75.1307678 86.524292,75.5231476   86.5402451,77.0685577 87.1454163,78.2538147 87.3251266,79.0633774 87.3330536,79.1041107 87.3737717,79.2841263   87.2596359,79.5376816 87.7011337,80.2242889 87.8568802,80.4614563 88.6576309,81.066658 89.6309738,81.4917984   89.2133484,83.8300247 88.412529,83.6911163 87.9303055,83.3557281 87.6277161,83.4619522 86.785347,82.6607132   86.4915085,82.5872879 86.2703476,82.7018356 85.5757217,82.3581238 85.223587,82.5298157 84.5944519,81.3524857   84.5042725,81.3609085 84.4228439,81.3609085 84.3900528,81.6471405 83.9733276,81.9166183 83.7441559,82.3093948   83.8910828,82.4563141 84.4962692,82.366539 84.4882507,82.5461655 83.1229553,83.6911163 83.1142044,83.6911163   83.0167465,84.1489716 83.1229553,84.9011536 82.9592743,85.3178787 82.2886047,85.3178787 81.6266785,85.2935181   82.346077,86.2991486 82.33815,86.5035477 81.6019974,86.577034 81.6594696,86.7650146 81.6674042,86.7650146   82.6486664,86.8712158 83.0734863,87.1083984 84.586525,87.4517059 84.8395691,87.6808777 84.7909164,87.8361206   84.4307709,87.705162 83.825592,87.7135849 82.9840469,88.4656677 80.6941376,89.4712982 80.3348923,89.6429977   80.0402298,89.7902603 79.7048569,89.2912827 79.5004578,89.4956818 78.0785065,88.5882416 77.6529465,88.3759155   77.4980164,88.3674927 77.3830643,88.3594818 77.0565186,88.3347855 76.7946396,88.4413223 76.6636658,88.4900513   75.9115677,87.705162 75.6496887,87.8361206 75.5602417,87.5910263 75.5027771,87.5990219 74.8815613,87.656105   74.2516098,87.9998169 74.0392914,88.4329605 74.0639725,89.2425613 74.2516098,90.6649857 74.1781921,91.130867   74.3011551,91.3352585 74.5949173,91.5233078 74.8081436,91.466156 74.8408432,91.4334564 75.3965607,90.8529663   75.8133698,90.8366165 75.9770508,90.9919586 76.2300949,91.0573654 76.54953,90.7384186 76.7778778,90.9512405   76.8432846,90.9101181 76.9742661,90.8366165 77.1220016,90.4114685 77.3016281,90.3787613 77.3750534,90.7631912   77.4157639,90.8450317 77.4812546,90.8286819 77.5954742,90.6649857 77.6529465,90.5667267 77.9307632,90.1252289   77.9635468,90.0925217 78.1351624,89.953537 78.2086639,89.8394012 78.2828979,89.6102295 78.2006531,89.479332   78.1599426,89.4058304 78.0042648,89.4221802 77.8900528,89.4633102 78.0785065,89.2425613 78.2740707,89.2098541   78.4457626,89.2589111 78.7244034,89.2832565 79.0102386,89.3324127 79.4597397,89.5447388 79.435051,89.9292526   79.2801132,90.1252289 77.4326096,91.4418716 77.1379547,91.8178864 76.1079483,91.8258972 75.6912231,91.4090881   75.371788,91.5807877 75.3558426,91.9240723 74.6851883,92.0466461 73.6224747,91.7604065 73.4747314,91.4090881   73.434021,90.1252289 73.5322113,89.7084045 73.0827103,89.5120316 72.9437943,89.0868912 73.1481857,88.8337631   73.5322113,88.6210098 73.5897675,88.5966644 73.6057129,87.8441544 73.5569839,87.5583191 73.4915009,87.5171967   72.583725,86.8141327 72.8296585,86.601738 72.6412125,86.4952087 71.8155975,86.7323074 71.1944733,86.6752396   70.4583206,86.1354675 69.7548599,85.9721985 69.2894058,85.5634003 68.9700546,85.6532516 66.7136765,85.4488602   66.4605484,85.203331 66.1164246,85.3590012 65.4465714,85.2360382 64.9475174,85.3426514 64.3750381,85.2688217   63.5415039,84.9909058 62.9938011,83.8300247 63.0018196,83.5110703 62.6009483,83.3964615 62.2656555,83.8300247   61.8081398,83.9605942 61.3913231,83.429245 60.6392212,83.5681534 60.4914818,84.0914917 59.95261,84.0344238   59.8128853,83.7481689 59.4942703,83.7238235 59.3146439,83.9198608 58.7173958,83.641983 57.213192,83.6663437   56.8538589,84.2958908 56.2646217,84.5087128 56.0195084,85.1055527 55.7824097,85.7023087 55.381546,86.2089691   54.6701584,86.9941864 54.2534332,88.0649033 53.395134,88.0649033 53.043808,88.3183517 53.1579437,88.8581085   53.3871155,89.953537 53.7551956,90.5259933 54.1392174,90.714035 54.9727478,90.7795486 55.2921829,91.1228333   55.8479042,91.0573654 57.9325905,90.3871002 58.2351799,90.1171951 58.5377769,90.1171951 58.7421761,89.90448   58.8155861,90.1907196 58.456337,90.9020844 57.6139755,91.6051483 57.0087929,91.8670197 56.0602264,92.8315353   55.2266922,94.4587021 54.9975204,94.1317444 54.9727478,94.1233292 54.7851944,94.0251312 54.7356491,94.0414886   53.5588074,93.0849838 53.5260239,92.7336655 53.3463974,92.4147263 53.2154198,91.7523804 53.1092987,91.466156   52.7571602,91.0002975 52.5040359,90.8529663 52.3571129,90.5587997 52.2828789,89.8800964 52.3155823,89.4876556   52.1934319,88.8337631 51.858139,87.9586945 51.5723114,87.4193344 51.3679123,87.1985855 50.9095726,86.8141327   50.614994,86.691597 50.4521294,86.5442657 50.2716064,86.2500992 50.2477303,85.890358 50.5087891,85.3015289   50.4928436,84.9338531 50.3778114,84.6967545 49.6257095,83.7645187 49.388607,83.6008606 48.6204834,82.7425308   48.4408569,82.4810867 48.2196999,81.9166183 48.1462059,81.5732346 48.1462059,81.2135773 48.2771759,80.0690155   48.4735603,78.9979095 48.4160843,78.7037354 48.1462059,78.1149063 47.5984955,77.4852829 46.9773712,77.215477   46.6827164,77.3791428 46.3473358,77.4118423 46.1509514,77.6325912 45.6766663,78.7771606 45.3253479,79.3576431   45.1050072,79.5292587 44.7616997,79.6031723 44.3202019,79.5540314 43.5353165,79.1125336 43.1504745,79.0143204   41.7931137,79.2841263 41.3931465,79.2841263 41.0577736,79.1859512 40.8613853,78.9736252 40.8781471,78.5811844   41.0984879,77.9516373 41.0410118,77.6325912 40.599514,77.2401505 39.536808,76.9212265 39.1359444,76.9459991   38.3679008,77.4118423 37.9838791,77.8777237 37.6565208,78.8262787 37.2316933,79.2350693 36.8468552,79.2350693   36.5203094,79.1452332 36.3566284,78.9488525 36.2424927,78.6789627 36.1929474,78.2865219 36.2832069,77.5344162   36.2257385,77.1910934 35.5638123,76.6349869 35.040062,76.2916794 34.7462196,76.1447601 34.3374252,76.1691055   33.9773636,76.6106033 33.8136787,76.8968658 33.6092796,77.4852829 33.2579613,78.0170441 32.9473572,78.1149063   31.7369156,78.0905457 31.115799,78.3356552 30.6087227,78.6545792 29.7664413,79.4802017 29.1045265,80.4044037 "></polygon></svg>