<svg height='100px' width='100px'  fill="#000000" xmlns="http://www.w3.org/2000/svg" xmlns:xlink="http://www.w3.org/1999/xlink" version="1.0" x="0px" y="0px" viewBox="0 0 100 100" enable-background="new 0 0 100 100" xml:space="preserve"><path d="M10.2129459,21.7202129l0.1624022-0.0542469l0.2617216-0.1894703l0.9115562-0.4422188l0.6677952-0.2031498  l0.2617664-0.1894836l0.2707939-0.4016457l0.1352806-0.3384323l0.189702-0.2527409l0.2842388-0.1352901l0.6858902-0.1894703  l0.2617664-0.1579857l0.2346458-0.2300377l0.2525167-0.4287777l0.2436714-0.6768665l0.1985464-0.2526951l0.3069391-0.1489506  l0.4016485-0.0134468l0.3428545-0.0947151l0.2617226-0.1851063l0.1037846-0.1352768l0.0090256-0.189703l-0.1398849-0.6993427  l-0.6497908-1.7734718l0.0542393-0.1758041l0.1218348-0.0903454l0.5955524-0.0134411l0.2121735-0.2302694l0.3428555-0.8077259  l0.0270748-0.2029238l-0.0270748-0.1716528l-0.081089-0.1352892l-0.315958-0.1623964l-0.1804543-0.0270748l-0.1489525-0.0947609  l-0.112812-0.1174135l-0.1128101-0.7399044l-0.1398849-0.2978659l-0.194128-0.2527475l-0.4512434-0.4737091l-0.4871626-0.2392941  l-0.0588417-0.0947227l0.0498171-0.1489487l0.0991383-0.1624088l0.5369339-0.5911293l0.2437172-0.1850939l0.1579828-0.0539684  l0.2031479,0.0405149l0.2436714,0.1851063l0.1624012,0.270566l0.2299995,0.2436714l0.2031517,0.0226974l0.3023338-0.1308603  l0.3068886-0.3926334l0.1985474-0.4422188l0.2256203-0.2165966l0.2617664-0.1850939l1.4845924-0.5142369l0.3022881-0.1670051  L20.6322937,8.19631l0.5279541,0.8844376l0.2299995,0.5506067l0.0903378,0.1352825l0.2617664,0.8213987l0.2525158,0.415144  l0.2663689,0.189477l0.7354851,0.2029247l0.2346458,0.2256212l0.0586147,0.1625834l-0.0090256,0.2029238l-0.1128101,0.3475027  l-0.1309052,0.2978601l-0.1804523,0.2798223l-0.397047,0.2707911l-0.3022919,0.108202l-0.5234833,0.3745832L21.53018,13.7873068  l-0.0676441,0.1623573l0.0090256,0.1985474l0.1399288,0.2978592l0.4151001,0.306942l0.0991383,0.1218357l0.2844639,0.5909491  l0.1128101,0.0947609l0.3518829,0.1083822l0.7806034,0.3745832l0.5955963,0.541357l0.3430386,0.4016514l0.2210159,0.3474579  l0.2436714,0.2165966l0.3611298-0.067646l0.4465961-0.2256222l0.6273212-0.2571125l0.5730801-0.0947609l0.4873848-0.1489105  l0.2029228-0.0136738l0.7176132,0.2302246h0.4014721l0.3430386-0.3384323l0.0722847-0.1579857l0.2842388-0.4060688  l0.1081638-0.0903387l0.1851025,0.049592l2.0396214,1.1598301l0.0632153,0.1579819l0.0090256,0.2029228l-0.0632172,0.176075  l-0.0495949,0.4150944l0.0630398,0.1623631l0.3115368,0.3475018l0.3428574,0.3113136l0.0903358,0.1355076l0.0495529,0.15798  l0.013443,0.2029247l-0.0495453,0.1760235l-0.1624031,0.306942l-0.031723,0.1894779l0.0090256,0.2029247l0.3836021,0.7086315  l0.1535568,0.094717l0.1804504,0.0405598l0.2571678-0.1037846l0.0405197,0.3836079l0.1037865,0.1081619l0.3791771,0.0993576  l0.130909,0.0903454v0.4195213l-0.1445808,1.04702l0.0136719,0.6180687l0.573082,0.5369339l0.3248024,0.550602l0.112812,0.1218357  l0.3430367-0.0405159l0.4646912-0.1987267l0.1804504-0.0268955l0.4243507,0.049593l0.2344666,0.2165451l0.171608,0.2707977  l0.1082077,0.3203831l0.0993614,0.1218357l0.3113174,0.1533718l0.1443481-0.0180893l0.1445351-0.081089l0.3609085-0.352066  l0.5279045-0.347496l0.3611298-0.0541954l0.5369339,0.1626282l0.0901146,0.1352768l-0.2390213,0.7264175l0.0180473,0.1985474  l0.2932663,0.1760311l0.0993614,0.3249855l-0.252697,0.8031235l-0.1174583,0.1355076l0.0226974,0.2165966l0.0676422,0.1624031  l0.1714287,0.0541935l0.1489525-0.0588417l0.3926277,0.0046482l0.3247604,0.3474579l0.1851006,0.2526951l-0.0315437,0.1623974  l-0.1625824,0.0541992l-0.1218338,0.1082096l-0.081089,0.1489105l-0.0588417,0.347496l-0.220974,0.2302303l0.0270729,0.1848736  l0.1309052,0.094717l0.1848297,0.0542336l0.4649162-0.1850948l0.1985054-0.0180492l0.0857353,0.1355076l0.0090256-0.0632629  h0.2121735l0.3609085-0.0722446l0.3249817-0.117239l0.3833733-0.0405159l0.4062996,0.0270748l0.1487312,0.081089  l0.1716537,0.4964066l0.0090256,0.1760349l0.0947609,0.3609047l0.081089,0.1218758l0.1804504,0.0541992l0.1625824-0.0541992  l0.5550308-0.5911674l0.2617645-0.1760311l0.6045799-0.257164l0.2842369-0.15798l0.4331932-0.460268l0.1535568-0.3067112  l0.2617683-0.4150982l0.1308594-0.3115387l0.1533775-0.5640545l0.031723-0.2029247l-0.0092468-0.1985455l-0.3067131-0.7672043  l0.0312691-0.2029247l0.2436714-0.2031555l0.1806831-0.0361004l0.221241,0.0090256l0.1621323,0.0813198l0.3657761,0.5369339  l0.3022881,0.5550308l0.1894798,0.2526951l0.1216545,0.1218815l0.1625824,0.0539684l0.2212448,0.0136738l0.3247604-0.1084347  l0.7989273-0.5098591l0.5953255-0.0541954l0.1401558-0.0676403l0.2436714-0.2571201l0.1533775-0.2527466l0.0585747-0.1760235  l-0.0092545-0.1985092L50.59021,25.9799061l-0.4331932-0.88904l-0.0087967-0.1894836l0.081089-0.1443462l0.1625824-0.0812759  l0.8165741-0.0134411l0.3428497-0.0813198l0.1445351-0.0813084l0.3428078-0.3337841l0.1309052-0.3249855l0.0180511-0.2165966  l0.0722885-0.1714344l0.081089-0.1623955l0.1220589-0.0812759l0.3428154-0.0813084l0.6363411-0.0268936l0.3247566-0.1083946  l0.7042122-0.4150925l0.6270485-0.4964199l0.8707657-0.4287643l0.2392921-0.2029247l0.0629959-0.176075l-0.0088005-0.2029247  l-0.063446-0.1850548l-0.2525101-0.5911789l0.0224686-0.2165985l0.1489525-0.311306l0.3247604-0.3474579l0.1401558-0.1084328  l0.1445351-0.0539703l0.2480927-0.0046463l0.5909042,0.0857353l0.3838272-0.0134468l0.5548058-0.1083889l1.7781219,0.1760235  l0.2841949-0.1352768l0.1172371-0.1308594l0.0722847-0.1218815l0.3159599-0.8753662l0.1216125-0.0947628l0.1987267,0.0268955  l0.6451454,0.4964123l0.1850967,0.0813141l0.1713867,0.0270748l0.3521004-0.0812759l0.586525-0.2932568l0.4058495-0.0136719  l0.1718788-0.0539684l0.1397133-0.0813198l0.374527-0.5235271l0.2617645-0.1894779l0.2031479-0.0134468l0.3653259,0.1218357  l0.271019,0.2029247l0.1802292,0.0271187l0.1850586-0.0271187l0.2617569-0.2029247l0.1802292-0.2798214l0.081543-0.1489506  l0.0903397-0.3518333l0.2026978-0.4964142l0.275444-0.4016962l0.4243393-0.4964132l0.0405273-0.2029238l-0.0136261-0.1760368  l-0.2212524-0.6453619l-0.0180435-0.4014263l0.0405197-0.1895218l0.1582031-0.3249922l0.2300491-0.2302179l1.5387878-0.049592  l0.2031403,0.0271139l0.3516541-0.0947609l0.2124023-0.2256222l0.1533813-0.0947609l0.3652802-0.0676355l0.1626282,0.0495853  l0.3022842,0.3789606l0.6768646,0.4558916l0.3115845,0.3518791l0.2617264,0.4016457l0.1216583,0.2979174l0.1039581,0.360898  l0.0810928,0.162364l0.189476,0.2256222l0.1670532,0.1037855h0.0043716l-0.1216049,0.3701553l0.0087967,0.1985464  l0.031723,0.1894722l0.162178,0.2707958l0.4151001,0.4827404l0.3027344,0.1489506l0.433197,0.0541992l0.4375687,0.2527428  l0.2119522,0.2436714l0.0498123,0.1624012l-0.1533279,0.5369301l-0.1401596,0.2932682l-0.1216125,0.3789997l-0.1533737,0.7896767  l-0.1083908,0.3384323l-0.1172333,0.2031441L73.9014969,20.46562l-0.6226273,0.2436714l-0.2661896,0.1624031l-0.3340073,0.1355076  l-0.401474,0.0090256l-0.4062958-0.0766659l-0.1987305,0.0134411l-0.5186615,0.1174183h-0.2211914l-0.3340607-0.1037865  l-0.1308594-0.1083946l-0.5054398-0.1894703l-0.5953751,0.0541935l-0.4468155-0.0407467l-0.3833771-0.0947609l-0.4829712-0.2119484  l-0.5957718-0.1084347l-0.3023376,0.1355095l-0.1035156,0.1037846l-0.0815353,0.1758499l-0.0405655,0.1760235l-0.0088043,0.4151058  l0.0722885,0.3655472v0.2121792l-0.0722885,0.1624031l-0.2934875,0.1489105l-0.6045761-0.013628l-0.3428497,0.0812626  l-0.3022919,0.3745842l0.0087967,0.2029247l0.0498199,0.15798l0.2119522,0.2437096l0.6680603,0.4692936l0.1894836,0.2571239  l0.0537415,0.1626282l0.0092545,0.1985035l-0.0497818,0.3926258l0.1083908,0.3203831l0.0405655,0.3789482l-0.1397018,0.3203831  l-0.3159561,0.3655586l-0.7852554,0.5098152l-0.1035614,0.1355076l-0.1582108,0.3203831l-0.0312653,0.4422188l0.2841873,0.7669792  l0.0767136,0.1625824l0.2031479,0.2434902l0.3970032,0.2934895l0.7037659,0.2299995l0.1533279,0.0813141l0.1806793,0.2527409  l0.0088425,0.2029247l-0.3111343,0.5911274l-0.1625824,0.2842388l-0.4239426,0.5235271l-0.1308594,0.320343l-0.0180969,0.2302704  l0.0268936,0.1714268l0.063446,0.1623573l0.1577606,0.2571621l0.1216507,0.1218376l0.1625824,0.0813065l0.8077774,0.3340187  l0.6182404,0.509861l0.3247604,0.5640526l0.0092545,0.3518791l0.099144,0.5911293l0.1626205,0.4693336l0.162178,0.3113174  l0.4648743,0.428772l0.2525101,0.1760292l0.2304993,0.2390633l0.4873428,1.0107002l0.2119904,0.2392464l0.2842026,0.1760788  l0.5958176,0.1081619l0.3022842,0.1489525l0.1128082,0.1172371l0.1079407,0.3249817l0.0634918,0.3609085l0.1083908,0.3249817  l0.3022842,0.1489601l0.1850967,0.0405197l0.4420013,0.0495949l0.3833694-0.0405693l0.3745346,0.0947609l0.1538315,0.0813141  l0.0810852,0.1352844l0.0087967,0.2031479l-0.0810852,0.1489563l-0.2436676,0.1985016l-0.1626358,0.0676384l-0.4014206,0.0134506  l-1.0739136-0.1082115l-0.3115845,0.1624069l-0.1713867,0.2302704l-0.0630341,0.1848297l-0.0092545,0.2302666l0.0541992,0.1623573  l0.2617645,0.3880272l-0.0405197,0.2031441L71.55056,42.093811l-0.3833771,0.311306l-0.3252106,0.1083946l-0.2031479-0.0407486  l-0.3516541-0.3113174l-0.1943512-0.2661819l-0.162178,0.0630379l-0.090332,0.0812683l-0.180687,0.2979126l-0.1216049,0.1218338  l-0.1220627,0.081089l-0.1802292,0.0541954l-0.2031403,0.0136719l-0.374588-0.0947609l-0.3022842-0.1625824l-0.7672043-0.5911751  l-0.7354813-0.4285469l-0.9835739-0.2031479l-1.3854523-0.6722183L63.9785614,40.26614h-0.1802292l-0.1220589,0.1355057  l-0.0586128,0.176033l-0.0810928,0.8301926l-0.3521004,0.5775032l-0.7579117,0.8077736l-0.6680679,0.4331474l-0.4649162,0.1985474  l-0.2480927,0.063221l-0.0766678,0.0586166l-0.0087967,0.4153214l0.0405197,0.1758041l0.0405273,0.5911751l0.0722847,0.3521042  l0.0405235,1.0062752l0.0268898,0.1758041l0.2256241,0.6453629l0.1401558,0.2661476l0.0991364,0.1489563l0.3657341,0.3113136  l0.6857147,0.4287643l0.3745308,0.0947609l0.3833733-0.0676346l0.2212448-0.2031479l0.1938972-0.2798195l0.1625824-0.0539665  l0.2300491,0.013401l0.3252106,0.1355095l1.0421906,0.5369797l0.3022842,0.1848297l0.5054474,0.3926659l0.5640488,0.320343  l0.3247604,0.1624031l0.7266769,0.2031441l0.7354889,0.6182556l0.586525,0.3203812l0.6680222,0.6587639l0.30233,0.1760826  l0.1713867,0.0539665l0.2119904-0.0134506l0.1533279-0.0541878l0.6543961,0.0270729l0.4785919,0.1895218l0.2119446,0.2392502  l0.3340149,0.5640526l0.1079788,0.1082077l0.1220627,0.0813141l0.221199,0.0405235l0.4058456-0.0134468l0.1533813,0.081089  l0.2304459,0.2121696l0.162178,0.2842407l0.0497818,0.1489525l0.0088348,0.1850586l-0.0493622,0.4331932l-0.221199,0.4827423  l-0.2525177,0.4151001l-0.0722885,0.6453629l0.0088425,0.2031555l-0.0493622,0.6316948l0.0718384,0.5640526l0.0497665,0.1623993  l0.2348785,0.2165947l0.1983185,0.0361023l0.1850586-0.0224686l0.4243927-0.2436714l0.1621323-0.0541954l0.3838272-0.0405655  l0.5460052,0.1487312l1.1999435,0.4287643l0.1537857,0.0813179l0.4512405,0.4285469l0.3067093,0.1624031l0.4238968,0.0541954  h0.4244003l0.3203354,0.1625824l0.1850967,0.2525139l0.1714325,0.6858902l0.1308594,0.2707939l0.2300415,0.2437096  l0.4556198,0.239254l0.1943512,0.0405693h0.622673l0.6905365-0.1489601l0.7261887-0.3880196l0.5957794-0.5100403  l0.7174301-0.8617401l0.4062958-0.2527466h0.1982803l0.1763,0.0495949l0.4014282,0.2707863l0.7579498,0.5911789l0.1714249,0.0812683  l0.180687-0.0270729l0.2031403-0.2437172l0.1445389-0.0812721l0.1802216-0.0361404l0.2798233,0.185051l0.1757965,0.2571678  l0.1401596,0.2932625l0.2436676,0.8213997l0.293045,0.5774994l0.0996323,0.1218376l0.2705688,0.1760254l0.3564835,0.1218338  l0.4243469,0.0495987l0.1621704-0.0495987l0.271019-0.1623535l0.2207489-0.2302666l0.1445847-0.0541954h0.2211914  l0.1533432,0.0813103l0.30233,0.3474579l0.3833694,0.3113174l0.5054398,0.3880234l0.2842407,0.1355095l0.2123947,0.0676346  l0.1982803-0.013443l0.3071594-0.1355057l0.3609085-0.0405235l0.2031479,0.0405235l0.4238968,0.2437096l0.2529678,0.2165565  l0.2344208,0.2122192l0.6861191,0.8616943l0.6676102,0.5281372l-0.0224686,0.0630379l0.031723,0.1760254l0.30233,0.3609085  l0.5054398,0.3926315l0.0810852,0.1174545l0.1489105,0.2976837l0.0405655,0.3611298l0.1352844,0.2976456l0.4917679,0.8213959  l0.0815353,0.3203812l0.0405273,0.4016571l-0.0814972,0.6180649l-0.0898895,0.3926239l-0.1221085,0.3474579l-0.0087967,0.4197464  l0.0493698,0.1577606l0.1040115,0.1218338l0.5234833,0.3791809l0.0810928,0.1309052l0.0498123,0.1623535l-0.0317612,0.442215  l-0.099144,0.5911789l0.0586166,0.189476l0.1533356,0.2842407L97.375,71.866806l-0.162178,0.3113556l-0.2617645,0.2031555  l-0.2798157,0.1443024l-0.4873886,0.1624069l-0.1128082,0.1083908l0.031723,0.1760254l0.30233,0.3609009l0.031723,0.1760788  l-0.2031479,0.2527008l-0.7085876,0.5865173l-0.3203812-0.0045929l-0.3022919,0.1308594l-0.4556656,0.3926239l-0.7584076,0.8167953  l-0.5142288,0.3655548l-0.3022919,0.1352844l-0.527916,0.1308594l-0.4556656,0.1760254l-0.1806717,0.2842407l0.0087967,0.1985474  l-0.0717926,0.1083908l0.1802292,0.0090256l0.1582031,0.0901108l0.049324,0.1626282l0.2529602,0.397049l0.1802292,0.6587677  l0.0092545,0.2031555l-0.0405273,0.1985474l-0.1626205,0.5369339l-0.1987305,0.5008316l0.0497665,0.1670074l0.1714325,0.3203354  l0.0273438,0.1758499l-0.0361481,0.3926315v0.0044174l-0.3657761,0.2031555l0.0995941,0.3339996l0.1216583,0.7266922  l-0.0405731,0.2026978l-0.1489487,0.2934799l-0.2031555,0.2573547l-0.3745346,0.2568893l-0.0180969,0.1445312l-0.410675-0.0541916  l-0.1665955,0.0766678l-0.5054398,0.2754364l-0.1220627,0.1083908l-0.162178,0.2930374l0.0630417,0.3384323l0.0586243,0.1714249  v0.2031555l0.0991287,0.1352768l-0.4014664,0.0229263l-0.3384323,0.107933l-0.559639,0.0180969l-0.536705,0.0903397  l-0.5958176,0.271019l-0.2436752,0.2026978l-0.1758041,0.2124023l-0.8306961-0.6724472l-0.1352844-0.1128082l-0.3652802-0.0991821  l-0.140152,0.0356903l-0.4151001,0.2529678l-0.2886581,0.058609l-0.2392578-0.108429l-0.2886581-0.2886124l-0.4649124-0.2798233  l-0.9566803,0.0268555l-0.1982803-0.0629959l-0.2075729,0.0903397l-0.1582031,0.0722427v0.004425l-0.1396637,0.1714249  l-0.1040115,0.1401138l-0.1802216,0.0810928l-0.4512482,0.0087967l-0.2934875,0.30233l-0.3067093,0.6094513l0.3022842,0.5186615  l0.0449448,0.0814896l0.2573547,0.2388458l0.0859528-0.017601l0.0043793,0.2300034l-0.2841949-0.0224762l-0.1221085-0.0092468  l-0.1264343,0.1489487l-0.3516541-0.2075729L80.97686,86.969841l-0.1758041,0.0360947l-0.2168274,0.1939011l-0.1035614-0.1304092  L80.354187,86.915596l-0.2978668-0.107933l-0.2075729-0.3521042l-0.1396561-0.0903397l-0.2617722-0.031723l-0.1758499-0.1035614  l-0.2710114,0.2525177l-0.1758041-0.0449448l-0.0859222-0.0361481l-0.0493622-0.2256241L78.337265,85.792366l-0.2573471-0.1670074  h-0.4512405l-0.6543961-0.5957794l-0.315506-0.1758499l-0.081543,0.1714325l-0.1621323-0.0453949l-0.1895218-0.3291855  l-0.271019-0.2299957l-1.7146301-0.8800201L72.9223404,83.03508l-0.8033447-0.0991364l-0.5459595-0.1489487l-0.9024887,0.0180893  l-0.2661819,0.0361481l-0.1577606,0.1713791l-0.4018784,0.4468689l-0.5503845-0.0453949l-0.3565216-0.031723l-0.509819,0.0136261  l-0.5460052,0.1084366l-0.5733032,0.0497742l-0.4464188,0.2974548l-0.4331436,0.0995941l-0.4922638,0.3291779l-1.2091446,0.7584076  l-0.3115921,0.5772781l-0.5230331,0.618248l-0.4199753-0.0136795l-0.5953255,0.2075729l-0.5914001-0.2119904l-0.347229-0.2978668  l-0.2168236-0.5684738L61.717926,85.056427l-0.0092545-0.3833694l-0.3921776-0.7310638l-0.6455917-1.5026855l-1.7283096-2.6080933  l-0.0674133-0.0812683l-0.4556236-0.5188904l-1.9089813-1.4665375l-1.2678185-0.6270981l-0.4468193-0.1308594l-0.5552559-0.0361404  l-0.5415802,0.0766602l-0.2524681,0.0090256l-0.5821533-0.1804504l-0.2753944-0.0090256l-0.3155098,0.1848755l-0.0453949,0.230217  l-0.1352768,0.1309128l-1.4934425-1.34935l-0.189476-0.1713867l-0.7403564-0.491806l-0.6362953-0.3249893l-0.4151001-0.0495911  l-0.1758499-0.1037369h-0.4106712l-0.2163773,0.1171875l-0.1987686,0.0993576l-0.1083908,0.0586166l-0.0044212,0.0046539  l-0.2978668,0.248085l-0.0405655,0.085701l-0.0629959,0.1445312L46.87183,75.6438065l-0.0766678-0.0136719l-0.26614-0.1533813  l-0.0722923-0.189476l-0.0361443-0.4964142l-0.3609047-0.5234833l-0.5098114-0.7354889l-0.4964142-1.105629l-1.6154976-2.3148346  l-0.7625999-0.8753738l-0.1489105-0.1941147l-0.7354851-1.0331726l-1.9539261-2.1480103l-0.4917641-0.573082l-0.9747772-0.7401276  l-0.1939011-0.3699341l-0.5369339-0.3249779l-0.4241676-0.4556694l-0.3295898-0.1352768l-1.3537292-0.8528976l-0.4871635-0.243721  l-0.2302704-0.112812l-1.1009865-0.5459518l-0.3069382-0.1489601l-0.6407204-0.1218376l-0.1082077-0.1037865l-0.1535568-0.1128082  l-0.3247604,0.0090218l-0.1174583-0.1037865l0.2483177-0.3520546l-0.1535568-0.2344666l-0.0224686-0.1760292l-0.0857391-0.6226692  l0.0180931-0.1264839l0.0405235-0.2707901l-0.0722466-0.3428116l-0.428545-0.8033485l-0.1624031-1.3220062l-0.3430805-0.6724434  l-0.0405216-0.1489563l-0.1308594-0.5503807l-0.1489525-0.3113594l-1.2184505-2.0576706l-0.4060745-0.4151001l-0.5955505-0.4378395  l-0.3745747-0.1940804l-0.5008392-0.0630379l-0.5821037-0.496418l-0.4331932-0.1941223l-0.8438683-0.4646454l-0.6092262-0.8619652  l-1.0467949-0.7130089l-0.0813141-0.0539665l-0.0224724-0.0046501l-0.6768646-0.2119484l-0.1985016-0.1716537l-0.1489563-0.4331474  l-0.3113575-0.2571182l-0.6768646-0.320385l-0.0812664-0.1037865l-0.2256222-0.3069344l-0.6092262-0.3068886l-0.9611015-0.0767136  l-0.7354832,0.090332l-0.1804523,0.1851082l-0.2754402,0.0090256l-0.3022881,0.0090218l-0.2346458,0.0947609l-0.2029247-0.0317192  l-0.1987267-0.2661972l-0.4376144-0.5865173l-0.0993652-0.365509l-0.2886162-0.5460052l-0.2165966-0.410675l0.0586166-0.176075  l-0.1128101-0.1533356l-0.1309032-0.1804504l-0.397007-0.1851044l-0.3113575-0.1443024l0.1218357-0.3384323l0.0268936-0.0722961  l-0.0676422-0.1443024l-0.207572-0.2121811l-0.2571182-0.2571106l-0.0090246-0.2664146l-0.2212-0.2029266l-0.2752104-0.1308594  l-0.4512434-0.7806511l-0.0405245-0.3882027l-0.2798586-0.3338356l-0.0314999-0.1804466l0.2390718-0.4873962l-0.5955534-0.6135941  l-0.0993614-0.4422188l-0.351882-0.4016533l-0.1399307-0.843914l-0.3069363-0.5684319l-0.0901136-0.1670036l-0.4873428-0.4016991  l-1.1642532-1.8364716l-0.1309032-0.3113098l-0.2436714-0.112812l-0.3880262-0.3792267L9.545105,33.6283455l-0.1804495-0.2346458  l-0.843873-0.7037582L7.7943282,32.139328l-1.7553849-0.8753605l-1.7056098-0.816803l0.0090246-0.0180492l0.135283-0.3518734  l0.027122-0.1985474l0.3564825-1.0243225l0.0767112-0.3474579l0.1352806-0.3384323l0.0993662-0.1489563l0.1128106-0.0766659  l0.1398859-0.0813198l0.3428521-0.0947094l0.7400842-0.1355095l0.1579833-0.0676403l2.6080942-0.1848755L9.576828,27.216177  l0.1216545-0.1081619l0.171608-0.2842388l0.1938992-0.9657059l0.0090256-0.2165966l-0.0720186-0.3611317L9.5993023,24.797596  l-0.8890429-0.6993313l-0.1533298-0.0678654l-0.2210217-0.230051l-0.0090246-0.2031441l0.0405664-0.1985016l0.1489105-0.3113575  l0.1128111-0.0947227l0.162405-0.0676346l0.4107189-0.0136738l0.0720186-0.1577549l-0.0090246-0.2031555l-0.062994-0.1489487  l-0.1985464-0.8843975l0.1306801-0.3248005l0.171607-0.0812683l0.2029247-0.0136719l0.3521051,0.1083813l0.2210188,0.419754  L10.2129459,21.7202129z"></path></svg>