<svg height='100px' width='100px'  fill="#000000" xmlns="http://www.w3.org/2000/svg" xmlns:xlink="http://www.w3.org/1999/xlink" version="1.0" x="0px" y="0px" viewBox="0 0 100 100" enable-background="new 0 0 100 100" xml:space="preserve"><polygon points="4.6435432,73.3655167 4.3645382,73.3925858 4.3555322,73.3925858 4.3238764,73.1764374 4.2924457,72.946701   4.2113018,72.3928299 3.3827984,70.4339905 3.02265,69.5874786 3,69.3128281 3.3152988,68.7005234 3.4459302,68.5698929   3.5765166,68.4393082 3.8106716,68.2051468 4.1393895,67.989006 4.2473707,67.9168701 5.5397716,67.2774811 5.5171213,66.746048   5.6523461,66.4083252 5.6296959,65.8364487 5.7332644,65.642952 6.1881557,65.2601471 6.7510281,65.0844955 7.25982,64.9945679   7.6966991,64.7557755 8.610714,64.0623169 9.3763113,62.9051399 9.3582993,62.4638481 9.2096558,61.9504204 9.3402424,61.5315971   9.750104,61.1623993 10.6190443,60.7615891 10.8351421,60.432869 11.0242672,59.9691429 11.2135725,59.5098419   11.1955156,59.1765366 11.1819162,58.8298073 11.2405901,58.825386 11.5827265,58.7218208 12.3527365,58.573185   12.4202366,58.4111671 12.3122549,58.3029594 11.9699383,58.1950226 11.8753757,58.0644379 11.7854509,57.6996422   11.8753757,57.3529129 12.2086859,56.7766304 12.5644665,56.4523163 12.834466,56.2902641 13.4379997,56.2001114   13.78473,56.3036804 14.4285212,56.8034668 14.9104748,57.2583504 15.3741922,57.2583504 16.6261559,57.4070015   17.0898724,57.4070015 17.6661644,57.2988396 17.9499874,57.1233597 18.3327847,57.5646515 18.7560654,57.5239906   19.8818111,57.5510063 21.2056427,57.7942047 21.4578552,57.7537308 21.6198711,57.6862297 21.8314209,57.4744949   21.899147,57.2988396 21.8810902,57.0963402 21.7685146,56.9881325 21.6289234,56.8936081 21.1244984,56.7089043   21.0345745,56.5738983 20.9624805,56.4252625 20.9624805,56.2001114 20.9939117,55.997612 21.1335506,55.7137451   21.5072975,55.3670158 21.6693592,55.2995148 21.8810902,55.2860985 22.2728939,55.3535881 22.9166851,55.6058083   23.1194096,55.6508827 23.3535652,55.6372414 23.7541943,55.3535881 24.2992363,54.5746269 24.7044582,53.8090286   24.7539463,53.6783981 24.7719593,53.4622536 24.7315216,53.2868195 24.5512218,53.030014 24.249567,52.8589363   24.1369934,52.7507858 24.0875053,52.5616608 24.1369934,52.4176445 24.4028034,51.9987869 24.321661,51.3954697   24.1776543,51.0621681 24.1910744,50.6435242 24.2405624,50.4724541 24.6637974,49.5311966 24.7135105,49.3420715   24.7135105,49.1305695 24.6547909,48.9953423 24.4028034,48.7658272 24.2405624,48.698101 24.1189365,48.594532   24.0965118,48.3920326 24.1279869,48.2163277 24.2181358,48.0813293 24.3621426,47.9778061 24.9430275,47.8695984   25.3889561,47.4102936 25.6501293,46.9960556 26.0236969,46.6897736 26.0958347,46.6763458 26.4291458,46.4061279   26.7308006,46.2574844 26.8524265,46.1495476 26.9199257,46.0189629 26.9423504,45.8028183 26.811718,45.4785156   26.7892933,45.2803841 27.0010242,44.8257179 27.3160973,44.2582054 27.5278721,43.9655495 27.7663956,43.7494087   27.9284573,43.6819153 28.4869175,43.5647469 28.6265545,43.4838295 28.9596405,43.1324615 29.1984329,42.7048149   29.3919277,42.4480095 29.5542145,42.1419411 29.5812321,41.939209 29.5315647,41.7905731 29.35149,41.4979172   28.7886181,40.9350433 28.7164803,40.7864075 28.6940556,40.3587608 28.7254848,40.1694565 28.8561172,39.8587952   29.1984329,39.7281647 29.2929974,39.5931549 29.3919277,38.8005486 29.5946503,38.2917557 29.9457932,37.7559395   30.0673733,37.6343231 30.2296619,37.5397949 30.5132599,37.4048042 30.7248096,37.4318237 30.9769764,37.6073036   31.1076069,37.7919617 31.3373489,38.1701775 32.2152977,38.6384888 32.5576591,38.9762115 32.841301,39.160923   32.9718857,39.2418404 33.6968231,39.4581642 34.0211258,39.5931549 34.2236252,39.818306 34.4039268,40.1156006   34.5255051,40.2235374 34.9397354,40.1830978 35.0973854,40.1156006 35.2009544,39.9940186 35.4124565,39.5256653   35.5116119,39.1472778 35.682682,38.8682747 36.3401184,38.3999176 36.5832787,38.1838226 36.7950096,38.1567574   36.9029884,38.2646942 37.0876579,38.5305519 37.2453041,38.6114693 37.4568558,38.6384888 37.7811623,38.5079002   38.1863823,38.2242508 38.3754654,38.1838226 38.5871925,38.1701775 40.0009956,38.4133377 40.8881721,38.3863182   41.5141335,38.3188133 42.1399117,38.3144073 42.3786583,38.2783394 42.7838821,37.9946976 42.9730072,37.7559395   43.4278984,37.058075 43.4998131,36.8957901 43.5314674,36.706707 43.4593315,36.549057 43.274662,36.2790604 43.3063202,36.103344   43.5314674,35.621624 43.5494804,35.4459648 43.6798859,35.0992355 43.7519798,34.9640083 43.8916168,34.8560181   44.224926,34.752449 44.9003754,34.7615089 45.4766655,34.8560181 46.2196198,35.0721626 46.6655235,35.0855904   46.877037,35.0451088 47.1967316,34.9101105 47.4128647,34.9101105 47.7147522,35.0721626 48.0749016,35.4188919   48.4396706,36.1979065 48.7727737,36.5356331 48.8809547,36.8419342 49.0429993,37.1660118 49.2276955,37.4318237   49.4257965,37.6479645 49.5203438,37.8100281 49.538372,38.0081062 49.3853416,38.5305519 49.3763275,38.7330513   49.4257965,38.9087029 49.538372,39.0437088 49.7184448,39.0977898 49.9301834,39.0844154 50.0337448,38.949192   50.0337448,38.7466927 50.3444214,38.1567574 50.7091904,37.846096 51.0108566,37.6884499 51.2313843,37.4452324   51.3756256,37.1389503 51.533268,36.3869972 51.6051674,36.2383537 51.726757,36.1304169 51.8888054,36.0629158   52.5418243,36.0358543 53.36129,35.9457054 53.5730247,35.9727592 53.7757492,36.2113342 53.9151497,36.306076   54.1178665,36.3329163 54.4285469,36.1844978 54.5186958,36.0763283 54.6492996,35.729599 54.6807404,35.3287506   54.6807404,35.1262512 54.6222572,34.7344398 54.6402855,34.067997 54.5817947,33.689846 54.4195328,33.3969727   54.1449127,33.2214928 54.0367393,33.0999107 53.4290123,32.7802429 53.3703003,32.6315994 53.4199944,32.4558945   53.509922,32.3208961 53.9151497,32.0416565 54.5905952,31.3706303 54.7121849,31.0465508 54.8427773,30.4700336   54.9329262,30.3350258 55.0859833,30.2585297 55.2660561,30.2180481 56.3243027,30.150322 56.5043755,30.2044029   56.6756248,30.6593399 57.0223999,31.0194798 57.8374367,31.1544876 57.9995003,31.2222118 58.6344643,31.9471474   58.8145409,32.2127342 59.4313126,32.7395363 59.7512054,32.8701668 60.3094864,33.0187683 60.9625053,33.0324097   61.1740112,33.0592499 61.3362541,33.1269722 61.5882416,33.3160553 61.6964035,33.44664 61.808979,33.7843628   61.7999725,34.2256546 61.8180275,34.428154 61.881115,34.5767975 62.2953453,34.883091 62.4754181,34.9235268   62.7997246,35.0721626 63.3625946,35.2208138 64.1279678,35.0721626 64.582901,34.8426094 65.0061417,34.5904427   65.1996307,34.4147263 65.29879,34.2256546 65.3482742,34.0275688 65.3078384,33.8518562 65.3302612,33.6131134   65.3392715,33.6131134 65.4294205,33.5141296 65.5690155,33.44664 65.9337997,33.3294716 66.3073654,33.2485542   66.5371094,33.2619629 66.699173,33.3294716 66.8117447,33.4330406 67.0324783,33.8923454 67.2846909,34.0950699   67.4467545,34.1581573 67.6582565,34.1445122 67.7978516,34.0770035 68.1806488,33.7573471 68.3427124,33.7032547   68.5544434,33.7302742 69.0408096,33.8923454 69.6351166,34.2390747 70.0269165,34.5363617 70.6122131,35.112606   70.9365616,35.2478333 71.1480713,35.2748947 71.8010941,35.2478333 71.9857635,35.2071686 72.2063141,34.9776001   72.5666885,34.4552193 72.7106934,34.3606567 72.9538574,34.3472366 73.192421,34.5633774 73.4987183,35.3694572   73.5888672,35.5000458 74.0211487,35.7566147 74.8900452,35.8377686 75.3944702,36.0088348 75.6420441,36.2383537   75.768219,36.4454918 75.853775,36.9094315 75.9482956,37.6884499 75.9078598,38.345829 75.8177032,38.9357719   75.6827087,39.4850006 75.5116425,39.7642326 75.2909012,39.9803734 75.1288376,40.0749359 74.5659714,40.1830978   74.4443893,40.2910347 74.2102356,40.9755325 74.1607437,41.3629265 74.0525818,41.8717155 73.8678741,42.4209442   73.7372818,42.9703903 73.7058563,43.1865349 73.7689438,43.3486061 73.8905182,43.456768 74.0930176,43.4701843   74.412735,43.3936729 74.7056046,43.4161034 74.8586197,43.4838295 75.0703506,43.510849 75.2324066,43.456768   75.7862778,43.0920258 76.1059418,42.9838181 76.2770081,42.3939285 76.7813873,42.5832329 76.9929428,42.6102524   77.6188965,42.5695877 77.9341965,42.4255829 78.2672806,42.6507339 78.6591339,42.7316513 78.8618546,42.7182236   79.3345795,42.5020828 79.5463104,42.4886703 79.7083282,42.5425262 80.9600677,43.335186 81.464447,43.5376854   81.743721,43.7223892 81.9868774,43.9384956 82.1398926,44.2221375 82.2300415,44.5825119 82.2073898,44.9967346   82.3199692,45.3615265 82.4011078,45.4965286 82.6306686,45.7216759 82.9910431,45.9828873 83.4367065,46.5006905   83.7700577,47.0772095 83.90065,47.3742256 84.0356445,47.491436 84.6976776,47.7480164 84.9723129,47.91008 85.1930466,48.1622467   85.4136047,48.594532 85.6163254,48.8333244 86.4627991,49.1305695 86.9986572,49.7202797 87.4535446,49.9590721   87.9847641,50.1347313 88.2774124,50.2967949 88.4216385,50.4047318 88.7323456,50.751461 88.9034119,51.0487404   88.9845123,51.3820572 88.9755096,51.5982018 88.9258423,51.8007011 88.934845,52.2149277 89.1960602,53.2868195   89.1870117,53.5029602 89.056427,54.0521889 89.0654297,54.2549133 89.2050705,54.344841 89.4168015,54.3314133   89.6102905,54.0792465 90.0020981,53.3136559 90.1056671,53.2056656 90.2633133,53.1425896 90.4750443,53.1652374   90.6100464,53.2597542 90.9207077,53.6245422 90.9611893,53.8090286 90.952179,54.0251274 90.8802719,54.2008247   90.3848953,55.0429382 90.4479828,55.2049904 90.7901154,55.3265724 91.2314072,55.3670158 91.8573685,55.3131599   92.3932266,55.1779366 92.6049576,55.1645164 92.9290314,55.3131599 93.3298416,55.5787392 93.6224899,55.9705963   93.6134872,56.2001114 93.4694824,56.9611168 93.5009155,57.1638412 93.631546,57.4610825 93.8837128,57.659214   94.0684204,57.7130699 94.2575073,57.6725883 94.9329529,57.4610825 95.144455,57.4204216 95.3247528,57.4474373   95.6174011,57.6050797 96.3242798,58.4920845 96.3333359,58.8928947 96.162262,59.1765366 95.8515549,59.536911   95.5993881,59.9825706 95.3966675,60.4509277 95.2977371,60.797657 95.2750854,60.9418869 95.2706757,60.9418869   95.0635376,60.8066635 94.6807404,60.7347488 94.5187225,60.6131706 94.2575073,60.6670265 94.162941,60.6850815   93.8702927,60.4104385 93.6134872,60.1268005 93.4784851,59.8385582 93.4378281,59.7530556 93.4829025,59.5773468   93.6539688,59.4062729 93.8791199,59.1855431 93.8656998,59.0415306 93.6539688,58.7442513 93.4019852,58.7939644   93.0776749,58.7308235 92.9651031,58.870472 92.8839569,58.9650345 93.3388977,59.1901817 93.3973465,59.3251801   93.3479004,59.9197083 93.4784851,60.2393761 93.8656998,60.7211418 93.847641,61.1533928 93.7350693,61.2569618   93.5503998,61.3020287 93.4694824,61.2435417 93.3749161,61.1714401 93.1227493,61.2525482 92.2265244,60.5230103   91.7762299,60.2708435 91.5871429,60.0096359 91.4160767,59.9645615 91.1909256,59.7035675 90.952179,59.7259827   90.8712616,59.64048 90.8037643,59.1675339 90.794754,59.1136322 90.794754,59.1090393 90.7136154,59.0461311   90.6414719,59.0505371 89.9616623,59.0866127 89.6373138,58.7084084 89.2995834,58.5688171 89.159996,58.2130356   89.1555786,58.2040291 88.9574966,57.9608688 88.952858,57.7357178 88.952858,57.6635818 88.8044357,57.5870667   88.6828613,57.6862297 88.6782684,57.6906357 88.552269,57.9562302 88.4621201,57.9788818 88.2639923,57.7851601   88.1964951,57.9518623 88.0929718,58.0059433 88.1694717,58.3706856 88.0522614,58.3660851 87.971344,58.3616791   87.9486923,58.4425964 88.2099075,58.7578964 88.2235565,59.0549583 88.4935532,59.3297729 88.5792923,59.6899223   88.7052841,59.7259827 88.9845123,59.6538544 89.0295868,59.7439957 88.8943634,59.9421272 88.8853607,60.1852875   88.7142868,60.2213631 88.4216385,60.5680923 88.1558304,60.4735756 87.7325974,60.0907784 87.7101669,60.0681267   87.3633957,59.8746338 87.1202316,59.8790016 86.6114426,59.4874229 86.3322144,59.433342 86.0485687,59.0639648   85.7469177,58.9920502 85.395546,58.5958328 84.9947357,58.5237427 84.4318619,57.9382172 84.3463058,57.6050797   84.0763092,57.3439064 83.7520065,57.3034325 83.6124115,57.2089157 83.4593582,56.9657097 83.2612686,56.8936081   82.9459686,56.6279869 82.6983948,56.3263321 82.5631714,56.3487473 82.0858078,56.1145935 81.7032394,56.020031   81.5996704,56.0875397 81.2977905,56.623394 81.1942215,56.6550484 80.8070526,56.3083191 80.4198456,55.6867294   80.0911255,55.4705849 80.1630402,54.9167175 80.1135483,54.7951393 80.0414581,54.7276382 79.8118973,54.7907181   79.591156,54.6915703 79.1949387,54.3538437 78.9427338,54.3945541 78.7536469,54.2639198 78.5511475,53.7371178   78.1683502,53.2327385 77.9612579,53.138176 77.4883118,53.1786499 77.0830917,52.9759331 76.3220825,52.3682098   75.9709396,51.6971321 75.750206,51.5260544 75.5430679,51.5621338 75.2818985,51.823349 75.1108322,51.845768   74.7911148,51.6430511 74.5840225,51.6250381 74.291153,51.3954697 74.133728,51.4088974 74.048172,51.4134827   73.8859253,51.1613121 73.8815155,51.1613121 73.7689438,51.1162453 73.5167313,50.6705437 73.1790085,50.47686   72.9358444,50.52631 72.7467651,50.8596687 72.5847015,50.8281898 72.4945526,50.4363861 72.3188934,50.1932259   72.1882553,50.1300926 72.1388168,49.9319992 72.192894,49.7112732 71.7289581,49.1890602 71.4272995,49.0494156   70.7067795,48.387394 70.3556366,48.1939011 70.1529083,47.9551544 69.981842,47.9911766 69.5271759,47.7796745   69.1173172,47.4463539 68.7885971,47.4193001 68.5003662,47.2572823 68.1716461,47.2077942 67.7484131,46.8520584   67.40168,46.8384171 67.0505371,46.6673393 66.7262344,46.6088524 66.5595322,46.3791122 66.4109344,46.4017601   66.1723633,46.7665024 66.1543121,46.7933388 65.879715,46.9329338 65.7671432,47.1132317 65.789566,47.5004425   65.6906357,47.7436028 65.717659,47.9327278 65.6050797,48.0993843 65.667984,48.2658157 65.6094971,48.3783913   65.9201508,48.648613 65.7086487,48.6532516 65.29879,48.3603783 64.4026031,48.0903778 64.3170929,47.8742371   64.2091141,47.7975044 64.0200348,47.9687538 63.7722321,47.7616615 63.4930038,47.7570229 63.24543,47.4868011   63.4615707,46.8474197 63.5200195,46.4511948 63.4661636,46.2214622 63.051712,45.8071861 62.7997246,45.8342514   62.5745735,45.5776711 62.2456779,45.492115 62.0611877,45.3659401 61.8043861,45.3388786 61.5792351,45.1858597   61.2821732,45.2489548 61.0119514,45.0328102 59.9042625,44.7715836 59.6296234,44.8120728 59.2782555,44.6860809   58.3372231,44.6185799 58.1975861,44.6095734 57.9858551,44.4068413 57.8779221,44.3076935 57.8418503,44.2898636   57.6076965,44.181694 57.215847,44.2808571 57.0808487,44.3934326 56.3693771,44.231144 56.1351776,44.1051941   55.6624527,44.0510712 55.1266441,43.5423241 55.076931,43.456768 55.2031479,43.353199 55.1851387,43.2089691 55.1805,43.2089691   54.9195061,43.0920258 54.7933159,43.1190414 54.7168007,43.4206886 54.7933159,43.6188202 54.6673317,43.7313957   54.113472,43.6548996 53.6090851,43.456768 53.4560509,43.438755 53.2262878,43.0783806 52.6229591,42.9703903   52.4697037,42.8037453 52.3707657,42.6911697 51.974556,42.754303 51.8978233,42.7676735 51.8709946,42.7452431   51.8122864,42.7048149 51.6863022,42.6102524 51.4385071,42.623661 51.3980484,42.6280823 51.3215332,42.6597404   51.1775208,42.7182236 50.8171463,42.6958084 50.6641159,42.8442268 50.2362442,42.6012459 49.3897362,42.457016   48.615345,42.5742264 46.9671898,43.2810974 46.7780991,43.4206886 46.7734795,43.4206886 46.5483284,43.8890533   46.2646942,44.1412201 46.0575752,44.2221375 45.0985031,44.2492027 44.6752243,44.7131424 44.2022781,45.2128754   43.3601723,45.6227455 43.0090332,45.8659058 42.4191399,45.8703117 42.2841415,45.9738808 42.1849861,46.3566856   42.0994301,46.4646225 41.5365562,46.5908394 41.2032471,46.9870491 40.5638695,47.2616501 40.2892303,47.2933044   40.1810684,47.2392159 39.9649277,47.2887115 39.8075027,47.4149323 39.6678658,47.7075806 39.2940712,47.928093   39.2039223,48.0767365 39.2399902,48.1712532 39.5056229,48.0993843 39.5823517,47.9641609 39.7083473,47.9731674   39.735363,48.0813293 39.3752174,48.4234657 38.6817551,48.7116928 37.9071541,49.4186249 37.857666,49.5041351   37.7090225,49.7563477 37.7404556,49.8194237 37.7991714,49.9500122 38.4339561,50.3192177 38.4159012,50.5083008   37.9656029,51.3730507 37.8620796,51.5665436 37.5199432,51.7512054 37.0786514,52.3952293 37.1551552,53.223732   37.3578796,53.4488831 37.2136497,53.6649704 36.9660759,53.858696 36.6507759,54.344841 36.1195602,54.326828   35.5701065,54.5114937 35.047718,54.7907181 34.2282181,55.0022736 33.6924095,55.2634468 32.3819504,55.7227974   32.0082054,55.9208832 31.6750736,56.2091179 31.5218372,56.5334663 31.4994125,56.5783195 31.1482697,57.0512657   30.7834835,57.5329933 30.1889553,58.9109077 30.0900249,59.6989288 30.0900249,60.6536522 29.950386,61.009388   29.9189568,61.0903053 29.6487312,61.2796097 29.5045013,61.37854 28.8741283,62.0539894 28.369751,62.4233665   28.1131706,62.729435 27.8699646,63.2472343 27.8295269,63.7336006 27.8789711,64.1975403 28.1626129,65.016983   28.0320263,65.1790543 27.1314297,65.4717026 27.0098495,65.6022949 26.9469433,65.6653748 26.7172012,66.3138046   26.5371265,66.5075226 25.6679611,66.9037018 25.0331764,67.3676376 24.7044582,67.8313522 24.6323662,68.0564957   24.3440857,68.3537903 23.1598911,68.583313 22.6645184,68.7994537 22.5655422,69.0111847 22.5970192,69.1732407   22.37187,69.3489075 21.5884399,69.4658966 21.1201305,69.5830612 20.8723316,69.722702 20.3094597,70.2404938   19.8230915,70.5017166 19.4358807,70.5692139 19.0306568,70.7492828 18.6659164,70.7943649 18.4093361,70.9520111   18.1300621,70.9069366 17.3554592,70.9790344 16.6846504,71.2085876 16.1127701,71.5192566 15.7704096,71.7985306   15.482399,71.8209534 14.7482328,71.5148849 14.0817909,71.5148849 13.9107227,71.5553131 13.6224871,71.7670517   13.1992073,72.0597 12.4789104,72.3614044 12.1816683,72.6810608 11.9699383,72.7712173 11.6368074,72.6045609   11.168498,72.5774918 11.0242672,72.6720581 10.8081245,72.6810608 10.4029007,73.2035065 10.1777515,73.2890167   9.8806906,73.5770721 9.3763113,73.5997238 8.3270712,73.3835754 7.6382055,73.3655167 7.2418079,73.2483521 6.850184,72.9557037   6.5124602,72.8341217 6.048563,72.9963684 5.7739263,73.1988678 5.4225588,73.5636444 5.0894732,73.5365906 "></polygon></svg>