<svg height='100px' width='100px'  fill="#000000" xmlns="http://www.w3.org/2000/svg" xmlns:xlink="http://www.w3.org/1999/xlink" version="1.0" x="0px" y="0px" viewBox="0 0 100 100" enable-background="new 0 0 100 100" xml:space="preserve"><polygon points="7.4524956,49.12537 7.3528719,49.0296516 7.2573528,48.7348442 7.2732925,48.5554428 7.5881429,47.8542137   7.6120524,47.6907425 7.5163345,47.3918724 7.3011475,47.1926231 7.0341563,47.0492554 6.4922838,46.9576035 6.0976553,46.7861595   5.9104824,46.562973 5.5877023,46.076931 5.464129,45.7899246 4.8105588,44.8534317 4.686986,44.5666351 4.6512012,44.4150505   4.6591711,44.0206604 4.686986,43.8571968 4.7508245,43.7377281 4.9181523,43.4985847 5.2409325,43.2156525 5.6075473,42.9646912   5.782845,42.6936264 5.8904381,42.4426231 5.9184523,42.2552528 5.9900618,41.7053604 5.9702168,41.3506699 5.8546534,40.876461   5.8028889,40.7449188 5.7112355,40.6254425 5.4082999,39.9399605 5.3843508,39.1908302 5.4999142,38.9040337 5.5877023,38.7884712   6.0180759,38.4059181 6.5957727,37.7682877 7.7554708,36.6724281 8.2574778,36.1145744 8.5604372,35.8553963 9.0585546,35.3333664   9.2897129,35.1420898 9.3613148,35.0226135 9.8076754,34.667881 9.9870777,34.4169006 10.0507011,34.3013077 10.1384583,33.9905624   10.1742582,33.6119118 10.1384583,33.2692871 9.9431,32.4841728 9.8514547,31.7947788 9.8635206,31.428196 9.9750118,30.4957676   10.3057938,30.3961449 10.4093103,30.3881741 10.508934,30.3802052 10.600771,30.4319592 10.6046638,30.4319592   10.7920399,30.5276871 11.015029,30.6391773 11.1187372,30.6909504 11.6008997,30.9380474 12.0990171,30.957901   12.4776669,30.4957676 13.2625885,31.2886925 13.6571932,31.7868099 14.0117092,32.0418777 14.0515985,32.3248062   13.9321299,32.5917664 13.6252813,32.8826675 13.1629648,32.8746605 13.429924,33.4046974 13.2466326,33.6239853   12.7286701,33.9148865 12.150775,34.4367561 11.9196167,34.8035316 11.991416,35.046524 12.2704401,35.2179642   12.7166033,35.2457695 13.4538574,35.6043854 14.0276651,36.158371 14.354558,36.4770851 14.374403,36.4930267   14.7409859,36.6683617 14.9003477,36.6843033 15.004056,36.6922722 15.2511702,36.8397446 15.2591476,37.752346   15.4463282,38.1387672 15.8886175,38.6888466 16.1477985,39.0116272 16.1436939,39.2108765 16.1397877,39.529583   16.6618557,40.3863144 16.7095146,40.661274 16.4705772,40.7729721 16.1318188,41.0437889 15.9125271,41.5022163   15.9045572,41.9403992 16.2672653,41.9604454 16.2713318,41.9604454 16.7095146,41.6654778 16.7136192,41.6654778   17.0444088,41.6695824 17.5185776,42.0480347 17.8333874,42.1278114 18.120224,42.0003357 18.1242886,42.0003357   18.176054,41.9723206 18.39925,41.9962616 18.5626717,42.1995811 18.6463566,42.5581856 18.8932629,42.7095642   19.1962376,42.7015953 19.5110493,42.5780296 19.7460804,42.3628426 19.750185,42.3070145 19.7581539,42.195507   19.7739353,41.9445038 20.1963387,41.1354408 20.2483025,40.6813202 20.375742,40.3863144 20.9456673,39.9998932   21.364006,39.2665443 21.3001671,39.1231194 21.001297,39.0793724 20.8339691,38.625 20.459425,38.49757 20.2403336,38.1786575   19.6225471,38.282383 19.2997265,38.0432472 19.1761932,37.8319244 19.004961,36.9074898 18.6901112,36.5051003   18.4550781,36.0387039 18.7578545,35.5526581 19.3795052,35.1979179 19.3754406,35.0424652 19.3754406,35.0305824   19.3635654,34.6599121 19.2680073,34.4606667 19.2639427,34.4567986 19.088604,34.0940895 19.0407467,33.9905624   19.0407467,33.3171463 19.4114246,32.8587189 19.9175129,32.5240555 20.8419399,32.3446617 21.1089306,32.1454163   21.1129951,32.1454163 21.3320866,31.3563957 21.3320866,31.2688465 21.3320866,30.8981667 21.0929508,30.2167416   21.1369438,29.9536972 21.4237404,29.6349716 22.0415268,29.3759995 22.5993786,28.9694862 22.938139,28.4673138   23.4162121,28.291975 23.480051,28.2680664 23.4918861,28.2443161 23.6831627,27.889616 23.8903809,27.8098373   24.2412148,27.7899933 24.7393322,27.4473286 24.934515,26.7021046 25.1536064,26.2078915 25.6200047,25.8930416   25.7793617,25.3830395 25.9706383,25.1320763 26.3490887,24.9804897 26.4726219,24.7732716 26.4687576,24.1835003   26.7357082,23.5141506 27.4848366,22.4741211 28.0586281,21.2267151 27.9790497,20.6410084 28.0148354,20.282402   27.5964947,19.6247272 27.6642399,18.5966129 27.5924301,17.7558308 27.3414192,17.4489899 26.9828148,17.2018833   26.6121349,16.7915039 26.5843201,16.5564423 26.6839428,16.3013573 27.2737141,15.9945164 27.3493881,15.8709526   27.4768276,15.659831 27.4729614,15.6000967 27.4569817,14.8867922 27.5208206,14.6236963 27.5725861,14.3966436   27.7877731,14.0578842 28.1345024,13.786828 28.7999878,13.607626 28.9593449,13.5916862 29.7004642,13.511898   30.1468182,13.5317526 30.5254669,13.7989025 30.3859539,14.2131777 30.6529446,14.5678768 31.3781242,15.1815577   31.8803082,15.3170061 32.0157547,15.1298332 32.3864365,14.1734877 32.9721031,13.6952047 33.1834221,13.6514196   33.418457,13.7270842 33.6496201,14.1016693 33.5778122,14.719265 33.2192078,15.711586 33.2511292,16.2496014 33.1553688,17.09445   33.5180779,17.7519245 33.5978584,17.9272633 33.7731552,18.3216515 33.6575928,18.8318443 33.6854057,19.0668755   33.6974792,19.2023239 34.1317596,19.537178 34.3668327,19.6008186 34.9048386,19.983532 35.1558495,20.3301029   35.2474632,20.7167206 35.2714119,20.8003559 35.3311462,21.0513763 35.8094215,21.6889973 36.1361046,21.9639587   37.0527611,22.342617 37.2360687,22.3902779 37.4152718,22.4422417 37.901516,22.4342308 37.9054184,22.4342308   38.0848236,22.5377598 38.1486206,22.5536995 38.4634705,22.6453533 38.9175949,22.7768879 38.973423,22.7689171   39.3240585,22.7050877 39.866169,22.6054649 40.2845116,22.4422417 40.5555649,22.3744965 41.4560432,22.5418644   41.9302521,21.8125801 41.9899864,21.5574646 41.9062996,20.9916325 41.9422836,20.8163452 42.0658569,20.4018612   42.1374664,20.3619823 42.5678825,20.162735 43.0938148,20.4258213 43.3290443,20.5692291 43.4884033,20.6847935   43.6279144,20.7883301 44.5044823,20.4018612 44.6082115,20.310257 45.2337685,19.7483006 45.7079353,19.5969028   46.198082,19.6288319 46.7999306,19.5410843 47.7402954,19.0789509 48.0790558,19.1626339 48.4616089,19.3140221   49.1589737,18.9114227 49.3821716,18.9793262 49.6452179,19.6288319 50.4501762,20.0989361 50.5418282,20.2623577   50.5576096,20.2942677 50.5457344,20.441761 50.5217857,20.7126179 50.3583641,20.9797668 50.2867546,21.3422775   50.6692696,21.9240799 50.5179214,22.6015987 50.7928391,22.8605709 51.0557289,22.9761333 51.0557289,22.9362545   52.004261,23.470356 52.4225998,23.8688507 52.5142555,24.3868027 52.1675262,25.3192501 52.4346771,25.391058   52.7892151,25.6221848 53.0960579,25.657999 53.4906464,25.1639557 54.064476,25.2873306 54.7538338,25.4028931   55.0048447,25.3949242 55.0805588,25.391058 55.3078194,25.2595062 55.3237572,25.2476406 55.5230064,25.1320763   55.5428505,24.9366951 56.2999496,23.9484291 55.9094238,23.2232494 55.4592056,22.6095695 54.6820641,21.7487411   54.2397766,21.0714207 54.1800385,20.6330376 54.2596207,20.1905899 54.5625954,19.7642403 54.6940994,19.2462788   54.9211998,18.951313 55.8615646,18.4413204 55.9532204,18.1463547 55.8376579,17.600378 55.5987206,17.4888687   55.3675537,17.3812752 55.1683044,16.8553123 55.0089493,16.7796383 54.6462402,16.8872318 54.140152,17.03862   54.1203041,17.0425262 53.3989906,17.1382446 53.1320419,16.8990974 52.769371,16.9709167 52.2830887,16.2815208   52.1834641,16.1379032 52.2115173,15.6119623 52.3747406,15.1378031 52.1077919,14.5161028 52.247303,13.8107681   52.4663963,13.3883343 52.5860634,13.0058098 52.4267044,12.3243847 52.4385834,12.2366467 53.17173,11.4555979   53.4108658,10.9536142 53.8013916,10.6346998 54.0286522,10.3517685 53.9687195,9.8816652 54.1043663,9.4392176   54.2835693,9.3915577 54.8493919,9.4911814 55.1245117,9.4592619 55.9812355,9.0090027 56.7543106,8.6303444 56.8459282,8.6264486   56.9893456,8.6223745 57.1169815,8.6184788 57.4835548,8.8097563 57.738472,8.7976818 58.296524,8.1162863 58.4239655,8.2437344   58.4957733,8.6900883 58.8502731,9.1483164 58.8343315,9.4392176 58.6033669,9.7540274 58.5354614,10.2562494   58.7068939,10.5072517 58.9539986,10.6706839 59.0935135,10.6786537 59.2528725,10.598875 59.4958725,10.5589857   60.0020027,10.88591 60.3049355,11.567296 60.5438728,11.8182974 60.7551918,11.8262672 61.2651863,11.7426329   61.8310089,11.8262672 62.1499214,11.6110802 62.6161232,11.5752659 63.0983009,11.7585726 63.237812,11.9019814   63.4409256,11.9218359 63.7158852,11.7346134 64.2459259,11.6828985 64.9432907,12.1331081 65.2621994,12.1810169   65.4732819,12.1210833 65.4972382,12.0932283 65.8040771,13.1692419 66.1068497,13.6792345 66.2664108,13.906496   66.3819733,14.0139303 66.6607971,14.1575079 68.5696259,14.4046135 68.924324,14.476223 69.2190933,14.6077566   69.8727036,15.1416683 70.4784164,15.412715 70.7294235,15.5800524 70.8092041,15.6997194 70.9247665,15.9945164   71.0282898,16.452755 71.0403671,16.6241856 71.1119385,16.9588413 71.3711166,17.8713932 71.3631516,18.0507965   71.2555542,18.548914 71.0920944,18.7958603 70.6815643,19.238308 70.3190536,19.4733696 70.0122147,19.5809631   69.4343185,19.6167583 69.0757141,19.5451488 68.7130051,19.5809631 68.561615,19.640707 68.0794754,19.971489   67.8364334,20.162735 67.7486877,20.270359 67.7486877,20.6250687 68.12323,20.87607 68.561615,21.0872021 68.7130051,21.1231861   68.9801559,21.2786388 69.0757141,21.3741875 69.2391357,21.6213036 69.4065018,22.0517159 69.4623337,22.3704224   69.4144745,22.7370071 69.2031479,23.330843 69.1753387,23.510046 69.2270966,23.6536636 69.5140915,23.9723701   69.7292786,24.3549232 69.8528519,24.9804897 69.4144745,26.1919117 68.8087616,27.4033737 68.7649689,27.769949   68.9163513,28.2123966 68.9361954,28.3877335 68.924324,28.5790119 68.7569962,29.4318295 68.7927856,30.0136299   68.7369537,30.3482761 68.6213455,30.5953922 68.4341736,30.8224545 68.1033859,31.1053848 67.9798508,31.1771927   67.5774536,31.5916271 67.0951157,31.9263134 66.8999329,32.1414986 66.828125,32.2689476 66.7485428,32.6038437   66.7485428,33.1616936 66.7764053,33.5163918 66.7405777,33.7076721 66.7405777,33.8868752 66.5771561,34.1339722   66.0151978,34.4089012 65.8120422,34.6081467 65.6246719,35.0344963 65.5170822,35.5446396 65.5250473,35.9271965   65.5610733,36.0706215 65.7402725,36.2937775 66.0352402,36.425312 66.7485428,36.5687408 66.8481674,36.6644592   66.8999329,36.8039703 66.9079056,37.5531006 66.9797134,37.8599396 67.1748962,38.2782784 67.5335007,38.7047882   67.5494385,38.8839912 67.5254898,39.0593262 67.3821106,39.3223648 67.1869278,39.5455704 67.0433502,39.8204842   67.0075302,40.1870651 67.1311035,40.661274 67.3262405,41.0437889 67.4817352,41.4821739 67.5335007,42.0042305   67.6770782,42.2673264 67.7566528,42.3708153 67.872261,42.4544983 68.2308655,42.5263062 68.4421463,42.5263062   68.7569962,42.6457748 68.8365784,42.7654419 68.8286057,42.9526176 68.5258331,43.4867172 68.561615,43.6301346   68.6573715,43.7377281 69.0757141,43.9369774 69.3905258,44.0564461 69.5778961,44.0803871 69.7452621,44.0685196   70.024086,43.9369774 70.4266434,43.522541 70.5502167,43.4507332 70.7175446,43.4149017 71.3073196,43.4867172   71.7096786,43.4746437 72.048439,43.4149017 72.1838837,43.3472061 72.3593826,43.0961914 72.4070435,42.9526176   72.4309921,42.8012199 72.4309921,42.4305496 72.5306168,42.1237068 72.710022,41.896637 72.8614044,41.8369102   73.1921997,41.9324303 73.4032822,41.9445038 74.0210648,41.7532272 74.3676376,41.685524 74.6983871,41.7771759   75.0930099,42.0161133 75.2523727,42.0520973 75.4477158,42.0520973 76.4836349,41.8487854 76.8661957,41.8726959   77.2528152,42.0121994 77.6075134,42.171566 77.9262238,42.3548737 77.9262238,42.3589401 77.8505554,42.5142326   77.3325882,43.2156525 77.2607803,43.355175 76.5634155,44.2837067 76.3482285,44.6860962 76.0215454,45.5549011   75.2325287,46.8219528 74.6904144,47.3918724 71.0841217,52.5205383 71.1119385,52.8194122 71.833252,57.2466316   71.8612671,57.5416069 71.9967117,58.2668266 71.833252,58.2070923 71.6818619,58.2547531 71.6381073,58.3026123   71.434761,58.6215248 71.4069443,58.7767792 71.3989716,58.9680557 71.4707413,59.286972 71.6898346,59.8448143   71.7735214,59.9642906 71.8692322,60.060051 72.0445709,60.0919304 72.8614044,59.8687706 73.0567474,59.8566971   73.343544,59.9642906 73.5389252,60.1676445 73.6185074,60.207531 73.6465225,60.3988113 73.6344452,60.5741081   73.5667419,60.9128685 73.1203842,61.4825935 73.1124191,61.6738701 73.1602783,61.8133774 73.3237,62.0525208   73.5826797,62.2079735 73.7899399,62.4111176 73.797905,62.586422 73.7260971,62.7179565 73.5268555,62.9251747   73.3674927,63.1682243 73.5268555,63.7819061 73.5149765,63.9731827 73.51091,64.4274979 73.4869614,64.6069107   73.6465225,64.6507034 73.817749,64.6187744 74.200264,64.4035873 74.3676376,64.367775 74.5828247,64.3796463   74.6824417,64.4753647 74.8857956,65.0571671 74.9136124,65.212616 75.0729675,65.4476929 75.2006073,65.5313263   75.3679352,65.4834747 75.5831604,65.2921982 75.6707077,65.1846085 75.8063202,64.9375 75.9219208,64.8180237   76.0454559,64.7701721 76.2326279,64.7582932 76.4040604,64.8061523 76.8661957,65.1766357 76.9380035,65.2842255   77.4639359,65.7704697 77.7947235,66.232605 78.0379257,66.7667084 78.2410812,66.9899063 78.4840775,67.1451569   78.9742279,67.2767029 79.3927689,67.6672211 80.1498642,67.954216 80.4368591,68.1055984 80.6400146,68.2850113   80.6958389,68.4284286 80.9110718,68.8068771 81.078392,69.0341415 81.2058334,69.117775 82.1940994,69.3888397   82.7640228,69.6756363 82.9632721,69.850975 83.1066513,70.2893448 83.0230103,70.6240082 82.8914642,70.883194   82.8636475,71.0623932 82.8914642,71.2417984 83.0508194,71.4649887 83.1663818,71.5486374 83.337822,71.5963364   83.5251923,71.5844498 83.8637466,71.5126495 84.326088,71.3612671 84.6130753,71.47686 84.7126999,71.5963364   84.7485275,71.7399139 84.7364502,71.9311905 84.4336777,72.441185 84.4058609,72.616478 84.4416504,72.771965   84.5930328,73.0190811 85.0672455,73.592865 85.4497604,73.8039932 85.5933762,73.8518524 85.8085632,73.8518524   86.083519,73.7084732 86.1550903,73.5809937 86.2029953,73.4015884 86.290741,73.3058777 86.6135178,73.2221909   86.9322357,73.3179474 87.2190704,73.4494934 87.3865967,73.4015884 87.5021591,73.3058777 87.8806076,72.8795624   88.0041885,72.8198318 88.1915588,72.8077545 88.362793,72.8556137 88.7612839,73.0708389 89.0920715,73.1624603   89.6738358,73.17453 89.7974091,73.2582169 89.7615814,73.4494934 89.6738358,73.5450134 89.4388046,73.7323837   89.1996689,73.8757935 89.0920715,73.9715195 89.0202637,74.1028671 89.1558685,75.0872192 89.2076416,75.2427139   89.2076416,75.3024521 89.0920715,75.4100418 89.4228287,75.3382339 89.6380539,75.3462067 89.9847794,75.4298859   90.1003418,75.5256042 90.4749298,75.9519196 90.618309,76.0237274 90.785675,75.9877396 90.941124,75.7884979   91.0806351,75.5135345 91.1882324,75.4180145 91.3396225,75.4059372 91.4830399,75.4777374 91.606575,75.7408371   91.606575,75.8602982 91.3834152,76.4500351 91.3754044,76.6413116 91.4312744,76.784729 91.6264191,77.0078888   92.0290146,77.223114 92.5469742,77.3427811 92.9454727,77.5698318 93.2244949,77.9125061 93.2602844,77.9961548   93.2762604,78.0560837 93.4276123,78.2911606 93.5552902,78.374794 93.8381805,78.5063477 94.0173798,78.5302963   94.3322296,78.6497574 94.9459152,79.0523224 95.2568588,79.1599121 95.6512451,79.2076111 96.3565826,79.5504379   96.4523392,79.6580353 96.4881287,79.8094177 96.5,79.9886246 96.4562073,80.144104 95.4640732,79.7654648 95.2926483,79.7417145   94.7307281,79.7654648 94.5553894,79.7177658 93.9895706,79.6580353 93.0092697,79.669899 92.6347275,79.6938553   92.463295,79.7417145 92.3598022,79.8094177 92.2681503,79.9409637 92.2241592,80.0962143 92.2161865,80.2995682   92.1605606,80.4509506 92.0727692,80.5585403 91.9013748,80.5943375 91.4032593,80.2756119 91.2320251,80.2277603   91.1722946,80.2517014 90.215744,80.6303558 89.4228287,80.785614 88.9924545,80.9609451 88.4783554,81.0447922   88.2631683,81.0088043 88.1475601,80.9490662 87.7969666,80.4748611 87.5737686,80.3114395 86.4938507,79.9288864   86.0157776,79.5980988 85.8443832,79.5265274 85.6850281,79.5383606 84.9238281,79.7855072 83.8359375,79.8931046   83.0667648,79.8931046 82.811882,80.0364838 82.7042923,80.1322403 82.469017,80.5106888 82.2937241,80.7498169   82.1861267,80.8334732 81.8712769,80.9171524 81.4807968,80.8813705 81.1420364,80.9490662 80.8632126,81.0685425   80.1578369,81.5905685 79.8829117,81.698204 79.7155838,81.7221146 79.3449097,81.698204 79.1775818,81.6265945   78.5996857,81.1882095 77.9820938,80.9609451 76.9140549,80.7258759 76.3402634,80.6661377 75.3321533,80.4270096   75.1089554,80.23983 75.1367645,80.0723038 75.20858,79.9288864 75.3161697,79.8212967 75.3401184,79.669899 75.3321533,79.4905014   75.224556,79.2076111 74.9215775,78.9087448 74.5629807,78.637886 74.2800446,78.5302963 74.1086502,78.5542068   73.8496704,78.7055893 73.6982803,78.7534485 73.5229492,78.729538 73.2519302,78.5779572 72.9491577,78.3390198   72.8176117,78.3189697 72.514679,78.6139374 72.3712616,78.8847961 72.2077942,79.3231812 72.0046844,79.7296448   71.5861435,80.120163 70.8808136,81.0566559 70.5422516,81.3076782 70.219429,81.4033966 69.7092361,81.6863251   69.2270966,81.8057938 68.6653442,81.8417816 68.0596313,81.8057938 67.3821106,81.6384583 66.9357605,81.4590683   65.9155731,81.0327148 65.6326447,80.9052811 65.3018951,80.8095627 64.9273071,80.7617035 64.6683273,80.6064072   64.5887451,80.4867401 64.2299423,79.1120529 64.1264572,78.825058 63.947052,78.6139374 63.8036346,78.5421295   63.4012337,78.5302963 63.090332,78.6139374 62.8313484,78.7653198 62.5523224,79.0881424 62.3849564,79.1239319   62.1977806,79.0881424 61.3488312,78.518219 60.7950821,78.2314224 60.5121536,78.1158218 60.133503,77.9961548   59.7071953,77.8648071 59.3365173,77.5937958 58.9141121,76.996048 58.6471596,76.8446655 57.9935493,76.6652527   57.272274,76.5457916 56.9414864,76.4500351 56.6546898,76.3225937 56.3238983,76.2389526 55.9333763,76.2029266   55.7619438,76.2389526 55.4870224,76.3704529 55.3794289,76.4621124 54.8694344,76.748909 54.7021065,76.784729   53.9249649,76.8207169 53.7656059,76.8565292 53.5503807,76.8446655 53.07621,76.6891632 52.8569183,76.5177765   52.6576729,76.310524 52.5780945,76.1910477 52.526329,76.0476761 52.3628693,75.8124008 52.247303,75.5256042 52.05196,74.7525711   51.6773796,73.7682037 51.4343758,73.4134674 51.19524,73.2461395 50.7928391,72.867691 50.7848701,72.8597183   50.402317,72.5886612 50.2587395,72.5289307 49.900135,72.5767899 49.6531868,72.7202072 49.2426567,73.110733   48.9836769,73.2661896 48.6449165,73.5290756 48.3859367,73.6806183 48.1946602,73.6924896 48.0988998,73.5888062   48.0988998,73.4335098 48.1707077,73.3019638 48.2783012,73.2062531 48.3501129,73.0669403 48.3460464,72.9153519   48.2584572,72.6126175 48.1148796,72.4012909 47.9196968,72.1981354 47.5889473,72.1024246 47.2342072,72.1502838   46.999176,72.3176117 46.9672585,72.3855133 46.9273682,72.4612274 46.9034195,72.6244507 46.9193993,72.8038483   46.9752274,72.9472733 47.1345863,73.1864014 47.4295883,73.5051193 47.5889473,73.7522278 47.660717,74.0631714   47.6327019,74.2981949 47.5889473,74.4536972 47.4813156,74.5492172 47.1266136,74.5612946 46.9553833,74.5134354   46.449295,74.2065887 46.2500458,74.0032425 46.0029411,73.8359146 45.795723,73.8240356 45.6283569,73.8639297   45.5367432,73.9794922 45.4927483,74.1108322 45.5287323,74.4655685 45.6163216,74.7644348 45.6003418,75.1549301   45.5367432,75.2864609 45.3493309,75.2864609 45.2257957,75.2028275 44.8154297,74.6210251 44.6082115,74.4217758   43.9306908,74.2663193 43.6199455,74.1586914 43.5203209,74.0552063 43.4605865,73.9115906 43.3887787,73.6008301   43.3051338,73.4852676 43.2093773,73.3776779 43.0381432,73.3776779 42.9305496,73.4734039 42.9066429,73.6366653   42.9146118,74.0191803 42.8708153,74.1707687 42.5120125,74.8241806 42.2370911,75.1469574 42.0218658,75.3343277   41.8864555,75.4059372 41.7191277,75.4419632 41.5119133,75.4419632 41.3723984,75.3820267 40.9061623,75.0274887   40.2885742,74.6210251 39.8183098,74.469635 39.300148,74.3620453 39.1567307,74.2902298 39.0251884,74.043129   39.0053444,73.8639297 39.0771523,73.5331345 39.2643242,73.1027145 39.2125587,72.771965 39.1129379,72.6643372   38.9894028,72.5925751 38.8179703,72.5448685 38.6745529,72.5925751 38.3638458,73.1027145 37.9532776,73.4971542   37.6863289,73.624794 37.499115,73.6366653 37.1683655,73.5570831 37.06073,73.4494934 36.9013748,73.2103577   36.7937813,72.8198318 36.6303596,72.5806885 36.5067863,72.4970016 36.3474274,72.4491501 36.1759949,72.4890366   35.9608078,72.6764145 35.9528389,72.8795624 36.2118187,73.4134674 36.2835884,73.7203064 36.2197876,74.2304993   36.0326157,74.4457321 35.8812294,74.4933853 35.570282,74.3857956 35.4547195,74.3021088 35.1159592,73.8518524   34.8649483,73.6845169 34.6617966,73.6726532 34.3031921,73.7203064 33.3227386,73.9594498 32.0435715,74.1028671   32.1153793,74.4217758 31.4458294,75.3382339 31.206892,75.7048111 31.1430531,75.8443222 30.9636517,76.0715866   30.6171207,76.7249985 30.5731678,76.868576 30.4138088,77.1275558 30.3499699,77.2828445 30.2624207,77.6017609   30.1906128,77.7333069 30.1069279,77.9961548 30.0552044,78.1596069 29.5012169,79.2435989 29.2981052,79.8452377   28.9513359,80.4988174 28.6205845,80.9729767 28.3775444,81.530838 28.2897949,81.8536453 28.2619801,82.0209808   28.3137054,82.3517685 28.3695736,82.519104 28.5129528,82.7541733 28.708334,82.9574738 28.9752846,83.1248093   29.716444,83.4077454 29.9555798,83.5750732 30.1190033,83.7863922 30.1707668,83.9298019 30.1906128,84.1331253   30.1787376,84.5115738 30.1269722,84.8663101 30.0909882,85.4122849 30.0193806,85.7708893 29.7802429,86.1135178   29.5012169,86.4363327 28.8437424,86.9823151 28.4771671,87.4444504 28.4333725,87.5998993 28.4411831,87.9546432   28.5129528,88.4885406 28.8437424,89.357338 29.0468941,90.1144333 29.0548649,90.4930878 29.0110703,90.6244354   28.8318672,90.8635712 28.4571228,91.0988007 27.9749451,91.2301407 27.5844612,91.2301407 27.3174706,91.1106644   27.1382675,90.8756027 26.8711166,90.1623001 26.771492,90.0665817 26.5843201,90.0426331 26.4607468,90.1144333   26.388979,90.2459793 26.5204811,90.6843643 26.5563068,90.8635712 26.5563068,91.0509415 26.4607468,91.5649948   26.3093987,91.8121033 26.165781,91.8718414 25.9786091,91.8837128 25.8509712,91.8239746 25.5044003,91.5410843   25.3249989,91.5290146 25.1457958,91.5928116 25.1417313,91.5928116 25.3608227,90.0068359 25.3528538,89.6402206   25.1736507,89.4369202 24.8268814,89.1779404 24.7272568,89.070343 24.6675224,88.9388046 24.55196,88.6558685   24.4443665,87.9664764 24.3169289,87.5162506 23.926403,86.5637741 23.7629414,86.292923 23.5876446,86.0896072   23.201025,85.8664093 22.2645245,85.746933 21.2921982,85.7827682 21.0252476,85.6393433 20.9096832,85.5436325   20.7224712,85.3206329 20.3278828,84.7267914 20.2043095,84.4757843 20.1685238,84.3084564 20.2202892,83.9418411   20.479269,83.6229324 20.5430679,83.4795532 20.5709229,83.300148 20.3917198,83.0650711 18.8494682,81.8057938   18.0087261,81.0208817 17.813343,80.7976837 17.7337646,80.6780167 17.6779346,80.3672638 17.7257938,80.2158813   17.9209766,79.8094177 17.9209766,79.6101761 17.8653069,79.4665985 17.7057495,79.2315216 17.3232365,78.8131866   17.0722237,78.6497574 16.582077,78.5302963 16.2075329,78.5542068 15.6615314,78.4703598 15.2151699,78.3029938   14.9044323,77.9961548 14.7690077,77.7212296 14.689229,77.4264221 14.673274,77.2590942 14.7769814,76.3584137   14.9402332,75.7408371 14.9124098,75.6092911 14.4580708,75.7526703 13.6173038,75.928009 13.0394077,75.9519196   12.8681831,75.9877396 12.6728249,76.2029266 12.6090059,76.3344727 12.5214453,76.653389 12.4138432,76.748909   12.1029091,76.8325882 12.0112629,76.9522552 11.7802992,77.1275558 11.3179846,77.2709656 11.1306047,77.2828445   10.9673576,77.2470245 10.6844425,77.1195831 10.4491959,77.0557785 10.3096867,77.079689 10.2180414,77.1872787   10.1544132,77.3307037 10.0308561,77.4025116 9.907299,77.3188324 9.907299,77.1275558 9.8275204,77.0078888 9.6243839,77.2192078   9.4689159,77.211235 9.3453588,77.1394272 9.2457352,76.8446655 9.1661558,76.7249985 9.0505772,76.6413116 8.8791523,76.6413116   8.4448576,76.8086395 8.1498766,76.916275 7.9626956,76.9401855 7.4007711,76.7131195 7.2213688,76.4858627 7.077951,76.2389526   6.8987479,75.8244781 6.8269396,75.3104248 6.7672052,75.1708984 6.6675816,75.0753479 6.7831845,74.8959427 6.8109994,74.7206497   6.8269396,74.5412445 6.7751751,74.2104568 6.6315975,73.9476089 6.3288217,73.6726532 6.1694636,73.4374161 6.1334801,73.0708389   5.9980316,72.616478 5.8386741,72.3574982 5.7310805,72.2619781 4.7866092,71.5605087 4.4001894,70.9429245 4.3044314,70.6718674   4.2606769,70.3611603 4.2925963,70.1858292 4.5077829,69.9706421 4.5714226,69.850975 4.5953321,69.6756363 4.5157528,69.5561676   4.3922195,69.4725189 4.0972147,69.3528519 3.7744343,69.0820007 3.5074432,68.5478973 3.5512376,68.3447418 3.7504847,68.1534653   3.8382332,68.0258255 3.8820276,67.8824081 3.8382332,67.7269592 3.7147,67.6314392 3.2842865,67.4919205 3.1328986,67.4082336   3.0971136,67.2648239 3.3918798,66.9420471 3.419894,66.790657 3.3839099,66.6231308 3.3043306,66.4917831 3.2404919,66.1728668   3.1408684,66.0533981 2.6625957,65.9099808 2.5629721,65.8261414 2.4993725,65.6986923 2.5112078,65.4955521 2.5550022,65.3400955   2.8021085,64.9974289 2.8499677,64.84198 2.9495912,64.6666412 3.2603369,64.4156342 3.4278638,64.1883698 3.5352979,63.8936043   3.5512376,63.3236694 3.6588311,62.9928856 3.8740578,62.610363 4.0892448,62.4231606 4.2128177,62.3632278 4.5714226,62.315567   4.9899611,62.315567 5.8466835,62.502739 6.6596117,62.7298393 6.8828082,62.9212761 7.2015238,63.4073524 7.3011475,63.6783752   7.4605055,63.9412613 7.6478772,64.3317871 7.7992654,64.7701721 7.9626956,65.0093002 8.0862532,65.0929489 8.4448576,65.1526871   8.8353739,65.1408539 8.9867535,65.0811157 9.1142044,65.0093002 9.2019567,64.8898392 9.273757,64.5590515 9.3015804,64.1883698   9.3893366,63.8815308 9.4969339,63.7499847 9.7996979,63.4552193 10.2978153,63.1563492 10.6046638,63.0366821   10.851778,62.8973694 10.9154062,62.7537498 10.8955564,62.5745468 10.8000183,62.4788284 10.0149012,62.0285645   10.0388346,61.8731194 10.1464357,61.7814636 10.6924162,61.4946671 11.015029,61.2117386 11.3537855,61.1399193   11.7283478,61.1757545 12.1268415,61.1638794 12.4416666,61.068119 12.8242044,60.8410492 13.0553637,60.66576   13.270566,60.5581665 13.2067471,60.4147491 13.0195627,60.2034264 12.8960056,60.1197739 12.5932417,59.8209038   12.5294228,59.677494 12.4496441,59.3706551 12.4218216,59.0159149 12.3420429,58.7052078 12.1188641,58.3265533   12.0830622,58.1710663 12.0032854,58.05159 11.8879013,57.5774307 11.7723217,57.3063736 11.6008997,57.0672379   11.2343168,56.816227 10.5848188,56.629055 10.3176641,56.4975128 9.9431,56.2503967 9.7358751,56.0472527 9.5407162,55.6565704   9.5407162,55.4652939 9.592473,55.3099976 9.5765171,54.9313507 9.3813591,54.5408554 9.273757,54.4453087 9.1301556,54.1822624   9.1581783,54.0069237 9.2457352,53.8872566 9.2138281,53.5804138 9.1461115,53.4369965 8.978776,53.4012108 8.8552189,53.3175278   8.819418,53.1978607 8.8631964,53.0426064 9.0305328,52.8194122 9.138134,52.7236938 9.1821117,52.5563545 9.0665321,52.2853088   8.958931,52.1897888 8.5962372,51.727459 8.0782747,51.4046364 7.9786515,51.3091164 7.855094,51.038063 7.7753158,50.7152824   7.8630643,50.599678 8.329278,50.763134 8.488636,50.7273178 8.5962372,50.635704 8.5843706,50.4562912 8.5244408,50.3247566   8.4168396,50.2171631 8.2574778,49.9820824 8.2376328,49.8026886 8.3532124,49.3166466 8.3532124,49.12537 8.2734337,49.0098076   8.0862532,49.0177765 7.6239276,49.1732292 "></polygon></svg>