<svg height='100px' width='100px'  fill="#000000" xmlns="http://www.w3.org/2000/svg" xmlns:xlink="http://www.w3.org/1999/xlink" version="1.0" x="0px" y="0px" viewBox="0 0 100 100" enable-background="new 0 0 100 100" xml:space="preserve"><path d="M4.644382,30.4382076l-0.1213717-0.2157345l-0.0739551-0.4307976v-0.0134697l0.0134711-0.336771L4.422051,29.1585484  l-0.2154026-0.4650116l-0.1078339-0.1009636L3.5936594,28.053875l-0.0204082-0.3032284l0.0608206-0.255888l0.2894201-0.3837719  l0.2223358-0.1213837l0.2762232-0.0404129l1.0238438-0.3367691l0.2087975-0.1213608l0.3367701-0.3433819l0.5252266-0.8419247  l0.3637118-0.3032169l0.2223406-0.0805569h0.6534638l0.5522351-0.1012993l0.3367701-0.336771l0.1213045-0.2219982  l0.2558784-1.8456459l0.2223358-0.4647427l0.3028908-0.3972435l0.2292061-0.1213818l0.2219982,0.1213818l0.121377,0.2019176  l0.0604792,0.255888l-0.0269413,0.3032284l0.0608206,0.2627468l0.1210346,1.7644062l0.1753225,0.4782143l0.2894201,0.384119  l0.2696857-0.0608196l0.2758818-0.4038544l0.2088652-1.1786957l0.1213722-0.2223358l0.2087975-0.1213722l0.8754673-0.1210346  l0.2088699-0.1213055l0.1213665-0.2154655l-0.0135384-0.2627468L12.90872,22.2748222l-0.7074194-0.5995064l-0.8149166-0.8824062  l-1.2661829-1.1043358l-0.9767733-0.7409611l-0.4377337-0.2628155l-0.2424021-0.0808926l-0.0470181-0.0065327  c0.0874929-0.3571796,0.2624788-0.7206211,0.1749907-1.0843334c-0.0740271-0.3232994-0.3367701-0.7274914-0.0808964-1.0237808  c0.5051546-0.1887932,1.1586237-0.2492771,1.5628147-0.5660429c0.1009636-0.5656509,0.5186262-0.9293623,0.9359512-1.2796593  c0.3367701-0.2492771,0.343708-0.7070827,0.5051556-1.0641937c0.0878296-0.3907204,0.3637791-0.7676334,0.2963572-1.1718245  c-0.0200663-0.4377346-0.1210346-1.1046848,0.3235693-1.3605518c0.4173927-0.2828188,0.8215885-0.6195889,1.2661877-0.8623333  c0.3772497-0.0604954,0.942894-0.5320969,1.0103102,0.1078901c0.0808926,0.2828302,0.1953945,0.4716244,0.45121,0.2358179  c0.3637743,0.0134706,0.6870728,0.296279,1.0573854,0.3097496c0.2962894,0.0270205,0.6195889,0.0404911,0.357111-0.3232212  c-0.1683846-0.3571777-0.4041862-0.6804771-0.5929174-1.023859l0.2022638-0.639987l0.3232365-0.0874367l0.3703079-0.0740108  l0.1753235,0.0066004l0.1749859,0.0338793l0.1818542,0.0670853l0.2223415,0.1282415l0.4241905,0.4038544l0.2088642,0.1013012  l0.2424068,0.0335302l0.1752605-0.0539389l0.0270042-0.020072l1.0641937-0.5525045l0.1615143-0.073966l0.3841209-0.7340803  l0.2288742-0.4176736l2.0745659,0.9024205l0.5860462,0.4581308l0.2085285,0.4242744L23.1059151,9.713376l-0.1818542,0.5252266  l-0.040144,0.3032284l0.040144,0.2558661l0.1213036,0.2223473l0.1683846,0.1614475l0.2693501,0.0808926l0.2427425-0.0808926  l0.1818562-0.1614475l0.2424068-0.4377337l0.2223358-0.8083944l0.2423458-0.4581308h0.3166924l0.2289371,0.1013002  l0.1614475,0.1749191l0.3367691,0.6465979l0.4515419,0.5995073l0.2420712,0.4446821l0.0408154,0.2424068l0.1815205,0.4781351  l0.0604839,0.5591173l0.1552563,0.5051546l0.1144276,0.2019281l0.2019291,0.1348419l0.2696838,0.1009531l1.2057056-0.1144238  l1.2391834,0.1549149l0.4650078-0.2154655l0.2420692-0.4245329l0.1953278-0.5252266l0.2427425-0.3973207l0.1815205-0.2022648  l1.3543549-0.5995178l0.3768501-0.3232994l0.26968-0.4578047l0.4104538-0.9027462l0.1348495-0.5656509l-0.0743637-0.2423954  l-0.1341705-0.1953268l-0.1348419-0.5051551l-0.047348-0.2762861l0.047348-0.6261902l0.1006279-0.5794463l0.3506432-1.0438528  l0.2420044-0.4851508l0.2427444-0.8958087l0.855732,0.128242l0.4308014,0.1884451l0.8551216,0.0875044l0.9030838,0.235795  l1.8989105,1.0842767L41.0695,6.5880713l0.2019348,0.168385l0.5255585,0.4242744l0.6465302,0.0538831l0.3098297,0.0204082  l0.3907204,0.3232994l0.8419228,1.0843325l0.0269432,0.0269413l1.1648865,0.7744923l1.6976585,1.5088768l1.2057037,0.915947  l0.4577446,0.3433704l0.9564285,0.72089l1.2457733,0.9428892l3.0177345,2.7345734l1.1517525,1.2593174l1.5088615,1.1586132  l0.835392,0.7879848l2.6264,2.1485271l0.2019272,0.303215l1.953537,1.7713547l3.1584969,2.1890068l2.6540909,1.4010201  l0.3163605,0.2897663l0.8892822,0.424263l1.2260361,0.5860481l0.1210403,0.0536137l0.895874,0.4311333l0.6735382,0.4176521  l0.8819962,0.188467l0.7545013,0.0134697l0.9563599,0.0204086l0.2966309-0.1753216l0.2157288-0.5251598l0.0401535-0.0944309  l-0.5722504-0.397253l0.0066071-0.1279736l0.2959518-0.1413765l0.3841171,0.1413765h0.0940933l0.3709869-0.02034  l0.1749191,0.1279049l0.3098297,0.2223358l0.6327209,0.7074184l1.7582092,1.9936123l0.471611,0.9494877l0.1210403,0.2627487  l0.3505783,0.2558784l0.7675629,0.1078911l0.4038544,0.1953278l0.9971848,0.9024849l0.0335388,0.4512062l-0.188797,1.0036964  l0.16185,1.2931404l-0.114502,0.4446716l0.0874939,0.4377251l0.9162827,1.7982941l1.6299057,3.7248802l1.1720886,3.6101074  l1.0103149,2.4987564l0.3367691,1.1047516l0.2019348,0.309761l0.444664,0.7005501l0.0940247,0.2624092l0.2158051,0.5995178  l0.0131302,0.0404701l0.2288666,0.3098297l0.5255661,1.0438614l0.236145,0.72089l0.3565063,1.1112633l0.0539474,0.1752663  l0.3972549,0.6735382l0.2762833,0.4712791l0.236145,0.5186806l0.3768463,2.0206223l0.2223434,0.5120354l0.1953278,0.4578056  l0.4308548,0.9833679l0.2828217,0.6330605l0.3979263,1.6032944l0.8689346,1.8252258l0.3499069,0.747551l0.2558746,0.9633102  l0.0065308,1.1786957l0.4315414,1.6364975l0.1144333,1.1921692l0.3163605,0.6735382l0.2289352,0.8353271l0.1749191,0.6331253  l0.0138168,0.9764328l0.7814331,2.074501l0.2558746,0.680481l-0.0065994,0.5051498l-0.0138092,0.518631l0.6531372,1.576004  l0.7412949,1.4210434l-1.4075623,0.1483078l-1.0978012,0.2019348l-2.0679703,0.5255661l-1.4010239,0.5386963l-0.3907318,0.2628174  l-0.3498993,0.3367691l-0.3637161,0.2627487l-0.8557968,0.4847412l-0.2690125,0.0605545l-1.9061203-0.1414413l-0.5124283,0.0808868  l-0.734024,0.5995865l-0.2420731,0.922821l-0.0342178,0.9224777l-0.1341629,0.2627487l-0.4854202,0.5186844l-0.7814484,0.5455704  l-0.7406235,0.235817l-0.8550568,0.1210327L81.548996,88.180809l-0.4512024-0.235817l-0.3032303-0.0604782l-0.4782104,0.1413803  l-0.8886032,0.4578018l-0.5320969,0.1213608l-0.6196594,0.0604935l-0.4176636-0.2423477l-0.3032227-0.3367691l-0.45121-0.282814  l-0.3163605,0.0200043l-0.4584808,0.2022705l-0.2959518,0.356842l-0.3171005,1.0237808l-0.3367691,0.7610321l-0.5991745,0.7274857  l-0.2762909,0.4377365L74.34198,92.5788879l-0.208519,0.4782104l-0.1413803,0.1617889l-0.2223358,0.1414413l-0.5117569,0.1413651  l-0.6195908-0.0200577l-0.5729141,0.1009598l-0.2420044,0.0806274l-0.3775864,0.2966232l-0.1479721,0.1818542l-0.1953888,0.4847488  l-0.1078415,1.2796631l-0.0940933,0.2628021l-0.1821976,0.1617966L69.937027,96.492218l-1.1583557,0.1213074l-0.9228134,0.0404816  l-0.9497604-0.0808945l-0.5452881,0.094368l-0.3907318,0.235466h-0.0065308l-0.2493362-0.1549149l-0.2828293-0.3367691  l-0.1210327-0.2423477l-0.1551819-0.5386887l-0.1815872-0.4446793l-0.3906555-0.5995102l-0.4650803-0.5252228l-1.0103111-0.680481  l-0.4511986-0.5656509l-0.2427483-0.0740128l-0.5452309,0.1009598l-0.2289352,0.1414413l-0.3170357,0.3367691l-0.5248909,0.1414413  l-0.3032227-0.0404663l-2.2968445,0.0740204h-0.0065994l-0.1348457-0.0740204l-0.0940247-0.2424164l0.0466766-0.6195831  l0.1821938-0.5255585l0.2690086-0.3771896l0.2092018-0.1210327l0.3367729,0.0404816l0.4176598,0.2828217l0.5320969,0.1413651  l0.5248909-0.1212997l0.363781-0.3232956l0.3301659-0.4443359l0.424263-1.9265289l-0.0736847-0.8619919l-0.1413765-0.4986267  l-0.3302345-0.9628906l-0.3301697-0.640007l-0.0743599-0.2423935l-0.2755432-0.3841248l-0.4177322-0.2624741h-0.1551819h-0.1618538  l-0.3972511,0.2828827l-0.6327934,0.3433075l-0.5254898,0.1414413l-0.4512711,0.2022629l-0.1821976,0.1345062l-0.4512062,0.6064529  l-0.3637123,0.3163681l-0.1815796,0.1009598l-0.3301735-0.0401459l-0.3499069-0.3167038l-0.1217079-0.2423325l-0.1953278-1.0441895  l-0.3565025-0.6196594l-0.3505783-0.3232346l-0.2894211-0.4041824l-0.3433685-0.3367767l-0.2696877-0.3637772l-0.1953239-0.1413727  l-0.3163643-0.356842l-0.5321617-0.7679749l-0.5729141-0.4377365l-0.4978828-0.2222748l-0.3440437-0.3232956l-0.9964981-1.3402023  l-0.1953239-0.1417084l-0.3032341-0.0200882l-0.2085304,0.1617966l-0.4241943,0.5587692l-0.1822586,0.16185l-0.2690125,0.0404129  l-0.3505783-0.0204086l-0.2558708-0.1209641l-0.5860558-0.3976593l-0.1479759-0.1818542h-0.3236351l-0.3294945,0.3772507  l0.0131378,0.2627335l0.1815147,0.4850922l0.2427444,0.4377365l-0.1079025,0.545639l-0.2690125,0.3972397l-0.242672,0.0809021  l-0.316433,0.0200729l-0.1953278-0.1413879l-0.1953239-0.5590973L45.91185,81.9032059l0.0612259-0.3163605l-0.0138016-1.2461243  L45.851368,79.815506l-0.1210365-0.2157364l-0.1479759-0.1818542l-1.0445251-0.6666718l-0.7406197-0.5995255l-0.403862-0.5995789  l-0.6195869-0.7070923l-0.2092018-0.4377213l-0.0473518-0.2828217l-0.0874939-0.2223358l0.0270119-0.9632416l-0.0874939-0.2357941  l-0.2762871-0.4242706l-0.1611099-0.4377289l0.0131378-0.3232956l0.1479721-0.5591202l0.0204163-0.3232956l-0.0940323-0.5455704  l-0.26968-0.68013l-0.0605583-0.8623352l0.2690125-2.5457764l-0.0604858-0.6064529l-0.0736847-0.2558823l-0.4512024-0.8015137  l-0.8017769-0.8619308l-0.4650841-0.2427368l-0.5452271,0.1012955h-0.316433l-0.222271-0.1012955l-0.1552505-0.2220001  l-0.0874939-0.2426758l-0.1078987-0.498291L38.5641327,64.00737l-0.0138016-0.2828064l0.10783-0.2154655l0.3637772-0.3032379  l0.4781456-0.5455704l0.1210365-0.2153854l0.2558784-0.7679825l0.034214-0.3367691l-0.0808907-0.8619881l-0.0874939-0.2426758  l-0.2157326-0.976429l-0.1013031-0.3302383l-0.2420692-0.4176636l-0.5998535-0.7406235l-0.3973236-0.5860481l-0.2558708-0.72089  l-0.3768501-0.6195908l-0.633461-0.7274895L36.677681,54.699192l-0.1611748-0.4851532l-0.0742912-0.5186234l0.1617813-1.2865295  l-0.0138054-0.3367691l-0.1815186-0.7475624l-1.0241203-1.6230316l-1.1182098-1.5223465l-0.3294945-0.6870117l-0.1079025-0.4982719  l0.0736847-0.6400108l0.3505783-1.3874893l0.047348-0.6600723l-0.0611572-0.2828064l0.0138092-0.5791779l0.1078339-0.6064568  l0.0874939-0.2558784l0.2427406-0.444603l0.1341705-0.5587692l-0.0466766-0.3032379l-0.2828865-0.255867l-0.2762184-0.2022629  l-0.5386963-0.1414452l-0.3032303,0.0204086l-0.2092018,0.1210365l-0.5926476,0.4176598l-0.4512024,0.2022667l-0.3637123,0.2828178  l-0.2960224,0.3772507l-0.2426758,0.4443321l-0.2157345,0.5186272l-0.1618519,0.1213722l-0.3163624-0.0605507l-0.8149834-0.5390358  l-0.7675667-0.3232994l-0.5729122-0.100975l-0.3163624,0.0200844l-0.4242573,0.2427444l-0.1552563,0.1818542l-0.4781456,0.9224815  l-0.2085228,0.1213608l-0.3032341-0.0200615l-1.043848-1.2865295l-0.1617889-0.1414413l-0.5587692-0.801445l-0.8892746-1.1248131  L22.35182,38.7091446l-0.8015118-0.9228172l-1.0237808-0.9629593l-0.3571796-0.2828178l-0.3232994-0.343708l-0.2358055-0.1213074  l-0.5590382,0.1078339h-0.336771l-0.4782124-0.1818542l-0.3903847-0.3028908l-0.4581375-0.2223358l-0.6465359-0.0809021  l-0.2828197,0.0809021l-0.3976574,0.2423973l-0.2693491,0.4176712l-0.329833,0.3433723l-0.4716072,0.2426758l-0.2358112,0.0605507  l-0.3367701-0.0404892l-0.1953945-0.1414452l-0.377182-0.6195793l-0.3634424-0.3232994l-1.8186884-0.3032265l-0.5186262-0.1953278  l-1.0507221-0.6870117L9.938345,34.2907219l-0.0874977-0.2358055l-0.0134706-0.3028908l0.2693539-0.4042015l0.2423344-0.0944214  l0.3032331,0.0608902l0.2358017,0.1144333l0.606123,0.1210327h0.3164244l0.4245329-0.235466l0.2963572-0.4246025  l0.2558832-0.7406235L12.7469358,31.88624l-0.2894201-0.3837719l0.0134706-0.296627l0.4712763-0.9024773l0.0270138-0.3232422  L12.90872,29.3670769l-0.316699,0.0539494l-0.4377289,0.235796l-0.2358112,0.0404129l-0.4712753,0.2424183l-0.7679033,0.2022629  L9.9853535,30.424736l-0.2288637,0.1549149l-0.2223406,0.444334l0.0134706,0.3032169l-0.0874882,0.2558212L9.2782755,31.744875  l-0.2897615,0.0404129l-0.4982176-0.2222691l-0.1618519-0.1414433l-0.4377337-0.5591164l-0.2423396-0.1213608L7.0017729,30.680603  l-0.2762141-0.0808811l-0.1480489-0.1615143l-0.2426767-0.0943737l-0.3028908,0.0200825l-0.8419256,0.1953259L4.644382,30.4382076z"></path></svg>