<svg height='100px' width='100px'  fill="#000000" xmlns="http://www.w3.org/2000/svg" xmlns:xlink="http://www.w3.org/1999/xlink" version="1.0" x="0px" y="0px" viewBox="0 0 100 100" enable-background="new 0 0 100 100" xml:space="preserve"><polygon points="4.8746409,50.519474 6.0948024,50.4443512 6.8075018,50.6885147 8.3646898,51.5042076 8.7018108,51.3920212   9.1241026,50.8854027 9.4621601,50.2474518 9.705761,50.0504723 10.5128241,49.9662476 10.8407516,49.8534889   11.3289862,49.4312096 12.3319988,48.090229 13.0731192,46.9455795 13.280138,46.6923141 13.5704613,46.5237541   13.9552231,46.4954185 14.3775148,46.5796623 15.2586803,47.5364304 15.6342583,47.6679268 16.056551,47.649086   16.2627239,47.3958206 16.412899,46.0547523 16.9570389,45.6604118 17.8849163,45.2665443 19.7335453,44.2910118   20.3619175,44.0660782 20.736557,44.0098 21.599432,44.1224518 21.9750214,44.0660782 22.265419,43.9254723 22.7719421,43.4564667   22.8571148,43.0905495 22.8003654,42.6966782 22.3313599,42.2555351 21.430872,41.7210579 21.2247906,41.4677925   20.736557,40.6049194 20.5680084,39.8729935 20.399437,39.6009674 20.2959843,39.2633705 19.4990425,38.2314758   19.0107155,37.7812309 18.9549046,37.387352 19.0391369,37.0025902 19.2452183,36.7213669 19.4990425,36.5244865   20.1274147,35.6894722 20.380209,35.5205383 20.7557869,35.4646301 22.4999199,35.7178955 23.2409477,36.0178604   23.3637333,35.154995 24.2266064,34.6764221 25.1077728,33.700798 25.5676785,32.21912 25.8579922,32.0501862 26.9087505,31.271534   27.1248665,30.9903297 27.631485,30.5776062 28.2131443,30.2680626 28.8882294,29.5361347 29.0567894,29.2361584   29.6476421,28.9077511 29.85466,28.6544056 30.1917801,29.3675747 30.6698837,29.7893963 31.1957321,30.155304   32.2931175,30.5776062 32.8180161,30.9903297 33.5691757,32.4720078 33.9905281,32.9785347 34.8066902,33.5886154   35.1913681,33.7292213 35.547718,33.700798 35.8014488,33.5039101 36.1293755,32.3597298 36.3455887,32.1064644   36.598381,31.9186764 37.0206833,31.9938011 37.4338646,32.5282898 37.5363884,32.8099709 37.7526016,33.0632362   40.1068153,34.5733261 41.0448227,35.4362106 41.4295006,35.9615784 41.5980606,36.6930466 41.2976189,37.8938751   41.3635597,38.7004814 41.907711,39.5445938 42.7046318,40.5764999 42.8549004,40.9140892 42.9208412,41.242485   42.7046318,42.0022736 42.3767128,42.6118851 42.2457581,42.9778824 42.4142342,43.2591095 42.8365135,43.2591095   43.9247932,43.0341644 44.4497147,42.8560486 45.1440163,42.5088806 45.6505394,42.0865974 46.241394,41.7490082   47.8361969,41.1018677 48.1266022,40.9140892 48.2951622,40.6328621 48.3803329,40.2388992 48.3986244,39.3476143   48.5296669,38.9821663 48.9052544,38.3720856 49.6178513,37.6969986 50.1619873,37.330986 50.7903595,36.5524406   52.0095863,34.4606819 53.022728,33.0632362 53.7363663,31.8532028 54.4956818,30.764925 57.2254753,28.3920441   57.6376381,27.9230404 57.7229042,27.5570183 57.6660576,26.7408676 57.3097115,25.3526154 57.3097115,24.9307919   57.4782715,24.5648746 57.7696152,24.4522095 59.026371,24.5084896 59.8709412,23.9456024 60.7054062,22.9421196   61.3805733,21.7696095 62.2626762,20.7940788 64.7853622,18.749033 64.9924698,18.4769173 65.311203,17.8018322   65.1609497,16.6572723 65.2076492,15.8223515 65.2919769,15.4005289 65.6675568,14.3406725 66.2959366,13.5523701   66.417778,13.1961031 66.2675095,11.7327271 67.2247467,12.2301531 68.6968536,12.4834156 69.1099625,12.9899397   69.6164932,13.1022196 70.0662537,13.4026642 70.6296234,14.2371168 71.7554245,15.118845 73.6314392,16.1507492   77.1956863,17.2389221 77.9926147,17.5952816 80.4319992,18.1861343 81.2005157,18.3739128 83.7425156,19.0307159   84.0621872,19.2931614 84.2774658,19.6870422 84.5211563,20.1656132 84.5211563,20.1748066 85.3088989,20.718935   86.1911087,21.1036224 86.7351532,21.4036808 87.4853592,22.2761345 89.2304306,24.8273296 90.2151642,25.1557159   92.2697678,26.1967297 94.5113297,26.778389 94.9894333,26.8627148 95.0087509,26.8627148 94.6331863,27.7819633   94.1082687,30.2396412 94.1641846,31.0182705 94.5864639,31.9470978 94.5021362,32.3597298 94.3802872,32.7252693   93.7042618,33.9540634 92.3439636,35.9428177 92.2130203,36.2990837 92.0911865,37.171608 92.2597275,38.2878418   92.7387695,40.0135994 92.7571716,40.4358788 92.5509796,41.1957703 91.772438,42.3118973 91.6881104,42.7245369   91.7155914,43.1468315 91.7531128,43.5123711 92.2789612,44.3472939 92.3815765,44.6848831 92.2972488,45.1071625   91.960228,45.6604118 91.9876175,46.13908 92.2972488,46.7207375 92.6160812,47.6679268 92.7854843,47.9774704   93.601738,48.5683327 94.4179001,48.7373619 96.2279739,48.9343452 96.5,49.0937004 96.5,49.5160027 96.2462692,49.769268   94.8392563,50.6600914 94.2108841,50.9133568 92.7387695,51.1950378 92.2322464,51.6168633 91.6881104,52.4797363   91.1906967,52.9020195 90.5999222,53.2304268 90.0933075,54.1024933 89.6334915,54.5714951 89.0893555,54.9374962   88.0386887,55.1907578 87.7391815,55.3597984 87.653923,55.7724304 87.7665787,56.5601692 87.6823425,56.926178   87.4670715,57.1697807 86.7535248,57.3387985 86.2945557,57.3108559 86.0408249,57.5078392 85.8722687,57.8170052   85.6185379,58.042305 85.1596603,57.9860268 84.2866592,57.6200256 83.8744049,57.4514656 82.2136536,56.6444969   81.0787582,56.3069077 80.7041168,56.3632698 80.113266,56.7007751 79.6533585,57.141922 79.2310791,57.7048225   79.109314,58.042305 79.0899963,59.3554344 79.3438187,61.6162224 79.6717453,63.5485229 79.5874176,64.8616333   79.3438187,66.0905228 79.2971039,66.5595322 79.2971039,66.9813538 79.4655838,67.6756592 79.7844009,68.2665176   80.1975021,68.7731247 81.8197861,70.3019028 83.9211273,71.6998215 82.2796097,72.4312744 81.1914139,73.1535416   79.9721909,74.2134018 79.4280624,74.5793152 79.1276093,74.7199249 77.9550934,74.8889465 76.3420105,74.9731903   75.6201096,75.1985931 75.0384521,75.4985657 73.8182907,76.5959473 73.2650528,76.9527588 72.3837967,77.4030075   72.054924,77.4872284 71.14534,77.4030075 70.7890015,77.2902451 69.9545364,76.7557831 68.5475235,75.3675308   68.2278519,75.1985931 67.8064957,75.2264481 67.515152,75.3675308 67.1120911,75.8924408 66.9710159,76.2867737   66.6146622,77.796875 66.2776337,78.4064789 65.771019,78.8850632 64.4666214,79.3912125 63.6696892,79.4099731   62.5530853,79.5789871 60.8364334,79.5789871 59.0080681,79.4099731 58.6324883,79.4663467 58.2761383,79.6352692   58.0791588,79.8322525 58.0041161,80.2545547 57.6193581,80.807785 56.5310669,81.0327225 56.2306252,81.2017441   55.6874237,81.5676727 54.7393761,82.5148697 53.9048424,82.9934464 53.520153,83.0498199 53.0602493,82.9934464   52.666378,82.9087448 52.347641,82.740181 51.8877373,82.2899399 51.1943626,81.0890045 50.9873428,80.8641663   50.6218109,80.751503 49.2808228,81.2017441 48.0047684,81.1738052 46.1662712,80.9393005 45.8383293,80.8357468   45.5845985,80.6484222 45.3318062,80.423111 45.1623077,80.1418991 44.9937592,79.4099731 45.0404587,78.9693909   44.9095154,78.2094955 44.4120865,77.796875 44.0274124,77.6842117 42.6671104,77.5436172 42.2457581,77.5714722   41.4295006,77.4030075 38.3434525,76.174118 37.7049484,75.8365326 37.4146461,75.5832672 36.645092,75.3391876   34.8726425,74.8046265 34.2625504,74.4666672 32.4991875,73.8291016 30.9419994,72.9849854 29.4973717,71.6998215   28.8690014,71.3714142 28.5126514,71.2587662 26.7025852,71.1464844 26.1777592,70.7241898 25.1453876,70.2740479   23.8693199,70.1709595 23.0723877,70.2551804 22.0592442,70.5835876 20.8207912,71.1744308 20.0614834,71.2870941   19.2919312,71.09021 18.3640518,70.5835876 18.0920296,70.3867035 17.8382034,69.9176941 17.3783932,70.3957977   17.3133888,71.2023926 17.1438904,71.540451 16.6850166,71.9810333 16.4311905,72.7129593 15.2780027,73.857048   14.9024343,74.4386978 14.6679325,75.1422043 14.6679325,75.5645065 14.9399548,76.2020721 15.362236,76.6806488   16.4505138,77.4592896 16.769249,78.0501404 16.7875404,78.4627609 16.7033081,79.3912125 16.8626747,80.0855179   17.1438904,80.7327423 16.5530376,81.0327225 15.7561064,81.0327225 15.3430071,81.117424 14.4617472,81.0890045   11.9573574,80.6484222 11.2813349,80.3667374 10.0713034,79.2790222 9.8743219,78.9973373 9.1809454,78.2938309   8.8520794,77.7684555 8.4114132,76.3711014 8.2429371,75.2548752 8.0551472,74.4950867 7.9424086,74.1666794 7.7739325,73.8854752   7.3607392,73.3788528 6.7882724,73.0129242 5.7568479,72.8347092 7.2297931,71.6154938 7.6520848,71.09021 7.586143,70.7241898   6.9576769,69.9739761 6.8917351,69.6080627 7.1262369,69.3827515 8.13939,69.0451508 8.7210398,68.7451859 9.2651787,68.3228836   9.6022987,67.6756592 9.5839243,67.2909927 9.2651787,66.7001266 9.1433315,66.3062668 9.3494215,65.0773697 9.4154472,64.1581268   9.3119011,63.8206367 9.1433315,63.5485229 8.0551472,62.7603149 7.8389363,62.5070496 7.7363181,62.1791229 7.7546091,61.3065758   8.0084343,60.5843086 8.1952858,59.768158 8.3646898,58.4833679 8.2804565,57.6484451 8.1109591,56.98246 7.088717,55.2750015   6.8075018,54.656292 6.7231746,53.9056053 6.4136319,53.2868004 6.2450714,53.0426369 5.1944079,52.2264748 4.5659418,51.4762459   4.5,51.1103363 4.5467129,50.9792976 4.6310396,50.7447968 "></polygon></svg>