<svg height='100px' width='100px'  fill="#000000" xmlns="http://www.w3.org/2000/svg" xmlns:xlink="http://www.w3.org/1999/xlink" version="1.0" x="0px" y="0px" viewBox="0 0 100 100" enable-background="new 0 0 100 100" xml:space="preserve"><path d="M12.012537,59.4752541l-0.097043-0.7623215l-0.0598621-0.4895096l-0.4185495-0.6389809l-0.6988049-0.7922211  l-0.0222702-0.2353745l0.0485401-0.1793633l0.0895691-0.0859451l0.6652479-0.2054443l0.2653074-0.082283l0.2802534-0.2988625  l0.3997545-0.433506l0.4709387-0.1494217l0.4820375-0.0823212l0.4446316,0.2616386l0.3287945-0.0038033l0.2839155-0.1456223  l0.3514013-0.5418968l0.2129183-0.0448799l1.341445,0.2653084l0.4521065,0.4185486l0.6278439,0.2353783l0.2913895-0.0074768  l0.1271591-0.0036697l0.3811836-0.1756897l0.3847694-0.0820961l0.1195374-0.2541733l-0.1007404-0.2877274l0.0522003-0.2727814  l0.1943111-0.2279091l0.1607533-0.0260735l0.6128597-0.1008911l0.6165199-0.1793633l0.2018204-0.1906853l0.070961-0.34375  l0.2952003-0.3287849l0.0410671-0.2056313l0.026083-0.1195068l0.2466984-0.1831665l0.4410076-0.1344872l0.6051979-0.3400764  l0.2391872,0.0448761l0.6988049-0.0485458l0.5605068-0.2765846l0.3475914,0.1346321l0.3099976,0.119503l0.1718884-0.1083679  l0.3364544-0.5006447l0.1569061-0.067337l0.1755123-0.0671463l0.044878-0.0711479l0.100893-0.1605682l0.1158752-0.1868362  l0.5119667-0.1494293l0.1979713-0.3215065l-0.0560131-0.3548775l0.1569061-0.5419006l-0.4296856-0.7434921l-0.033556-0.4110794  l-0.1084023-0.1458054l-0.142107-0.1904602l0.0748081-0.4260712l0.5418987-0.3101463l0.1569061-0.5754852l0.1494312-0.1457672  l0.2988625-0.029747l0.089756-0.1158752l0.0485401-0.0673065l0.0972672-0.6278343l0.2877274-0.3661995l0.3848076-0.4333458  l0.0560131-0.2691193l-0.1158752-0.3101845l-0.3548775-0.0934181l-0.4296856-0.3473663l-0.5605068-0.2242393l-0.4110775-0.3287964  l-0.4634266-0.661396l-0.0859451-0.1197243l-0.0784721-0.2054558l-0.1083641-0.2877274l-0.029932-0.0859451l-0.1156883-0.0560036  l0.1270123-0.1122131l0.2764034-0.1233139l0.100893-0.0859413l0.2092934-0.3362694l0.0673351-0.3101845l0.2092571-0.3661995  l0.1979713-0.1680412l0.2766285-0.1008911l0.1755142,0.0111351v0.1906471l-0.1755142,0.5680199l0.033556,0.1419144  l0.1195011,0.0673409l0.6092339,0.1680412l0.6688728,0.2990494l0.3099976,0.0671501l0.3775215-0.0111351l0.4931717-0.089756  l0.1344852-0.0522041l0.3924675-0.3475494l0.3362675-0.4222145l0.3586884-0.2206154l0.5269527-0.067112l0.627655-0.1346703  l1.7302151-0.212925l0.3512497-0.0673294l0.2614594-0.0859451l0.2355614-0.1455803l0.4745636-0.4784126l0.3922806-0.1793633  l0.3512154-0.2428589l0.6949921-0.8033485l0.3026772-0.2652702l0.1346703-0.0784683l0.3174706-0.0562019l0.683857,0.1008911  l0.2765923-0.1120338l0.3213196-0.2577896l0.2317162-0.1419563l0.1419563-0.0448799h0.5865898l0.4933586,0.0895691  l0.7435341,0.2317162l0.4709015,0.1122131l0.3587265,0.0335922l0.64645,0.134449l0.2727432,0.1083908l0.1009293,0.1120377  l0.2353401,0.1682167L42.5715446,38.4487l0.3698616-0.022419l0.2167282,0.022419l0.7435341,0.1757393l0.5530319-0.0562019  l0.3026733-0.0859413l0.3775215-0.2016335l0.3101845-0.2579842l0.4745636-0.2988701l0.6351318-0.3101768l0.4110756-0.1569138  l0.6128616-0.1793633l1.0425797-0.0897484l0.2017822-0.1195068h0.0596771l0.4745636-0.6689034l0.4185486-0.3326035  l0.0859451-0.1008949l0.1419601-0.4222107l0.026268-0.3474007l-0.026268-0.1532898l-0.0522041-0.1233101l-0.3326035-0.4557991  l-0.1196899-0.2242393l-0.0297432-0.1569061v-0.377491l0.1494331-0.5680122l0.2988625-0.635128l0.0859451-0.2990494  l0.026268-0.34375l-0.059864-0.1233406l-0.1756973-0.2129192l-0.6688728-0.2990494l-0.3362694-0.2577953L48.65485,30.5342922  l-0.041069-0.1569424l-0.033741-0.1455822l0.026268-0.1757088l-0.0598221-0.313839l-0.2503624-0.6763477l-0.0598259-0.3138466  l0.011322-0.1868362l0.0820961-0.2915459l0.0149498-0.3661995l-0.1494331-0.5679817l-0.014946-0.3437786l0.022419-0.3475437  l-0.089756-0.4670887l-0.0596733-0.1233501l-0.1346359-0.4446697l-0.0560112-0.3101482l-0.0522041-1.0013275l0.0596771-0.1084118  l0.3326035-0.6314602h-0.0038109l0.2355614-0.2841015l-0.0075111-0.1904602l-0.018795-0.6689186l0.1197243-0.1868362  l0.119503-0.4446239h-0.041069l0.6389809-0.8146801l0.3474007-0.2054443l0.8146439-0.0224209l0.5194778-0.0149918  l1.0799484,0.0448856l0.2764435-0.2652702l0.4072304-0.683857l0.1308212-0.4110851l0.4858856-0.4820366l0.0859451-0.287756  l-0.2355652-0.6800079l0.003849-0.3251419v-0.0523415l0.1829872-0.4184017l0.4559555-0.5343876l0.0260811-0.0335941  l0.739872-0.3475971l0.9117584-0.0186005l0.3026772-0.1308231l0.2616425-0.6239939l0.2764435-0.2727814l0.5942497-0.2242403  l0.1233482-0.1682272l-0.0859413-0.6575499l0.4108887-0.7026529l0.033741-0.1943102l-0.4446297-0.5417118l-0.0374069-0.0448866  L56.77108,12.2057476l-0.164566-0.5344172l-0.1569061-0.2428493h-0.0036621l-0.6053848-0.5754929l-0.7659531-0.4969835  l-0.026268-0.0671492l-0.0186081-0.0598621l0.2577934-0.2614584V9.9637156l0.0224609-0.0224495l0.3026733-0.3063364  l0.5231018-0.7698097l0.1569061-0.1269655l0.1832123-0.1532888l0.3063354-0.0448694l0.1643791,0.0748091l0.3512497,0.1568966  l0.773613-0.0260735l0.3736725-0.1682358l0.5827789-0.5904307l0.4148865-0.8631821l0.5791168-0.2315645l0.4559555-0.5904016  l0.8593712-0.3401251l0.4709396-0.2428408l0.1344833-0.2428493l0.126976-0.2317142l-0.1158752-0.4036117l-0.3922844-0.1233406  l-0.2391853-0.1233487l-0.0970802-0.0485115l-0.0672989-0.1904893l0.0410309-0.1008916l0.0709953-0.1607623l0.2877274-0.2952011  l0.7176018-0.2129467l0.6539268-0.4335058l0.2353745-0.1158669l0.014946-0.0074732L63.328949,2.946239l0.0748062-0.0224576  l0.8818283-0.2802541l0.3698273-0.2056315l0.1868362-0.0410383l0.2691193-0.0635242l0.6689072,0.0186179l0.1718521,0.1047401  l0.3698578,0.5380878l0.104744,0.4110765l-0.041069,0.2428493l-0.067337,0.3922806l0.078476,0.1943097l0.1194992,0.2952008  l-0.0074768,0.1270113l-0.2390366,0.814642L66.4228745,5.89821l0.0972672,0.1532431l-0.0560074,0.4147387l-0.1644211,0.41855  l-0.0487213,0.5753055l-0.205452,0.3364539l-0.2616425,0.2503233l-0.2838745,0.6688728l0.0186081,0.2988625l0.4410019,0.6763754  l0.1904602,0.2877274l-0.1083603,0.5605078l0.082283,0.1008911l0.582962,0.5231123l0.4185486,0.3101768l0.926712,0.3736715  l0.3960876,0.2093019l0.2465134,0.2689323l0.3214722,0.4596167l0.4072647,0.5829277l0.2877274,0.4970217l0.3997498,0.3924675  l0.0262756,0.1868362l0.0111313,0.0671482l0.1868362,0.2802544l0.0374069,0.0560131l0.1308212,0.1943092l0.2988663,0.3251324  l0.1793594,0.3775206l0.4670868,0.070961l0.4895477,0.0149841l0.3063354,0.3398924l0.829628,0.1868362l0.1868362,0.2505093  l0.2129288,0.0222702h0.00383l0.2689438,0.029932l0.6614075-0.1904984l-0.1045456,0.8743458l-0.0113144,0.34375l0.0859375,0.646452  l0.1831818,0.736208l0.033577,0.3212833l-0.033577,0.3550644l-0.082283,0.2913895l-0.0596619,0.1083927l-0.1682281,0.2353477  l-0.4185562,0.332634l-0.0671463,0.1120358l-0.2167587,0.1793613l-0.4670868,0.4895115l-0.2840881,0.2430363l-0.4707413,0.5231037  l-1.0874557,1.0275974l-0.5417099,0.5979118l-0.4035721,0.3587265l-0.0823135,0.1083641l-0.1083679,0.2689323l0.0224533,0.7024651  l0.2840729,0.6427822l0.0859375,0.1120358l0.0485458,0.1233482l0.1083603,0.4446697l0.0186081,0.3325977l-0.0671463,0.5156384  l-0.026268,0.1757011l-0.1008911,0.2353668l-0.1643829,0.2541809l-0.3437729,0.2353287l-0.3026733,0.2653084l-0.1569061,0.2242489  l-0.0598602,0.1120262l-0.0260849,0.1532803l-0.0074768,0.3698235l0.0335617,0.1421452l0.1158752,0.2689304l0.612854,0.8781586  l0.1158752,0.2691269l0.3026733,0.4557686l0.1755142,0.2092857l0.3700485,0.1607609l0.5081177,0.0859451l0.2503662,0.1344395  l0.2017822,0.1868362l0.0897522,0.2802544l-0.0224152,0.153286l-0.2952423,0.6575508l-0.014946,0.1682281l0.0895691,0.2764435  l0.0934219,0.089756l0.1607513,0.0448761l0.4335251-0.1457672l0.1755219-0.0074768l0.0748062,0.1083679v0.1793594  l-0.1083755,0.4557686l0.0186081,0.1682205l0.149437,0.2204361l0.1008987,0.1008911l0.0561905,0.1233406l0.0111313,0.1682358  l-0.1008987,0.085907l-0.1494293,0.0335846l-0.4371796-0.1532707l-0.0822754,0.1084023l0.0748062,0.3026733l0.11586,0.2541733  l0.0934143,0.0895691l0.4857025,0.3027115l0.3401031,0.4335327l0.1008987,0.0895691l0.1083755,0.2541656l-0.0412369,0.1569138  l-0.1008987,0.089756l-0.1569138,0.2092934L73.3246841,37.75737l0.0335693,0.1122131l0.11586,0.0784721l0.1569138,0.0335579  l0.0634995,0.1344833l0.0299149,0.2877274l-0.0820999,0.1122131l-0.0262756,0.1644173l0.1346512,0.2466583l0.1008987,0.0895996  l0.1830063,0.366169l0.0149612,0.3550644l-0.0485306,0.1456184v0.1793633l0.1829987,0.3663483l0.1943207,0.1904907  l0.3512268,0.23172l0.2505188,0.1233482l0.6090393,0.1755142l0.34375,0.2353783l0.1607437,0.2242393l0.1083755,0.2541733  l0.1082001,0.444622l0.0748062,0.1120338l0.0335693,0.1458015l0.2092819,0.3550682l0.0748062,0.2913551l0.0260925,0.3326416  l0.0748062,0.2877274l0.059845,0.1344757l0.283905,0.2802544l0.11586,0.0784416l0.1755219,0.1981583l0.059845,0.1344833  l-0.2017975,0.1008949l-0.2167587,0.1643677l-0.3587112,0.2129288l-0.2952118,0.0897903l-0.3736725,0.0111351l-0.3512344-0.0335999  l-0.3176498,0.0673447l-0.3025208,0.2653084l-0.5119705,0.2689285l-0.1008987,0.0859451l-0.0224457,0.1457634l0.7362137,0.4222183  l0.089592,0.089756l0.0186081,0.1680412l-0.0596619,0.1346703l-0.23172,0.1306381l-0.287735,0.1122131l-0.4670944,0.2802544  l-0.283905,0.2764053l-0.1008911,0.1233482l-0.0822906,0.2877274l-0.0260925,0.3475876l-0.0673294,0.3101883l-0.082283,0.1120186  l-0.1195145,0.0673409l-0.1419449,0.056015l-0.3661957,0.011097l-0.3362656-0.0560112l-0.11586-0.0784416l-0.1532516-0.2242355  l-0.1419601-0.4110756l-0.1756973-0.3661995l-0.1494293-0.2465096l-0.0934219-0.2541428l-0.2988586-0.4557953l-0.2092972-0.179512  l-0.762291-0.2129555l-0.80336-0.1755142h-0.3924637l-0.3362656,0.0446892l-0.1158752,0.0562019l-0.2017822,0.1755409  l-0.2018204,0.358696l-0.1008911,0.3101768l-0.0149536,0.5344353l-0.1007385,0.2764053l-0.1570892,0.2131042l-0.2913895,0.2353745  L67.727066,48.676178l-0.0448761,0.145771l-0.2317123,0.3213196l-0.041069,0.1457672l-0.0111008,0.1904907l0.059639,0.1195107  l0.0934219,0.0786209l0.4484787,0.1344833l0.0934219,0.1120262l0.0598602,0.2990494l0.0746231,0.1231613l0.0337372,0.157093  l-0.026268,0.1419563l-0.2764053,0.3026772l0.0335541,0.1344757l0.1419601,0.0784721l0.4036026,0.1308289l0.1158371,0.0895691  l0.041069,0.145771l-0.041069,0.1344833l-0.082283,0.1196861l-0.1868286,0.1793633l-0.041069,0.1904984l0.2503586,0.5008316  l0.3026733,0.2539864l0.2766342,0.1122131l0.1158371,0.078434l0.0746231,0.1120262l-0.0224228,0.1644173l-0.0596771,0.1122131  l-0.2017822,0.2017822l-0.0299301,0.1644173l0.0410309,0.2913513l0.0897903,0.2541695l0.3623505,0.5791168l0.885643,0.6577759  l0.1008911,0.0895691l0.1494293,0.2428513l0.1270142,0.4260521l0.0337372,0.3437462l0.149437,0.2205811l0.2839127,0.2578316  l0.1346359,0.2464752l0.0485382,0.3101845l-0.014946,0.1682281l-0.0260849,0.1643715l-0.1083984,0.168232l0.0934143,0.0895996  l0.056015,0.1308327l0.067337,0.4820366l0.1680374,0.3886566l0.1344833,0.2315254L71.9944,59.8078651l0.5269241,0.2129211  l0.1755219-0.0224228l0.2766037-0.1009293l0.4072418-0.1569023h0.1607513l0.1083755,0.0784683l0.0746231,0.1122169  l0.0934219,0.2764015l0.11586,0.067337l0.1457825,0.007473l0.1904831-0.1981583l0.0748062,0.1122131v0.1793633l0.11586,0.0784721  l0.1158676-0.067337l0.0596619-0.134491l0.0859375-0.1008911l0.1308212-0.022419l0.2205887,0.0598297l0.2652969,0.119503  l0.1530762,0.0335922l0.175705-0.0111427l0.4335175-0.1344795l0.2165756-0.1643753l0.0859375-0.1122169l0.2915726-0.0784683  l0.1008987-0.0895691l0.0820999-0.2990494l0.059845-0.1233521l0.1831894-0.2017822l0.1605606-0.0335922l0.5419006-0.022419  l0.7883911-0.1644173l0.4260406-0.1344452l0.0260925,0.1233482l-0.1530838,0.5791092l-0.0972443,0.8445816l0.0149612,0.1569023  l0.0748062,0.2764435l0.1269913,0.2577972l0.2913818,0.2877274l0.4185562,0.1569405l0.5119858,0.0786209l0.3512192-0.022419  l0.4596176,0.1120186l0.2353745,0.1532516l0.3586884,0.3922806l0.1496201,0.2204285l0.0522003,0.1346321v0.1868362  l-0.1830292,0.3811455l-0.0448761,0.1419525l0.0523529,0.2913971l0.0746231,0.1122131l0.1832123,0.2092934l0.7883682,0.7360229  l1.4461899,1.1808319l0.1680374,0.2204361l-0.0261154,0.1682281l-0.0598297,0.1344452l-0.2428513,0.2990494l-0.0485382,0.3437805  l0.0335541,0.1569061l0.1158752,0.2353668l0.3700104,0.5568542l0.1755524,0.2091064l0.1083679,0.0897522l0.2503204,0.134491  l0.9117584-0.0335999l0.8781662,0.11203l0.3625412,0.2092972l0.1643753,0.1906433l0.1532822,0.2539825l0.3661957,0.8931503  l0.1194992,0.4221802l0.1008911,0.6464539l0.1083679,0.2653046l0.056015,0.1233521l0.0934143,0.1008911l0.3251724,0.2428436  l0.1680374,0.1906433l0.0074768,0.3437805l-0.2054443,1.4871826h0.0038071L88.5704193,74.29879v1.416214l0.0487213,0.4784164  l0.0596771,0.3025208l-0.0186081,0.1981201l0.0335541,0.145813l-0.041069,0.1643753l-0.0822754,0.1568985l-0.1605682,0.145813  l-0.3512192,0.209259l-0.3775177,0.1904907l-0.6351318,0.1233521l-0.4670868-0.1233521l-0.2691193-0.1233444l-0.1494293-0.0335541  l-0.3437424-0.2541733l-0.0523529-0.1233444l-0.0149841-0.168045l0.0074692-0.3661957l-0.0934143-0.2802582l-0.0897522-0.1083603  l-0.2091141-0.1569061l-0.1346283-0.0561981l-0.1755142-0.0222702l-0.5419006-0.0113297l-0.4632797-0.1233063l-0.2654572-0.1084061  l-0.5118179-0.4371567l-0.1494293-0.2203903l-0.5269165-0.6015778l-0.1344833-0.0561981l-0.6763458-0.1120377l-0.2877655-0.298851  l-0.1421051-0.3775253l-0.149437-0.0448761l-0.8781662,0.0561981l-0.1494293,0.0335999l-0.1270142,0.0634766l-0.0748062,0.11203  l-0.1083679,0.4784164l-0.1008987,0.2689285l-0.5605087,0.556839l-0.3362732,0.23172l-0.0746231,0.11203l-0.0412369,0.1458054  l0.0487213,0.1233521l0.5043106,0.2652664l0.0897675,0.1008911l0.22789,0.1456223l0.1346512,0.2430344l0.0485382,0.3138046  l-0.0149612,0.5530319l0.0485306,0.3251419v0.1680374l-0.0260925,0.3326416l-0.1083755,0.2877274l-0.0748138,0.0897598  l-0.2578125,0.1231613l-0.1682205-0.0222702l-0.1156769-0.0786209l-0.1682281-0.1979752l-0.175705-0.0224533l-0.6800156,0.0748062  l-0.5419006,0.0224609l-0.1344681,0.056015l-0.1008987,0.0895691l-0.0596695,0.1233444l-0.1308136,0.6240005l-0.1196976,0.2541656  l-0.1829987,0.2018204l-0.2503357,0.1308289l-0.3026962,0.2577972l-0.2578125,0.4895401v0.168045l-0.0859375,0.1122131  l-0.175705,0.0111008l-0.1494293-0.0448837l-0.0934219-0.11203l-0.0410461-0.1457672l0.0074768-0.1680374l0.1269913-0.4335403  l-0.0149612-0.1643753l-0.0784607-0.1344833l-0.1643906-0.1793594l-0.1532669-0.2205811l-0.1344681-0.2689285l-0.0897751-0.2541809  l-0.276413-0.2802505l-0.3027039-0.6464539l-0.2988663-0.2877274l-0.2505112-0.1344757h-0.1793518l-0.2652969,0.1120224  l-0.1755219,0.0335922l-0.3700256-0.0111389l-0.6165237-0.1793671l-0.4782257-0.0784225l-0.5605087-0.007515l-0.2765961,0.0859375  l-0.1158752,0.0896149l-0.0598221,0.1122131l-0.1082153,0.2877274l-0.014946,0.1457748l-0.1868362,0.3997421l-0.026268,0.145813  l0.153244,0.2240601l0.0598602,0.1308212l-0.026268,0.1569061l-0.0596771,0.1346664l-0.3774872,0.5791092l-0.1569366,0.1981277  l-0.3362656,0.2353821l-0.1981277,0.0299301l-0.5192871,0.0036545l-0.5194397,0.056015l-0.7362137,0.0224228l-1.1732178-0.2017822  l-0.1756973,0.011322l-0.1569061,0.0335464l-0.3362656,0.2353821l-0.2691193,0.1083679l-0.1755524-0.0224228l-0.1308212-0.0671463  l-0.153244-0.2206116l-0.0896072-0.0895691l-0.1756973,0.0224533l-0.2017822,0.1793289l-0.5455627,0.3886566l-0.1419601,0.2315216  l-0.082283,0.3139954l-0.1755142,0.3886566l-0.0859451,0.1008911l-0.1308212,0.056015l-0.3437424,0.0335541l-0.1008911-0.0895691  l-0.1496162-0.2467041l-0.1680412-0.1868362L62.42836,81.3463593l-0.6015739-0.179512l-0.1083641-0.0671539l-0.2353745-0.1532745  l-0.2841034-0.2802582l-0.72855-0.3886185l-0.1906471-0.3138504l-0.1084023-0.1532364l-0.2092552-0.1456223l-0.1755524-0.0224228  l-0.2353401,0.1120224l-0.1346703,0.0784378l-0.1008911,0.1009216l-0.2913895,0.4446411l-0.1682281,0.4222107L58.773922,81.458374  l-0.0784683,0.1120377l-0.2840652,0.1083984l-0.1084023,0.2577972l-0.0260849,0.1570892l0.0186119,0.3548813l0.0598602,0.1233444  l0.4670906,0.4670868l0.1494331,0.2428589l0.041214,0.1233368l-0.022419,0.1682358l-0.1346741,0.2539825l-0.1605644,0.2131119  l-0.1981583,0.3548737L58.22089,84.6869812l-0.1158752,0.0671539l-0.4634285,0.097229l-0.1344872,0.0560074L57.309166,85.086731  l-0.1757355,0.2428589l-0.2614594,0.4709396L56.69627,86.1778259l0.0186081,0.1644135l0.1084023,0.2691193l-0.0186081,0.1793594  l-0.056015,0.1083679l-0.1009254,0.0895691l-0.2503242,0.1233444l-0.2765923,0.2242355l-0.059864,0.0111465l-0.3099976,0.2541656  l-0.2167282,0.3437424l-0.3700485,0.3811493l-0.4820366,0.0897903l-0.1194992,0.085907l-0.07481,0.11203l-0.0261192,0.1458054  L54.48032,88.928009l0.1009293,0.0859451l0.1346359,0.0562057l0.2091064,0.1904602l0.0487251,0.1122131v0.1755142  l-0.0412521,0.1569366l-0.3512154,0.7810898L54.540184,90.628334l-0.0111351,0.3473969l0.1194992,0.2765884l0.067337,0.5006485  l-0.2205811,0.3475876l-0.0410652,0.1195068l0.0410652,0.1569443l0.0934181,0.0897446l0.2503242,0.1419678l0.1496162,0.2131042  l0.0335579,0.1455841l-0.014946,0.1793594l-0.041069,0.1084061L54.62994,93.8904877l-0.4522934,0.6464081l-0.3324547,0.2353821  l-0.1943092,0.011322l-0.1682281-0.0374069l-0.5342407-0.2092972l-0.3251305-0.0560074l-0.1757011,0.0111389l-0.1344833,0.0560074  l-0.3101501,0.2877274l-0.1158752,0.2355652l-0.0260811,0.1680374v0.1868362l0.0598259,0.1233444l0.0746193,0.1120377  l0.4185905,0.1532745l0.1158371,0.0784378l0.0934181,0.0897903l0.0149841,0.168045l-0.0562019,0.1457596l-0.1755486,0.175705  l-0.134449,0.056015l-0.2092934,0.0335846l-1.0985565-0.2018127l-0.9341812-0.0224152l-0.3512535,0.0337372l-0.3176575-0.3661957  l-0.2355232,0.1456223l-0.4782257,0.0897522h-0.3848076l-1.0389214-0.1233521h-0.3848076L46.4389,95.7400513l-0.5342407-0.4147415  l-0.2877274-0.0859451l-0.5008316,0.0748138l-0.2240524,0.1344757l-0.2952385,0.2691269l-0.2765923,0.4782181l-0.0746231,0.2877274  l0.0746231,0.3027191l0.0784721,0.1083679l0.2840652,0.0895691l0.0896034,0.0897903l-0.0560112,0.1344452l-0.6389809,0.1233444  l-0.2839165,0.0859451l-0.048687,0.0036697l-0.0036621-0.0596771l-0.2317162-0.3401184l-0.3625336-0.3960876l-0.3661995-0.4931717  l-0.2503242-0.2653122l-0.1045532-0.3999405l0.1680412-0.4632874l-0.1718903-0.4895096l0.3736725-0.6389771l-0.0335541-0.0747986  l-1.3713417-0.209259l-0.2242393,0.3214722l-0.1718903,0.6315002l-0.6090469,0.1233139l-0.6239929,0.007515l-0.2915764-0.1383438  l-0.1008911-0.0373993l-0.041069,0.0934219l-0.07481,0.0224457l-0.795845,0.2242508l-0.3027115,0.3063354l-0.5530357-0.1308212  l-0.1045532,0.0299301l-0.3886185,0.3287964l-0.8595581,0.4784088l-0.4931717-0.1009369l-0.3512497,0.0821457l-0.3026772,0.4895096  l-0.6501122-0.2278748l-0.1757011-0.2503586l-0.2877274-0.0260773l-0.8332901,0.4333496l-0.2952003-0.5567017l-0.1607513-0.5643158  l-0.0895691-0.0859451l-0.8332901,0.0634842l-0.5904388-0.1494293l-0.3101864,0.3362656l-0.2428493-0.070961l-0.4371586-0.3138504  l-0.3213196-0.1233139l-0.2280521-0.3287888l-0.1158752-0.4072647l-0.4782257,0.0222702l-0.4446335-0.2278976l-0.4222107-0.358696  l-0.067337-0.3997498l-0.1120262-0.1346664l-0.825964-0.2091064l-0.3736725,0.1644135l-0.2503223-0.0149841l-0.6015759-0.440979  l-0.5979118-0.2877579l-0.8070202-0.5380554l-0.4895096,0.1419601l-0.1008911-0.041069l-0.4298725,0.201828l-0.4296856,0.0485001  l-0.3512516-0.1308212l-0.3474026-0.3886185l-0.2952003-0.6650696l-0.0859451-0.3437347l0.0147972-0.5119705l-0.0821323-0.2129135  l-0.2988644-0.2578354l-0.4260216-0.0448761l-0.3437424-0.6165237l0.026083-0.2505112L20.722868,88.259285l-0.3326054-0.2579803  l-0.3698597-0.4446335l-0.1831741-0.7249222l-0.4596176-0.1680374l-0.5605068-0.3588791l0.2353745-0.4558105l0.0149479-0.8071594  l-0.059639-0.855751l0.1120281-0.1755142l0.3736706-0.2131042l0.1718521-0.014946l0.7772751-0.0297394l0.022459-0.1308289  l-0.2877655-0.3251343l-0.5044937-0.4596176l-0.3026752-0.586586l-0.1494312-0.2392273l-0.6239948-0.3101807L17.879261,80.38591  l-0.104702-0.6725388l0.5119686-0.5419006l0.3362675-0.5380554l0.4410076-0.0859451l0.3661594,0.0074768l0.3623886-0.4931641  c0,0,0-0.0038528,0.2877274-0.2131119l0.1083641-0.6351242l0.4521427-0.9865799l0.089756-0.2691116l0.3063374-0.0410309  l-0.104517-0.5194778l-0.2915764-0.3661957l-0.2240524-0.2802505l0.0859432-0.0784378l0.3922806-0.3474045l0.123312-0.4110718  l0.8072071-0.4895554l0.6351299-0.2317123l0.762291-0.0634918l0.4296856,0.0897675l0.1308231,0.0447235l0.5793037,0.209259  l-0.1757011-0.9752121l-0.0934181-0.2541733l-0.2541714-0.0709915l-0.4035664-0.3138123l-0.4818878-0.8482361l-0.0562-0.3661957  l0.119688-0.6763916l-0.112215-0.2877274l-0.5605068-0.4970169l0.0337791-0.3063354l0.4408207-0.829628l-0.0896053-0.3623505  l-0.3101864-0.175705l-0.2577953-0.4932022l-0.8407631-0.1346359l-0.5344257-0.1868362l-0.5006447-0.4707565L20.1399021,66.25737  l-0.5904007,0.6987991l-0.661438-0.0036545l-0.2428493-0.209259l-0.5641327,0.0186005l-1.6853714-0.975235l-0.2167683-0.4036102  l-0.4595785-0.2503204l-0.3736725-0.4147339l-0.5754919-0.2017822l-0.1755142-0.2467117l0.037405-0.6987953l-0.052352-0.2614555  l-0.0261192-0.138298l-0.0298939-0.1643791l0.2017832-0.8670654l-0.1122141-0.4632416l-0.3587246-0.4670906l0.0673351-0.089756  l0.0896063-0.1084023l0.052352-0.070961l-0.018609-0.3288002l-0.2505093-0.6575813l-0.2353764-0.1831818l-0.8294401,0.1158829  l-0.2877274-0.0859451l-0.4895477,0.153244L12.012537,59.4752541z"></path></svg>