<svg height='100px' width='100px'  fill="#000000" xmlns="http://www.w3.org/2000/svg" xmlns:xlink="http://www.w3.org/1999/xlink" version="1.0" x="0px" y="0px" viewBox="0 0 100 100" enable-background="new 0 0 100 100" xml:space="preserve"><polygon points="9.5324726,37.8823509 9.4340143,37.1090736 9.3643703,36.8809319 9.2439432,36.6809387 8.4133835,36.5131531   8.0487118,36.3704414 7.8936057,36.2308388 7.8016772,35.8599854 7.6524673,35.4257965 7.6397557,35.2957916 7.6685705,35.1626892   7.8078585,34.9566727 7.8936057,34.8805008 8.077178,34.7758598 8.1217794,34.652359 8.0994625,34.528698 8.1440639,34.4082718   8.226388,34.3320961 8.4703474,34.2845764 8.5526714,34.2084389 8.609952,34.0849342 8.6034536,33.6790848 8.5464935,33.3018608   8.540308,32.8771515 8.3848858,32.7249947 7.8236451,32.471302 7.5605068,32.2526054 7.4243298,32.075058 7.3481517,31.8469162   7.332365,31.7359314 7.2754011,31.6312943 7.1550059,31.5743313 6.7714415,31.4791374 6.5463748,31.3745289 6.1278453,31.1494617   5.9882407,31.0511608 5.8647113,30.9688377 5.1545739,30.4964199 4.6063299,29.9797764 4.4667253,29.8085709 4.3589826,29.6088924   4.3020458,29.3742542 4.3020458,29.2317028 4.3178325,29.073204 4.400156,28.6579056 4.4286542,28.2141457 4.3178325,27.5611362   4.2320533,26.7971134 4.2385836,26.3533478 4.2797337,26.239296 4.422441,26.0490665 4.5778637,25.8999844 4.7775393,25.7859249   4.9041476,25.7668781 5.2876801,25.8809643 5.8489208,26.1536751 5.9882407,26.21064 6.2832685,26.3343277 6.4383426,26.3533478   6.5240898,26.2772083 6.5810542,26.1727276 6.6668015,26.1061573 6.821907,26.1156006 7.0630455,26.0584812 7.1357961,25.9761581   7.1642623,25.8524666 7.1261911,25.5862522 7.1550059,25.446806 7.2562227,25.3896809 7.6112895,25.3040924 7.7951789,25.1804047   7.9505701,25.0219059 8.1217794,24.7271957 8.3214273,24.6162109 8.4895258,24.4735031 8.6734152,24.1819 8.8445921,24.0393467   9.3420849,23.9441528 9.5544405,23.8585644 10.0299339,23.5575123 10.1156816,23.4719238 10.1156816,23.3292103   10.0237522,23.2753563 9.4120464,23.208786 9.1362286,23.1516647 8.8603792,22.9519844 8.8031292,22.8473759 8.6953831,22.527277   8.5907421,22.3307095 8.5814857,22.1689453 8.6953831,21.9819775 8.7238808,21.8392696 8.6892014,21.7251835 8.5114937,21.4430256   8.4988136,21.3194923 8.4895258,21.1767807 8.5180235,21.0373306 8.7811298,20.6601429 8.8508101,20.4033413 8.8445921,20.2606335   8.682703,19.6774197 8.6257429,19.3001957 8.6669168,19.005331 8.7111692,18.8849316 9.1708765,18.212841 9.3993349,17.7975769   9.4405127,17.6740437 9.4690104,17.5345974 9.3263035,17.220705 9.3074064,16.957571 9.4848013,16.1270103 9.611722,15.8163548   10.5373173,15.990797 11.833766,16.073122 12.4993296,16.044651 13.124033,15.9115486 13.3456764,15.9146233 13.4568148,15.984457   14.7090101,16.168314 14.8102589,16.3362598 15.0133266,16.4789715 15.9293213,16.6438084 16.2082405,16.6532555   16.5348415,16.5836105 17.5839691,16.5107021 17.9328556,16.4884167 18.5256691,16.3807011 18.9092026,16.3616467   18.943882,16.4472351 18.8584499,16.6088428 18.6776733,16.7230568 18.4557076,16.7896271 18.0848236,16.7294292   17.824791,16.8879261 17.5712585,16.9132862 17.4350491,16.8434792 17.232296,16.84025 16.5379524,16.951231 16.2874908,16.954464   15.942028,16.957571 15.5553885,17.0210323 14.9117928,16.9100494 14.2620153,16.9163895 14.1223783,17.0400524   13.9638805,17.0558395 13.7865219,17.3634205 13.8750582,17.4394035 14.1762676,17.4965267 14.2397346,17.6232891   14.4331923,17.6961975 14.7025118,17.921236 14.8325434,17.9435215 14.835619,17.9435215 14.857935,17.9054508   14.9117928,17.8135223 15.0575829,17.845253 15.1811123,17.8737164 15.7423525,17.63274 16.0909214,17.4013329   16.3032761,17.3824387 16.5664139,17.4584522 16.8772278,17.6232891 17.4127617,17.6771507 18.5095654,17.524992   19.0643082,17.1699257 19.1754456,17.1002827 19.2673759,16.957571 19.4828415,16.7896271 20.1041527,16.830801   20.164505,16.7421093 20.4307175,16.6247883 20.5700359,16.4757366 20.4846058,16.3458633 20.2753296,16.3362598   19.57477,16.3837776 19.1754456,16.5010967 19.0676994,16.4789715 19.0327358,16.4218483 19.1308441,16.3045273   19.2450943,16.2697182 20.0313969,16.0477619 20.1864719,16.0827255 20.9535694,15.9527225 21.6321621,15.7339954   22.2819386,15.7213154 22.5989342,15.9209948 22.8651485,15.9115486 23.118681,16.1429558 23.3217793,16.1746864   23.8099537,16.2539349 24.5105133,16.2000465 25.1410809,16.0794926 26.4059563,16.0225277 26.878376,15.8767109   27.5789089,15.7847824 28.3491077,15.607233 28.8976688,15.6135731 30.0671921,15.3345213 30.2606907,15.3568058   30.4476509,15.378933 30.6188602,15.274292 31.0531788,15.204648 31.3512783,15.0682764 31.9187317,15.0238657   32.1023026,15.1000042 32.2292328,15.0588303 32.3750153,15.1444511 32.6192589,15.0809851 32.7047272,15.1411858   33.2024994,15.1665735 33.3291092,15.2965775 33.6779938,15.3504667 33.8553543,15.6199446 33.8584595,15.6199446   34.0265617,15.6453037 34.0930977,15.7276554 34.172348,15.7497854 34.2231369,15.7657309 34.4354858,16.1365795   34.5909081,16.2729549 35.3357201,16.3807011 35.3168297,16.5582199 35.5007172,16.6184483 35.4849319,16.7578907   35.6718941,16.9258385 35.7669296,17.1193008 35.8523598,17.1731911 35.9000435,17.2016563 35.9031448,17.2049217   36.0300674,17.1889763 36.1727791,17.0431595 36.229744,17.1668148 36.2328186,17.1795311 36.2393494,17.1826057   36.4359169,17.3316879 36.1124306,17.63908 36.0489616,17.8610363 36.0774269,18.1589832 36.1347084,18.3746033   36.4674911,18.7835274 36.5024567,19.027647 36.6956329,19.1480389 36.7114182,19.2748089 36.6513786,19.4808235   36.6609535,20.330431 36.5086746,20.5237713 36.473671,20.9359608 36.362854,21.0848522 36.242424,21.1483154   36.0142822,21.1704407 35.8365746,21.519165 35.6527176,21.7030582 35.522686,21.7569122 35.2945442,21.9629307   34.7716904,22.1785507 34.555912,22.3814602 34.3627357,22.3307095 33.9030304,22.7078991 33.8237801,22.882185   33.4052505,23.0660744 33.2182846,23.3355503 33.1706085,23.5606155 32.8885841,23.7223511 32.3846207,24.2041836   32.1849442,24.2548084 31.8679485,24.4704285 31.5444546,24.6004295 31.205492,24.7335663 30.6188602,25.1202068   30.2860775,25.224844 29.7913742,25.6686077 29.6424809,25.7668781 29.6109085,25.7859249 29.2177753,26.0394611   29.0242767,26.2075653 28.9103489,26.308939 28.7391701,27.4057121 28.8530998,27.9668274 28.8753834,28.5628738   29.0908451,29.3363419 29.4682026,30.1857948 29.7409401,30.5598793 29.8582611,30.8420715 30.2510815,31.3016205   30.4253654,31.615509 31.5159931,32.452282 32.3561554,32.9500618 32.8601151,33.0958443 33.1421127,33.3240204   33.7826347,33.5459785 33.8872414,33.584053 34.619381,33.9549026 34.8921165,34.1895447 35.3515091,34.4146118   35.7034683,34.7473907 36.1377869,34.8837662 36.6987381,34.9597473 36.8953094,35.042263 37.6658287,35.8726654   38.3694649,36.2435188 38.5214653,36.3227654 38.6895332,36.1642685 38.7180328,36.1388779 38.7687836,36.0915184   38.8545609,36.23423 39.0350266,36.2658005 39.0350266,35.9457321 39.1142769,36.0026932 39.1080971,36.3292656   39.5866623,36.5385437 40.3568687,36.747509 40.5026855,36.8744316 40.6865425,36.931366 41.1747475,37.31493   41.3174591,37.3499222 41.5171356,37.533783 41.8594894,37.6130295 41.9164543,37.6257439 41.9833412,37.6415329   42.3795853,37.8823509 42.5380821,38.0377769 42.7758293,38.0758438 42.9055138,38.3104858 42.9089355,38.3104858   43.2417183,38.4624863 43.4510002,38.5575218 43.8280334,38.5609436 44.1230621,38.830265 44.2115974,38.8525505   44.4050598,38.9033318 44.6966705,39.0552979 44.9344177,39.1822243 45.2260513,39.2487946 45.3083687,39.5023232   45.4575806,39.6131477 45.7553978,39.6735001 46.1166458,39.9397507 46.1928215,40.0697441 46.3989944,40.2409592   46.5321007,40.2344589 46.6240273,40.3709564 46.725563,40.3009987 47.1595917,40.5706329 47.5369492,40.7164497   48.4117889,40.8241653 48.7130013,40.9384117 49.0014954,41.144268 49.4450989,41.3408394 50.3106613,41.5943718   50.6815071,41.7339706 51.1762123,41.9209709 51.2616463,41.9559364 51.3504944,41.9875069 51.6482811,42.2760353   52.0541382,42.5549622 52.3045616,42.6468925 52.8370171,42.6626778 53.0147247,42.5834274 53.1574326,42.6246071   53.1159401,42.7546387 53.1540108,42.7927094 53.2617569,42.9038467 53.4552193,42.8815613 53.4552193,42.8784561   53.4552193,42.8023148 53.4552193,42.795784 53.4552193,42.7642097 53.5725441,42.656498 53.7818222,42.6468925   53.8957481,43.0050659 53.9592094,43.0431366 54.2827034,43.2428093 54.352356,43.2554893 54.6408768,43.3093796   54.8501282,43.4235954 55.1479454,43.4774475 56.0261803,43.9625511 56.4508896,44.0702972 57.3068428,44.4157562   57.9185562,44.5392609 58.2863274,44.6819725 59.0818901,45.132103 59.5035324,45.2748146 59.5765953,45.4271011   59.8839836,45.5760269 60.4037323,45.9403801 61.0504341,46.3115501 61.5736046,46.4285545 62.0205994,46.8913651   62.3342018,47.3129692 62.7781219,47.6046066 63.0981941,47.6680679 63.3455467,47.8615303 63.8622208,48.263958   64.0841751,48.3051338 64.3219223,48.5493774 64.7655258,48.8886909 64.8481979,49.0344772 65.0571289,49.2310486   65.1459885,49.4654007 65.5202637,49.7254295 65.849617,50.36903 66.0335083,50.5844879 66.0335083,50.5875664   66.2873611,50.765274 66.4012909,50.8410988 67.0321808,51.1645927 67.2002716,51.3800545 67.4822769,51.6116219   67.5930939,51.8555489 67.5965195,51.8555489 68.7060013,52.6387482 69.0102844,52.7938576 68.9753265,52.9334602   69.1022491,53.0823517 69.4792862,53.3393097 70.0913086,53.7544441 71.2673569,54.2710876 71.4954987,54.3122635   71.7932892,54.4614754 72.623848,54.7496872 73.1693344,54.8862152 73.3658981,54.9589653 74.6116028,55.4251709   75.109375,55.7421684 75.3344116,55.8053131 75.6322327,56.0495605 75.819191,56.1095963 76.0981216,56.4458046   76.9859619,57.0132256 76.998642,57.0132256 77.2363892,57.0259361 77.4453506,57.1209717 77.4041748,57.2351837   77.5784531,57.3683243 77.800415,57.4633598 78.3078003,57.8657837 78.5074768,57.9611359 78.8972244,57.9704247   79.6104584,58.1861725 80.6218033,58.3285675 80.8088074,58.1162109 80.9230118,58.1258125 81.0369415,58.3381729   81.2461929,58.5951271 81.4839325,58.886734 81.560112,59.0545197 81.5189362,59.2795525 81.4173965,59.409584   81.4331818,59.4826508 81.693222,59.4034042 81.9086761,59.412693 82.0863571,59.5080452 82.1971741,59.4699402   82.3683853,59.4380493 82.526886,59.4668655 82.6473083,59.5619011 82.6568909,59.5711899 83.0658417,59.5619011   83.1450882,59.7139015 83.0246582,59.837719 83.0181656,59.9389343 83.5063324,60.877243 83.6555481,61.0326347   83.6744461,61.4480896 83.6332626,61.5685158 83.4366989,61.8251228 83.4970474,62.0028305 83.7060089,62.4241486   83.7663727,62.5002899 83.8806152,62.6430016 84.2799606,62.9188194 84.4480362,63.1058159 84.5399933,63.3878174   84.6569977,63.5209236 85.5986938,64.2756577 85.8268433,64.5703659 86.6320419,64.9601135 86.8601837,64.982399   86.9521103,65.083931 87.2152481,65.3724594 87.7477036,65.4421082 88.0331345,65.7813873 88.5655823,66.1014862   89.1014328,66.8209076 89.3834686,67.0809402 89.4880753,67.2997971 90.0143585,67.797287 90.2805634,68.0477142   90.4232788,68.1808243 90.4771729,68.4504547 90.5913773,68.6024551 91.5993347,69.4361267 92.2017441,70.3428268   92.3506393,70.4570694 92.740387,70.948349 92.7849579,71.0053177 93.133522,71.3000259 93.3112335,71.3572769   93.4697266,71.4873047 93.6282272,71.8708725 93.5647659,71.9659042 93.586731,72.1305847 93.7898331,72.2924728   94.1321869,73.2369614 94.3414688,73.4747086 94.4268951,73.9659882 94.3634338,74.4195175 94.4838638,75.1166534   94.8358612,75.6336365 95.089386,76.4703827 95.165535,76.5465546 95.3082428,76.4892731 95.5267792,76.800087   95.7298737,76.8254471 95.7679443,76.9174118 95.54599,77.0820847 95.4698486,77.278656 95.7233734,77.8333969   95.7329559,77.9888229 95.6506271,78.1535034 95.0482101,78.746315 94.9404678,78.7589951 94.6423569,80.0650787   94.4872818,80.2616501 94.1956482,80.461319 93.8244781,80.5343628 93.6694031,80.714859 93.6028366,80.9144974   93.5551605,81.0476379 93.5551605,81.0857086 93.5393753,81.3457413 93.2635574,81.5738831 93.2381668,81.8943024   93.0542755,82.3251953 92.9719543,83.1653595 92.9023056,83.4316025 92.6803436,84.2683487 92.6645584,84.4872284   92.8799973,84.9150467 92.8103485,85.679039 92.6707382,85.9610672 92.6484604,86.3510971 92.50914,86.7727356   92.6137772,87.2955933 92.5853119,87.470192 92.544136,87.5302582 92.2175293,87.9868622 92.1002121,88.2911758   91.8559647,88.2434998 91.5708618,88.5035324 91.4597244,88.3323212 91.2761536,88.3165359 91.1554108,88.1992188   91.0445938,87.8853302 90.9241562,87.7871857 90.6737289,87.7964706 90.5944824,87.7552948 90.4994507,87.5748291   89.5896378,86.9470215 89.4500046,86.8519897 89.2568588,86.7950211 88.7401886,86.8931656 88.1312714,86.7662354   87.8684464,86.8139114 87.7288208,86.7854462 87.3548813,86.5000229 87.1613998,86.458847 86.9932861,86.4399567   86.8570786,86.3573151 86.7239685,86.1610336 86.3877945,86.0214233 86.1342621,85.7521057 85.8838043,85.3112946   85.4494858,85.0608368 85.1451721,84.6391983 84.9235306,84.6930847 84.5715714,84.4618378 84.5049973,84.2556686   84.3972855,84.1067734 84.0802917,83.8024521 83.9406509,83.8055649 83.8202591,83.7043152 83.7536926,83.5077438   83.6109772,83.3207855 83.4113007,82.8387909 83.4270859,82.7279663 83.3986206,82.6675797 83.3478394,82.5629425   83.0119781,82.2205887 82.7646332,81.7481689 82.6442108,81.675415 82.6473083,81.561203 82.8661652,81.4281006   82.9042358,81.3457413 82.9865875,81.038353 82.9834824,80.9144974 82.9738846,80.6324997 82.8376999,80.2678299   82.6473083,80.0492935 82.4126358,79.7796555 82.0452118,79.6084442 82.0040283,79.3929825 82.0832825,79.2344894   82.2037048,79.3549118 82.2733536,79.3295212 82.6473083,78.5497437 82.6695938,78.4989624 82.7076645,78.2392502   82.6473083,77.899971 82.5618515,77.4309692 82.0832825,76.777771 81.8867111,76.654274 81.7439957,76.4607773   81.5536118,76.3592453 81.4492874,76.1311035 81.3951111,76.0803146 80.8753357,75.589035 80.6756668,75.3386154   80.5775528,75.0342941 80.4694901,74.8600082 80.4506226,74.6572647 80.4948807,74.3814468 80.460228,73.9786987   80.5013733,73.7251663 80.2097702,73.3100281 80.0670624,73.1735001 79.9401398,73.1227493 79.8704987,72.9707489   79.8735962,72.8122559 80.1463089,72.8376465 80.0893478,72.7583923 79.9813156,72.6187592 79.6739197,72.4698639   79.4965363,72.1274796 79.4965363,72.1244049 79.1668549,72.1147995 78.9133224,71.7628098 78.7387238,71.6646957   78.6436844,71.693161 78.4694061,71.8739471 77.6326294,71.5442734 77.2426071,71.5377731 77.1063843,71.4458084   76.7321091,71.3445969 76.6466827,71.3542023 76.5958939,71.4080582 76.5389328,71.4680939 76.450119,71.4458084   76.4343262,71.2430573 76.2727203,71.2526627 76.0823288,71.3380966 75.8699799,71.3034134 75.5783768,71.1322403   73.8348999,70.9610291 72.7000198,71.1257401 72.1737442,71.2018814 70.8519058,71.2811279 70.3575211,71.3634872   70.0436325,71.3542023 69.5839233,70.8817825 69.1529999,70.745285 69.0230026,70.624855 68.7852554,70.5617142   68.7248611,70.5456085 68.598259,70.4759598 68.4428635,70.2447128 68.4428635,70.2412949 68.2051163,70.1527557   67.7580948,70.0892944 67.5014801,70.0512238 67.2983856,70.1050797 67.2129517,70.0289383 67.0321808,69.9908676   66.8705673,69.8069763 66.7278595,69.7469406 66.6517105,69.5534439 66.3758926,69.4615173 66.1319656,69.255661   65.840332,69.2395554 65.5580139,69.0240936 65.2317352,69.0144882 64.9874878,68.8940582 64.626236,68.5136032   64.4485321,68.431282 64.1853943,68.3900986 64.138031,68.3839188 64.0522842,68.218895 63.8241463,68.013031   63.6814346,68.0350342 63.522934,67.9050064 63.0635452,67.7149277 62.8604469,67.56604 62.2961311,67.4517975   62.2391663,67.2679062 62.3310966,67.0871201 62.5245895,66.9478378 63.0316544,66.8051224 63.1363029,66.6531219   63.279007,66.5546646 63.2820816,66.5546646 63.4436874,66.2218781 63.4597893,66.0949554 63.4786568,65.9683533   63.4217186,65.8479538 63.3074799,65.5878906 62.9554825,65.2486115 62.790802,65.1631775 62.4261322,64.9666138   62.2168808,64.9854736 62.1790962,64.9854736 62.1537361,64.9981842 62.0425987,65.0554657 61.6559334,65.03936   61.6528511,64.6431198 61.5228195,64.3452988 61.3739281,64.1772003 60.8507652,63.9744492 60.59412,63.8063469   60.4037323,63.6986313 60.1152344,63.6509552 59.0661049,63.6351662 58.5906105,63.7713814 57.4526596,64.2310867   56.8313484,64.583046 55.8676834,65.1820755 55.4048691,65.5752106 54.9578743,66.1426315 54.4823799,66.5831604   54.171566,67.1159363 53.8291779,67.4960785 53.56604,67.9749603 53.4425392,67.8638229 53.3443985,67.797287   53.2112923,67.7687912 53.1382256,67.6833572 53.0905495,67.4391174 52.9893303,67.2394333 52.8562241,67.0682602   52.5138397,66.795517 52.3014832,66.5230942 52.1649513,66.1996002 52.1522713,65.7940674 52.1175957,65.6987152   51.9971657,65.5117493 51.8479576,65.3501434 51.6421013,65.2359314 51.3789635,65.2359314 51.1381416,65.3024673   50.7100067,65.483284 50.5895805,65.5021439 50.4564781,65.4736786 50.3710098,65.3978195 50.3360481,65.3024673   50.095192,64.9254379 50.1648445,64.481514 50.1648445,64.1995163 50.1298714,63.9617691 50.0790901,63.7082367   49.7590218,62.8584633 49.6766701,62.3575821 49.6766701,62.0659752 49.7116623,61.6127663 49.8509483,60.9122047   49.8224869,60.3543892 49.7528076,60.1482162 49.6543808,59.9485397 49.6385918,59.7996483 49.7813034,59.4572601   49.8955193,58.8929138 49.9874802,58.6551666 50.0032654,58.5158806 49.9874802,58.3731689 49.9524841,58.268528   49.8162689,58.081562 49.5119858,57.9103546 49.3280945,57.7580376 49.2708168,57.5233994 49.3280945,57.4283638   49.4547043,57.3998947 49.7463074,57.4475708 49.8605537,57.3998947 49.924015,57.2952576 49.9017372,57.1748276   49.8224869,57.0321198 49.6955566,56.9086151 49.5689507,56.7216225 49.3627739,56.4838753 49.1061363,56.2680969   48.5956459,56.116127 48.2978592,56.0969162 48.063221,56.1257019 47.9427948,56.0684509 47.7935829,55.9068451   47.6223755,55.6437111 47.5180511,55.5675659 47.2834129,55.4917107 46.7002029,55.3963585 46.459034,55.3044281   46.3101387,55.2855339 46.211998,55.3424988 46.1835327,55.462925 46.2943535,55.8053131 46.2943535,55.9449196   46.211998,56.0303497 45.990036,55.9257393 45.6919365,55.6248474 45.5080452,55.4821358 45.3718338,55.4440308   45.261013,55.4821358 45.1879425,55.5675659 45.1879425,55.7102776 45.2229385,55.8053131 45.6160774,56.3315582   45.5999756,56.4931641 45.5145454,56.5597305 45.4003296,56.5978012 45.2671928,56.5597305 45.0740471,56.4361992   44.8678741,56.1730614 44.8424873,55.9068451 44.6839905,55.4917107 44.5858421,55.4186707 44.4589233,55.4344597   44.1895981,55.6437111 43.6980019,56.0876312 43.2575111,56.5885162 43.1305809,56.7754784 42.9024391,57.0225143   42.6615829,57.2286873 42.4776993,57.3617935 42.1638069,57.5045013 42.0084152,57.4856453 41.887989,57.4379692   41.6694183,57.2098274 41.3143539,56.6358719 41.1558571,56.4838753 40.6453972,56.1922684 40.4741898,56.0399551   40.2556496,55.8053131 39.5678024,54.9273949 39.2600632,54.6230774 38.8861389,54.3503342 38.417141,53.7829132   38.2902145,53.5770569 37.5357971,52.5530014 37.4438705,52.4230042 37.3580894,52.2075424 37.31073,51.9697952   37.1330566,51.4054451 37.0822716,51.1580963 36.9618454,50.8380241 36.743309,50.4513512 36.4990654,50.2421036   36.1377869,50.0708961 35.9031448,49.9981766 35.6053581,49.9693604 35.0314064,50.127861 34.8602295,50.2612839   34.7462997,50.4702454 34.5970917,50.647953 34.4766655,50.6575279 34.3339539,50.628746 33.7538185,50.251709   32.2480888,49.5161514 31.5444546,49.2403336 31.1135311,49.006012 31.0277843,48.9298401 30.907362,48.749054   30.948534,48.6286278 31.0216026,48.5524864 31.1324291,48.505127 31.4113483,48.5620918 31.5097752,48.5335922   31.7094517,48.4097748 31.9629841,48.0327415 32.0991974,47.664959 32.1849442,47.2687149 32.3623352,46.7774391   32.3400497,46.6631927 32.2926903,46.5585861 32.0010567,46.2004128 31.7602329,45.9753456 31.2116776,45.7091331   30.6092548,45.2271385 30.5745754,45.0974236 30.7361832,44.764328 30.6315384,44.5680733 30.4603615,44.4253616   30.1337605,44.2668648 30.041832,44.0575829 29.9405842,44.0006218 29.6424809,43.9814415 29.3889523,44.0195122   29.0973434,43.9718361 28.9769173,43.9244766 28.6153526,43.6898346 28.4568539,43.5282326 28.2667885,43.2747002   28.1590366,43.074707 28.0732899,42.8496742 27.9909344,42.713459 27.7405071,42.7642097 27.6485786,42.9258156   27.5219707,42.9162102 27.4361916,42.8403854 27.3158016,42.8307762 27.2303352,42.8973465 27.2650146,43.1223831   27.2588329,43.2174187 26.9734097,43.2174187 26.8687706,43.2459183 26.6818104,43.3697357 26.434454,43.5948029   26.4059563,43.7375145 26.4282722,43.8579102 26.412487,44.0195122 26.2793484,44.2095833 26.1936016,44.2730484   25.7877522,44.2922554 25.7054291,44.3680801 25.5911827,44.3968658 25.4707565,44.3587952 25.0999031,43.9718361   25.0017929,43.914875 24.8463707,43.8960114 24.630909,43.9910469 24.3773746,44.2002945 23.6164627,44.3015137   23.340641,44.3015137 23.0490417,44.2668648 22.8208961,44.1622238 22.7004681,44.1526184 22.5039005,44.2572556   22.3896542,44.28265 22.259655,44.2730484 22.1615124,44.2191887 22.0188065,44.0479813 21.92066,43.9910469 21.7779484,43.9625511   21.0774193,43.9814415 20.700037,44.0384064 20.4718952,44.1049423 20.3165035,44.2668648 20.2753296,44.387291   20.1610813,44.5965424 19.9171524,44.8216057 19.8060131,45.0212822 19.7902279,45.1543884 19.8060131,45.2748146   19.6855869,45.2271385 18.9312019,45.1351776 18.5191746,45.0497475 17.9294319,44.8216057 17.6062546,44.6631088   17.0230141,44.2730484 16.7599087,44.0575829 16.5537338,43.8040504 16.4682732,43.7375145 16.3255653,43.7086983   16.2274513,43.7563744 16.0147781,44.0195122 15.9293213,44.0860786 15.7296724,44.1906891 15.5965347,44.2002945   15.1399345,44.1718292 14.7152281,44.0956573 14.0050583,43.8229446 13.7927027,43.9052696 13.6311026,44.0479813   13.5010986,44.0671883 13.3456764,44.0384064 13.1525307,43.9244766 12.9971123,43.7659798 12.7340059,43.2554893   12.5912895,43.0843124 12.147686,42.7453499 11.7353382,42.5076027 11.3170948,42.3110352 11.158597,42.1491127   11.101347,42.0540771 11.0666676,41.9432564 11.1648102,41.7151146 11.4660234,41.3854065 11.6056242,41.1761589   11.6783743,41.1222992 11.8210859,40.9319115 12.0746193,40.7418442 12.3154402,40.516777 12.5151157,40.2251701   12.5151157,40.0824585 12.4581518,39.9778175 12.21733,39.7527504 12.1823339,39.6385384 12.2522945,39.5531082   12.6293612,39.4961472 12.727788,39.4388657 12.800539,39.3565063 12.8417168,39.2330055 12.8259344,39.1091881   12.7497873,38.8841209 12.6516457,38.6844482 12.578578,38.5798073 12.4235039,38.4405174 12.1253738,38.2597351   11.7545166,38.3358765 11.6340904,38.2882004 11.4660234,38.1454926 11.1648102,37.968132 10.866993,37.6353493   10.7843513,37.5591774 10.6766052,37.5149231 10.5277166,37.4957123 10.4422817,37.5591774 10.2710724,37.8730965   10.1664639,37.9489212 9.8333654,38.034668 9.6909704,38.0408516 9.6497927,38.0219879 9.5829067,37.9869919 "></polygon></svg>