<svg height='100px' width='100px'  fill="#000000" xmlns="http://www.w3.org/2000/svg" xmlns:xlink="http://www.w3.org/1999/xlink" version="1.0" x="0px" y="0px" viewBox="0 0 100 100" enable-background="new 0 0 100 100" xml:space="preserve"><polygon points="59.3881721,6.3979588 59.2200813,6.5730209 59.1690788,6.5659018 59.191021,6.3213258 59.358963,6.2920818   59.4318733,5.9230461 59.4648399,5.8317728 59.5195694,5.8357158 59.5707169,5.8538971 59.7094154,5.9088073 59.7568436,5.813591   59.7094154,5.7262607 59.5851746,5.7843471 59.5523529,5.7515616 59.5158081,5.7041364 59.574295,5.426775 59.5523529,5.2406507   59.6217232,5.1237111 59.5450516,5.0142565 59.6070824,4.9265208 59.7495422,4.9119172 59.8662987,4.9814343 59.9101448,4.8277669   59.8700562,4.5906754 59.9721756,4.4591327 59.9539909,4.3168559 60.2059059,4.1414285 60.3080597,4.2765861 60.4431801,4.2911897   60.5162735,4.4152484 60.5964851,4.9336805 60.760849,5.1454344 60.7644272,5.280592 60.6294518,5.2624068 60.5636978,5.4706225   60.4577827,5.5800776 60.4212379,5.9925928 60.2096291,6.1241393 60.1073303,6.4197183 60.399334,6.3868933 60.4834518,6.5109916   60.3702698,6.682476 60.0964508,6.7445054 59.5634155,6.3395076 "></polygon><polygon points="57.5589828,5.3133769 57.3617973,5.2552543 57.369133,4.8424072 57.5188599,4.6234937 57.7049828,4.6309819   58.0811386,4.2986741 58.1759529,4.1268249 58.0993195,3.9335811 58.1394081,3.5428185 58.2417412,3.4989743 58.3184128,3.7217906   58.4535332,3.8277042 58.5410461,3.6961246 58.5521088,3.6815209 58.4570732,3.5463998 58.7089882,3.1666667 59.0813828,3.5463998   58.9681702,3.6744015 59.0193558,3.9774287 59.1617775,3.9735222 59.107048,4.3496742 58.9535637,4.7586184 59.0266571,4.9008584   59.1617775,4.8791356 59.2530518,4.9593463 59.1872597,5.229588 58.9755058,5.3682837 58.8075638,5.3682837 58.6506844,5.1928601   57.9898643,5.4741607 57.7488289,5.5144706 57.5698624,5.4378009 "></polygon><polygon points="56.4089775,4.8498917 56.3212433,4.8424072 56.1313972,4.3642778 56.186306,4.0394945 56.2993393,3.9043372   56.4052162,3.8751297 56.4783058,3.9517627 56.7120399,3.9335811 56.8726425,4.4298887 56.6389465,4.7842841 56.460125,4.7511339   "></polygon><polygon points="27.9828682,87.6200943 28.1982384,87.9085541 28.2566891,87.9887619 28.2821732,87.9816437 29.1364536,87.7809143   29.3664265,87.8097992 29.673214,88.1969757 30.074852,88.4087677 30.2500973,88.6023788 30.3413696,88.8066406   30.2937622,89.0220108 30.3996391,89.4491348 30.5529785,89.6245651 30.6588554,89.8470154 30.4326439,89.9967728   30.2828827,90.3326263 30.4142799,90.4092941 30.5567017,90.2160492 30.5859451,90.343689 30.3230057,90.8218155   30.2024879,91.2382355 30.1222782,92.118187 30.0857315,92.4137268 29.9871559,92.6875458 29.9031849,92.7677612   29.9543343,93.0818863 29.8958836,93.198822 29.4650002,93.5600128 29.3300629,93.5892181 29.2241497,93.4687347   29.0013332,93.6149216 28.8298111,93.6038589 28.6619053,93.4651566 28.7093315,93.1842194 28.5012646,92.8044891   28.168993,91.9794846 28.1470509,91.7127838 27.9352608,91.4682083 27.851326,91.3694534 27.5482616,90.6246262 27.11026,88.945343   27.300108,88.6971893 27.2343197,88.0436707 27.4388084,88.0400925 27.7126274,87.5837326 27.8732319,87.4447021 "></polygon><polygon points="23.9119358,86.5576324 23.4520283,86.4809647 23.3388119,86.3750916 23.3242092,86.2146301 23.5541439,85.6887512   23.6454182,85.5864182 23.9557838,85.5903549 24.0581188,85.5097809 24.1237259,85.4587784 24.5546093,85.3018951   24.7333946,84.903656 24.8211269,84.8854752 25.1095505,85.0205917 25.2446709,84.9514465 25.5038872,84.9803238   25.7739468,84.7760162 25.9637947,84.7357101 26.0258617,84.8163223 26.0697079,85.046257 25.9966164,85.6484451   26.0185223,86.5465775 26.1536808,86.6927567 26.0368862,86.8496399 26.0185223,87.145546 25.9857368,87.9449158   25.8871613,88.1238861 25.6206436,88.1677322 25.5038872,88.3427963 25.4015522,88.3538589 25.3140392,88.2918243   25.1751575,88.3320999 24.8904591,88.295372 24.6421223,88.0689774 24.3135738,87.9524002 24.1711521,87.7769699   24.1748753,87.652916 24.2916698,87.5323944 24.3062725,87.4047623 24.1675739,87.3134918 24.1017838,87.1420059   24.145668,86.8460617 24.061697,86.6599731 "></polygon><polygon points="23.4994164,12.1552935 23.5871487,12.07866 23.8244228,12.0458355 23.9959068,11.8779325 24.1566944,11.907176   24.4560337,11.567749 24.5144863,11.4326286 24.7298546,10.9505558 24.9451847,10.7605286 25.1496735,10.7462902   25.2847958,10.8043756 25.2993984,10.6439543 25.1569767,10.110918 25.036459,10.0050411 24.9926109,9.7750692   25.0328808,9.6652498 25.2117043,9.6691923 25.3029766,9.7383413 25.5840988,9.60322 25.8324356,9.6107044 25.9966164,9.4827032   26.2157097,9.0520029 26.3034039,9.0409765 26.6173477,9.435277 26.4968319,9.4937649 26.5369549,9.7383413 26.9531975,9.8734617   27.2050743,10.2496176 26.8291378,10.6913795 26.7998943,10.8885298 26.9458961,11.0564728 26.836441,11.4543514   26.7414074,11.5638065 26.7451668,11.7246294 26.6793766,11.808382 26.4859505,11.6443825 26.2121315,11.651535   25.9383125,11.5092611 25.7447033,11.523901 25.438097,11.4432888 25.2373695,11.2646856 25.0182781,11.6187162   24.8685169,11.6112318 24.697031,11.6041126 24.5546093,11.8486853 24.7114887,12.0166273 23.9741478,12.7831802   23.977726,12.8744535 24.0944824,12.9147234 24.1822147,12.8744535 24.2187595,13.1521797 24.4267902,13.2798166   24.594696,13.5425739 24.6312428,13.8823662 24.5800934,14.1597633 24.3647614,14.3932772 24.2076969,14.407917   24.0105114,14.386158 23.8572083,14.2838221 23.5359631,14.3130627 23.4265079,14.236393 23.2511177,14.2620993   23.232935,14.1890078 23.3315105,13.9953985 23.2182961,13.7690048 23.232935,13.4805441 23.2986889,13.3161793   23.5322399,13.1229362 23.59445,12.8965416 23.5579052,12.7796021 23.3423901,12.7614174 23.320631,12.6701441 23.448267,12.461935   "></polygon><polygon points="21.7104988,30.0302467 21.6447449,30.2017307 21.6812897,30.5707684 21.7579231,30.7276459 21.6958942,30.8991318   21.6228027,30.8844929 21.4074707,30.5525856 21.4987431,30.2969475 21.3053169,30.0630322 21.1994038,29.5628185   21.1994038,29.0373039 21.0862255,28.6283607 21.1409531,28.3399029 21.1737385,28.3399029 21.5097694,28.3620281   21.6338654,28.3106594 21.6958942,28.0696621 21.9770164,28.0404167 22.2800789,27.8507519 22.4187775,27.2920494   22.6378708,26.7554722 22.7034779,26.3208294 22.8569622,26.1821671 22.9409351,25.9924641 22.8824463,25.8498592   22.6414127,25.8245583 22.4260807,25.6783752 22.3602905,25.5360985 22.2690163,25.5325565 22.1267776,25.7151031   22.071867,25.6345272 22.0864716,25.3425236 22.0937729,25.2512493 21.3562851,24.6561871 21.0423775,24.2836113   20.9109802,24.2689705 20.7649803,24.1776962 21.3965912,23.5352421 21.6265621,23.0096912 21.7652245,22.8524456   21.7944698,22.4217796 21.7433205,21.9835968 21.6228027,21.8523827 21.6885929,21.6805344 21.819952,21.6477127   21.8345928,21.6366863 22.0171394,21.479805 22.174202,21.1514416 22.3567486,21.0198612 22.3239269,20.8958035   22.3749313,20.8045292 22.4808083,20.826252 22.5685024,20.7642231 22.6487503,20.4978886 22.6050491,20.3153419   22.6524754,20.1327953 22.7656898,20.0304966 23.3753586,18.7451496 23.3423901,18.5226974 23.4446907,18.1868496   23.3496933,17.734024 23.258419,17.6135044 23.0576916,17.543993 22.9517784,17.5040512 22.7400246,17.2192039   22.5866852,17.204567 22.5173531,16.9015026 22.5685024,16.8469582 22.5538998,16.7371368 22.1413803,16.3685036   22.2107487,16.2151966 22.345686,16.1092873 22.349411,15.8864708 22.5064735,15.5762844 22.685297,15.3901634   22.7656898,15.1088591 23.0102654,14.9958267 23.5579052,15.6932268 23.8390274,15.6675577 23.8682709,15.7185278   23.787878,15.9777441 23.6527557,16.4052315 23.6784229,16.6020164 23.787878,16.7335968 23.893755,17.2156277   23.8536663,17.3578682 24.3208771,18.1247826 24.5144863,18.3034229 24.6385803,18.5590611 25.8177948,19.6871262   26.1574039,19.8258247 26.3654346,19.8843117 26.6720753,19.84795 26.7744122,19.9427643 27.0774384,20.022974   27.3402328,19.997673 27.5227795,20.1142483 28.5449657,20.0376148 29.0854492,19.9937668 29.187603,19.9170971   29.6840935,20.3991299 30.0053387,20.5378284 30.3595524,20.7970448 30.6005497,20.8629799 30.943737,20.7788601   31.0350094,20.7752857 32.575592,20.6840115 33.3022003,20.3406792 33.9776611,20.1327953 34.8283615,19.5267048   35.1276665,19.194397 35.284729,18.8949108 35.4088249,18.595789 35.5474854,18.4203587 36.2338257,17.9639931   36.8217659,17.7229614 37.0371094,17.5005112 37.2342758,17.5479355 37.3036194,17.4930229 37.3144989,17.270174   37.4423141,17.1642971 37.6578369,17.1535988 37.8548279,17.0220203 38.2163544,17.1535988 38.3915901,17.1243553   38.6618423,16.9343243 39.3517418,16.9453831 39.5415993,17.0038376 39.8154182,16.9671097 40.0783653,16.8615971   40.4908752,16.4633179 40.8121147,16.4487133 41.173645,16.1057453 41.1370964,16.0361958 40.7281494,16.3428364   40.5748405,16.3210735 41.1224785,15.8319263 42.6193962,14.0538464 42.6448898,13.9625731 42.5427437,13.8203363   42.6375809,13.6959124 42.39674,13.3236609 42.4733963,13.2067251 42.6120872,13.1482735 42.6340141,13.1628771   42.8677216,13.3019409 42.9370728,13.265213 42.8639793,12.8744535 42.7908936,12.776021 42.8604126,12.7029324   43.0392189,12.7543011 43.1743469,12.5970554 43.6854401,12.3963242 43.7913246,12.3927498 43.8934784,12.4875975   44.0359001,12.1517515 44.3536034,12.1371078 44.3389626,11.9399576 44.6602097,11.589469 44.7734261,11.4981956   44.835453,11.5163803 44.919426,11.2792892 45.3101845,10.9288359 45.4451218,10.6328917 45.5767021,10.5305567   45.7189407,10.552681 45.7774315,10.4614077 45.7408829,10.300621 46.043911,9.7130404 46.6755219,8.9607296 47.0552559,8.8256083   47.2632866,8.6177607 47.4568939,8.5410919 47.7672615,8.5154257 47.8840179,8.6177607 47.9314423,8.8184891 47.9533501,8.924366   48.0884705,8.9390068 48.3148994,8.7892456 48.6726532,8.8366671 49.1509628,8.6541204 49.556179,8.6102762 49.8189354,8.3399982   49.9358749,8.0808191 49.8519058,7.8836322 49.9613609,7.631937 50.0709991,7.6904249 50.0198479,7.8362427 50.1804504,7.8765125   50.8193665,7.7816978 50.9288216,7.493238 51.2429466,7.1826897 51.3158531,6.8650227 51.1479111,6.6022649 51.0894623,6.6022649   51.0054893,6.6022649 51.0347328,6.3066854 50.9544868,6.2992015 50.9069138,6.1130733 50.9288216,5.8977451 51.0750046,5.6970167   51.1771545,5.1055298 51.0967636,4.6930113 51.0238533,4.5871339 50.4797554,4.5906754 50.4141846,4.4484353 50.5054588,4.1888542   50.7207909,4.137887 50.8229446,4.0173697 51.144371,4.3860407 51.3377609,4.3314958 51.5349464,4.0466137 51.6262207,4.0102506   51.7467384,4.1122212 51.7722206,4.1307678 51.9658318,4.1015239 52.0314026,4.2327018 51.9658318,4.4847984 52.0278587,4.5211616   52.3016777,4.0576763 52.4257393,3.9735222 52.5974045,4.0501552 52.6703148,3.747128 53.0245628,3.6305172 53.1778641,3.7617319   53.2398949,4.1268249 53.3129883,4.1706724 53.3712921,4.0904579 53.5247765,4.1122212 53.6342316,4.2548265 53.9738426,4.3279181   54.1014786,4.4847984 54.3169937,4.4373727 54.386322,4.4812207 54.3389359,4.6234937 54.364418,4.7037082 54.6089935,5.0980453   54.6235962,5.1201334 54.1891747,5.981534 54.2330208,6.0692291 54.5542679,6.3758707 54.7113304,6.3027792 54.6929665,6.2115059   54.57621,6.1861687 54.5542679,6.0546255 54.7622948,5.3682837 54.8172073,5.4559822 54.9778481,5.4998665 55.0106316,5.7404995   55.1384506,5.8795633 54.9302406,6.0802913 54.897419,6.2079282 54.9778481,6.2774415 55.2698479,6.2446566 55.3866043,6.3138051   55.4122734,6.5548358 55.5217285,6.7046003 55.572876,6.7046003 55.5655746,6.2482343 55.612999,6.0143194 55.7080345,5.8866825   55.780941,5.9123487 55.8212128,6.2261095 55.8941231,6.29562 56.2373085,6.3868933 56.3212433,6.2699575 56.3212433,6.1533833   56.1936073,6.1387796 56.1936073,6.0289593 56.4089775,5.6859546 56.5148544,5.6385288 56.6790352,5.7697434 56.8615799,5.6677728   57.0405884,5.7005949 57.117218,5.9123487 57.0441284,6.2371721 57.1830101,6.5038724 57.394619,6.4379001 57.540802,6.5765991   57.6466789,6.682476 57.9058952,6.6243529 58.2124977,6.8760848 58.4936218,6.6642942 58.6615639,6.6532321 58.8075638,6.7591453   58.8368073,6.9017506 58.7674408,7.1170793 58.4278679,7.4458122 58.8915367,7.5370855 59.0193558,7.7232099 59.0084763,8.0444555   59.1653557,8.2487249 59.2056236,8.5154257 59.4355965,8.4751558 59.4575386,8.6177607 59.3370209,8.9717913 59.3077774,10.2239513   59.2566299,10.3883123 59.1690788,10.4432259 59.2346878,10.5672846 59.3332596,10.6001062 59.4136925,10.5270147   59.3808708,10.3408909 59.4610786,10.1947069 59.6070824,9.5194311 59.9139061,8.942544 60.1620598,8.9022779 60.2278137,8.6395168   60.1912651,8.5154257 60.0051804,8.4312716 59.9832382,8.3036318 60.1073303,8.2048769 60.5235748,8.1977549 60.6367912,8.0772409   60.8776054,8.2088203 61.162487,8.1210852 61.5457611,8.1503325 61.6334572,8.0408773 61.4033394,7.8800907 61.3705177,7.8583312   61.4217033,7.7413883 61.651638,7.6283588 61.8743095,7.6173329 61.9655838,7.6683002 61.921917,7.8836322 62.1700706,8.2305431   62.0204926,8.310791 61.9146156,8.3072128 61.86343,8.4423342 61.9072762,8.5482435 62.0495529,8.5628471 62.2285233,8.460515   62.3782845,8.5118837 62.4622536,8.6177607 62.3417358,8.9607296 62.3197937,9.1871567 62.3745232,9.3187027 62.4914627,9.263793   62.6009178,9.0555801 62.9478302,9.048461 63.0391006,9.1286726 63.0828018,9.5230093 63.0317993,9.647068 63.19244,9.771163   63.1667366,9.8043137 63.046257,9.9722557 63.0171967,10.2752829 62.9368019,10.3298283 62.9549828,10.4392834   62.7030716,10.6657133 62.516983,10.6510735 62.436554,10.3298283 62.3599205,10.297039 62.2797089,10.3519526   62.0277939,10.8229227 61.9728851,11.038291 62.0277939,11.1880159 62.2139168,11.231535 62.2247963,11.3484745   62.0679169,11.5748653 61.9365196,11.5420828 61.8233414,11.6661386 61.8743095,12.1663561 61.7502518,12.4401751   61.6771584,12.8345127 61.6004906,12.9550295 61.5714264,12.9988775 61.3450317,13.1814241 61.3120651,13.3529081   61.4801559,13.4295778 61.7320671,13.4074526 61.925457,13.3236609 61.9365196,13.09727 61.837944,13.0570002 61.86343,12.9036608   62.0021286,12.6772671 62.2650681,12.6262999 62.4549179,12.7029324 62.7141342,12.3963242 62.8565559,12.3307209   62.9478302,12.3927498 62.7797394,12.6006336 62.9259224,12.7321768 62.8856163,12.9403896 62.6521034,13.3019409   62.6374626,13.4441814 62.7542572,13.5864582 62.9733467,13.4844875 63.1412544,13.5279703 63.3492851,13.5864582   63.3603477,13.1814241 63.466259,13.1885433 63.5648346,13.3383045 63.681591,13.2833939 63.8094101,12.9329052   64.0539856,12.9183016 64.2730789,13.0937281 64.3679276,13.111907 64.4629288,13.3529081 64.5943222,13.3746672   64.7037811,13.5536356 64.9594193,13.7654228 65.583725,13.5646982 65.6457596,13.6010618 65.7115479,13.8128519   65.8393631,13.9918203 65.6457596,14.0210648 65.4122086,14.411459 65.3136292,14.4553061 65.2806625,14.6014862   65.1931152,14.5687046 65.1747513,14.4407024 65.3025665,14.2948847 65.2770844,14.214673 64.9922028,14.1668825   64.6563568,13.7800274 64.5212326,13.7180014 64.4445648,13.7690048 64.2256546,13.9187288 64.0648651,13.9333658   63.9518356,14.1561852 63.8021088,14.1234007 63.6961975,14.170826 63.5282898,14.6378527 63.9042625,14.9630413   63.7473831,15.1381035 63.7327423,15.3241911 63.5830154,15.2914057 63.4589233,15.426527 63.5245285,15.4814367   63.5172272,15.5798292 63.4186516,15.6272545 63.3822899,15.8536491 63.3785286,15.8793116 63.2617722,15.8354673   63.0719223,16.0361958 63.0938301,16.185957 63.2288055,16.3649254 63.0828018,16.6533852 62.9332237,16.7371368   62.8089828,16.7225342 62.6374626,16.59132 62.3197937,16.6205635 61.9875259,16.3685036 61.8816109,16.3613834   61.7684326,16.4708385 61.4837341,16.4194698 61.4325447,16.445137 61.3412743,16.4854431 61.2573395,16.6059589   61.5858841,16.6605053 61.7247314,16.649807 61.7830353,16.7738667 61.7210045,16.8615971 61.7028236,16.8833179   61.5714264,16.8687134 61.4398842,16.9050808 61.2537613,16.8541107 61.1441231,16.9671097 61.1295204,16.9817505   61.162487,17.2409286 61.2610626,17.2847767 61.4070625,17.1642971 61.9655838,17.1022301 62.1737938,16.9196835   62.3417358,16.8722954 62.4330101,16.9418087 62.5424652,17.0658646 62.7103729,17.0623264 62.8893776,17.2847767   62.9695892,17.2484112 62.8929176,17.033083 62.9368019,16.9599876 63.1011658,17.1279297 63.2945557,17.0805073   63.3822899,17.1243553 63.3858299,17.1682034 63.1813774,17.2594757 63.3091965,17.4199352 63.4954681,17.5332966   63.6634102,17.5222301 63.7948074,17.4127789 64.0502625,17.328661 64.3023224,16.9745903 64.5066299,16.9528713   64.5468979,16.8066883 64.678299,16.777441 64.7804489,16.9196835 65.0726318,16.8722954 65.2039948,16.9418087   65.2441177,17.0109577 64.842659,17.6498699 64.7257233,17.836359 64.5577774,17.9019661 64.5615387,18.0516911   64.9629974,18.2963047 65.2368164,18.679575 65.3572998,18.6321526 65.3976059,18.405756 65.5655441,18.3765144   65.6311188,18.5811501 65.7735748,18.661396 65.5509033,19.1394863 65.6165161,19.2090359 65.8209991,19.260004   65.9122772,19.489975 66.1240311,19.4354305 66.3139114,19.1434288 66.5001831,19.2200623 66.7263947,19.5594883   66.6863098,19.7637959 66.7228546,19.7677021 66.7848816,19.7748547 66.8688507,19.6104927 66.9601288,19.680006   67.0440979,19.8771572 67.2704926,19.8443718 67.5077667,19.9502487 67.584404,19.84795 67.6683731,19.85149 67.6428909,20.019434   67.5662155,19.9937668 67.3945541,20.1581326 67.135376,20.1984024 66.8250046,20.0597038 66.6936111,20.1071281   66.6351242,20.3920116 66.4599152,20.3955879 66.5074844,20.6618881 66.649765,20.7788601 66.6388855,21.1111355   66.4709396,21.1293163 66.2372437,21.0016804 66.0801773,21.1182537 66.222641,21.2680149 66.1131821,21.5382538   66.0473938,21.7828655 66.1204834,22.0056858 66.3504562,22.513052 66.5403061,22.688446 66.7263947,22.7212677   67.0332184,23.1629944 67.0002136,23.298151 67.1827621,23.2432384 67.5296707,23.3965435 67.4895859,23.4988785   67.32164,23.5280876 67.4202194,23.6960297 67.3580093,24.1085491 67.4565811,24.2689705 67.299736,24.3787899   67.3143387,24.6380062 67.5516129,25.2622795 67.4164963,25.5578575 67.5296707,25.5871029 67.5589142,25.5945854   67.7997665,25.3642483 67.9094086,25.4630032 68.0481033,25.4045563 68.2707367,25.5799828 68.2671967,25.7076168   68.5811081,26.1054974 68.6067734,26.2042561 68.4643478,26.5180168 68.48983,27.0913181 68.1211929,27.2849312   67.9421921,27.5658703 68.062706,27.5804729 68.102829,27.6899281 68.0662842,28.2083607 67.9348907,28.299633   67.9094086,28.3983917 68.1211929,28.4750214 68.1978302,28.3434811 68.234375,27.6132946 68.3292236,27.5587502   68.3584671,27.6753254 68.2853775,28.0186558 68.3876801,28.5189075 68.5591965,28.6465454 68.5702209,28.8109074   68.4935913,28.9823933 68.6834412,29.3913345 68.6688385,29.4715462 68.5445557,29.4351826 68.5190735,29.7236385   68.661499,29.7674904 68.6796799,29.8477001 68.5775604,29.9389744 68.701622,30.0084877 68.9207153,29.8990326   69.399025,30.0705528 69.5157776,30.3186703 69.6436005,30.39534 69.7749557,31.0306721 69.7311096,31.1658325   69.5815659,31.1950397 69.5778046,31.3373165 69.6471405,31.410408 69.7749557,31.4906197 70.1108475,31.7059517   70.5270844,31.8157711 70.6695099,31.9505634 70.6987534,32.7905693 70.5855713,32.9363861 70.6074829,33.1335373   70.4685974,33.2686577 70.4905396,33.5096931 70.4212112,33.5571175 70.1801758,34.1995735 69.8917542,34.9590034   69.8334427,35.0064278 69.7275696,34.9811287 69.4610519,34.7985802 69.420929,34.9115791 69.4719315,35.1087608   69.7275696,35.1415482 69.8041992,35.4007645 69.7676544,35.4627953 69.5485611,35.4955788 69.2127151,35.9704933   69.1544113,36.0542831 69.0959549,36.9160461 68.9936218,37.0764694 68.9645615,37.4893532 68.8586807,37.5000496   68.5921631,37.8726273 68.2051315,37.8141403 68.0662842,38.0223541 67.9532547,37.9528351 67.8108292,37.9639015   67.6282883,38.1026001 67.8216705,38.1902962 67.555191,38.4787178 67.4237976,38.3542938 67.2339478,38.5988693   67.0587006,38.6466637 66.7884598,38.9457817 66.6461868,39.2270851 66.7667007,39.2160568 67.0440979,38.8726921   67.047821,39.0335121 66.6643677,39.4313927 66.5110626,39.7126961 66.456337,39.7672424 66.3650589,39.8585167   66.2737885,40.1908226 66.1094208,40.263916 65.8429031,40.6436119 65.7699966,40.9866142 65.5874481,41.0343704   65.116478,41.8412247 64.8353577,42.8377457 64.7476273,43.4110527 64.7622681,43.8674202 64.8717194,44.0827484   64.8061142,44.7983322 64.8280182,45.0757294 64.9558411,45.835125 65.0688705,45.9520988 65.4485703,46.5325241   65.6530609,47.2737732 65.9122772,47.6716499 66.3030319,48.0438652 66.4599152,48.478508 67.5808563,49.2489624   67.8143692,49.5042343 67.7669449,49.7342072 67.748764,49.8112411 67.8765869,50.2273026 67.7707062,50.595974   67.4530411,51.1657028 67.0841827,51.5671539 67.0332184,51.6841316 67.1061249,51.7971306 67.0332184,52.0053406   66.9381866,52.0966148 66.9381866,53.1041985 66.6534882,53.2464409 66.4891205,53.9256554 66.649765,55.1232719   66.7410355,55.3642693 66.883461,55.4516373 67.0221558,55.4334564 67.0221558,55.3532448 66.9162827,55.2911797   66.9127045,55.1742401 67.0695801,55.1817245 67.3105774,55.4480591 67.3070374,55.8605804 67.2193069,55.9957008   66.6023331,56.0834312 66.5001831,56.4410019 66.3832474,57.3904648 66.5074844,57.7117081 66.4089127,57.981987   66.416214,58.0878639 66.5768509,58.1680756 66.7884598,58.5951958 66.7044907,58.8725967 66.5001831,59.0808067   66.3285141,59.4423599 66.0985413,60.9975471 66.0546951,61.2784843 65.9962082,61.9249191 66.1131821,62.4251328   66.0912399,62.7463799 66.1898193,62.9581337 66.1898193,63.512928 66.1313629,63.6954765 66.2372437,64.0423813   66.010849,64.5900269 65.7954788,64.6741409 65.7261505,64.9002075 65.7808762,65.6050568 65.6860275,65.8824539   65.4230881,66.3060379 65.3902969,66.5324326 65.5143585,67.2187653 65.6129379,69.7341156 65.4559097,70.351265   65.4851151,70.6286621 65.4339676,70.7128143 65.2259369,70.7563019 65.1346588,70.8586349 65.116478,70.9680939   64.9339371,72.1949081 65.0506897,72.5671616 65.2368164,72.8812485 65.2223587,73.1771927 65.2952652,73.3522568   65.2733612,73.5857697 65.3464508,73.9801102 65.2112961,74.250351 65.207756,74.6703568 64.8608398,75.1959076   64.5797195,75.8241196 64.0065613,77.5180054 63.9955368,77.6748886 63.9481087,78.4489212 63.9919586,79.2083511   64.0905304,79.4493866 64.5103531,79.8361969 64.9046936,80.0369263 64.9266357,80.3439331 64.6929016,80.3292923   64.3643494,80.4205704 63.9955368,80.7050858 63.6122627,81.3076324 63.3311043,82.1986084 63.1448326,82.4795837   63.1485558,82.7095184 63.090107,82.892067 63.1193504,83.1402206 63.0207367,83.4910736 63.0681648,83.8340454   62.9514046,84.0568924 62.9915314,84.5606842 63.2945557,84.6811676 63.3384399,84.8234406 63.298317,84.9403839   63.3346825,85.0715942 63.1740761,85.2833481 63.0754662,85.7033539 63.0719223,85.7582626 63.0317993,86.2253265   62.7103729,86.7840271 62.3745232,86.7622681 62.2870102,86.8349991 62.1664925,86.8168182 61.7684326,87.3534317   61.604248,87.9377975 61.7721558,88.2040939 61.4509087,88.1460114 61.2830048,87.868248 61.1806679,87.8244019   61.0639114,87.5651855 61.1660652,87.4960327 61.2318192,87.3498535 61.1441231,87.1016998 61.0893936,86.9483948   60.7863312,86.8022156 60.5856018,86.7950897 60.3884544,86.9045486 60.1292381,86.9191513 60.063446,86.9993591   59.7677231,86.9227295 59.5851746,86.9337921 59.4172325,87.0614243 59.2346878,87.0396652 59.1764183,87.2111511   59.0559006,87.1747894 59.004715,86.791153 58.6360779,86.7986298 58.2306786,86.4517212 58.1030426,86.4189377   57.9825249,86.4920273 57.8875313,86.404335 57.7670135,85.9151459 57.6174355,85.8274536 57.4677086,85.5792999   56.9858589,85.1193542 56.4308815,84.9147186 56.2373085,84.7357101 55.9891548,84.3670807 55.7262154,84.2611618   55.6056976,84.0932617 55.1603928,83.9763184 55.0471802,83.9253159 54.9047546,83.7135239 54.8026047,83.6696777   54.2000542,83.7427673 53.9884453,83.6187134 53.4078369,83.5566788 53.2325935,83.3705597 52.882103,83.1259842   52.374588,83.1184921 51.7247963,83.5092545 51.5167656,83.6368942 51.2283058,83.9253159 51.0092125,84.2686844   50.9507637,84.4326859 50.998188,84.5824127 51.1552124,84.6811676 51.0967636,84.8234406 50.9618225,84.9514465   50.8486099,84.9549866 50.7609138,84.81987 50.4762154,84.852684 49.8847275,84.1007462 49.7059059,83.8743515   49.4101791,83.7064056 49.176445,83.7392273 49.074295,83.542038 49.0559273,83.50177 49.0413246,83.4725266 48.9245682,83.2500381   48.6434479,83.417984 48.7054749,83.5309753 48.8514786,83.5309753 48.8917465,83.5965881 48.9318695,83.6625595   48.500988,84.2066193 47.5773773,85.1849594 47.1064072,85.8823624 46.93116,86.170784 46.7156448,86.740181 46.6646423,87.145546   46.7011871,88.0946426 46.8069191,88.6751022 47.0552559,89.1535568 47.4021683,89.5660782 47.5298042,90.022438   47.4969826,90.1828995 47.3436775,90.4349594 47.186615,90.6831131 47.1575546,90.9059296 46.9639816,91.2346573   46.9894676,91.5922699 46.9165573,91.8076401 46.9458008,91.9866028 46.7594948,92.6184006 46.6389771,92.5816727   46.5915527,92.3588181 46.3944016,92.479332 46.1389465,92.6472778 46.211853,92.8957596 45.8394585,93.136795   45.2918205,93.7646484 43.7328568,95.2396545 43.4847107,95.7177505 43.3422737,95.8639297 43.028347,96.0500565   42.5026283,96.4115677 42.2031403,96.5356598 42.0352135,96.8240891 41.4583359,96.8351517 41.2319374,96.6344223   41.1297874,96.3859024 40.9910965,96.2910538 40.7062225,96.2764511 40.5602226,96.1559296 40.5090599,95.8821106   40.3594933,96.0097504 40.3083305,96.1448669 40.4873123,96.3933868 40.5090599,96.5976944 40.3703651,96.5830536   40.2097473,96.3167572 40.1111641,96.1997757 39.7498169,95.7797775 39.8045425,95.4549866 39.1182098,95.2835083   38.8224678,95.1373215 38.6472282,95.0168076 38.27108,94.5932236 38.1762428,94.597168 37.9680252,95.024292   37.7599869,95.0168076 37.6868973,95.1262589 37.5920601,95.1191406 37.5080948,95.2214737 37.3802757,95.2321396   37.1684914,95.4186249 36.7925262,95.5134735 36.7158737,95.5865707 36.5953636,95.5644455 36.4894714,95.4585648   36.4201317,95.5680237 36.5916176,95.8493271 36.6026726,96.0136948 36.3835869,96.1595078 36.1498528,96.0867844   36.0149155,96.3128128 36.0366745,96.4735947 36.2047653,96.6672058 36.1390114,97.2330322 35.9017372,97.2547913   35.7227325,97.3681488 35.6168556,97.3243027 35.5803108,97.2255478 35.8505516,96.882576 35.792099,96.6925125   35.8250656,96.1997757 35.711853,96.0867844 35.5220032,96.0903244 35.310215,96.3202972 34.9743652,96.2835693   34.7734528,96.1997757 34.7333679,95.9915695 34.7370911,95.7398682 34.8026962,95.597229 35.094883,95.2068329   35.076519,94.7651062 35.1312447,94.407135 35.0838203,94.2281342 34.9963074,93.899765 34.8173027,93.6149216 34.6165733,93.4944   34.4121208,93.5710373 34.2770004,93.7279205 34.123661,93.6698303 34.1054802,93.3446426 33.7074165,92.8191299   33.7548447,92.6219406 33.4920845,92.0889435 33.5321732,91.6507568 33.7330856,91.4026031 33.7878113,91.1323624   33.7694473,90.7743912 34.1163597,91.1323624 34.1930275,91.0774536 33.9776611,90.7158966 34.0543289,90.2741699   33.8534203,90.2780762 33.7475433,90.4969864 33.6453896,90.508049 33.4592628,90.2887802 33.3460846,90.2634735   33.1927452,90.0627518 33.0539017,90.0042572 33.0319595,90.1903839 32.9809914,90.2196274 32.7545624,90.0627518   32.6378059,89.8509598 32.5026855,89.5222244 32.2470474,89.3179245 32.1850166,89.3250732 32.3017731,89.5731964   32.2689896,89.6538086 31.9769859,89.6245651 31.9878292,89.4748001 31.8090439,89.4601974 31.8308029,89.368927   32.0024719,89.2227402 32.0718002,89.0148926 32.0317154,88.7991638 31.7906799,88.8394699 31.6300755,88.8284073   31.4548302,88.8138046 31.3453751,88.8797379 31.2394619,89.0548019 31.1701317,89.1607132 31.177433,89.1717377   31.261404,89.3033218 31.1956139,89.4673157 31.2941895,89.5696564 31.2248592,89.642746 30.6588554,89.8470154   30.5529785,89.6245651 30.7064629,89.5514755 31.0677948,88.7956161 31.0642548,88.6458588 30.9838238,88.4340668   30.8779469,88.1677322 30.775795,87.8283386 30.4727306,87.3534317 30.3850346,87.3352509 30.2390347,87.4375458   30.0637894,87.3609161 29.7790909,87.6126099 29.6986961,87.5580673 29.7352428,86.5358734 29.6402454,85.9661484   29.5307903,85.7179947 29.0416031,85.1300507 28.9466057,85.4844437 28.8006039,85.531868 28.6873894,85.4185104   28.5852356,84.8491135 28.6071777,84.3635025 28.5340862,84.1845322 28.3479614,84.2319565 28.2930527,84.2465591   27.8185043,83.8194351 27.6979866,83.5965881 27.6614418,83.1951294 27.7272301,83.052887 28.2602673,82.4649429   28.4536934,82.3408813 28.574173,82.1654587 28.785965,81.8516998 29.3810291,81.3586044 29.5234528,81.1432724   29.6621513,80.7710571 29.589241,80.2269592 29.4359398,79.6757812 29.1694221,79.4055023 29.2423306,79.168045   29.0963306,78.930954 28.8772373,78.7591019 28.5121441,78.802948 28.4246311,78.6717758 28.5378113,78.4272003   28.4647198,78.3283997 28.3442383,78.3248596 28.2347832,78.0656433 28.2895107,77.8321304 28.0522366,77.6602859   27.9937496,77.4085541 28.0411739,77.2185211 27.9828682,77.043457 28.1581135,76.689064 28.6581459,76.2548218   28.8006039,75.8055725 28.9430275,75.5937805 29.0050564,74.9039001 28.5815125,74.6008377 28.1397495,74.2795944   28.1032047,74.1737137 28.2784481,73.5675888 28.5815125,73.2645264 28.4647198,73.1625595 28.8333893,72.8923111   29.103632,72.5635834 30.0784302,70.9463348 30.1515217,70.7270584 30.2937622,70.1794205 30.4399452,69.8510513   30.4326439,69.161171 30.62607,68.5222626 30.5274582,68.025589 30.2170925,67.7371674 30.1076374,67.539978 30.1039143,67.0034027   30.1258183,66.5031891 30.2500973,66.2404251 30.2536373,66.0539398 30.162365,65.8753357 29.9397316,65.7548218   29.9177895,65.5244827 29.8373947,65.4189682 30.0237026,65.2799072 30.1550636,64.5935669 30.158823,64.3272324   30.096611,64.2652054 29.8958836,64.2359619 29.8923054,64.1700211 30.0053387,64.1079559 30.0383072,63.7211418   29.9031849,63.4544411 29.9470329,63.0968323 29.8593369,62.7862854 29.8777027,62.7388573 30.0637894,62.242588   30.0675507,62.0635796 30.1550636,62.0086708 30.2573986,62.0343742 30.4727306,62.242588 31.177433,63.5749588   31.4621334,63.9364738 31.6264973,63.8962021 31.6739235,63.6369858 31.8892555,63.2284126 32.5647125,62.2900124   32.747261,61.9359436 32.6998329,61.8008232 32.5720139,61.884613 31.9951687,62.6076813 31.8673496,62.6369247   31.8308029,62.5563126 31.9038944,62.3958893 32.4661369,61.8079453 32.7727432,61.2093391 33.0357208,60.2270927   33.0173569,59.3143578 33.0102005,59.0843849 33.0941696,58.5513496 32.9772339,58.109623 32.747261,57.6129532   32.6085625,57.2296791 32.2871704,56.8535233 32.0463181,56.6820374 31.2722836,56.7369461 31.2102547,56.7002182   31.2649822,56.5287361 31.4182854,56.3643723 31.3744373,56.265976 31.261404,56.2805824 31.1225224,56.4082184   31.0350094,56.6527939 30.5019741,56.762249 30.4253407,56.7041626 30.7611904,56.5690041 30.8012772,56.5140953   30.775795,56.4631271 30.2791576,56.5105553 30.0237026,56.7843742 29.8156357,56.8353386 29.7534237,57.1238022   29.8156357,57.1202202 29.8703632,56.9669189 29.9835796,56.9120102 30.0237026,57.036068 29.9470329,57.2150726   30.0090618,57.2771034 30.3996391,56.8645859 30.5166149,56.8720703 30.5201569,56.9961624 30.096611,57.3098869   29.8703632,57.6129532 29.7826691,57.9270744 29.7790909,58.1206512 29.7753658,58.3138924 29.6402454,58.540287   29.4576988,58.5075035 29.4541206,58.3213768 29.6220646,58.1206512 29.6402454,57.8685913 29.5489731,57.6824646   29.2788773,57.3027649 28.8845387,56.9305573 28.6326618,56.908432 28.4536934,56.7333717 28.4135685,56.5287361   28.4755993,56.3133659 28.5121441,54.9225464 28.5194454,54.5681496 28.5048428,54.3891449 28.2968121,54.0825386   28.2968121,53.9730835 28.4281731,53.6992645 28.8006039,53.1041985 28.8845387,52.9508972 28.9503288,52.7794113   28.9904537,52.6770782 28.9977551,52.5162544 28.972271,52.3009224 28.9430275,52.1878891 28.8956013,51.9725571   28.7567196,51.7461624 28.6619053,51.7204933 28.530508,51.7678871 28.3479614,51.8556175 28.2090816,51.8591576   28.085022,51.8192558 28.0302944,51.7678871 27.9755669,51.6876755 27.9645042,51.5343704 27.9973259,51.4794617   28.0375957,51.4063721 28.1762962,51.2676735 28.3041153,51.2202454 28.446537,51.296917 28.5925388,50.9610672   28.7640591,51.0523415 28.8479939,51.2751579 28.9466057,51.3407631 29.1145115,51.3443413 29.5746384,51.019516   29.6621513,51.0049133 29.9104881,51.1325493 29.9397316,51.1218529 30.074852,51.0744286 30.4909115,50.7200317   31.2029171,49.8657875 31.2468014,49.6943016 31.1298256,49.2489624 31.177433,49.0518112 31.3161316,48.9056282   31.3453751,48.8763847 31.3197098,48.8143539 31.2576447,48.840023 31.1701317,48.8799629 31.1590691,48.7961731   31.1262836,48.5769005 31.075098,48.4382019 31.0021877,48.2410507 30.7100048,47.8321114 30.4288826,47.1568298   30.3157043,46.70401 30.3887959,46.4084663 30.290184,46.1164665 30.3668537,45.791275 30.4873714,45.3752174   30.4727306,44.6742744 30.5567017,44.181179 30.3996391,44.0061188 30.5529785,43.8125076 30.8487034,42.8377457   31.0203705,42.6626854 31.1225224,41.9981079 30.9911633,41.7314072 30.8670673,41.7168007 30.899889,41.6073456   31.1262836,41.4066162 31.1408882,41.3919792 31.1810112,41.3591919 31.1371632,41.3081894 31.1262836,41.3042831   30.9326744,41.2935867 30.8123398,41.3445511 30.6661568,41.1766472 30.6187305,40.7313423 30.5019741,40.4575233   30.3413696,40.3188248 29.9397316,40.3954582 29.7790909,40.3188248 29.7352428,40.0410614 29.6257877,39.9023628   29.3482437,39.7929039 28.9649696,39.7783012 28.8991795,39.7016335 28.63624,39.7273369 28.4135685,39.5921783   28.3295975,39.690609 28.1871758,39.6688499 28.2383251,39.3365402 28.1871758,39.1066055 28.1435108,39.0263596   28.0668411,38.8837547 28.1470509,38.7047844 28.318718,38.5625076 28.2968121,38.1681709 28.4208717,37.8872299   28.4536934,37.5841675 28.6071777,37.4162636 28.63624,36.934227 28.7385387,36.7662849 28.4319344,35.4592171 28.12887,34.7985802   28.212841,34.6085129 28.12887,34.4990578 27.9901714,34.3090286 27.8331451,33.4986305 27.7163506,33.3962975   27.4241676,33.3417511 27.1831684,33.2176933 26.8510437,33.3709946 26.8218002,33.2102089 26.8619232,32.8853836   26.7123451,32.5605965 26.2777386,31.1950397 26.1501026,30.990406 26.13904,30.8844929 26.1975269,30.778616   26.2741604,30.6473999 26.2888012,30.6217346 26.2814999,30.4466724 26.2814999,30.4320698 26.2048302,30.2823086   26.1062546,30.1981907 25.989315,30.0922775 25.9164066,29.9425526 25.8543396,29.8184566 25.4199162,29.6615734   25.3140392,29.6615734 25.1970634,29.6615734 24.8685169,29.8077602 24.864975,30.0049458 24.7517586,30.0630322   24.2916698,29.9610996 24.1748753,30.1507645 24.1347885,30.5561275 24.0397549,30.5778866 23.9010563,30.4755516   23.8426056,30.6035538 23.8279648,30.6292191 23.1708698,30.4720097 22.9883232,30.585371 22.8204174,30.5743065   22.7546272,30.3882217 22.8970509,29.6687317 22.9628391,29.5300331 23.174448,29.4972115 23.2657204,29.3842163   23.2657204,29.0629692 23.1453857,28.9495716 23.0685711,28.7378178 22.9701424,28.6722107 22.6414127,28.6283607   22.3421097,28.6832733 22.3166256,28.7453022 22.4588661,29.0009403 22.1850452,29.4573078 22.1267776,29.5592766   21.8345928,29.5592766 21.7944698,29.6505508 21.9624119,29.9425526 21.9222889,30.0413094 "></polygon></svg>