<svg height='100px' width='100px'  fill="#000000" xmlns="http://www.w3.org/2000/svg" xmlns:xlink="http://www.w3.org/1999/xlink" version="1.0" x="0px" y="0px" viewBox="0 0 100 100" enable-background="new 0 0 100 100" xml:space="preserve"><polygon points="3.7784402,42.9927864 3.7748213,42.9182243 3.75,42.8187027 3.7713389,42.7691345 3.7676818,42.6446533   3.9771311,42.5312805 4.1511836,42.3110733 4.3002706,42.4601974 4.3819342,42.3963928 4.523922,42.2895927 4.7335486,42.0163765   4.9252806,41.5191498 4.8186564,41.2635803 4.8470993,41.1464081 5.1133938,40.8801155 5.1523767,40.5642204 5.397367,40.1415558   5.3938904,39.8825417 5.2340398,39.6516113 5.0103884,39.5520859 4.9571676,39.3603554 4.8647785,39.2611885 4.9039416,39.0337372   4.7227907,38.8919258 4.7014513,38.7355232 4.9394832,38.2667389 5.5785208,36.9886665 5.741848,36.5198822 5.7276459,36.3707962   5.6849651,36.0476189 5.8021698,35.8062859 6.0721211,35.5223122 6.0934248,35.2809753 6.0684643,34.8975143 6.0613627,34.7483864   5.9549165,34.6415863 5.649601,34.6273842 5.717062,34.4110107 5.9549165,34.4748154 6.2388926,34.4536896 6.3879819,34.3791275   6.6863732,33.9387817 6.9526672,33.8143005 7.1478815,33.5126419 7.3680511,33.3066711 7.6059079,32.7955627 7.7336907,32.6499557   7.9680676,32.5327492 8.1561756,32.5362282 8.9162149,32.6887627 9.3670006,32.5611877 9.8926268,32.316021 10.0843945,32.1742096   10.3468542,31.8118725 10.588542,31.6416225 10.623909,31.563261 10.5209417,31.3361645 10.5493469,31.0483532   10.8760014,30.8815823 11.0677328,30.8673801 11.4831133,31.1443977 11.7244473,31.1513557 11.9161787,31.0840721   12.2892752,30.7075329 12.4526024,30.3951168 12.388443,30.2567501 12.4630051,30.0757771 12.6405344,29.9124489   12.686657,29.7737637 12.5767336,29.6142712 12.4595261,29.4471455 12.0441446,28.5667763 12.0229807,28.4176865   12.1436653,28.1583157 12.2677937,28.037632 12.4595261,27.9665489 12.5836544,27.9949894 12.6478138,28.0979919   12.5233297,28.2009583 12.5198498,28.2966461 12.6620159,28.4211311 13.3648548,28.3926907 13.4820604,28.3074055   13.5673485,28.3358459 13.6169472,28.8011494 13.5639009,29.2626553 13.6561127,29.3514214 13.9047222,29.3902645   14.0538473,29.7526016 14.2098598,29.894413 14.2632637,30.0861797 14.2063799,30.4165974 14.2809429,30.9349842   14.831213,32.0428047 15.1685905,32.1561737 15.3072758,32.3052979 15.4490871,32.7564011 15.545166,32.8274841   15.6800175,32.8378868 15.7510996,32.9516106 16.0988808,33.0403786 16.2018852,33.3031921 16.3724537,33.3243523   16.5250225,33.1967468 16.6065083,33.2071495 16.6952724,33.2782326 16.6917934,33.523365 16.7486763,33.6794128   16.8766365,33.7789345 17.4657154,34.098629 17.8388119,34.1339951 17.8814545,34.0805931 18.1547108,34.062912   18.885952,33.8784218 19.6709862,33.5729637 20.8318558,32.7882843 21.5527287,32.3267784 21.7833042,32.2876167   22.0533962,32.1384926 22.1810055,31.9859581 22.3869743,31.563261 22.3158913,30.9953079 21.9219894,30.0438576   21.7444592,29.8982468 21.7548637,29.8271637 21.9112339,29.7702847 22.0461178,29.6423569 22.2451649,29.6211948   22.3124123,29.3264599 22.4226933,29.1842937 22.7243519,29.0067654 22.5787067,28.7335472 22.5752621,28.577179   22.742033,28.3715649 23.0260105,28.019949 23.2961025,27.8528233 23.7610912,27.7924995 24.0343056,27.9239063   24.2510338,28.1371536 24.4001236,28.1759987 24.6379776,28.0092258 24.7444248,28.0553131 24.9895954,28.5310574   25.1636429,28.6128979 25.4687805,28.623621 25.9871311,28.4884148 26.5661964,28.1797962 26.8182888,27.9949894   26.9815807,27.7640591 27.0595894,27.2779465 27.2159901,27.2883511 27.3543205,27.43396 27.5034142,27.4800816   27.7093792,27.4055557 27.9188328,27.437439 28.0183163,27.3985958 28.1390018,27.1749802 28.2988491,27.1357822   28.6466293,26.8483257 28.8633213,26.773798 28.9520855,26.7842026 29.1403732,26.6173954 29.239542,26.6173954   29.3817081,26.901371 29.5307999,26.9651756 29.6691284,27.0220566 29.6549263,27.3486748 29.6549263,27.3701916   29.9212189,27.6683693 30.0241871,27.782095 30.3650436,27.7571354 30.4576435,27.8105354 30.7096996,28.3074055   30.7273808,28.6732216 30.8834286,29.0886059 30.9333515,29.3940983 30.8230686,29.8556042 30.8196259,29.8874893   30.7984638,30.1999054 30.904911,30.5442066 31.1570015,30.832016 31.9239655,31.3146477 32.5026741,31.3396091   32.8220177,31.4887333 33.4187622,31.435688 33.9621086,31.2581577 34.2103691,31.1870747 34.6683922,30.8781033   34.8071136,30.5868492 35.0945358,30.7324944 35.4638367,30.8389397 35.5702782,30.9384632 35.5810051,31.2189598   35.7301292,31.5348206 35.6663208,31.9717197 35.7796936,32.1742096 35.6697693,32.5043106 35.6840057,32.685318   35.843853,32.8559227 36.0355835,33.0937767 36.4756088,33.6509705 36.7207451,33.8500175 37.1857262,34.0663567   37.459301,34.1163139 38.0914116,34.6773071 38.5990067,34.7979889 38.744648,34.9682426 39.3125992,35.2986603   39.8667068,35.4016609 40.0830421,35.4085846 40.0903206,35.415863 40.2605743,35.5115509 40.6475525,35.5576744   40.6475525,35.6287575 40.4772987,35.710598 40.5234261,35.8524094 40.5553055,35.8596878 41.0844193,35.9910965   41.407589,36.2005424 41.6062813,36.2251511 42.5684547,36.0798607 43.1187248,35.9945755 43.7439156,35.7709236   44.1024208,35.7459602 44.6526871,35.6076317 45.0361862,35.419342 46.4030228,34.6097031 46.9678841,34.1943169   47.1380997,34.041748 47.3655853,33.9457054 47.5961609,33.9529839 48.0080681,33.7328148 48.2778397,33.8357811   48.5441322,33.8465385 48.8035049,33.7151299 49.1301231,33.6724892 49.3322601,33.5160866 49.5136223,33.5199203   49.9785728,33.7397385 50.1668587,33.9280243 50.639122,34.1447182 50.876976,34.2581215 51.4875717,34.243885   51.9137192,34.4144897 52.2368889,34.4002876 52.6699562,34.2865257 52.7802353,34.1943169 52.9008865,33.8676987   53.0642128,33.9068642 53.6463661,34.3115234 54.0936699,34.3188019 54.164753,34.3826065 54.6442947,34.4110107   54.9885979,34.5812607 55.3436546,34.6027794 55.5530739,34.7411079 55.7340775,34.7660713 56.1671448,34.7730293   56.4833946,34.6523438 56.6893272,34.6842651 57.225399,34.8191147 57.4240875,34.7587929 57.9320335,34.7341843   58.6951981,34.4214134 59.4871597,34.5209389 60.3037224,34.1516762 60.8789597,33.7112961 61.2766914,33.4665184   61.4327049,33.4876442 61.7239571,33.7185745 62.4767227,33.764698 62.7111282,33.7043724 63.0980759,33.7043724   63.9361534,33.4311562 64.862648,32.7775269 65.7398911,32.7955627 66.2259979,32.4224663 66.6805801,32.4263039   66.8938293,32.3375359 67.5574722,31.8084297 68.0297318,31.5917015 68.9458237,30.3808784 69.8726349,29.2945766   70.0359573,28.9786797 70.1212463,28.9110756 70.2703323,28.8933945 70.3591003,28.9856396 70.973175,29.2200127   71.4277573,29.2484531 71.7366943,29.1666126 72.8941116,28.8399944 73.415947,28.6198215 73.9308472,28.6839809   74.3108673,28.4991379 75.0813141,27.8601017 75.2162018,27.8247375 75.344162,27.9239063 75.5144119,28.2401562   75.7418671,28.3431244 75.8729172,28.4034481 75.9973984,28.6766663 76.5868683,29.3406982 76.6541138,29.4152241   77.1263809,29.4117813 77.435318,29.4083004 77.6839294,29.4083004 77.9041061,29.4897881 78.1703949,29.4932308   78.7456665,29.3867836 78.9335632,29.5112686 79.199852,29.8874893 79.1894836,30.1679859 79.2993774,30.2494717   80.2973099,30.6118088 80.8403015,30.3205547 80.993187,30.1964264 81.4866104,29.7845211 81.9054718,29.6707611   82.3492966,29.3798599 83.4678802,28.2009583 83.9009399,27.3913174 83.9186249,27.3559532 83.9259033,27.3417511   83.9543457,27.2176228 84.0039062,26.979414 84.0111847,26.961731 84.0926743,26.7453594 84.2702026,26.2834988   84.2206345,25.7332268 84.2736816,25.4315701 84.1779938,25.1545162 83.8582993,25.0338688 83.9470673,24.8813 84.2736816,24.8813   84.6963425,25.8788719 84.6325378,26.4149055 84.5933762,26.7238426 84.5791473,26.8483257 84.5330505,26.9332905   84.4796524,27.029335 84.5968246,27.0931396 84.87043,27.2457085 85.4133835,27.3344727 85.7792053,27.3701916   85.9782486,27.3344727 86.9154663,27.0220566 87.440773,26.9513283 87.8100357,26.8126068 89.471962,26.0210381   90.196312,25.6729031 90.7535095,25.2824802 91.5704269,24.643446 92.2021866,24.0574551 92.6390533,23.7980843   92.9337845,23.7093201 93.2000809,23.7308369 93.5728226,23.9437294 94.240303,24.4194374 95.0284195,24.8386574   95.2735901,24.8955021 95.5752487,24.8740196 96.1861954,24.9842663 96.25,25.0407925 96.2250061,25.1617966 96.0367508,25.3178444   94.8404846,25.6836605 94.300621,26.0671253 93.9847565,26.5639954 93.8072281,27.1749802 93.732666,27.3559532   93.5017395,27.9169827 93.5194168,28.0341873 93.6439056,28.0729961 93.8356705,27.8316975 93.7822723,27.6968098   93.8106766,27.6364861 93.9598007,27.6791286 94.0450821,27.7963333 94.0093613,28.0126705 93.8533554,28.3642864   93.5409393,28.7973518 93.2143173,29.2553768 93.0898361,29.4259834 92.688652,30.2494717 92.2021866,31.3184834   91.971611,31.9966812 91.6626358,32.5823135 91.1300507,33.4027138 90.4234161,34.038269 90.2566376,34.6346626   89.9937973,34.9151955 89.890831,35.1388092 89.457756,35.6145554 88.6588745,36.6728096 88.5097885,36.8395805   88.3180161,37.2338028 87.767395,37.9581566 87.5652542,38.2525368 87.437294,38.6575165 87.0572739,39.0233345   86.869339,39.3960762 86.2303085,40.063549 86.1131363,40.6422272 86.1450195,40.8020744 86.1661835,40.9262009   86.0597382,41.1394501 85.9602127,41.2101784 85.9213715,41.2351723 85.7438431,41.2032547 85.4133835,41.6931992   85.3707428,41.7608032 85.3815002,41.8849335 85.4775467,41.9913788 85.0621643,42.3998375 84.9057999,42.6377296   84.8561935,42.6342468 84.87043,42.7049751 84.1103592,43.8485146 83.4820786,45.2403221 83.4855652,45.2649422   83.4962845,45.3433037 83.5139694,45.4924011 83.5777664,45.538517 83.6238861,45.5704155 83.6949692,45.8970413   83.9259033,46.2555695 83.8797836,46.4261665 83.4428787,47.1966133 83.2795868,47.8748322 83.2688293,48.3897362   83.2227097,48.5104027 82.6973953,49.1990242 82.6086349,49.6393776 82.5552368,49.9022064 82.534111,50.573143   82.6297989,51.2302094 82.5625458,51.4750023 82.3811798,51.6986504 82.3031769,52.0110703 82.0510864,52.1816406   81.6960297,52.7249908 81.564621,52.7676315 81.1953583,53.1473312 80.978981,53.1972542 80.8936996,53.2821846   80.9432678,53.4066658 80.918663,53.4989128 80.8829422,53.5484772 80.5455627,54.0349808 80.3680344,54.2870369   80.2973099,54.3830795 80.0948181,54.674015 80.0521393,54.9049454 80.0448608,54.9441071 80.0448608,54.9725494   80.0448608,55.4552155 80.0448608,55.4659386 80.0486908,55.6008263 80.0486908,55.6753883 80.0556183,55.8317566   80.1516647,57.3584366 80.1478653,57.8553085 80.0805817,58.0543518 80.098259,58.8674393 80.2189484,59.5987167   80.1835785,60.6177711 80.2792664,61.1115189 80.4925156,61.5553398 81.0285568,61.6156998 81.5327377,61.7432747   82.0157242,62.3611832 82.118721,62.3719063 82.1894531,62.3788643 82.296257,62.1659737 82.7150879,62.3788643   82.8215256,62.5137177 82.8038483,62.581356 83.009819,62.5921135 83.1908264,62.3930664 83.2050247,62.1978569   83.3860321,62.215538 83.5600891,62.382309 83.7057343,62.7907677 83.9862289,63.1531067 84.3839264,63.4974442   84.6395035,63.9623947 84.8204727,64.1648865 84.6821442,64.4311752 84.6429443,64.5126648 84.401619,64.5518646   84.2168045,64.3174515 84.0465546,64.2463684 83.9789505,64.307045 83.9647446,65.0029678 83.8759842,65.1766586   83.7802658,65.1697388 83.7199326,65.0383301 83.8052521,64.7151566 83.8014221,64.4311752 83.7695312,64.3600922   83.72686,64.2678833 83.5992813,64.157608 83.4463577,64.1222382 83.0490112,64.3566513 82.9779282,64.5126648   83.0490112,64.7931976 83.009819,64.9246063 82.7577591,65.3330612 82.8038483,65.3684235 82.921051,66.106987   83.0417404,66.3521194 83.3010712,66.6395721 83.2123032,66.7744217 83.4252014,67.3427353 83.5885315,67.5733109   83.819458,67.6017456 83.9505081,67.5556259 84.0288696,67.4419022 84.0215912,67.2539673 84.0892334,67.2005692   84.3482132,67.459938 84.3662491,67.4987793 84.4369736,67.6620712 84.3697281,67.7404709 84.060791,67.6835861   83.9186249,67.7262344 83.8298569,68.0563278 83.9151459,68.3652649 84.0392761,68.5712357 84.3482132,68.7876129   84.4550095,69.0115814 84.7247849,69.0577011 84.9057999,69.2137527 85.1578522,69.245636 85.434906,69.1107483   85.7934494,69.1960678 85.9532928,69.2314301 86.0347366,69.3666382 86.1023788,69.973793 86.1093063,70.3038864   86.1093063,70.3146439 85.9356079,70.7653961 86.0455017,70.9321671 85.9816971,71.2268982 85.9317703,71.2587814   85.825325,71.0566483 85.5448303,70.9429245 85.4702682,70.9713669 85.3673019,71.2553406 85.4917831,71.6103973   85.6835175,71.9408188 85.7934494,71.976181 86.2122726,71.741806 86.2691498,71.7632904 86.5853653,71.8839722   86.7875366,72.4696045 87.1321945,72.9952698 87.0715103,73.1478043 86.5389252,73.0767212 86.5319672,73.0767212   86.2975922,72.8496246 86.0704575,72.8461456 85.9459763,72.959549 85.7615204,73.1335983 85.6620026,73.1478043   85.5059891,73.0340805 85.3246231,73.0874786 85.1470947,73.208168 85.0725632,73.353775 85.1509247,73.92556   85.0087662,74.1207733 84.9411621,74.3797913 84.1887207,74.4473877 83.8298569,74.7598114 83.7234116,74.7847672   83.5139694,74.7206116 83.4359589,75.0191803 83.180069,75.0722275 82.9779282,75.2889175 82.5767517,76.0701141   81.9976807,76.439415 81.4900589,77.724762 81.3905716,78.0936661 81.3870926,78.20047 80.9363403,78.6938934   80.7161713,79.0773621 80.6131668,79.560379 80.6911774,80.1141357 80.6627655,80.4195938 80.5102005,80.7850494   80.3219147,80.9164581 80.3468704,81.356842 80.25811,81.5166855 80.25811,81.6585007 80.25811,81.7011414 80.4179535,82.0669556   80.4710007,82.4788589 80.6735001,82.901207 80.9751511,83.1394119 80.8902206,83.2600632 81.0355072,83.6858521   80.9432678,84.3110352 80.996666,84.4601288 81.3482437,84.9927139 81.4831314,85.3120575 81.4935379,85.4791794   81.305603,85.9372406 81.2556839,86.0613708 81.1918793,86.0578918 81.156517,85.7700806 80.978981,85.7274399   80.7372971,85.8092804 80.6627655,85.8768845 80.5847321,86.1535797 80.3787994,86.1893005 80.1409073,86.4802017   79.9741287,86.5797195 79.8427277,86.590477 79.1821747,86.0613708 78.9515991,85.5360641 78.7099457,85.2163696   78.3583298,84.8436279 78.2876053,84.8079071 78.1277542,84.7191391 77.527565,84.6199722 77.438797,84.6730194   77.4211197,84.6802979 77.1440659,85.0742035 77.0022507,85.1383591 76.5868683,85.1026382 76.4020615,85.0849609   76.064682,84.9996414 75.8802032,84.8720627 75.4717331,84.3463974 75.1558762,84.0801086 74.4776382,83.7323227   73.6929932,83.6009216 73.4197769,83.6504822 73.245697,83.7392502 72.9828796,84.0409088 72.6704636,84.0624237   72.4964142,84.2045898 72.3403625,84.2399521 72.1059875,84.2045898 71.9815063,84.2610779 71.6514053,84.5842514   71.4596405,84.6660919 71.2997894,84.6303787 71.1118927,84.4566498 70.9236069,84.3821182 70.5612717,84.3571548   70.4690247,84.2399521 70.2311707,83.9487 70.1212463,83.927536 69.8903122,84.1511917 69.691658,84.019783 69.5102921,84.0766296   69.2121201,84.0516663 68.9069824,84.168869 68.5377197,84.012825 68.4735565,83.9878616 68.1542206,83.3523026   67.912529,83.0717773 66.9433975,82.3758926 66.3470078,82.1948853 66.1552734,82.0811615 65.7041702,81.8609848   64.6566772,81.5839386 64.5433044,81.580452 64.3761444,81.6942139 63.9715233,81.5627747 63.4531364,81.431366   63.0162659,81.3817978 62.7146111,81.1543121 62.4732742,80.6290359 62.2673073,80.4123077 62.0363731,80.2989426   61.9868088,79.5888214 61.7524033,78.7399826 61.5499077,78.1824341 61.4861069,78.0087433 61.3546982,77.7566452   61.1241226,77.5364761 60.9250755,77.2060242 60.6695404,76.5208664 60.5027695,76.3752518 60.4101677,75.9633179   60.0551109,75.3100815 59.1286545,73.9928131 58.5215034,73.1301193 57.0547905,71.6422806 56.2843475,71.2022934   55.8797264,70.8898773 55.3897781,70.8115158 55.3294525,70.6873856 55.2902527,70.605545 54.8890724,70.367691   54.7753487,70.3004074 53.8131371,69.9345932 53.266346,69.6610184 52.8828468,69.6398926 52.2011719,69.4588852   51.7965508,69.3559189 50.8592949,69.1995163 49.9893303,69.3097916 49.2223701,69.2033463 47.9869385,69.2210312   47.7487297,69.2990341 47.461277,69.6291351 47.3794327,69.6932907 47.3725128,69.7002182 47.36903,69.7036591   46.9110031,69.647171 46.8045578,69.6364136 46.4956207,69.6506119 46.3038521,69.7216949 45.8953934,69.6825333   45.6540947,69.558403 45.3274422,69.4873276 44.9224625,69.0646286 44.8479004,68.8233261 44.6703682,68.5213165   44.0171318,67.9464035 43.7723541,67.8503571 43.1613693,67.7331543 42.6929398,67.7615967 42.5684547,67.8361588   42.0819893,67.6905136 41.7626495,67.6693878 41.4713936,67.4776154 41.1589813,67.0123138 40.9176445,66.7851791   40.6263924,66.731781 40.4239006,66.6326141 39.589653,66.018219 39.2311134,65.9152145 38.9221764,65.2584991   38.620163,64.7862396 38.3895874,64.5591431 38.1694183,64.5199432 38.0237732,64.4169769 37.40242,63.7460556 36.8379478,63.40868   36.7276649,63.2096329 36.4010468,62.8510933 35.8792152,62.4960365 35.6590424,62.4606705 35.5418396,62.4429893   35.5560417,62.6167183 35.4887924,62.6950798 35.4388351,62.6205177 35.3892746,62.6381989 35.3216667,62.783844   35.2259445,62.6274796 35.186779,62.5636749 35.1406593,62.5352325 35.0411339,62.4710732 34.5619469,62.3504257   34.2141685,62.510273 33.9832382,62.4995155 33.5962944,62.2086143 33.1063461,62.176693 32.9392204,61.9669266   32.6944427,61.8604774 32.3501053,61.5126991 32.0730896,61.1184769 31.5047817,60.6070137 31.2422867,60.4863663   31.0682373,60.2627144 30.6067314,60.0744247 30.2620754,59.719368 30.1060276,59.6271591 29.4915981,59.5917931   28.8171997,58.7006683 28.5332222,58.5619812 28.3022957,58.5193024 27.9825974,58.5654259 27.9399548,58.508934   27.6736603,57.628212 27.3435631,57.0529823 27.0523071,56.8116455 26.7114868,56.2187347 26.3283424,55.739193   26.189621,55.6968689 26.0297737,55.5370216 25.9306412,55.5086174 25.8380413,55.6292648 25.7634792,55.6115837   25.5932636,55.1962013 25.160162,54.63517 24.9895954,54.5391273 24.4500446,54.468399 24.0523434,54.5356483   24.0062218,54.3758011 23.7007637,54.4930038 23.1893005,54.2339897 22.8841991,54.1771431 22.4403763,54.2090302   22.0814819,54.1060638 21.7195015,54.1487045 21.4320431,54.4115181 20.9882202,54.4007607 20.7430897,54.4718437   20.6435642,54.4184418 20.4518318,53.7333221 20.2923393,53.4847107 20.2070198,53.349823 20.0294895,53.1722908   19.8803997,52.8206787 19.47542,52.4268112 19.2271633,52.0644722 18.6519318,51.5779839 18.3998394,51.43964   18.0801487,51.4642563 17.7427673,51.357811 17.2989445,51.4892197 16.6422272,51.2621117 16.2729664,51.1944962   15.0229454,51.1944962 14.3412676,51.2121773 14.110692,51.1591301 13.2514849,51.3151588 12.0087786,51.7305412   11.0181637,52.0679169 10.7802744,51.9261055 10.5282183,51.8585014 10.1305161,51.3862381 9.8603878,50.8217506   9.3066406,49.9483223 9.0830212,49.1671219 8.9304523,48.9576912 8.7848072,48.858181 8.2449398,48.4819679 8.1882372,48.4427872   7.879303,48.2475739 7.6414466,48.173027 7.2721848,48.1303787 6.8496647,48.2971573 6.5122876,48.2226105 6.4554429,48.091198   6.4093208,47.9743462 6.2459936,47.8997993 5.6921015,47.3599281 5.3867888,46.8557701 5.2057772,46.7954407 5.1099114,46.5645142   5.1879177,46.3481483 5.1666145,46.2413521 4.9714026,45.918541 5.0672688,45.6238136 5.0494094,45.1196594 4.6624689,44.100605   4.2968264,43.5218964 4.1369815,43.2698021 4.0624189,43.2413979 3.9807556,43.3159256 "></polygon></svg>