<svg height='100px' width='100px'  fill="#000000" xmlns="http://www.w3.org/2000/svg" xmlns:xlink="http://www.w3.org/1999/xlink" version="1.0" x="0px" y="0px" viewBox="0 0 100 100" enable-background="new 0 0 100 100" xml:space="preserve"><path d="M4.8407583,35.1637993l-1.1250651,0.2130928l-0.2949774-0.1858902L3.3551109,34.650322l-0.2240736-0.6937447  l-0.4643705-1.20187l0.1256385-0.4969254l0.2787533-0.2296448l1.3328073-1.2399979l-0.8031046-0.9994259l0.464371-0.469944  l1.4258871-0.7919044l0.0709581-0.267828l-0.2075219-0.5462532l-0.491847-0.6390762l-0.1637654-0.508112l0.2459221-0.4587593  l0.6116405-0.4206142l0.3059025-0.3769169l0.1640401-1.0980663l0.1746941-0.1747456l0.3715601-0.7537212L6.7417226,22.34305  l-0.0162764-0.0981064l0.3550086,0.2184467l0.5024991,0.3440304l0.6937432,0.2787533l0.1203394-0.0056267l0.5790291-0.0109253  l0.584383-0.234724l0.5737305,0.0107059l0.0928631,0.1202717l-0.1147127,0.3331203l0.0872364,0.1640396l0.349659-0.0327759  l1.1415606-0.6775188l0.846858-0.5352745l0.5844393-0.234726l1.1415596-0.0712299l0.7758989-0.3931408L15.3343,21.5564995  l0.8412313,0.5190506l0.1640396,0.360363l0.3987656,0.5080719L17.1152,22.9986515l0.5024967,0.0765972l0.7812538,0.5571804  l0.7319279,0.2238007l0.2349415,0.1858902l0.0162773,0.4587307l-1.0596752,1.125351l-0.2184486,0.3931389l0.1912422,0.2131348  l0.5843849,0.142149l0.7209454,0.0109253l0.4534454-0.2021694l0.2622013-0.0218487l0.4971485-0.0491085l0.2240715,0.1856709  l0.1419182,0.2731266l0.1802635,0.3440723l0.2675533,0.2131081l0.4096909,0.0818691l0.5846558-0.1637535l0.835659,0.212822  l0.1312103,0.0546799l0.4697266,0.2131481l0.5734558,0.2512093l0.5846558-0.0055599l1.0706577-0.3878403l0.830307-0.0981617  l1.2890511,0.1747341l0.3387852,0.2403107l0.7484226,0.0109253c0,0,0.0053005,0.0056267,0.7809811-0.3712902l0.4371662,0.2622032  l0.1965446-0.2949772l0.0928059-0.1474895l0.2896786-0.6228523l0.2675591-0.5681038l0.0928059-0.1365643l0.3605843-0.5190372  l0.2131462-0.1581955l0.8575134-0.633709l0.1746864-0.3222351l-0.0434799-0.5627651l-0.1040077-0.6881561l-0.0325546-0.2350121  l0.1637688-0.7374859l0.8903351-1.3218937l0.1037903-0.2949772l-0.0162773-0.3277931l-0.0437546-0.8794289l0.4096909-0.5244026  l0.1365623-0.5080585l0.78125-0.1147118l0.5681076-0.0872383l0.5406837-0.1584129l0.3987083-0.3496571l-0.0437012-0.8522243  v-0.2184334l0.2077408-0.229372l1.2944603-0.3443594l0.7321434,0.1749649l0.5462532-0.2240324l0.5734596-0.0546665  l0.5299721-0.1584682l0.4096909-0.1637802l0.2184486-0.0655918l0.3550148-0.1637669l0.6172066-0.2896919l0.895916-0.0218506  l0.3878403-0.3222351l0.6281357-0.0818834l0.442524,0.2184467h0.2240143l0.2456512-0.2130938l0.2240753-0.0162783  l0.4368935,0.2568483l1.1034317,0.9284821l0.4534454,0.1912298h0.6172142l0.5627518-0.2786846l0.4096909-0.3222361  l0.4425163-0.5843964l0.8412323-0.4534454l0.2238007-0.600934l0.3224525-0.3496571L51.3708,13.2645111l0.3550072,0.0709581  l0.5190506,0.360364l1.4693718,1.0161972l0.4587936-0.0818844l0.9887199-0.6774635l1.1034355-0.4096909l1.1090584-0.3003311  l0.4697266,0.1909704l1.1415596,0.8631363l0.4371681,0.0437002l0.7537766-0.0490532l0.4259682-0.14219l0.355011,0.038456  l0.6118584,0.5734577l0.6390648,0.5899544l0.4153137,0.1475573l0.4696693-0.010993l0.9450226-0.8084021l0.5790863-0.2240734  l1.114357-0.0328293l0.710022-0.0218506l0.6065598-0.355011l0.1309357-0.0765295l0.3331604-0.1528425l0.4534454-0.4041185  l0.6174316-0.3715076l0.1472702-0.0928631l0.4590149-0.0055714l1.5240479-1.0487537l0.9175491-0.1747465l0.2187195,0.0272036  l0.6062851-0.3987112l0.333107-0.3003302l0.1312637-0.0546808l0.8684387-0.021904l0.305954,0.0328293l0.7809753,0.0765305  l0.7702789-0.5955811l0.4153137-0.0928087l0.546257,0.1421356l0.7209473-0.1149321l0.6990891-0.8193808l0.3880615-0.1147137  l0.8794174,0.1147137l0.9777908-0.3275347l0.2238007-0.0765848l0.617485-0.125638l0.6281433-0.3824873l0.4534454-0.1146584  l1.0431213,0.4043369h0.2077942h0.1147156l0.4968719,0.2894058l0.0656052,0.1147127l0.2512817,0.4643707l-0.0053558,0.103734  l-0.0055695,0.0765305l-0.0109253,0.0984344v0.0053539l-0.6990967,0.6718922L83.38134,11.4507837l-0.4371643,0.7046671  l-0.6225662,0.1365643l-0.3224564,0.0709581l-0.7262955,0.1749649l-0.7046661,0.0600338l-0.830307,0.5953074l-0.2896805,0.491848  l0.524353,1.3982058l0.1203384,1.0871401l0.1146622,0.1310062l0.6990891,0.5846558l0.4096909,0.704668l-0.0271988,0.3222218  l-0.0765305,0.1965561l-0.284111,0.2896786l-0.0599747,0.1584682l-0.21315,0.5243492l0.4972,0.2622013l0.1474915,0.0765305  v-0.0493259l0.8631287,0.1147137l0.3496628,0.1802635l0.5078506,0.6609669l0.2512741,0.5409012l0.3333817,0.3659897  l1.2616272-0.8684883l0.4371719-0.0109253h0.0162735l0.6009369,0.1309376l0.2075195,0.0928631l0.3496628,0.8358765  l0.305954,0.3112984l0.3768616,1.3437424l0.4915695,0.3440857l-1.0324707,1.3112297l0.1474838,0.9012642v0.1965828  l-0.2893982,0.3605957l0.305954,0.4860039l1.2999725-0.0216331l1.327507,0.3659363l0.5900116,0.8247337l0.4915695,1.4803486  l0.0656052,0.1858921l0.0434875,0.1365623l0.3387299,0.7700539l0.3006058,0.4315414l0.6334915,0.4480934l0.9012604,0.4697227  l0.5190582,0.4368935l0.3059006,0.0984344l0.5134811,0.0052986l0.6828156,0.1859474l0.5353317,0.3768616l-0.1256409,0.0818672  l-1.2619095,0.4043503l-0.3440781,0.2294273l-0.3768616,0.453392l-0.3278046,0.5244026l-0.28405,0.2731285l-0.3934174,0.1637535  l-0.4750824,0.0818977l-0.3442993,0.2293701l-0.0981674,0.1803207l0.1637726,0.6172104l-0.0491028,0.2405701l-0.2840576,0.2784691  l-0.2075272,0.0656166l-0.2949753-0.016552l-0.3878403-0.1800423l-0.6118546-0.5190659l-0.1965485-0.0983658l-0.2950287-0.0162811  l-0.2459259,0.049057l-0.1803207,0.0984344l-0.7481461,0.6171989l-0.1803207,0.1312218l-0.2077408,0.0653343l-0.4806442,0.0821533  l-1.4037628-0.0327721l-0.8959656,0.1909676l-0.5625381,0.2622032l-0.9668655,0.7321434l-0.2075272,0.0656052l-0.1093521-0.1640396  l0.0709534-0.5025101l-0.0109253-0.2459106l-0.0818787-0.1909714l-0.5625381-0.7868233l-0.4206161-0.6991119l-0.3387299-0.2240601  h-0.5518799l-0.6990967-0.1965561l-0.9996414-0.6990814l-0.7210083-0.6828194l-0.3442993-0.2296448L78.07164,33.4156761  l-0.1856613,0.0983658l-0.1474915,0.4259834l-0.0984421,0.4862633l-0.0599747,1.0434113l-0.1365585,0.7156487l-0.425972,1.2181473  l-0.2350006,0.3931389l-0.2677765,0.5846558l-0.2566223,0.3056831l-0.3168335,0.2459106l-0.1200638,0.1637802l-0.1474915,0.4043236  l-0.0765305,0.748436l-0.070961,0.2456512l-0.1968689,0.3552856l-0.5624771,0.5734444l-0.1856689,0.0984459l-0.4152603,0.0981636  l-1.1362686-0.0328293L72.7840652,41.63134l-0.3878403,0.1640396l-0.3059006,0.2622032l-0.3334351,0.1965256l-0.6334915,0.2240868  l-1.0324707,0.0818863l-1.4256744-0.0984344h-0.7865448l-0.2459259,0.0491066l-0.4150467,0.1640396l-0.4261856,0.3768463  l-0.0875092,0.1637802l-0.1474915,0.2240601l-0.1800461,0.6665535l0.0109253,0.2456512l0.1090927,0.1312103l0.1965942,0.1309929  l0.2350006,0.0655899l1.2946777,0.1965561l0.6337051,0.2403526l0.3331604,0.2296448l0.2456512,0.3056831l0.0712357,0.1968155  l0.0871811,0.4368935l-0.0599747,0.21315l-0.0984421,0.1802635l-0.163765,0.1309929l-0.5734558,0.2240028l-0.4862213,0.3606529  l-0.1475449,0.1474876l-0.3059006,0.5187759l-0.0765915,0.4262428l-0.141861,0.4697227l-0.0383987,0.5187798l0.0602493,0.475296  l-0.0602493,0.5024986l-0.1365662,0.1640396l-0.2075195,0.0656052l-0.1965942-0.0821571l-0.546257,0.016552l-0.1856155,0.0981636  l-0.4643707,0.3715477l-0.5409546,0.2787132l-0.1309433,0.1746788l0.0600433,0.4588089l0.2949753,0.5190506l0.2677689,0.2949791  l0.7210007,0.6500435l0.2456512,0.3278046l0.4152679,0.4206161l0.4150391,0.6662674v0.5081253l-0.1965942,0.3712883  l-0.049057,0.2459106l0.0656052,0.4206161l0.1090851,0.1965561l0.1693954,0.1147118l0.2184448,0.0656052l0.2731323,0.016552  l1.0487518-0.0821571l0.2568512,0.0493279l0.1965942,0.081871l0.1093597,0.1584816l0.1255875,0.4259682l0.1093521,0.1312103  l0.1966019,0.1147118l0.6828156,0.191246l0.070961,0.1965294l-0.070961,0.2131615l-0.355011,0.5187759l-0.0383987,0.2459221  l0.0165482,0.2240219l0.1200104,0.4259567l0.2075272,0.2949753l0.333374,0.2894173l1.1581192,0.5353317l0.3659897,0.2459106  l0.1365585,0.1312218l0.0709076,0.1965981l0.0491104,0.2238007l-0.0219116,0.2624207l-0.3330994,0.2294235l-0.8794174,0.212822  l-0.3659363,0.1912422l-0.3771362,0.4425087l-0.5515976,0.8793716l-0.2459335,0.2896767l-0.3440857,0.780983l-0.3059006,0.2459106  l-0.1803207,0.0818939l-1.4309616,0.2568512l-0.6009369,0.2130966l-0.2075195,0.0981598l-0.4918518,0.3606339L66.021225,66.431221  l-0.9885025,0.1474915l-1.4587173-0.0818863l-0.5243492,0.0328217l-0.6718941,0.1146698l-0.4425201,0.1475296h-0.5515518  l-0.3878403,0.1584167l-0.2568512,0.311264l-0.0656052,0.2131348l-0.0216293,0.2568665l0.0600319,0.4424591l0.4149895,0.9284744  l0.0765877,0.2240677l0.0109253,0.2293625l-0.0381317,0.2459335l-0.1584663,0.1309814l-0.5352745,0.2896347l-0.1640434,0.1309814  l-0.0981598,0.1803284l-0.0712318,0.7812042l-0.1691208,0.9775696l-0.0164948,0.2568359l0.1856155,0.8794327l0.0712318,0.1802597  l-0.016552,0.0491104l-0.0546799,0.1640396l-0.2784767,0.2894058l-0.1746941,0.0983658l-0.207798,0.0328445l-0.7809258,0.049057  L57.8602409,74.27565l-0.8084564-0.0984497l-0.4478188-0.1309738l-0.1747475-0.0821609l-0.3771324-0.453392l-0.2675018-0.8138199  l-0.2240753-0.3440704l-0.6334877-0.4699478l-0.7812004-0.0981598l-1.5678596,0.081871l-0.7318687,0.1312256l-0.7703285,0.3222351  l-0.453392,0.3931351l-0.3822136,0.4043274l-0.1803169,0.1310043l-0.3824883,0.1640396l-0.8575096,0.2621994l-0.4643669,0.081871  l-1.0269051,0.0819016l-0.4153175,0.1421356l-0.1474915,0.1309891l-0.0981598,0.1802673v0.4862747l0.1256371,0.4259644  l0.2949791,0.5190506l0.0109787,0.2456512l-0.1256371,0.1640396l-0.1803207,0.0927963l-0.2349968,0.0162888l-0.2075195,0.098381  l-0.2184486,0.3606415l-0.0874557,0.4862213l-0.070961,0.2128754l-0.1256371,0.1474838l-0.4262428-0.1474838l-0.6609116-0.475296  l-0.2784805-0.2731323L44.4332581,76.45504l-0.0981598-0.163765l-0.2075233-0.0818863l-0.2349968,0.0325546l-0.3278084,0.2624207  l-0.529705,0.5844421l-0.7102928,0.3768463l-0.1803169,0.1312256l-0.1200142,0.1418991l-0.1968155,0.3768768l-0.1256371,0.6828156  l-0.0109253,0.2787552l-0.1472702,0.4206161l-0.4152603,0.4096909L40.959137,80.295372l-0.0874557,0.4587326l-0.7482033,0.9559402  l-0.1802635,0.3606491l-0.0491104,0.2456512l-0.1584129,0.3877869l-0.2568474,0.2787552l-0.3440857,0.5024872l-0.3934135,0.4369049  l-0.021904,0.2950363l0.2950325,0.5190506l0.0109253,0.2456436l-0.0872383,0.1802673l-0.8084564,0.305954l-0.1202812,0.1640396  l0.0271988,0.2293777l0.2403526,0.830307l-0.0818825,0.4697113l-0.076313,0.1803284l-0.9559441,1.3000183l-0.6718941,1.3056107  l-0.3059006,0.2238007l-0.3715591,0.169342l-0.3003349,0.0274734l-0.7703247-0.1146545l-1.4421654-0.5518799l-0.6881714-0.1966095  l-0.6446323,0.1966095l-0.2566338,0.0165482l-0.2568455-0.0493774l-0.3824902-0.4369125l-0.2565746-0.0327682l-0.2075233,0.0599899  l-0.1202831,0.1312637l-0.6118603,0.7974625l-0.0981617,0.1966095l-0.1202831,0.1474915l-0.3059597,0.2240677l-0.2075195,0.0981674  l-0.2240219-0.0763168l-0.3387318-0.2293701l-0.256628-0.049324l-0.1746941,0.1146545l-0.3443584,0.4862671l-0.2784252,0.2787094  l-0.2349987,0.0491104l-0.2565765-0.0328445l-0.3878403-0.1637573l-0.2677708-0.2949753l-0.1147137-0.1803207l-0.0984383-0.4206161  l0.016552-0.2787476l-0.0493259-0.2075272l-0.4041176-0.4259644l-0.1746941-0.1146622l-0.2568455-0.0328293l-0.2293758,0.0162811  l-0.4425182,0.1474838l-0.2568493-0.0490494l-0.109087-0.1584854l-0.0493279-0.2130814l0.0109253-0.2621994l0.1858902-0.6662674  l0.0981617-0.213089l0.087513-0.7484818l0.1093578-0.4206161l0.1965446-0.3768692l0.5953598-0.5353317l0.245924-0.3112411  l0.0109253-0.2568588l-0.0328293-0.2131424l-0.0874577-0.1965485l-0.2456493-0.3059464l-0.0493813-0.2130966l0.0274754-0.5353241  l-0.0384007-0.1966019l-0.109087-0.1965408l-0.6718922-0.3878403l-0.7756271-0.2896805l-0.5518799-0.234726v-0.0055695  l-0.4368935-0.2512741l-0.4862194-0.2184601l-0.5299778-0.1912308l-0.5244045-0.0327759l-1.420042,0.2786942h-0.2677708  l-0.2184505-0.049324l-0.5409546-0.3275375l-0.453392-0.1256332l-0.4750767,0.092804l-0.8468571,0.262207l-0.2893505-0.0165558  l-0.4534435-0.1309357l-0.2075253,0.081871l-0.245923,0.3112717l-0.1365633,0.4206161v0.50811l-0.0328302,0.2075348  l-0.0653324,0.1968155l-0.2405701,0.3440857l-0.1856718,0.0927963l-0.4643707,0.0818939L14.14363,84.0044403l-0.8084564-0.0984497  l-0.229372,0.049118l-0.1693935,0.0984344l-0.5518255,0.5681076l-0.3822136,0.1803207l-0.2294273,0.0162659l-0.2568464-0.0328217  l-0.4315405-0.163765L10.511095,84.348526l-0.1312656-0.1474915l-0.0490532-0.1965942l0.4150438-0.7321472l0.0109253-0.2565765  l-0.109087-0.1640396l-0.4315958-0.163765H9.9264393l-0.4915724-0.0984344L9.2763968,82.474762l-0.109087-0.141861  l-0.1968155-0.3606491L8.899538,81.2566147l-0.213151-0.6009369l-0.2674999-0.5243454l-0.1693916-0.6500473l0.0491056-0.5025101  l0.1968155-0.3768463l0.2675571-0.3059692l0.1965408-0.3605728l0.0328293-0.2403488l-0.0218496-0.2456512l-0.4915724-0.5846558  L8.2113647,76.291275l-0.0984335-0.4206161l-0.0109243-1.0269012l-0.070961-0.191246l-0.1365633-0.1312103L6.916688,74.3246918  l-0.4043374-0.1803055l-0.2456508-0.3059006l-0.0493813-0.1966095l-0.0109248-0.5244064l0.1474886-0.6993027l0.2568502-0.5844345  l0.2784786-0.2731323l0.7703295-0.3768692l0.2240171-0.3387222v-0.2456512l0.0491099-0.2621994l-0.0381851-0.4862213V69.086235  l0.109087-0.4590683l0.0984373-0.1747055l0.2675533-0.2949753l0.6611853-0.4587936l0.55161-0.5681l0.1693382-0.0984344  l0.4534445-0.3878403l0.2565756-0.3112564l0.1584682-0.3387451l0.0765314-0.4587326l-0.0490551-0.7975311l0.229372-1.1690369  l0.0162783-0.2622032l-0.0272036-0.2403526l-0.2075214-0.6065063l0.0600328-0.5024986l0.8303061-1.6606674l0.600935-1.6606102  l-0.1693935-0.8575249l-0.2949772-0.5244026l-0.3934126-0.436882l-0.0709562-0.1968689l0.038126-0.2456512l0.2896786-0.8140297  l0.0656052-0.5025101l-0.0765295-0.436882l-0.2294273-0.5900078l-0.2240162-0.3387451l-0.1309938-0.1309776l-0.366209-0.2130966  l-0.2075224-0.049324l-0.600934-0.2894211l-0.5134239-0.3440704v-0.4862366l0.120285-0.1475296l0.3331623-0.2621574  l0.6609106-0.453434l0.2075224-0.0818977l0.4972029-0.0490952l0.4915714,0.0981636l0.7921782-0.0490685l0.4206152-0.1474876  l0.4969282-0.3222237l0.5627527-0.6065063l0.2240715-0.3385124l0.1474886-0.6828194l0.0109253-0.2459221l-0.3552837-1.2509232  l-0.0981073-0.458744l-0.016552-0.2349968l-0.1419163-0.6281509l-0.1584139-0.4041061l-0.1093597-0.1640396L13.007369,45.52071  l-0.8303061-0.3715477l-0.8959684-0.731884l-0.4040642-0.1803055l-0.4862185-0.0981636l-2.6166143-0.3387337L7.3919835,43.60326  l-0.1584139-0.1472702l-0.21872-0.3115273l-0.4150419-0.6990967l-0.4206157-1.4749947l0.2840519-0.376873l0.4259672-1.3327942  H6.8348045l0.5024991-0.8193817l-0.0818834-0.7484741l0.1419187-0.7537231L7.42454,36.8187866l-0.2675533-0.4640999  L6.2120199,35.502533L5.753221,35.2675209l-0.1093583-0.0546684L4.8407583,35.1637993z"></path></svg>