<svg height='100px' width='100px'  fill="#000000" xmlns="http://www.w3.org/2000/svg" xmlns:xlink="http://www.w3.org/1999/xlink" version="1.0" x="0px" y="0px" viewBox="0 0 100 100" enable-background="new 0 0 100 100" xml:space="preserve"><polygon points="48.3051376,94.0973892 48.3766251,94.1847458 48.4163322,94.2323837 48.6503029,94.0855713 48.6820793,93.6373444   48.6305466,93.4944153 48.6582375,93.3754807 48.757412,93.3001099 48.98349,93.4547043 49.1343536,93.4231262   49.2415009,93.4825897 49.5190697,94.0458527 49.6182442,94.1132584 49.8245239,94.0855713 49.891922,94.1450272   49.8839912,94.3394928 50.1617584,94.7083054 50.0031166,94.8551178 50.0705185,95.0217285 50.0428276,95.1367722   50.2491074,95.6921082 50.1815109,96.2079315 50.1022911,96.3545532 49.9634094,96.3824387 49.7373695,96.1682281   49.4119225,96.0928955 49.1858864,95.6841736 48.7138557,95.2557068 48.6543884,95.0217285 48.5352631,94.8868942   48.3963776,94.8074799 48.1306305,94.7995453 48.0514107,94.6329651 48.071167,94.4584198 "></polygon><polygon points="30.5173607,96.6046295 30.3784771,96.4975204 30.2118645,96.5172729 29.783432,96.0134659 29.9620247,95.0970688   30.1206646,95.0573578 30.2951698,94.8510742 30.6879787,94.8590088 31.1679821,95.4699173 31.0885639,95.6564865   31.1441422,95.993721 31.0567875,96.2118149 30.798975,96.2991714 30.6362896,96.5728531 "></polygon><polygon points="25.5309277,78.8404541 25.2690697,78.6382599 25.0548134,78.689743 24.8644409,78.54702 24.8405972,78.4119797   24.4954319,78.2374802 24.4003067,78.0947037 24.4200611,77.9558258 24.2891502,77.821022 24.1979103,77.5511932   23.9282761,77.4043732 23.860878,76.8213501 23.888567,76.4047012 23.9838524,76.158905 24.3288593,75.8613892   25.0747681,75.3772964 25.3444023,75.2781219 25.4635296,75.3534927 25.8482056,75.3137894 25.9909763,75.3972473   26.1377945,75.3893204 26.4353161,75.1989059 26.5147343,75.3455582 26.724905,75.4408493 27.2723064,75.4646912   27.6056499,75.9764252 27.8634644,76.0517578 28.0341206,76.3134613 28.4664421,75.960556 28.4347057,75.7342834   28.6053238,75.6074142 28.9503307,75.6630402 29.1686325,75.4764709 29.0853271,75.1751022 29.3510742,74.9091568   29.2716541,74.7743225 29.0217762,74.6038589 28.9702854,74.476799 29.0099945,74.3975754 29.136858,74.3975754   29.5097122,74.7030334 29.5653286,74.7069168 29.9461193,74.7187424 30.0968227,74.8655624 30.6600914,74.7545624   30.8109951,74.9013824 31.0093422,74.9091568 31.0488529,75.0441513 30.8425713,75.1630783 30.7831078,75.2901459   30.5371151,75.3893204 30.5888042,75.4764709 31.3742638,75.6947708 31.9216652,75.6986542 32.0485268,75.6391983   32.1239014,75.2901459 32.0644341,75.0242004 32.4770012,74.6712952 32.5443993,74.5046844 32.659481,74.4967499   32.7745209,74.4847336 32.8895645,74.0562973 33.0879135,73.8222809 33.183239,73.2748871 33.4766731,73.0486526   33.5837822,72.7273254 33.8415947,72.6083908 33.9328346,72.77108 34.091671,72.810791 34.1947365,73.0170746   34.1432037,73.1995544 34.1868019,73.286705 34.4525452,73.4137726 34.5437851,73.5683594 34.7223778,73.6954269   34.7779579,73.8779068 34.647007,74.1316299 34.611187,74.4649734 34.5001907,74.5324173 34.4327927,74.6989822   34.4645653,74.833786 34.4089508,74.9767532 34.2503128,75.4011307 34.5001907,75.5279999 34.6390724,75.7701416   34.4724998,75.9326324 34.4248581,76.1509323 34.5796089,76.6824646 34.2621346,76.8531265 34.0637856,76.8331757   33.8257256,76.9602356 33.6394005,77.1783295 33.1117554,77.2695694 32.9372482,77.475853 32.98489,77.5632095   33.1950607,77.5235062 33.5837822,77.6147461 33.6432457,77.7139206 33.6234932,77.8487167 33.9130821,78.0035019   34.0399437,78.1344147 34.3136635,78.4119797 34.5199471,78.4596634 34.5398979,78.534996 34.4327927,78.6818085   34.5160599,78.904007 34.4248581,79.102356 34.4565926,79.2689209 34.1114273,79.6100464 33.9725456,79.5505753   33.8139076,79.2412338 33.6949768,79.2015305 33.2703934,79.4911194 32.7427483,79.2768555 32.6635246,79.2015305   32.6832809,79.0349579 32.5722847,78.8325195 32.588192,78.745369 32.3301811,78.6183014 32.3501358,78.3287201   32.0961723,77.9478912 32.0723686,77.8566513 32.0049706,77.6068115 31.8542652,77.3449097 31.5646782,77.2139587   31.326622,77.2418518 31.1877365,77.348999 31.0014095,77.3925476 30.7831078,77.3648605 30.7554169,77.5591278   31.0567875,77.9478912 30.9696331,78.3287201 30.8625259,78.3684235 30.6879787,77.7931366 30.5055389,77.5511932   30.2395935,77.4163971 30.021492,77.507637 29.8746338,77.6939621 29.8548794,77.8766022 29.9381847,78.2256546   29.7159939,78.3961182 29.6921921,78.416069 29.2637215,78.4278946 28.9346218,78.0114365 28.7362728,78.1224365   28.557682,77.9678421 28.3672676,77.97966 28.2086277,77.8448639 28.0895004,77.9201965 28.0736332,78.1859436   28.2640457,78.5628891 28.0380096,78.780983 27.7325134,78.7254105 27.1136665,78.416069 26.9073849,78.5865326   26.6098633,78.4119797 26.2131672,78.4755249 26.1101055,78.4081345 25.6578331,78.654129 25.6101494,78.8325195 "></polygon><polygon points="23.8211689,85.1916809 23.4800491,85.6437531 23.2102165,85.497139 22.952404,85.5207825 22.6746368,85.366188   22.2978935,85.4415588 22.22645,85.3979645 22.1510773,85.3541641 22.0757446,84.9933319 22.1152554,84.8306046   22.2700062,84.7473373 22.8253422,84.7829666 22.952404,84.624321 23.0554657,84.271225 23.0595512,83.6207657   23.1149292,83.5136566 23.2458782,83.4739456 23.3450527,83.5016327 23.4562473,83.676178 23.309391,83.9698181   23.333231,84.1720505 23.4760036,84.5807266 23.6584435,84.7909012 "></polygon><polygon points="16.1965885,16.1744747 15.966465,15.2301798 15.9585314,14.8652582 16.0022869,14.6868639 16.0102215,14.4964504   15.938776,14.2028084 15.7880707,13.940917 15.5143499,13.6354609 15.387289,13.5403728 15.1294756,13.3976021   14.6614933,13.2428503 14.2607508,13.0324821 13.788682,12.512969 13.0429726,12.2511101 12.8643799,12.0407419   12.6700783,11.659914 12.4756174,11.4377642 12.2336731,11.2949924 11.6504498,11.0689554 11.5315208,10.9656954   11.4164782,10.7040348 11.1228046,10.1961441 10.7301941,9.7399759 10.6190004,9.50986 10.6190004,9.3194456 10.7699032,9.0734549   11.0277166,8.9189014 11.7178488,8.823576 11.995615,8.6846924 12.4676838,8.5539408 12.7216091,8.4110117 12.8049154,8.2920818   12.9000034,7.7962117 13.0349989,7.5263791 13.5506248,6.8400946 14.145669,6.2371163 14.5820742,5.6817741 14.7327795,5.4119487   14.8993521,5.1859035 15.2801809,4.7733397 15.5143499,4.6067271 15.7880707,4.4878049 16.097414,4.3806973 16.4902229,4.3806973   17.5296059,4.5829253 18.3387089,4.8328118 18.906023,5.0787959 19.9097843,5.693603 20.3380566,5.884017 20.6555328,6.0902991   20.7903309,6.2371163 20.8497963,6.3680582 20.8618145,6.5425725 20.8141727,6.6853433 20.72682,6.8162928 20.6555328,6.8559947   20.2032604,7.0741057 20.1397095,7.2288566 20.1835041,7.5622005 20.3897858,7.7605486 20.6555328,7.9627771 21.6511612,8.5181198   21.8653755,8.6846924 22.0875664,8.8830404 22.2620735,9.1092758 22.397068,9.3670816 22.6707878,9.6884527 22.9642258,9.9701071   23.2061691,10.136672 23.50774,10.2676287 24.5471611,10.136672 24.7414246,10.2081642 25.1778297,10.5492363   25.5665932,10.9379988 25.6934547,11.0213051 26.1101055,11.2116871 26.8637886,11.2949924 27.1651974,11.4021006   27.343792,11.6242828 27.4588337,12.2511101 27.5421391,12.3938417 27.7166462,12.6080894 27.9229279,12.9730177   28.224535,13.290494 28.3395767,13.3737602 28.6132984,13.4729347 28.847271,13.4926901 29.1409035,13.385582   29.6009521,13.0921459 29.8310776,12.9017315 30.1959972,12.9135456 30.5768242,13.1277618 30.8981495,13.2308302   31.3068657,13.2428503 32.0247269,13.1754122 32.2945213,13.3261099 32.4890213,13.5283527 33.1553497,14.5797567   33.3498116,14.8255491 33.6711731,15.0874414 33.9725456,15.2183504 34.1511383,15.2421989 35.3412247,15.2540207   35.7220535,15.4008312 35.9004478,15.5238533 35.9362717,15.666585 35.916317,16.4481564 35.9878006,16.7536507   36.1225967,17.0153122 36.3170967,17.2136612 36.6740875,17.4398956 36.7891273,17.5470448 37.3485489,18.3245296   37.5428085,18.5505657 38.2608719,19.0226345 38.7685623,19.5305252 39.1416168,19.7683849 39.4707146,19.8518486   39.673111,19.8636627 39.8358345,19.8280468 40.1769524,19.6017723 40.2958832,19.4946632 40.5616302,19.1535778   40.7837791,18.5862293 40.9980354,18.3958149 41.1487389,18.3483696 41.2758026,18.2650642 41.4146843,18.2174206   42.4817581,18.1023788 43.7948608,18.0429134 44.1359406,18.1141605 44.2589569,18.193573 45.0920563,19.1297436   45.6632614,19.5661411 46.2742119,19.9430885 46.4169464,20.0263958 46.7462425,20.097641 47.1706276,20.1096611   47.3333511,20.1573048 47.4483948,20.240612 47.7498016,20.7482967 47.8489761,20.8435898 48.1029053,20.9981823   48.467865,21.0419369 48.7256775,21.1726894 48.8527374,21.2797966 49.0985298,21.6211147 50.1855583,22.1644287   50.2727509,22.0613613 50.3877945,21.7638378 50.7885742,21.3751221 51.141674,20.9268951 51.2487831,20.8315697   51.4192429,20.6055317 51.6929245,20.0738392 51.7841644,19.9549046 52.014286,19.7921867 52.1808586,19.5661411   52.252346,19.4351997 52.2800331,19.260685 52.2364807,18.9275074 52.9188728,18.9631634 53.0775146,19.0108128   53.291729,19.2012272 53.3114853,19.3639126 53.133091,19.5779705 52.7759056,19.8518486 52.7046165,19.9905338   52.6529274,20.1453171 52.645153,20.3356991 52.6808167,20.4864044 52.7600365,20.6173534 52.9742546,20.783926   53.3709488,21.006115 53.5336761,21.0537529 53.954174,21.0419369 54.5730591,20.9506969 55.1481476,20.9387112   55.4933128,20.8910351 55.8067436,20.8077679 56.3502579,20.5578823 56.4891396,20.5340481 56.7825775,20.3833828   57.3696861,20.1809483 57.9370422,20.240612 59.4643631,20.5935116 60.0276299,20.5817299 60.6821404,20.4548264   60.8090019,20.3833828 60.8963585,20.2642536 60.9399529,20.1096611 60.8169365,19.8754921 60.400486,19.6376324   59.492054,19.3042488 59.2183685,19.1773796 59.0238686,18.9749908 58.897007,18.7171783 58.8811417,18.538784   58.9326286,18.3958149 59.0238686,18.2650642 59.1271286,18.1738243 59.412632,18.0785313 60.8884239,17.9832516   61.0906563,18.0190735 61.2771873,18.0070534 61.5905762,17.9237862 61.9555359,17.6857281 62.3363228,17.2733231   62.6656227,17.0034847 62.8521461,16.7892685 63.1891785,16.3290272 63.197113,16.1268311 63.2686005,15.9761267   63.6335182,15.9482393 63.9628181,16.0474129 64.0937653,16.1148129 64.4389343,16.1268311 64.5737686,16.0553474   64.7443848,15.8331575 65.0021973,15.2778225 65.1529083,15.0517855 65.4107208,14.8852129 65.6131516,14.897027   65.7558823,14.9446774 66.3153076,15.206378 66.7040634,15.4444351 66.8824615,15.666585 66.8586197,16.0553474   66.8944778,16.2100906 67.2037888,16.5076141 67.664032,16.6821594 67.9774246,16.932045 68.0725479,17.0511742   68.1281281,17.1898594 68.1717224,17.5232029 68.3938751,17.8881168 68.5089569,17.9714222 68.6675949,18.0190735   69.1793289,18.054697 70.4288864,18.0667152 70.5519028,17.995224 70.6669464,17.7095299 70.9088898,17.5470448   71.0477676,17.4993534 71.2540512,17.4993534 71.7340546,17.6421318 72.0197601,17.7810078 72.2140198,17.9832516   72.2378616,18.1380024 72.2299271,18.3363495 72.1148453,18.5982494 71.4841766,19.1773796 71.3890457,19.4828358   71.4841766,19.6017723 71.6269073,19.6732502 72.2498779,19.5066833 72.4282761,19.5305252 72.7019577,19.6614342   72.8964157,19.8754921 73.0114975,19.9549046 73.3128662,20.0620117 73.7492752,19.9549046 74.0070877,19.7921867   74.3284454,19.5185051 74.6021271,19.3875561 75.1733704,19.4472179 75.7447739,19.3401108 76.2009354,19.2844868   76.3634644,19.3321762 76.5023422,19.3995762 76.6452713,19.6376324 76.6373367,19.8280468 76.5856094,19.9787064   76.3277969,20.3000755 76.0223389,20.5935116 76.0064774,20.7959461 76.0422974,20.9506969 76.0343628,21.1490459   75.8993683,21.6090946 75.4114304,22.3191795 75.1100235,22.6405373 75.0544434,22.7912483 75.090065,22.9341793   75.0544434,23.1245918 74.6815491,23.5728188 74.5506439,23.8188114 74.3205185,23.9972057 73.5629425,24.02104   73.4558334,24.116333 73.4200134,24.2829056 73.4755936,24.7905979 73.467659,24.988945 73.3843536,25.3221302   73.4120407,25.4729939 73.705719,25.7823372 74.2728729,26.2187366 74.6736145,26.6074982 74.7092743,26.7740784   74.5585785,27.2343254 74.495018,27.5556488 74.5070419,27.7539978 74.5862656,27.8729267 74.7451019,27.9206104   74.9234924,27.9085903 75.1100235,27.9444122 75.2527924,28.00387 75.3401413,28.1109772 75.367836,28.4641228   75.3322067,28.6545372 75.3242722,29.2216549 75.2686615,29.3764381 75.2527924,29.7652016 75.3083649,29.85256   75.6058884,30.1895924 76.0580063,30.5426922 76.3080444,30.6974831 76.8672638,30.9355412 77.0022583,31.026741   77.4464417,31.1813335 77.5773544,31.2647991 77.8907776,31.5623207 78.1288376,31.9272804 78.3945847,32.2327385   78.7515717,32.5064163 78.8865662,32.565876 79.231575,32.6253471 80.8303452,32.7324562 81.4689789,32.9190216   82.1355133,33.2719231 82.6590729,33.7480316 83.1310959,34.2677498 83.6031647,34.6088295 83.8770447,34.7397728   84.2140808,34.8350639 85.1663055,34.938118 85.8841705,35.0570564 86.7807846,35.4142418 87.1180115,35.4616852   87.5980148,35.3545761 87.7130585,35.2912254 87.8796692,35.2038727 88.0344238,35.1641617 88.2843018,35.0214272   88.6095123,34.9619675 89.1371613,35.0334129 89.4544373,35.1761818 89.5694809,35.259491 90.200386,35.8386192   90.5494003,35.9219246 90.7080383,35.8862686 90.8151855,35.7909851 91.2159271,35.2000237 91.4379196,35.0096092   91.5767975,34.9619675 91.7633286,34.9539871 92.4416733,35.1167183 92.628006,35.1046982 92.7668915,35.0570564   93.0367203,34.7159348 93.1596985,34.6444931 93.3460236,34.6326637 93.4969254,34.664444 93.5246201,34.668293   93.6673889,34.7159348 93.9252014,34.8707275 94.5004959,35.3071327 95.2462387,35.9575577 95.7262039,36.4772682   96.1428528,36.8303604 96.2420273,36.9613152 96.25,37.116066 96.1785202,37.2429695 96.0554962,37.314415 95.5398712,37.3857002   95.4169006,37.4571877 95.3454132,37.5881348 95.2223969,38.2823563 95.0599136,38.5202141 94.9010773,38.5560341   94.7306137,38.3297997 94.6273575,38.0481453 94.5560684,37.0089607 94.5202484,36.8542099 94.5361099,36.6756172   94.5004959,36.5249062 94.4290085,36.405983 94.2982559,36.3344917 94.1632614,36.405983 93.9848633,36.639946   93.8539124,36.9136658 93.7032089,38.0007019 93.6317673,38.1314507 93.4334183,38.3297997 93.1081696,38.3894615   92.7232971,38.3894615 92.5923386,38.4369087 92.3781281,38.6154938 92.068779,39.1113625 91.8704376,39.3136063   91.7474594,39.3850822 91.1444397,39.5834312 90.9817581,39.607235 90.8508072,39.6787262 90.6803436,39.9047546   90.6445236,40.0554657 90.6565475,40.2340584 90.9540634,40.5513382 91.0175781,40.6108017 91.1444397,40.8846817   91.1682816,41.0512924 91.160347,41.2496414 91.160347,41.257576 91.0294037,41.4638596 90.7715836,42.0191917   90.0773697,42.9276276 89.6686478,43.7328415 89.4029083,44.4746971 89.2442703,44.7127609 89.0300522,44.9031754   88.6809998,44.9388313 88.3001709,44.9149971 87.9906235,44.9944153 87.7566605,45.1609802 87.6693039,45.291935   87.6613693,45.4703293 87.7248764,45.7757874 87.812233,45.8828964 87.9550095,45.9662018 88.40728,46.1171036   88.6571579,46.2836761 88.9388123,46.5691795 89.0459213,46.8508339 89.0220795,47.0294189 88.9506302,47.1603775   88.7007523,47.2992592 88.40728,47.4063683 88.0621109,47.4419823 87.9352493,47.4896317 87.812233,47.5847626   87.653595,47.8069115 87.4670715,48.2235603 87.3043823,48.4931946 87.1180115,48.6717873 86.9514389,48.7074432   86.7569809,48.6956291 86.5150375,48.5170326 86.336441,48.4931946 86.1937103,48.5408325 86.0865631,48.6479874   85.9199905,49.0961723 85.7613525,49.3222504 85.713707,49.4849358 85.7255325,49.6635284 85.7770615,49.7824593   85.983345,49.9728737 86.1698761,50.0086937 86.348465,49.9967079 86.8364029,49.9015846 87.022728,49.9610519   87.0663223,50.0761337 87.058548,50.2665062 86.9791336,50.5958061 86.9593735,50.9646111 87.0029755,51.4725037   87.0742569,51.6152267 87.1734314,51.6826668 87.3322678,51.7303162 88.3437653,51.9801903 88.7522812,52.1825905   88.9506302,52.3927536 89.0895157,52.6308174 89.1807175,53.1028404 89.160965,53.5154495 89.1174011,53.8606148   88.9506302,54.2968216 88.9149704,54.4754066 88.9506302,54.6261177 89.0220795,54.757061 89.4743881,54.9236412   89.6527863,54.9474411 90.0138168,54.9356613 90.1844788,54.8759995 90.2915802,54.8047104 90.3708038,54.6976051   90.6803436,53.9874725 90.7874527,53.9080582 90.9658508,53.8962326 91.1088181,53.9518547 91.4537811,54.2135162   91.6403122,54.4159508 91.6918411,54.5548325 91.6126251,54.8879738 91.4379196,55.1101685 91.1167526,55.4076881   90.2557602,55.9153824 89.8116226,56.2446747 89.5615463,56.3874092 89.4187698,56.4350548 89.0379868,56.3874092   88.6571579,56.3874092 88.4944687,56.4232712 88.2643433,56.5778236 88.0700455,56.8000145 87.8399658,56.990387   87.5821457,57.1095161 87.3837967,57.097538 87.0663223,57.0024071 86.2054901,56.6016655 85.8684616,56.5421944   85.6898727,56.5541801 85.4756546,56.7287292 85.424118,56.8714523 85.281189,57.5459213 85.3170166,58.0654335   85.281189,58.267868 85.1304855,58.7042732 84.924202,59.1048203 84.5236206,59.4935799 84.4006042,59.5650673   83.6389847,59.7672615 83.2264252,59.9458504 82.8376617,60.3464394 82.4012604,60.9137878 82.1790695,61.3025513   82.0124969,61.7507439 81.9569168,62.3062744 82.0204315,62.6274414 82.1275787,62.9090958 82.436882,63.3693047   82.436882,63.7383118 82.278244,64.4007492 82.2703094,64.5872803 82.3417892,64.7180328 82.4568329,64.8013382   82.6154785,64.8489838 82.7741089,64.8133545 82.8653488,64.7061996 82.9962997,64.4364166 83.1034088,64.3531113   83.2461777,64.2936401 83.4327087,64.2818222 83.5834122,64.3292694 83.8135376,64.5038147 83.8927536,64.6229401   83.9403992,65.1306305 83.8491592,66.2771225 83.7896957,66.6341095 83.6746521,66.9395676 83.2541122,67.4949036   83.0518799,67.9075089 82.9368362,68.59375 82.8535309,68.9151154 82.5360565,69.8117676 82.4091949,70.3194199   82.3576584,70.8747559 82.3853912,71.0177231 83.0081253,71.4064865 83.1113434,71.6801682 83.0677872,72.0331116   82.9527054,72.3505859 82.7305527,72.7195511 82.5996094,72.8423691 81.933075,73.2748871 81.6039734,73.532692   81.060463,73.8461304 80.7947159,73.9929428 79.4895859,74.4450226 79.2594604,74.6077423 79.0611115,74.7981567   78.8865662,75.1869202 78.6167755,75.5320892 78.3509903,75.6471329 78.1723938,75.6271744 77.9701996,75.4129639   77.8274307,75.1751022 77.6132126,75.0123672 77.4346237,74.9767532 77.2957382,75.0242004 77.0814819,75.1869202   76.6094513,75.7065887 76.5223007,75.8493652 76.4785004,75.9803085 76.5302353,76.0635834 76.9585037,76.2739487   77.3552017,76.6903992 77.5258636,76.91259 77.6488419,77.1744537 77.7480087,77.824913 77.8471832,77.9281311   77.9781342,78.0114365 78.1367722,78.0352402 78.4145355,78.178009 78.4858246,78.2969437 78.5096283,78.4478455   78.4858246,78.626236 78.1844177,79.3363266 77.9978867,79.5387573 77.4743271,79.5505753 77.367218,79.6299973   77.3195419,79.7845535 77.8907776,81.3436432 78.0137558,81.9584503 78.0058212,82.1252213 77.9145813,82.2441406   77.6845016,82.4068756 77.3830872,82.4901428 77.0299911,82.5019608 76.7601547,82.6329041 76.5856094,82.8550568   76.3713913,83.4500961 76.1494064,83.8270416 75.9431229,84.029274 75.7129974,84.1681671 75.1100235,84.3347321   74.8601379,84.4536667 74.693367,84.6758575 74.57444,84.973381 74.33638,85.3264694 74.1062622,85.4930496 73.5191879,85.6716461   72.7178192,86.0604019 72.4877396,86.2269745 72.3449707,86.2746582 72.2299271,86.1913528 72.0356216,85.8223419   71.7260818,85.7270584 71.5476913,85.7390823 71.3968277,85.810524 71.2819443,86.0960617 71.4564896,86.8735504   71.5118637,87.0044937 71.5197983,87.1830978 71.4564896,87.3217773 71.0954132,87.3338013 70.9526443,87.3932571   70.8534698,87.476532 70.7225571,87.7502518 70.6868973,87.9247589 70.6948318,88.1033478 70.8891373,88.3055878   71.0239334,88.3652496 71.8055038,88.9800415 72.158638,89.4044342 72.2219543,89.7219086 72.2140198,89.912323   72.0435562,90.7612915 71.8926926,91.0111771 71.7857437,91.1062622 71.5197983,91.2492294 69.2269745,91.4117584   69.088089,91.4712219 68.4374695,91.5903473 68.1360626,91.6736145 68.0130844,91.7451019 67.9139099,91.8125 67.826561,91.9434509   67.707634,92.2409744 67.6401901,92.5464249 67.3268051,93.4469299 67.3029556,93.6214752 67.1840286,93.9308167   67.1760941,93.9466782 66.6999817,93.7206497 65.1252136,93.1256027 65.0299301,93.0184937 65.2044373,92.9510574   65.3512573,93.0223465 65.4901352,92.9708099 65.4424973,92.883461 64.9584427,92.7645264 64.7205887,92.5820923   64.5063324,92.4234543 64.3476944,92.5780029 64.7403412,92.8796158 64.6729431,92.9787903 63.7683563,92.8557663   63.4233894,92.7089539 63.1178932,92.6574173 62.9670296,92.6971359 62.4475174,92.6256485 62.1300392,92.7050629   61.931694,92.6455994 61.6382561,92.1654434 61.4716454,92.0979996 61.4557762,92.0979996 61.4437561,92.0941544   61.0470619,92.0662689 60.8407784,92.173378 60.5035477,92.1338654 59.6070938,92.3360596 59.4167175,92.5384903   59.4959373,92.8913956 59.2975883,93.1135864 59.4959373,93.3555298 59.3849449,93.5223007 58.8137016,93.8514023   58.6471291,94.3949127 58.5479546,94.4148636 58.2822075,94.2680511 58.0123749,94.4901962 57.9370422,94.525856   57.6116295,94.6685944 57.393528,94.2878036 56.921463,93.7285843 55.8264999,93.3001099 55.6719055,93.1532898   55.6203766,92.9470062 55.4338493,92.6455994 55.5489311,92.4708939 55.5527763,92.4629593 55.5289764,92.4114304   55.5289764,92.407547 55.3149185,91.9473343 55.374382,91.7807159 55.612442,91.57444 55.6598854,91.3125839 55.7790146,91.1659241   55.8187218,90.9912186 56.0486488,90.7969589 56.2231941,90.8643494 56.5088959,91.1975021 56.7866631,91.2095184   57.1713371,91.3642731 57.3379097,91.2689819 57.6751442,91.4037857 57.9132004,91.2887421 58.1789474,90.7413406   58.5161781,90.2851715 58.7622108,89.5671539 58.8851852,88.5635986 58.7065926,87.8614426 58.6589508,87.674881   58.5797272,87.5598373 58.2543182,87.079834 58.2304764,86.8735504 58.2146111,86.7505798 58.0321312,86.5047455   58.0005531,86.4570999 57.7743149,86.0960617 57.4450188,85.8223419 57.2387352,85.8421021 57.0483246,86.0763092   56.969101,86.484787 56.842041,86.524498 56.7746429,86.4730072 56.0327797,85.2749481 56.0368271,85.1837463 56.0845108,84.425972   55.9932709,84.1640778 55.7552109,83.9182816 55.4497566,83.830925 55.3426094,83.6484451 55.5092239,83.3271255   55.3823166,82.8550568 55.2355042,82.7043915 55.2355042,82.7003098 55.2314529,82.7003098 54.5889244,82.4663391   54.1722755,82.4186554 53.2638397,82.1252213 53.09338,81.9981537 53.0259819,81.8513412 52.9068527,81.6688614   52.8750801,81.2485199 52.6887512,80.5384369 51.9745789,79.3562775 51.4589539,78.745369 50.9907722,78.5390854   50.4156799,78.1026764 49.0946465,77.4996567 48.3527832,77.4917221 48.2138977,77.3051987 48.0631943,77.2536697   47.916378,77.0909882 47.3889275,77.0712204 46.6152954,76.789566 46.1471519,76.7816391 45.8893394,76.8689957   45.0761909,76.2898178 44.6754074,75.9167633 44.5723457,75.8572998 44.1477623,75.6113052 44.1082497,75.5876617   44.2271843,75.5003052 44.4057732,75.1710129 44.8540001,75.3614273 45.0008163,75.2543182 45.147438,74.5918732   45.4846687,74.0165863 45.3022308,73.3541031 45.1038818,73.171669 45.2506981,72.9456253 45.2704506,72.6719055   45.6671486,71.9618225 45.6632614,71.9418716 45.5679741,71.5889282 45.5561523,71.5372391 45.5482178,71.505661   45.5243797,71.426239 45.3378525,71.1405411 45.3180962,71.1048813 45.2070999,71.0216064 44.5406113,70.5139236   43.1839104,69.8553238 42.8346977,69.5816422 42.3984909,69.5537567 41.9264221,69.3118134 41.2996025,69.2484589   40.1174889,69.1452332 39.1613731,69.188797 38.4036026,69.4745407 38.1893845,69.6808167 38.1101646,69.8512802   38.0981445,69.8750839 38.1060791,69.9583893 38.129921,70.2440796 37.9633484,70.5772324 37.4674797,70.6368942   37.2414398,70.5059891 37.0469398,70.2202454 36.4995384,70.2123108 36.428093,70.1092911 36.4797821,69.8950348   36.3250313,69.6490402 36.2932587,69.5380478 36.1346169,68.9786682 36.2099915,68.4707794 35.9957352,67.959198   36.0672188,67.7408981 36.2535477,67.5940781 36.8009491,67.4354401 36.8447456,67.3839035 36.928009,67.28862   36.8485909,67.0269241 36.9756546,66.6777115 37.1025581,66.5390244 37.3009033,66.3524551 37.5825195,65.0552597   37.5587196,64.8489838 37.6776466,64.3451767 37.8085556,63.0043755 37.8482666,62.6394615 37.8444176,62.6115723   37.7926903,62.1038742 37.8562431,61.314537 37.7093811,60.0688705 37.7373085,59.5491524 37.7452431,59.334938   37.6698723,58.4226189 37.523056,57.4862595 37.3285942,56.7087746 37.2770653,56.0345078 36.8129692,55.2290955   36.2376785,54.5507469 35.5116844,53.979538 35.3689156,53.7494202 35.1111031,52.5713501 34.8374214,52.2220993   34.6746979,51.6787834 34.6549416,51.408947 34.6508942,51.3574219 34.3692398,50.9607239 34.3336182,50.7862206   34.2779999,50.4925766 34.2741508,50.4728279 34.2662201,50.4608078 34.1034966,50.2862625 33.8098602,50.1950569   33.6076241,49.988739 33.3736534,49.5643539 33.2903442,49.2112503 32.8142319,48.4655075 32.1794777,47.8783951   32.1715431,47.8704605 32.1556358,47.8545952 31.8224926,47.6482658 31.616209,47.5173569 31.4534836,47.4181824   31.3583965,47.3546371 31.2948456,47.2357025 31.2710438,47.1880646 31.1877365,47.0255394 31.0806293,46.5494194   30.9299259,46.2954979 30.9457932,46.0932617 30.4578953,45.0221024 30.2912827,44.657177 30.1444664,44.1810684   30.1921082,43.4868507 30.3309917,43.2726326 30.3984299,43.2172165 30.6879787,42.9909782 30.7197552,42.9673347   30.7197552,42.9514694 30.7354641,42.7649345 30.5926933,42.685524 30.5888042,42.6975441 30.5173607,42.8997383   30.3984299,42.959404 30.2198391,42.5109787 29.7516575,41.6581192 29.8390102,40.1784782 29.7595901,39.8532333   29.7516575,39.8174095 29.7398376,39.793766 29.4779377,39.3215408 29.2201233,38.6631432 29.2598343,38.4489288   29.4384251,38.2426453 29.624794,37.7547073 29.5891304,37.187355 29.3828487,36.5526009 29.3272724,36.1956139   29.3946705,36.0013504 29.4105377,35.6520996 29.3470268,35.3030472 29.2003689,34.414566 29.2280979,34.1050262   29.2439671,33.9107628 29.0614872,33.5299339 29.1050816,33.2482796 28.6212311,31.2171555 28.3395767,30.5388451   28.0856514,29.9238472 27.8158188,29.4320221 27.6056499,28.9520607 27.4549446,28.6148281 27.0144939,28.0832958   26.6654415,27.4444942 26.2051926,26.98036 25.9473801,26.5916309 25.5665932,26.2346516 25.4277077,26.0242825   25.4038677,25.9847717 25.3126259,25.9053459 24.4994793,25.2190628 24.4121265,25.1475849 23.9600506,24.604269   23.6545944,24.4217892 23.44034,24.0487366 23.4362926,24.0448418 23.4324055,24.0448418 23.2220383,23.9813366   23.0277748,23.6996822 22.6826115,23.4616261 22.4247971,23.2871189 22.3136044,23.2078991 22.1828518,23.1999645   22.0478573,23.1919918 21.9486828,23.4062462 21.7900448,23.430048 21.6234322,23.0769501 21.5519867,22.9221916   21.5519867,22.9183102 21.5719414,22.7912483 21.6590939,22.4857922 21.8376865,22.0731888 22.0598373,21.6805782   22.3335571,21.363102 22.4842625,21.113224 22.4762878,20.7601242 21.8535557,19.9787064 21.5957432,19.8398285   21.4369049,19.8160267 21.2505779,19.8518486 20.6555328,20.0381775 20.4889603,20.0738392 20.3262348,20.0263958   20.1040859,19.8518486 19.9890041,19.5899906 19.9613152,19.4113979 20.0881786,18.7409801 20.0961132,18.538784   19.8382988,18.193573 19.4852009,17.9596081 19.1996975,17.8286591 19.0131721,17.8404808 18.5411034,17.9596081   17.9896545,18.0070534 17.600893,17.9714222 17.2994843,17.864315 17.243906,17.72155 17.6803112,16.9796829 17.7436638,16.8248978   17.7515984,16.6345234 17.7159348,16.4719982 17.442255,16.1506329 17.3233242,16.0673676 17.1367989,16.0474129   16.9979153,16.1029835 16.9066753,16.1981182 16.5615101,16.8725739 16.3910484,17.0947247 16.2045231,17.1065521   16.0815067,17.0273323 16.0735722,16.8487396 16.1886158,16.3648891 "></polygon><polygon points="14.1853781,66.8682861 13.8681011,66.2968826 14.0544691,66.0311356 14.1377354,65.6503067 14.2369089,65.1901016   14.4114552,64.7776947 14.6614933,64.7061996 14.9708366,64.2341766 15.3160019,64.5038147 15.383441,65.1941376   15.5023699,65.1426163 15.6253462,65.2377396 15.6135244,65.9201355 15.5579472,66.1661301 15.0223675,66.416008   14.7606668,66.8960114 14.6256714,66.9951859 "></polygon></svg>