<svg height='100px' width='100px'  fill="#000000" xmlns="http://www.w3.org/2000/svg" xmlns:xlink="http://www.w3.org/1999/xlink" version="1.0" x="0px" y="0px" viewBox="0 0 100 100" enable-background="new 0 0 100 100" xml:space="preserve"><polygon points="17.0363903,44.6475067 16.721199,44.6674728 16.47995,44.7679672 16.2989597,44.9087372 16.0776768,45.3646202   15.9235001,45.5456886 15.6554375,45.6058846 15.3873653,45.5253792 15.1929684,45.3846054 15.0721741,45.1636658   15.0855808,44.848465 15.3536482,43.7290802 15.3536482,43.1055336 14.830987,42.327877 14.6499338,41.8519402   14.5426092,41.3092346 14.6365271,40.3704987 14.9179964,39.6131439 15.2934561,38.9562149 16.0308876,37.9975128   16.6878166,37.3205948 17.3849659,37.0188217 18.6719456,36.6771507 18.8798122,36.5563583 19.5567169,35.8994293   19.9052925,35.2225914 20.1599522,34.4851532 20.2204838,34.1430817 20.1599522,33.265213 20.401474,32.1254959   20.4885559,31.8843212 20.8505363,31.5893726 21.152317,31.5691185 21.7218342,31.669611 23.1764622,32.3467865   23.7129307,32.5075302 24.0480995,32.5277748 24.4837551,32.3264732 24.8725491,32.0047798 25.2008743,31.629324   25.5897369,31.3681622 25.864645,31.3075638 26.5081673,31.3075638 27.1516171,31.3880711 27.3928719,31.3075638   27.8154507,31.0663662 28.565958,30.5099316 30.0208549,29.6520367 30.5635586,29.1492844 30.8587742,28.773819   30.9926395,28.2108822 30.9055672,27.9761982 30.5903721,27.6341267 30.0074482,27.1919727 29.7658596,27.0979805   29.4644089,27.1179676 29.2834187,27.2521591 28.760355,28.4521351 28.6264896,28.6331272 28.4454994,28.7535858   28.1571217,28.8544044 27.5470486,28.8743134 27.2455997,28.8340931 26.4812832,28.5526085 26.3605556,28.3313408   26.3002911,28.0766716 26.3605556,27.7748966 26.6423645,27.037796 26.715971,26.4545364 26.7493496,25.7573109   26.5952396,24.9596882 26.3605556,24.5574093 26.0253868,24.2022762 25.3350811,23.8602619 23.6258545,23.4380264   23.3574524,23.3575096 23.1898689,23.2435532 23.0694084,23.0023766 22.995739,22.144146 23.0291271,21.5209351   23.1633224,20.964489 23.1764622,20.6427956 23.1027927,20.4483318 22.7879353,20.3478489 21.9634228,20.508585   21.6616421,20.5288391 21.346447,20.4683075 20.9978714,20.1465454 20.9107952,19.9455795 20.8908195,19.643795   20.9713268,19.3688908 21.2393932,18.986866 21.5208721,18.2295208 21.7019253,18.0484524 21.9431114,17.9679565   22.2448959,18.0082321 22.653738,18.3100281 22.9823322,18.3299942 23.2638073,18.2697411 23.5787296,17.9679565   23.8536396,17.5123291 24.1688271,16.8082752 24.4368935,16.432888 24.6447639,16.2721424 24.8591423,16.1916237   25.4423962,16.1314392 25.9383106,15.950448 26.3605556,15.7157631 26.4812832,15.4944754 26.521574,15.1927004   26.3405838,14.7167625 25.864645,14.2343225 25.4423962,13.9528484 24.6781521,13.6978531 24.4368935,13.5570822   24.2892857,13.376092 24.1819649,12.8599339 24.1953716,12.5584841 24.3429832,12.3371954 24.7383442,12.0557318   25.2614059,11.9215307 25.9049282,11.9618073 26.4947605,11.9015551 26.856741,11.5797939 27.1248035,11.177515   27.5738621,9.9239311 28.2645092,8.5632849 29.4375954,7.0282168 29.873251,6.0898142 30.0945244,5.7412395 30.1681271,6.1699862   30.2889214,6.3846946 30.8319607,6.5051541 31.6698799,6.3107567 31.9713287,6.2907701 32.2128525,6.3846946 32.3601952,6.5454412   32.6350937,6.6259375 33.2786179,6.6861444 33.5198059,6.8069282 33.9554558,7.3633842 34.1165352,7.5041547 34.6123848,7.7253656   34.9007683,7.6851454 35.0817566,7.5240636 35.1688309,7.2694597 35.1554222,6.9676852 35.3767052,6.525465 35.6044807,6.3712878   36.2951279,6.0898142 37.0593758,5.8885121 37.5284081,5.6472478 37.7630997,5.6070275 38.1987457,5.372354 38.5139351,5.3186603   38.5742035,5.9287887 38.5473213,6.2504935 38.0782852,7.1486759 38.0648804,7.4438915 38.3529205,7.8258381 38.3932152,8.0874138   38.1385498,8.8245144 37.8436012,9.2470942 37.4210892,9.4814434 37.1061707,9.4814434 36.5029297,9.3609838 36.2682495,9.2470942   35.9664612,9.1864958 35.7252808,9.2804661 35.4572067,9.682745 35.4706154,9.9841948 35.5576973,10.2188787 35.7118721,10.3998699   36.7575951,11.0836115 37.2737541,11.2780094 39.0837898,11.5797939 39.4455032,11.9015551 39.8208885,12.5181856   40.0153542,12.6589565 40.3505211,12.699254 40.5852127,12.6389914 41.0545769,12.3974695 41.3828392,12.0557318   41.6509056,11.6400461 42.0466728,11.3988037 42.3281441,11.3182859 42.9716072,11.3988037 43.4275627,11.6200809   43.8160896,11.9215307 44.2920265,12.1025219 44.6271935,12.1025219 45.1835747,11.9952011 45.4182587,12.1159286   45.7400169,12.4580002 46.0954971,12.7394743 47.1144066,13.6978531 47.9121056,14.6162796 49.3866425,16.1716595   50.2716866,17.2911186 50.8277969,18.0887508 50.9888153,18.2295208 52.0276985,19.5099297 52.3294868,19.5298939   52.5370178,19.409111 53.0128899,18.4910183 53.167408,18.3100281 53.5896454,18.0684395 53.9045029,18.0484524   54.4746895,18.1489468 55.2386055,18.4707069 56.0497093,19.0071774 56.3645668,19.06744 56.5256462,18.9466457   56.7403564,18.4304886 56.9818802,17.9882679 57.2764893,17.612812 57.6384735,17.3313389 58.0875282,17.1300373   58.6773567,16.7143612 58.8855629,16.5939026 59.1873474,16.5735912 59.723484,16.7143612 59.9983864,16.9156647   60.2799301,17.1703129 60.3263817,17.4721088 60.192852,18.0282192 59.9512634,18.4707069 59.8641853,18.7253685   59.7568665,19.3289375 59.7431221,19.9053593 59.8039894,20.1868229 59.7568665,20.8437519 59.4079552,22.2246418   59.3346214,22.8616066 59.442009,23.3575096 59.7699356,24.0412521 60.8828278,25.5563545 61.9020729,27.1716614   62.0827293,27.9156666 62.0964699,28.2508335 61.9354553,29.5312424 62.0093956,30.0473995 62.1698036,30.5302429   62.4113312,30.9455833 63.0417786,31.669611 63.4168358,32.2862549 63.6714897,33.0037117 64.066925,33.5869713   64.6639252,34.3240738 64.9048386,34.7397499 65.005661,35.0684128 65.2203674,36.0401993 65.3074417,36.2817192   65.3879547,37.1396065 65.3538971,37.4747734 65.0992355,38.2391014 64.978775,38.4534645 64.5029068,38.9964333   64.1408615,39.2982292 64.0335464,39.5126686 64.0472794,39.7941322 64.1539307,40.0556412 64.261322,40.5515556   64.3483963,40.7930794 64.5029068,41.014019 64.7241211,41.1148376 65.0390472,41.1148376 65.5816803,41.014019   66.044548,41.2556076 66.842514,42.1134377 67.2915726,42.9111366 67.3649063,43.1657982 67.4251022,43.7693672   67.1573715,46.3030319 67.2176361,47.1612625 67.4860306,47.8381577 67.5796204,48.3811302 67.5593033,48.7028923   67.4120331,49.259346 67.3989563,49.5811081 67.5593033,50.0167503 67.8342743,50.439003 67.9213486,50.6736794   67.8944702,51.6323357 67.9815445,51.853611 68.0286713,52.1350861 68.2368774,52.5707283 68.8535156,53.274456   69.255455,53.8711777 69.9925537,54.4678535 71.0321121,55.1313515 71.1793823,55.3123398 71.2998428,55.52705   71.4072342,56.0497665 71.4209671,57.2899666 71.3600388,57.6048203 71.373848,57.8260994 71.5682449,58.382534   71.7626419,58.5232468 72.0775681,58.503273 72.3190842,58.4227562 72.5868149,58.027401 72.6942062,57.4843636   72.4526138,57.0487099 72.271965,56.5659256 72.2588882,56.3044395 72.5868149,55.9289818 72.9089127,55.9289818   73.0561829,56.1099739 73.6394501,56.5057411 73.894104,56.626133 74.2430115,56.6464424 74.5107498,56.6062241   74.6921387,56.4451408 75.1143188,55.8890305 75.3218536,55.7280083 75.623642,55.7479935 75.8180389,55.8890305   76.8097992,57.2228546 77.1522064,57.5446167 77.6477127,57.7658272 78.2179031,58.2014885 78.7475357,58.9658051   79.0623932,59.3209457 79.2567902,59.4616508 79.5251923,59.8237 79.8669281,60.1588669 80.1549683,60.5611267   80.5038834,60.8828278 80.8586884,61.4995384 81.0530853,62.5387573 81.1742172,62.7799339 81.5224533,63.0951347   81.851059,63.1350899 82.0317764,63.0346069 82.3937607,62.7197495 82.8428116,62.1161804 83.024147,61.9823112   83.4732742,61.7810097 83.9962616,61.6402397 84.6260376,61.2985725 85.0214081,61.0170288 85.1824875,61.0170288   85.3369293,61.0170288 85.7526703,61.2782593 86.0269089,61.660553 86.100914,61.9017944 86.429512,62.5387573   86.7581787,63.4970703 86.89888,63.9933205 86.9722137,64.8512115 86.5499725,66.7685776 86.2213745,67.2107925   85.8593216,67.5325546 85.3369293,67.6532745 84.8073654,67.5125809 84.3916931,67.2311096 84.0565262,67.1908188   83.84832,67.3112793 83.5805893,67.6866684 83.3992615,68.2097321 83.3528061,68.8263626 83.4463882,69.067627   83.5805893,69.1412964 83.5871582,69.1412964 83.2454147,69.4832916 83.0103989,69.9660721 82.9502029,70.247612   82.9770126,70.8439484 83.305687,71.8026505 83.3259277,72.0641556 83.2657318,72.3656082 82.6353531,73.1030426   82.2261734,73.6997757 81.9250565,74.4372101 81.7908554,74.9598694 81.6697311,75.1811371 81.4019928,75.5968246   81.0131378,75.8982773 80.7382278,75.9385605 80.4704971,75.8982773 80.067894,75.5968246 79.5251923,75.4158325   79.2234039,75.4358139 78.834549,75.7172852 78.2781754,76.4949951 78.0706329,76.615799 77.8153,76.6959763 77.2124023,76.7162857   76.341095,77.1519241 75.8180389,77.2726669 75.5634384,77.2324448 75.288475,77.1116486 74.3300934,76.3742142   74.034874,76.334259 73.8542175,76.475029 73.3848495,77.7754135 73.2774658,77.9564743 73.1033096,78.1508713   72.6811371,78.3518295 70.0396805,78.0903397 69.2154999,78.2513504 68.6453094,78.2713318 67.7675095,78.1439667   67.3989563,78.1508713 67.1842499,78.231041 66.9760437,78.3921204 66.4935989,78.9082794 66.2723236,79.3707352   66.238945,79.6924973 66.6140594,80.5707169 66.708313,80.8456192 66.7213821,81.1470642 66.6278,81.4086304 66.2723236,81.710083   64.978775,82.347023 64.0472794,83.0844727 63.0011559,83.7011032 62.5187149,83.8621292 61.5734138,83.9020767   61.0641556,84.0228653 60.8828278,84.1436005 60.7623672,84.3848495 60.6549797,84.6395187 60.6281662,84.9612732   60.4337044,85.4440536 59.9244499,85.9398956 59.7097397,86.0606842 59.2004242,86.181488 57.987381,86.2014542   57.7458611,86.3221893 57.6254005,86.5366211 57.6384735,86.8181076 58.2819939,88.1388016 58.3755722,88.380043   58.3893204,88.6749344 58.3023033,88.9364243 58.0744591,89.3118896 57.7124786,89.6938477 57.5042725,89.7943268   56.6198959,89.8748322 55.4330673,90.6322479 54.9506264,90.7933273 54.6219635,90.7730179 54.3804398,90.6928482   54.1997223,90.5117874 53.9182434,90.1363983 53.4691887,89.3118896 52.9258118,88.5142517 52.6849632,88.3934555   52.3563004,88.380043 52.0878944,88.43367 51.725914,88.735466 51.6794586,89.0369186 52.1350899,90.1766205 52.1488266,90.4715652   52.1017036,90.7730179 51.8738556,91.610939 51.6794586,92.0737381 51.290596,92.6903763 51.0624809,93.1460037   50.4189606,93.8297501 49.9967194,94.0644302 49.0985985,94.4464569 48.7097397,94.7079544 47.8852272,95.5861511   47.6437035,95.6666641 47.3756371,95.5861511 47.2551765,95.4051056 47.1144066,94.8689651 47.1010017,94.60746   46.8460045,93.8700333 46.625061,93.7495728 46.021492,93.7093506 45.4519768,93.7695389 44.9692039,93.9437027   44.4330673,94.0510254 44.117878,94.0510254 44.1044731,94.1450043 43.977108,93.9437027 43.6822243,93.97052   42.9915771,94.2454834 42.7170067,94.164917 42.522541,94.0242081 42.4823227,93.7495728 42.810585,93.4075623   42.8979988,92.8913422 43.0184555,92.6701355 43.1994476,92.5093842 43.4409676,92.4288712 43.4878273,92.1876297   43.2128525,91.8122406 42.7304153,91.2960815 42.1471558,91.2891769 41.9258804,91.3765869 41.6712151,91.2960815   41.5707321,91.0548248 41.537014,90.7330627 41.7115021,90.5317612 42.0868912,89.3386993 41.9392891,88.8559265   41.5036316,88.594429 41.4768181,88.2994766 41.8318977,87.2203674 41.6980286,87.0194092 40.9003983,86.7778168   40.3639297,86.8583221 39.5797081,87.3745422 39.0435677,87.8975449 38.8288612,88.0180054 38.6144257,88.0448761   38.1519547,87.8170395 38.0043488,87.6360474 37.8436012,87.1601105 37.5886726,86.7578354 37.2403679,86.4361496   36.6099815,86.3624802 36.3419151,86.4024277 35.6516037,86.6976471 35.1420174,86.7578354 34.9744301,86.5768433   34.4919243,85.7589111 33.6405983,84.9612732 33.6202888,84.0431213 33.8350639,82.4877396 33.8350639,81.8645248   33.6405983,81.7303162 33.0773163,81.5827179 32.9231377,81.4220428 32.8629456,80.8521805 32.4809189,81.0063553   32.2128525,80.9460983 31.9847355,80.805397 31.4148846,79.7527008 31.4014778,79.4512558 31.4486027,79.1697769   31.6898594,78.7138062 31.7634583,78.4523163 31.7434864,78.1508713 31.6698799,77.9161835 31.5356827,77.7148819   31.0263577,77.2524185 30.5635586,76.7361908 30.4699116,76.4949951 30.5435867,75.8783646 30.6374969,75.6167984   30.6240902,75.3153534 30.53018,75.0806656 27.5002632,73.3577042 27.2252884,73.2840347 27.0646076,73.4182358   26.6423645,74.0214615 26.5349808,74.2561569 26.0253868,74.7589035 25.4289894,74.7589035 24.3629551,74.4169006   24.0615063,74.4372101 23.3374805,74.6584244 22.4861546,74.7991943 21.5542507,75.1811371 20.8908195,75.5163116   20.3543491,75.6167984 19.9923687,75.2950363 19.6640434,74.7788849 19.1544495,74.1822128 18.2696743,73.3780136   17.1100655,72.8215637 16.5873337,72.660553 16.4197483,72.519783 15.9971695,71.6419144 15.8498974,71.4609222   15.2332554,71.0049515 15.0253849,70.5624695 15.0119781,70.2675247 15.1124659,70.0263367 15.2666426,69.8453445   16.0442944,69.2888947 16.4933567,69.1281586 17.0831795,68.7258835 17.3512478,68.3102036 17.5457115,67.8677216   17.713295,67.3515015 17.7267017,67.0500488 17.6396294,66.8085251 17.2910557,66.4733582 16.1984711,66.1719055   15.8027725,65.8904343 15.4276524,65.2737274 15.0387917,64.0535126 14.9045897,63.8525467 14.5629206,63.0346069   13.7786274,61.7207489 13.0277853,60.809227 13.9462118,60.279583 14.5023222,59.8439445 15.628624,59.1130753   15.8498974,58.9055405 16.2252846,58.2820625 16.4197483,57.7455902 16.4933567,57.1491928 16.3189316,56.6867294   15.2666426,56.0298004 15.2197819,55.7882118 15.3068628,54.8498116 15.5212317,53.9919815 16.0577011,52.4768219   16.1984711,51.9337845 16.392868,50.7741699 16.7346058,50.0769539 17.4452324,49.1385536 17.6396294,48.6223946   17.7401085,48.0191498 17.8942852,46.0818214 17.8137779,45.2239265 17.6799126,45.022625 17.2910557,44.7276802 "></polygon></svg>