<svg height='100px' width='100px'  fill="#000000" xmlns="http://www.w3.org/2000/svg" xmlns:xlink="http://www.w3.org/1999/xlink" version="1.0" x="0px" y="0px" viewBox="0 0 100 100" enable-background="new 0 0 100 100" xml:space="preserve"><polygon points="10.2206202,57.8978424 9.1954889,57.8467979 7.4299746,56.4365616 6.0088768,54.8127899 4.9638562,53.3208809   4.6596251,50.8855095 3.9897687,49.94207 3.9084847,49.2211685 3.8173575,48.3079681 4.4461155,43.711216 4.2231679,43.0720062   4.7201061,41.9249001 5.7348862,41.4582024 6.9122338,41.4785004 8.6677017,42.1890488 9.6621866,42.0874443 10.1393356,41.1435204   10.5145006,40.6261635 11.8032713,40.2709084 13.4473162,39.3676529 14.5334358,39.0534782 14.8679066,38.9519005   15.6289921,38.0387001 16.8369865,37.713665 17.5674248,37.2062759 19.0593548,36.6379967 19.8407345,36.5670433   20.3684216,36.5264511 21.301918,35.9377975 21.6571922,34.9943581 21.6166,33.7258835 21.9818192,32.5892296   23.4935379,31.1988544 23.8592644,30.5596676 23.8894043,30.2752247 24.4677258,30.3565083 24.8333511,31.0873528   25.8580761,32.2641945 27.2890186,33.8879433 27.7052803,35.1668701 28.7705975,36.1102104 28.9737568,37.4297295   29.3488197,37.8860741 30.4854736,38.0080299 31.8654728,36.3743591 32.7791824,35.7856598 33.712677,35.6638069   34.5242996,36.384304 34.7681503,36.5874634 35.54953,37.2672386 36.0464706,37.7038193 37.0409546,37.8860741   37.5181046,37.6225357 37.6196823,36.993248 37.4061737,36.5061569 37.3862839,35.6841049 38.2281456,34.8214378   39.0199776,34.5578995 39.6388931,34.496891 40.6234322,34.3953323 41.7293396,34.466671 42.0237274,34.2531624   43.149929,33.4821091 44.0532875,32.1225319 44.2459946,31.8380871 44.8445129,31.4426289 45.5650063,31.4119587   47.4018593,32.152668 48.6296425,31.8484383 49.3198929,31.8688354 49.6038284,32.0615425 49.9591026,32.2949409   49.9794006,32.3047867 52.1610756,33.472187 52.6789169,32.4772987 53.3180275,32.2542267 53.6327095,32.2542267   54.4646263,32.2542267 54.9417763,32.0818367 57.0526199,30.1028137 59.1530113,29.4329567 59.1937065,29.4229908   59.5692749,28.9255676 59.41716,27.9618301 59.6302643,27.4845791 60.9898643,27.3023262 61.9744034,26.3886166   62.5933189,26.3583546 63.6179428,26.591753 64.1863251,26.5510845 64.2879028,26.5412407 64.9271088,25.8207455   64.9677048,25.0492096 65.5766754,23.6791553 67.0175552,23.4458561 67.6265259,23.9125538 68.2152023,24.8465576   68.824173,25.2623119 69.8894882,25.5972691 71.4116592,25.5363026 74.0398331,24.9070377 74.2122498,24.9883232   74.6488037,25.1810284 75.2170792,25.4347248 75.7854614,26.0134525 75.9479294,26.6526394 76.7289047,27.2210407   78.362999,27.6877155 78.4848785,29.1995583 78.890686,29.8798676 79.2153168,30.1231098 80.0269394,30.1840744   80.6665497,30.0116863 81.8636856,29.1490002 81.8538437,28.9969063 82.8686295,28.8343391 83.4671402,29.0880337   85.8925705,31.0363102 86.4099045,31.1889324 87.1814423,30.4883289 87.7904129,30.3971786 90.1647949,30.7014332   91.209816,30.5393715 91.2201614,30.5393715 90.3169098,32.2542267 90.1548462,32.5486374 90.2966156,35.2679443   90.4487305,36.1102104 90.8143539,37.3177986 90.9764175,37.6527786 91.2201614,38.9212532 91.1592789,39.865078   91.1998672,40.7986755 91.6056824,42.3411407 91.5650864,43.3356247 91.3421402,44.1273804 91.3113937,44.6347694   91.4738617,45.4870834 92.1537628,47.3238335 92.3162308,48.1761246 92.2448883,48.6532974 92.336525,49.0486565   92.4480515,49.474865 92.8132706,50.1041298 93.7264709,50.8042259 95.542923,51.6163559 96.0200729,52.1945763   96.1826401,52.5295334 96.1113052,53.4630508 95.8779068,54.2751808 95.0662842,56 94.6604691,57.5425453 94.6604691,58.5676994   94.7412491,58.9938049 95.0662842,59.6027756 95.9695358,60.84058 96.1113052,61.1754608 96.1826401,61.5917435   96.1113052,62.5351868 95.7257919,63.6817856 95.4923859,63.9557762 94.3557358,64.8590317 93.0669632,66.6755676   92.9048996,66.6755676 92.3569183,67.0001144 89.5255814,67.2438431 87.8612442,67.7309418 86.7448807,68.1570663   85.0200577,68.9994125 83.7312927,69.811058 82.8889236,70.5116577 81.8636856,71.0592346 81.0417175,71.2926331   79.5398407,71.4452591 77.5206299,70.9680099 76.9320602,70.9071198 75.9276352,70.9680099 75.1357956,70.754982   74.4966888,70.2981491 74.2225952,69.9938965 73.4819107,69.6995316 71.7263412,69.3344116 70.7521515,69.243187   69.4733276,68.938446 67.4541168,68.3091812 66.1143036,68.0659409 64.5213013,68.0659409 64.135788,68.1878128   63.5065193,68.5733261 62.6339111,69.273407 61.8827705,69.5776596 60.0256233,69.3036652 59.1634636,69.4562912   58.7977371,69.6693954 57.9757652,70.3897858 56.0883751,72.5714417 55.1345825,73.2309647 54.0692673,73.7180634   52.7804985,75.0172882 52.1407814,75.4126434 51.4307404,75.6460419 50.4768448,75.8288803 45.7781105,76.4071274   44.0735817,76.7728577 42.64254,76.9551086 41.6684532,77.5542374 40.7552528,78.7008362 39.6894264,79.6446838   39.3242073,79.7864456 37.9849014,80.0301971 36.959671,80.0604401 36.1178093,79.8780823 34.3013535,79.0659561   32.6468544,78.6096039 32.3223267,78.4267197 32.2312012,78.0413284 32.7078438,76.498764 32.7078438,75.9810181   32.2312012,75.9507828 31.4799595,76.2247696 30.9423275,76.6811142 30.374052,77.6756058 30.1911888,78.5179749   29.6228104,79.4311752 29.3488197,79.6645737 28.5981865,79.9994507 28.2532616,80.304184 27.5021229,79.9488907   25.4626179,80.1010284 24.9552269,79.6749039 24.8432961,79.0050659 25.2896976,78.3658371 25.2288113,77.8887024   24.498373,77.5745316 22.5907898,77.3916473 22.0323563,76.975502 21.5150204,76.5899658 21.1899872,75.5043793   21.0279274,74.9157028 20.6117649,74.2155075 19.6881123,73.7790298 19.1202412,72.6626892 19.0691986,72.0234604   19.0286064,71.597374 19.3838806,69.7807922 18.3691006,67.3048553 18.4399338,66.6046524 18.3488064,64.4734955   18.592556,63.8036613 18.7446709,63.3270187 20.5612297,62.4236374 20.7945271,61.7844505 20.774231,61.3073006   18.7853642,61.6323357 18.1862373,61.3479729 17.3543205,60.9520264 16.0150146,60.7390251 15.3044653,60.9723206   13.8431816,61.1348686 13.1227894,60.6983299 12.1382504,58.2832565 11.7120419,57.8978424 11.0020008,58.0092659 "></polygon></svg>