<svg height='100px' width='100px'  fill="#000000" xmlns="http://www.w3.org/2000/svg" xmlns:xlink="http://www.w3.org/1999/xlink" version="1.0" x="0px" y="0px" viewBox="0 0 100 100" enable-background="new 0 0 100 100" xml:space="preserve"><polygon points="9.3365345,70.4914551 8.9083681,70.7323227 8.7166986,70.7680588 8.5380993,70.7190399 8.5649071,70.518219   8.5694571,70.0096817 8.5827494,69.795578 8.4043741,69.1086502 8.5827494,68.8365936 8.8057756,68.6046448 8.8861551,68.4574127   8.8772335,68.2611847 8.6452427,68.0337982 8.3553514,67.8597946 8.1724262,67.5921097 8.1188536,67.4359512 8.1277752,67.2218475   8.6274014,66.5841217 8.7031832,66.2049332 8.7166986,66.0087204 8.6853418,65.7946091 8.5962648,65.7499619 8.3775644,65.5223389   8.0565405,65.4019089 7.8378863,65.4154205 6.9235649,65.6652145 6.7273011,65.6295242 6.6201611,65.5223389 6.5264897,65.3886032   6.2812481,64.764183 6.2009139,64.4072037 6.2098351,64.1931 6.2409692,64.0193176 6.4685903,63.6623421 6.5175686,63.6087723   6.6870227,63.5554237 6.8699937,63.6222878 6.7183805,62.8105164 6.6870227,62.4803352 5.8796215,57.5247383 5.8484888,57.190197   9.8851805,51.4494362 10.491991,50.8115005 11.3751764,49.3932304 11.7408533,48.4207344 11.9817219,47.9703217   12.7623148,46.9309731 12.8426924,46.7747993 13.4224739,45.989666 13.5071774,45.8158379 13.9578257,46.0075073   14.591176,46.2440491 15.139822,46.5607491 15.228899,46.7212372 15.2602568,46.8817711 15.2378197,47.3189049   15.2781429,47.4929123 15.4787331,47.7427368 15.550148,47.9032364 15.5769539,48.0772743 15.5680332,48.2870178   15.3672199,48.541172 14.8810682,48.978302 14.7205763,49.2860451 14.631278,49.6295052 14.5598192,50.2406883   14.4796629,50.4146919 14.3278713,50.958744 14.3189497,51.1728516 14.3592291,51.3468475 14.4483051,51.4762573   14.658042,51.5163116 15.0193872,51.3958778 15.206687,51.3825836 15.41642,51.4093933 15.5590696,51.5030174 15.8890581,51.850853   15.9293365,52.0203056 15.9158211,52.2479286 15.9962015,52.5913887 16.0898724,52.7386322 16.308527,52.9794998   16.6252232,53.1132164 16.8347359,53.1400337 17.0266266,53.0999336 17.2539806,52.8723488 17.5351734,52.4752808   17.6778221,52.3816528 17.8873768,52.4219322 18.1639748,52.60923 18.3469028,52.6715431 18.5163555,52.5913887   18.7661934,52.4084167 18.8644123,52.2879829 18.9445667,52.1274376 19.4441929,51.4762573 19.5424118,51.3690681   19.7118683,51.3200836 19.9213791,51.3468475 20.2337074,51.7036095 20.4434395,51.7439308 20.652998,51.7304153   21.1793842,51.5698738 21.7413216,51.7304153 22.9189491,52.1810646 23.5479717,52.2746925 23.7932129,52.2522545   24.0966167,52.1139793 24.3464069,51.9312286 24.895052,50.8651085 25.6756458,49.8035545 25.7379589,49.6563034   25.8048229,49.2727509 25.6085587,48.5947495 25.5863476,48.4074516 25.6845665,48.2735023 26.3447247,48.0236702   26.4159603,47.8764725 26.4070396,47.6758804 26.1661263,47.2520409 26.1840115,47.0111275 26.5052605,46.6543655   26.786232,46.2440491 26.9959641,46.0164299 27.1253185,45.6997757 27.1654186,45.4991875 27.3126163,45.2046928   27.9235764,44.424099 27.9949894,44.049511 28.1333122,43.7328148 28.4723988,43.3982735 28.5926552,43.0548134   28.6015759,42.8271942 28.7041683,42.2696266 28.8648815,41.9618835 28.9628792,41.8460083 29.1101227,41.7388573   29.6901245,41.4311371 30.1226635,40.9539032 30.3903427,40.7396202 30.5822315,40.7130356 30.751688,40.7798958   30.8318424,40.9136238 30.8721218,41.0741577 31.0995197,41.297184 31.6392002,41.6852951 31.9872551,41.8057327   32.0898476,41.6852951 32.1477928,41.5114708 32.2192039,41.1144371 32.397583,40.8199539 32.5670357,40.7396202   32.7589264,40.7263184 32.9061699,40.6505432 33.0087624,40.5165939 32.9997978,40.3160019 32.7589264,39.8921623   32.6563339,39.5443306 32.6563339,39.1472549 32.7364922,39.0000572 32.856926,38.8930931 33.1960602,38.7770271   34.0345993,38.7101555 34.413784,38.6433029 35.1139984,38.4291954 35.4263268,38.2952461 35.5735664,38.1882744   35.8856735,37.8581161 36.2558975,37.5370903 36.884922,37.2739639 37.4825439,37.1668129 38.7628059,37.0999565   39.4007072,37.1801147 39.9179916,37.5638542 40.1009636,37.8448105 40.319397,38.5093536 40.6273537,38.8795776   40.7700462,38.9466629 41.1357193,39.0536156 41.7958794,39.1340065 42.4873924,39.1472549 43.1250725,39.1071968   43.2947502,39.0803795 43.4374008,39.0000572 43.6647949,38.7637367 43.709446,38.6297874 43.7229614,38.5896873   43.6647949,38.4424896 43.5132294,37.7243767 43.5266991,37.5146523 43.6647949,36.7163963 43.7229614,36.078495   43.8031158,35.9312439 43.9370689,35.8242912 44.374157,35.5877838 44.5035553,35.4808273 44.5346909,35.2800064   44.5257721,35.0927162 44.4632301,34.9097481 44.1243668,34.1515884 44.0753441,33.790287 44.0930061,33.5805435   44.1465797,33.4065018 44.3563118,33.1523323 44.6730118,33.0229759 45.1233902,33.0229759 45.4847374,32.9025078   46.0333824,32.8088684 46.4615517,32.782074 47.6526909,32.8489342 48.4598694,32.7285004 48.8970032,32.5189896   49.2986298,32.2245064 49.4680824,32.144352 49.958786,31.9703445 51.1272697,31.7606106 51.2745094,31.693737   51.5242996,31.4929333 51.8052711,30.8552113 52.0060844,30.6186695 52.4565086,29.9006023 52.7644615,29.5392647   53.0632744,29.3831024 53.7813759,29.2093201 54.0533791,29.0219765 54.0712662,28.8076935 54.0311661,28.6249447   53.9732666,28.4644108 53.8617516,28.3572578 53.5628967,28.156456 52.6172218,27.7193222 52.3449936,27.4829941   52.1755371,27.2421246 52.0775414,26.8943024 52.0640259,26.7113762 52.0953827,26.5105629 52.385273,26.0869465   52.4432182,25.9128857 52.385273,25.7524071 51.8277054,25.5962429 51.6671715,25.5025711 51.5778732,25.3954296   51.4753227,25.0475979 51.3860245,24.9181881 51.2254906,24.8513336 51.0157547,24.8110561 50.1593781,24.8781414   49.9363518,24.8646259 49.7579765,24.8110561 49.6196518,24.7173843 49.5305748,24.5568848 49.477005,24.2134228   49.5170593,24.0126209 49.6775932,23.7094383 49.6775932,23.2945194 49.3386879,22.7504673 48.9995956,22.4070072   48.7990036,22.1393299 48.2102585,21.6085262 47.9916039,21.3676586 47.7507362,20.9438171 47.7017136,20.5691681   47.8086319,20.4265308 48.2503586,20.1989441 48.6295471,19.8955479 48.7811203,19.8153915 49.2271729,19.801878   49.3877068,19.8689632 49.5571594,19.8153915 49.6686745,19.6814423 49.7178726,19.2711182 49.6686745,18.883007   49.7000313,18.4593906 49.8158722,18.0758286 49.8784103,17.7277737 50.1282005,17.3041573 50.2486763,17.1837234   50.64571,16.8892269 51.1139793,16.7063122 51.2477036,16.5993481 51.328083,16.4521503 51.3770599,16.278101   51.3058662,15.9213476 51.2477036,15.7606344 51.0471115,15.5110226 50.7750664,15.3235016 50.2575989,15.1272383   49.2004089,14.9667377 49.0085144,14.9131775 48.8479805,14.8062143 48.7589035,14.6990719 48.7499809,14.4984818   48.8970032,13.9541969 49.017437,13.7712364 49.0888977,13.6374989 49.4369049,13.3297777 49.7758179,13.1958275   49.9766273,13.1557274 50.6189003,13.1557274 51.7830582,13.2361059 52.6261406,13.1692429 53.1434288,12.9862614   53.415699,12.8257818 53.6654892,12.6116762 53.9821892,12.4777269 54.1827774,12.4419975 55.1106148,12.4688053   55.4497032,12.3886499 55.6013184,12.30826 56.0606194,11.840004 56.2213745,11.5498915 56.2793159,11.3493004   56.3418083,10.7381525 56.4622459,10.4079943 56.5602913,10.2742567 56.8190002,10.0734549 57.028553,9.823843   57.2472115,9.3464327 57.4391022,9.0254078 57.7869377,8.0307093 57.8984489,7.4463344 57.947422,6.5943174 58.0278053,6.1972513   58.1482391,5.8494081 58.2998505,5.7690849 58.4782257,5.8359485 58.7593727,6.023469 59.3481216,6.5810356 60.164402,7.1518841   60.7352562,7.3123846 61.1859055,7.3123846 61.4625015,7.4953451 61.8059616,8.0662146 62.2653122,8.7087097 62.3321724,8.8646498   62.3410912,9.0654526 62.2831535,9.4757881 62.3724518,9.6097374 62.5419044,9.5561666 63.3314209,8.9583216 63.7907677,8.744216   64.5223846,8.5882759 65.6686478,8.6150389 66.0611343,8.5479527 66.2307663,8.4946041 66.378006,8.3874512 66.9889221,7.8834667   67.1361694,7.8030877 67.3369827,7.7630324 67.5778961,7.7763247 67.7383881,7.856648 68.2380066,8.2804985 68.5547028,8.4275179   68.7955704,8.4410334 68.9650345,8.3874512 69.1969833,8.1600647 69.2370758,7.9636226 69.1033478,7.4596267 69.1835022,7.3123846   69.464653,7.1250868 69.8525848,7.0582128 70.1738358,6.9244967 70.4057846,6.7014699 70.6734543,6.2732587 70.9811935,5.9030347   71.2621613,5.7156925 72.2925873,5.3855128 72.3951797,5.3186603 72.4977264,5.394434 73.6485901,5.3319526 73.9295578,5.4926658   74.0545883,5.5595288 74.1347427,5.6041789 74.4470673,6.0145478 74.9645386,6.3222804 75.0492859,6.3712907 75.392746,6.456007   75.7183685,6.3490882 76.7576675,6.2686982 77.3109055,6.0946593 77.6319351,6.1439033 78.2117157,6.491725 78.6891251,6.4470859   79.1709061,6.3222804 80.0137711,6.3802118 80.7721481,6.7772546 81.2848434,7.388392 81.5484161,7.3705502 81.9408951,7.0314159   82.0702515,7.3259001 82.0924683,7.6961689 82.2083511,8.4275179 82.2305679,9.0654526 82.1591034,9.6498375 82.168251,9.8771915   82.4892731,10.4214544 82.5293732,10.5909214 82.4892731,10.7917347 82.1817703,11.4028721 82.1904678,11.6034622   82.4579163,11.7908049 82.5520325,11.9336748 82.5607376,12.1342659 82.4492264,12.2546997 82.2797623,12.3350782   80.0808563,12.6116762 79.5455017,12.7586956 79.2419205,12.9059372 78.974472,13.093235 78.2339249,13.7311697   78.0866852,14.0478344 78.0557709,14.2351322 78.1137161,14.3912954 78.2252274,14.5385265 78.5240402,14.6857796   78.733551,14.7125874 79.0545731,14.8730669 79.2510605,15.1229115 79.2911148,15.296917 79.2911148,15.9078321   79.1839752,16.0417824 78.7827988,15.9481554 78.4926834,15.7740946 78.0958328,15.6804781 76.9937668,15.640378   75.7673416,15.7606344 75.2097778,15.8810682 74.2105255,16.2380447 73.9519958,16.4386349 73.7378922,16.7198277   73.5192337,17.170208 73.2293396,17.8214455 72.9348602,18.8697052 72.7029114,19.3514977 72.2032852,20.0116005   71.8018799,20.9840965 71.2935181,21.3809509 71.1016693,21.6620979 70.7536163,22.0053806 70.6244354,22.0857143   69.5448074,22.6032257 68.6840591,22.8974876 68.3852463,23.0582008 68.2648163,23.1607914 68.1086502,23.4284687   67.9256821,23.9457569 67.7963257,24.0528984 67.3280563,24.267004 67.1496811,24.543602 67.1094055,24.7308998   67.127243,25.1277542 67.3681107,25.5561428 68.0461655,26.2742443 68.7955704,26.8853817 69.1434021,27.0413227   69.9730225,27.0012569 70.1827545,27.0548382 70.2764282,27.175272 70.3343201,27.3357964 70.4057846,27.6792564   70.5129242,27.7996922 71.3736725,27.7596455 71.5119934,27.8532734 71.543129,28.0405598 71.5834045,29.2225666   71.7839966,29.4723911 72.0205383,29.6864967 72.7297211,30.1371098 72.8412323,30.2573662 73.010643,30.5250435   73.1892395,31.0024529 73.2293396,31.7873745 73.2025375,32.2245064 73.0999451,32.5947647 72.9394531,32.8892593   72.8412323,33.0229759 72.5914001,33.2192039 72.2925873,33.3797379 71.3915634,33.6073074 71.1238785,33.790287   70.9143295,34.0444374 70.7135162,34.5351524 70.5530243,34.8294144 70.3432922,35.1060104 70.1827545,35.4004402   70.1112976,35.4583931 70.0756149,35.6546555 70.1023788,35.837574 70.2228088,36.1453476 70.4236298,36.3951378   70.6556168,36.8501129 70.7446899,37.1801147 70.9322128,38.2686615 70.9544296,38.6700668 70.9322128,39.6915703   71.0123672,39.8520508 71.1016693,39.9590263 71.7306519,40.0661583 72.0516739,40.2356224 72.2703705,40.4497299   72.8011322,41.0741577 72.9795151,41.1544914 73.6396713,41.2348709 73.8002014,41.3106461 74.0010147,41.5380554   74.0678787,41.8725929 74.0813522,42.0690346 73.8805389,42.5595169 73.9384766,42.7202721 74.2105255,42.9343796   74.3802032,43.18853 74.5986404,43.8218918 74.9599915,44.3705368 75.0804214,44.6739426 75.2186966,45.3787498   75.3302155,45.4991875 75.5978851,45.6864853 76.1286926,45.8959961 76.7176132,46.2172318 76.927124,46.2440491   77.1144257,46.2172318 77.4933929,45.9095116 77.6628418,45.8559303 77.8549576,45.8158379 78.0466309,45.8959961   78.9657211,46.5739975 79.1038208,46.8817711 79.1752777,47.2387505 79.2466888,47.3456688 79.3712769,47.4929123   79.554245,47.5464706 79.7642059,47.5464706 79.9336548,47.4796181 80.4419861,47.0514526 80.8031082,46.5472336   81.2626266,46.0967979 81.5392761,45.922802 81.8781357,45.7890778 82.5385208,45.8023682 82.7079773,45.7489777   82.8996429,45.4588623 83.0111618,45.1378365 83.1004639,44.9816666 83.2968979,44.7407951 83.519928,44.7275124   83.6802368,44.8076706 83.9659805,44.9949684 84.3271103,45.2983627 84.3584595,45.485672 84.3092194,45.8959961   84.3362503,46.1100998 84.3985138,46.2573433 84.4878159,46.3644829 84.6659698,46.4134979 84.8759308,46.4134979   85.1077042,46.1904678 85.2863007,45.6729698 85.4958115,45.4187965 85.9148331,45.1646461 86.1335297,45.1511307   86.7133102,45.3251266 86.9541779,45.5392303 86.9855347,45.7132912 86.8653259,46.0567513 86.8561783,46.2708588   86.9633255,46.3866997 87.1462936,46.440258 87.364502,46.440258 88.1050415,46.2930603 88.3150024,46.3466415   88.7432098,46.587513 88.9840775,46.6143188 89.1713791,46.5739975 89.2915878,46.4803696 89.4832611,46.1636734   89.742012,45.5392303 89.8491516,45.4187965 90.0321274,45.4009552 90.1928864,45.3116646 90.5317535,45.4588623   90.8305664,45.8023682 90.9778061,46.1236153 91.0091629,46.2841072 90.9020157,46.8684692 90.8305664,47.4929123   90.8305664,47.6891289 90.8706589,47.8764725 90.9913177,48.1844254 91.0893173,48.3270645 91.5083847,48.7953415   91.6377411,48.8846321 92.0480652,49.3932304 92.1108246,49.5225868 92.1195221,49.723175 91.9770966,50.044426   91.9901199,50.2406883 92.0886078,50.4011765 92.1774673,50.4815559 92.3381805,50.5484085 92.5882339,50.7581558   92.6997452,50.8785896 92.85569,51.1728516 93.0386124,51.6502609 93.1052551,52.0070038 93.08741,52.2211113   93.1279144,52.5913887 93.2080688,52.7518806 93.3461685,52.8322563 93.5382843,53.0864182 93.5961838,53.2425728   93.6676407,53.6039314 93.7656403,53.777935 93.7835236,53.9696045 94.4255753,54.4914436 94.4168777,54.4914436   94.1402817,54.5940361 94.4125061,54.6654816 94.6934738,54.9911003 94.7021713,55.1651154 94.5775909,55.3835487   93.2660141,55.3835487 92.8421707,55.4593773 92.3203354,55.4059868 90.6968384,55.5843506 90.799202,55.2587891   90.2865067,55.0758171 90.1214294,55.6913261 89.9293137,55.8966866 88.6360245,56.0972786 88.5153656,56.1731071   88.0335846,56.1419182 87.8511047,56.271328 87.2307739,56.9761391 86.9141235,57.0562477 86.1335297,57.4890556   85.7188339,57.6541367 85.6295319,57.7521362 85.460083,57.8503571 83.3948975,59.0859261 83.2698669,59.3357582   82.3956528,59.7861748 82.2484055,59.9691086 81.9317093,60.071701 81.4769592,60.0849953 81.2983551,60.1697006   81.3205719,60.2901344 80.361824,60.8387794 80.1832275,60.9235306 79.1709061,61.3741226 77.9216003,61.7354813   75.5486832,63.0156975 74.3623199,63.4260216 71.7082138,64.3492661 71.3157349,64.5500793 70.8562088,64.9247055   70.6065979,65.2503281 70.3389206,65.1923981 70.2095642,65.0584412 70.1470261,64.8177567 70.1738358,64.5633698   70.2942734,64.2823944 70.3835678,64.1976929 70.8429184,63.756012 70.9944839,63.5954704 71.083786,63.354599   71.0970764,63.1494179 71.1774597,63.1805611 72.1943665,63.1762352 72.7654037,63.1047745 73.5281601,63.1226196   73.6218262,63.069046 73.6128616,62.837101 74.1525879,62.2351074 73.9698334,61.9585075 73.7912369,62.0967865   73.7111282,62.0074844 74.0589142,61.6551018 73.8759842,61.3340797 73.9027481,61.2225647 74.041069,61.2136421   74.1883163,61.008461 74.0142593,60.8209381 74.5228577,60.5355988 74.6611328,60.6782799 74.6075592,61.0173798   75.2052231,60.8298607 75.5532379,60.4641762 75.7895584,60.3169441 76.0840454,60.7451553 76.3917694,60.5131607   76.5655975,60.5266762 76.3427963,60.2367859 76.1286926,60.4552536 75.8387985,60.2947311 76.075119,60.1697006   76.2312851,59.8083992 76.1554489,59.5899124 76.075119,59.5095406 75.7004776,59.4916992 75.4149628,59.224247   75.2723083,58.8494263 75.1518326,58.8272133 74.977829,58.3543434 74.3891296,58.3321381 74.1793976,58.4122963   74.3533936,58.5595284 73.9609146,58.8583488 73.4255676,58.6978035 73.2604752,58.8272133 73.5817261,59.0055809   73.5549622,59.1571579 73.5192337,59.3535995 73.7468109,59.5006218 73.6843185,59.6345711 73.6664734,59.6657066   73.6128616,59.7639694 73.5237808,59.7818108 73.5059433,59.7504539 73.4523697,59.6300201 73.3988037,59.523056   73.3630676,59.4426765 73.1043167,59.5899124 72.9527512,59.5988312 72.8634491,59.3980293 72.6182098,59.3937035   72.3326416,59.5988312 72.0338287,59.4159164 71.7661514,59.1527786 71.565567,59.3535995 71.619133,59.5319786   71.3068085,59.9959183 71.1195145,60.1563988 70.9722748,60.5935326 71.0123672,60.7139664 70.9633484,60.9102287   71.0792313,61.0350456 71.0615692,61.284832 71.1641617,61.3652039 70.9544296,61.5614319 70.8607559,61.3874245   70.8518372,61.3741226 70.8117752,61.2937546 70.7982635,61.2669907 70.7625351,61.2001266 70.6867523,61.0574799   70.6244354,60.9369926 70.4369125,60.9548874 70.3835678,60.780838 70.5083771,60.5667686 70.5172958,60.5534859   70.6912994,60.5667686 70.8429184,60.4598122 70.7625351,60.3927269 70.4236298,60.4284554 69.99086,61.0931664   69.8392944,61.1957588 69.7098923,61.0886154 69.736702,60.8344536 69.9196701,60.5624046 69.7234116,60.3748856   69.4690247,60.2189445 69.2237854,60.8923531 68.9783249,60.8254776 68.8356781,61.0306625 68.6705856,61.0796928   68.6527023,61.3205643 68.6572952,61.3205643 68.6840591,61.3429985 68.8402252,61.4677963 69.1344833,61.3072701   69.3442154,61.3340797 69.5626984,61.5213776 69.6787567,61.512455 69.8349228,61.3384056 70.0087509,61.4009399   70.0756149,61.5213776 69.8482208,61.7576942 70.0534058,62.1769409 70.1694641,62.1769409 70.4548035,61.8334808   70.539505,61.8245583 70.6155167,62.132515 70.8696823,62.2126694 70.9722748,62.431324 70.8786392,62.6722374   70.9855576,62.8817482 71.0748672,63.0601273 70.8786392,63.0335426 70.7313995,62.748024 70.7446899,62.5696449   70.535141,62.631916 70.3968658,62.4446182 70.2585373,62.4624939 70.1023788,62.6900787 69.7767563,62.4981804   69.6029739,62.5607262 69.4200058,62.2973747 69.2148666,62.1414337 68.9428177,62.2215919 68.8312988,62.0031586   69.2505951,61.9674301 69.5269699,62.1011543 69.6831284,62.0386658 69.669838,61.9495888 69.4378891,61.8380737   69.411087,61.5971527 69.1033478,61.6596985 68.8489685,61.5525093 68.4385986,61.5703888 68.3584824,61.5035324   68.1622238,61.3473625 67.9882202,61.3116417 67.7516785,61.5035324 67.54216,62.2037468 67.2565994,62.3956413   67.1183243,62.3599014 67.0157318,62.150177 66.9220581,62.1457977 66.8240585,62.4847183 66.5875168,62.6275864   66.4849777,62.4936371 66.3422775,62.631916 66.1904907,62.5740089 66.0256271,62.7569427 65.896225,62.7569427   65.7043839,63.0156975 65.4769821,62.913105 65.4723892,62.913105 65.4234085,62.9710503 65.3698425,63.0246201   65.4366989,63.1315727 65.2717972,63.3055878 65.3251877,63.4482384 65.9274063,63.9210892 66.1325455,64.0861816   66.2486572,64.148674 66.378006,64.215538 66.5117416,64.2867737 66.5385437,64.3002853 66.7169266,64.2913666   66.9355774,64.2823944 67.0603867,64.478653 67.0825958,64.4919586 67.4082108,64.4340134 67.5643768,64.5812454   67.7651901,64.7774734 68.0104294,64.8131943 68.1888046,65.2324524 68.1532974,65.3306732 67.9346466,65.3217468   67.8409805,65.0987244 67.5868149,64.9736938 67.3905487,64.969368 67.1318359,65.1388168 66.7436829,65.2013168   66.6589813,65.152298 66.5474625,65.0852051 66.4760056,65.0407791 66.1994095,65.0629883 66.1057816,64.969368   66.1549835,64.7953186 66.096817,64.741745 66.2529831,64.5812454 66.0700531,64.3982849 65.7000046,64.0371628   65.6642761,64.0014801 65.5974121,63.934391 65.5303268,63.8988838 65.2761688,63.756012 65.111084,63.5776291   64.9594727,63.7381287 64.8926086,64.1308289 64.5670319,64.1173172 64.4509277,63.9835892 64.3796921,64.2109909   64.5134201,64.4118042 64.6027145,64.8264999 64.5491486,65.1655807 64.3707657,65.5983505 64.3304901,65.6874237   64.0273056,65.8035355 63.7461166,65.7588806 63.5856285,65.8435822 63.3626022,65.7632523 63.1484985,65.9239655   62.6845551,65.821373 62.497261,65.9908295 62.4482803,66.0977936 62.6176949,66.4547729 62.5240631,66.6152496   62.4794159,66.9766083 62.5820084,67.0970459 62.6042213,67.2843323 62.528389,67.32444 61.9976311,67.2664871   61.6720123,67.2396927 61.5025597,67.0391006 61.4311447,67.1682739 61.3553619,67.2887115 61.8996353,67.7125397   61.9174767,67.8462753 61.8950386,67.8597946 61.6855278,67.9802246 61.6051521,68.0248795 61.3688316,68.0024414   61.1859055,67.8998489 61.0342903,67.9534073 60.9404411,67.8730392 60.9227753,67.6010284 60.7352562,67.4762344   60.6729889,67.2039642 60.485466,67.0480194 60.3070908,67.2621231 60.4542885,67.694664 60.7219658,67.7572021   60.6908302,67.8954773 60.4632568,67.8597946 60.3695831,68.042717 60.4142303,68.109581 60.7398491,68.1006622   60.7845001,68.2879486 60.9940109,68.3816223 61.2126656,68.2389832 61.0697975,68.5645599 61.261692,68.9169846   61.1680222,69.0596237 60.5657997,69.4120026 60.6058998,69.4923935 60.6058998,69.4967575 60.8467712,69.434227   61.0565071,69.3808823 61.1859055,69.4477463 60.8960152,69.6215668 60.4275246,69.66185 60.2713623,69.9473648   60.3249321,70.0454025 60.6729889,70.1479568 61.0922318,70.1747589 61.2305527,70.3844986 60.8735771,70.8438339   60.9360733,71.2141113 60.766613,71.6959 60.8023415,71.81633 60.9850922,71.8607559 60.8914185,72.066124 61.0075264,72.1551971   61.2884979,72.0526428 61.3331451,72.1730728 61.1859055,72.5744858 60.9271507,72.7127609 60.8692055,72.8242798   61.0876846,72.9046555 61.1101189,72.9894028 60.8646545,73.1052475 60.8646545,73.1141663 60.8467712,73.3149719   60.8513641,73.3149719 61.3285522,73.2346497 61.3599091,73.4308624 61.5694199,73.4576721 62.0244408,73.1899948   62.5151443,73.1098404 62.6087723,73.0205383 62.5909309,72.7707062 62.5776367,72.5254593 62.57304,72.4629745   63.438385,72.2220612 63.4697418,72.3203278 63.1842232,72.6681137 62.9968796,72.7439423 62.88974,72.9493027   63.0770378,72.9758911 63.3357925,73.5691833 63.4963264,73.5826569 63.483036,73.8546982 63.6524887,74.0019455   63.4651489,74.1936188 63.3179512,74.0419998 62.9879608,74.0910263 62.9254684,74.5059357 62.9879608,74.7067566   63.0236893,74.8225937 63.2778511,74.956543 63.3447113,75.1438446 63.2822189,75.3534012 63.2867737,75.3534012   63.4429321,75.4337234 63.5766602,75.7861633 63.5320091,75.9155121 63.2288742,75.8887558 63.2645569,75.9867477   63.4608192,76.0671234 63.7417908,76.4016571 63.786438,76.575676 63.8086548,76.6647491 64.4019089,76.7361984   64.6249313,76.696106 64.8747635,76.7629623 64.9015732,76.7673416 64.9194183,76.7050323 64.9638443,76.5399399   64.8434067,76.1071854 64.6114578,75.8129272 64.5356293,75.7103729 64.6650314,75.5363159 64.8926086,75.70578   64.9995728,75.2553558 65.0084915,75.2375183 65.1825027,75.2150803 65.2493591,75.3401108 65.177948,75.5942688   65.1468124,75.7014084 65.1378479,75.7325821 65.1245956,75.772644 65.1513596,75.8129272 65.1825027,75.8619385   65.298378,75.8218918 65.4323349,75.3623199 65.6375122,75.0946426 65.6732025,75.0502167 65.6642761,74.8182678   65.659729,74.5237732 65.726593,74.5281525 65.9720535,74.5505905 66.029953,74.6174469 66.0746078,74.6710281   66.0567627,74.8182678 66.0345459,75.0813446 66.029953,75.1081619 65.9988174,75.429184 65.9763794,75.6879425   66.0700531,76.281189 66.3198471,76.7229156 66.1726456,76.9413528 66.0924911,76.9459457 65.8470306,76.9548645   65.5706558,76.8877792 65.294014,76.9502716 65.4634628,77.1018829 66.1014099,77.0929642 66.5117416,76.9235077   67.1318359,77.5435562 66.5696793,78.3688126 66.2797928,78.4846954 65.9720535,78.7434387 66.2129211,78.7924271   66.5161057,78.8192368 66.8820038,78.3420486 67.1496811,77.8380508 67.2298355,77.927124 66.9488678,78.6719894   66.8417282,79.4035645 66.8552017,79.9746475 67.1675262,80.8221054 67.0825958,81.0584183 66.6811905,80.7149582   66.2619476,80.7060394 66.1460648,80.8711166 66.1414642,81.1566391 65.8694611,81.5358353 66.391304,81.870369   66.596489,81.7765198 66.8952942,81.7677765 67.0647507,81.4197617 67.2165451,81.3038864 67.448494,81.29496   67.7830353,81.5179901 68.064003,81.9862442 68.1397858,82.2582626 68.0772934,82.56604 68.47892,82.9005737 68.2781067,83.0835037   68.4118347,83.3912811 68.9025345,83.8061981 68.8535156,83.9802017 68.9382706,84.2343597 68.6840591,84.4038239   68.4163895,84.2700958 68.2423782,84.439537 67.8899994,85.2468948 67.9836197,85.3985214 68.1576767,85.3717117   68.6483765,84.9838257 68.9292984,84.9213333 69.1166458,84.7472839 68.9918365,84.6847916 68.9829178,84.5510559   69.2370758,84.6090088 69.4378891,84.3502502 69.1747665,84.0603561 69.1301117,83.9177094 69.415451,83.6722488   69.348587,83.5252304 69.094429,83.3690643 68.9739532,83.1146851 68.7642136,83.1371155 68.6840591,83.0791779   68.679512,82.5749588 68.862442,82.7624817 69.1033478,82.8561478 69.5358887,83.2976074 69.7902756,83.4137192   70.2452469,83.7926865 70.285347,84.2655029 70.535141,84.4127426 70.6019974,84.7072296 70.7938919,84.8766708   70.9322128,84.8230667 70.9365387,84.8230667 70.9633484,84.6046371 70.9722748,84.5288467 70.7359467,84.2969055   70.7270279,84.171875 70.8207016,84.1317673 71.083786,84.4262543 71.2488632,84.6090088 71.2800522,84.6847916   71.4718933,85.1754913 71.8018799,85.4074402 71.4897766,85.6126251 71.3469086,85.6215439 71.3111801,85.7062531   71.4137726,85.7509003 71.6145859,85.7062531 71.7750778,85.7062531 72.5556717,86.0364685 72.9527512,85.9427948   73.0777283,86.0453873 73.0509644,86.2862549 73.2293396,86.5047302 73.4880981,86.4467773 73.7289658,86.5940323   73.9831314,86.5761337 74.0545883,86.6565247 74.2865372,86.9239807 74.2150803,87.05793 74.2597275,87.1648483   74.4827499,87.0979843 74.5539856,87.5351181 74.4782028,87.7448502 74.3756104,87.7849426 74.2150803,87.6198654   74.0635071,87.727005 73.8315582,87.7670593 73.7733917,87.8742523 73.8938293,88.0391083 73.764473,88.2889481   73.8315582,88.4540176 74.041069,88.315712 74.1303711,88.3871689 74.2508087,88.3425064 74.2909088,88.4540176   74.1303711,88.6145172 73.9519958,88.6548462 73.577179,89.0962982 73.4745865,89.413002 73.3229752,89.4844055   73.291832,89.3461304 73.1892395,89.3193283 73.1132355,88.9580231 72.8011322,89.1498642 72.783287,89.3683472   72.9037247,89.8322449 72.9884338,89.6227341 73.0777283,89.5913773 73.1178284,89.7921829 73.1445923,89.9437561   73.3229752,90.0463486 73.3007584,90.1892242 72.9080963,90.148941 72.622757,90.5459747 72.4352341,90.5860748   72.0874023,90.9741898 71.9312363,90.9831085 71.9133987,91.1571045 72.9348602,90.4880219 73.2471848,90.5684128   72.9616699,90.8715973 72.9927979,91.0233841 72.8011322,91.3712082 72.5914001,92.1028366 72.3908081,92.4149399   72.1499405,92.4552155 72.1185379,92.6736526 72.3372345,92.8520279 71.8732986,93.5032654 71.3915634,94.0743484   71.2889709,93.8556442 70.9811935,93.7129898 70.96772,93.704071 70.8117752,93.4721222 70.9097748,93.2669373   70.8117752,92.9145508 70.7181091,92.8834305 70.6645355,92.7494812 70.3879395,92.6558075 70.9232941,91.7682953   70.950058,91.0233841 70.8296204,90.6263504 70.5083771,90.4033279 69.9775696,90.4701843 69.7724304,90.7957993   69.6295624,91.232933 69.2191925,91.5541916 69.094429,91.8573685 69.2906494,92.6289978 69.3843231,92.6379623   69.4914627,92.3881302 69.8839417,92.4730606 69.9954529,92.7048264 70.1427002,92.7093658 70.2228088,92.8966751   70.1248093,93.2312164 69.9730225,93.3384018 69.8349228,93.2401733 69.7188644,93.3338089 69.5672455,93.3115921   69.2370758,93.7308884 69.2684326,93.971756 69.7234116,94.1723404 69.8170776,94.2126236 70.1694641,93.9761276   70.3389206,94.1233215 70.4057846,94.2973709 70.3343201,94.453537 70.1023788,94.4578629 70.0087509,94.5336914   70.0845337,94.654129 69.8081589,94.7924042 69.9640961,95.046608 69.8793488,95.2430496 69.7767563,95.1315384   69.6295624,95.1404572 69.7055664,95.3811493 69.598381,95.4704361 69.2327042,95.3946075 69.1076736,95.2430496   69.0096817,95.3900681 69.2237854,95.6087189 69.0543289,95.6666641 68.746376,95.6533737 68.6705856,95.6488266   68.2469711,95.4793625 68.3360519,95.1404572 68.2201614,95.1047287 68.1755142,94.8906708 68.1576767,94.7969971   68.1040573,94.8325043 68.0417862,94.8727798 67.8276825,94.6094742 67.5510864,94.2660141 67.4931412,94.2527161   67.4260559,94.1679611 67.448494,93.5300751 67.4171371,93.3473206 67.2655716,93.0528336 67.1675262,92.945694   66.8998489,92.7451096 66.7169266,92.6960831 66.2486572,92.6693192 66.0700531,92.6157532 65.6507645,92.3480682   65.5303268,92.0313644 65.4188156,91.500618 65.3876877,90.9920273 65.2493591,90.2872162 65.2583313,90.0641937   65.320816,89.8904114 65.6775742,89.3461304 65.6910858,89.1720886 65.5214081,88.8957138 65.4188156,88.788559   65.0799484,88.6548462 64.5088654,88.7484665 64.3483353,88.6816025 64.1788788,88.7350006 64.1298981,88.8554306   63.9826584,88.9358139 63.7729225,88.9490585 63.6123924,88.9983063 63.3804436,89.2391739 63.0548248,89.3060379   62.550827,89.0919724 62.1537971,89.1453247 61.7835274,89.1187363 61.6230354,89.038353 61.3732033,88.6816025   61.2126656,88.6012726 61.0253677,88.6413269 60.7441788,88.984787 60.1465569,88.9625778 59.8076439,88.8286285   59.6961288,88.7081909 59.6068344,88.5744553 59.5175323,88.2442932 59.3391533,87.7760162 59.0893631,87.5664749   58.7772598,87.4057617 58.5764503,87.1515961 58.380188,87.1247787 58.2061806,87.17836 57.996666,87.1515961   57.8405037,87.0757675 57.6799698,87.0490036 57.2783432,87.0890579 57.099968,87.0354919 56.8858604,86.7769547   56.0384064,86.8213882 55.3915367,86.7412262 54.553051,86.4110641 54.1648903,86.3173904 53.7634888,86.3710022   53.3041878,86.580513 52.4342957,86.8213882 51.8545151,86.6743622 51.6937561,86.5983582 51.3147888,86.5582962   49.1692276,86.9017563 48.7275467,86.8617096 48.1299248,86.7412262 47.9380302,86.7680359 47.7106323,86.99543   47.5588417,87.2987976 47.3092308,87.4993896 47.1709557,87.5797577 46.9790649,87.6198654 46.3724747,87.6734238   46.2030182,87.7224121 45.9443092,87.9097519 45.8327942,88.0437088 45.7835503,88.2177124 45.7613373,88.4272232   45.8013916,88.6145172 45.7746277,88.8018646 45.6631165,88.9358139 45.5025826,88.984787 44.9138794,89.0651703   44.5837097,89.1720886 44.1733437,89.4397659 43.2679863,89.8768921 42.7461052,90.2604523 42.5274506,90.5013275   42.1171265,90.7690048 41.6889153,91.0055466 41.3051758,91.0767746 41.0777779,91.0634842 40.9973984,90.9920273   40.7432404,90.9251556 40.6005898,90.8358612 40.4890747,90.7154312 40.430912,90.5684128 40.3507538,90.0108414   40.1499405,89.7564621 40.0205841,89.6627884 39.8289185,89.6138153 39.3917847,89.5737152 39.239994,89.4933777   38.9901581,89.279274 38.7091904,88.8957138 38.6022682,88.788559 38.4415131,88.7081909 38.0536232,88.6280365   36.2158394,88.5476532 35.484272,88.7217026 34.9846001,88.8957138 34.5475121,88.9089966 34.3647652,88.8554306   34.2754669,88.7217026 34.2354088,88.5476532 34.2486572,88.1105576 34.2976761,87.9365158 34.2843857,87.7359314   34.2443275,87.5664749 34.1371422,87.4460373 33.3476295,87.0623016 32.9061699,87.0089035 32.5581131,86.8884735   31.871191,86.4378586 31.5187645,86.3041382 31.3181744,86.2773361 31.0015221,86.1300812 30.8586063,86.0364685   30.6891975,85.7733383 30.6713085,85.7062531 30.6312523,85.6126251 30.3189259,85.2290573 29.8728733,84.9748993   29.2930927,84.84095 28.8424454,84.6000366 28.6240139,84.3502502 28.5614758,84.1897125 28.5704441,83.9756088   28.8202343,83.3154831 28.8202343,83.1817703 28.6819572,82.8872757 28.5214214,82.8069077 28.351965,82.8204193   28.2315311,82.9273376 28.075367,83.2351151 27.9013653,83.4581451 27.7140217,83.4984207 27.5535297,83.418045   27.1342392,82.9408569 27.0048847,82.8337097 26.6167736,82.7400436 26.3758621,82.7311172 26.0056381,82.8115005   26.1349926,82.6910629 26.1349926,82.6241989 26.0770493,82.4501419 25.9252567,81.3483124 26.0056381,81.2012939   26.1260719,81.0941391 26.3937473,80.9336166 26.6568298,80.7238846 26.7550507,80.6169586 26.7951527,80.4028549   26.6568298,80.3091888 26.0056381,80.2956696 25.6353664,80.1931152 25.1893139,79.9522095 24.9976444,79.8986359   24.7879124,79.9121552 24.6495895,79.9790115 24.2259731,80.4562073 24.0966167,80.5633392 23.9090958,80.6169586   23.5880299,80.4697189 23.2312737,80.3625336 22.8699703,80.4562073 22.7717514,80.5633392 22.7181339,80.7641602   22.6380234,80.9068527 22.330246,81.0673447 22.0893764,81.0673447 21.9286194,81.0137711 21.500452,80.7774429   20.9696503,80.1351776 20.8001957,79.8585739 20.7601376,79.6845322 20.791275,79.4883118 21.1301842,78.9174576   21.1436996,78.7033463 21.1035995,78.5426331 20.9920864,78.4088974 20.6708412,78.2795105 20.1533279,78.448967   19.7743607,78.529335 19.5646286,78.5426331 19.3727341,78.4892426 19.2433777,78.3956146 19.0650024,78.1457825   19.0338669,77.9449692 19.0650024,77.7443771 19.2122459,77.4542694 19.3058701,77.0796585 19.14538,76.5889664   18.9223537,76.3927002 18.2844086,76.0716782 17.178196,75.7682648 17.0355492,75.6746445 16.8482513,75.4202652   16.607338,74.9966431 16.5448475,74.836113 16.3174477,74.6352921 15.9962015,74.4658432 15.1487427,74.1445923   14.680253,73.7074661 14.131608,73.5602188 13.8596058,73.3864365 13.632206,73.1366043 13.3599796,72.5387573   12.9897108,72.0214691 12.4010115,71.4771957 12.320631,71.3567581 11.8033428,70.9420624 11.6114511,70.8884964   11.4019403,70.9017868 11.2636633,70.9553528 11.134263,71.0890884 10.9824715,71.3656845 10.8844738,71.4861145   10.6435623,71.7002258 10.4562626,71.7537842 10.3133917,71.6601639 10.1350145,71.3970413 10.1038799,71.2230377   9.8762589,70.5718002 9.7647457,70.464653 9.5238771,70.4513626 "></polygon></svg>